G04 EAGLE Gerber RS-274X export*
G75*
%MOMM*%
%FSLAX34Y34*%
%LPD*%
%IN*%
%IPPOS*%
%AMOC8*
5,1,8,0,0,1.08239X$1,22.5*%
G01*
%ADD10C,0.254000*%


D10*
X0Y0D02*
X300000Y0D01*
X300000Y1285000D01*
X0Y1285000D01*
X0Y0D01*
X121500Y781180D02*
X121424Y779541D01*
X121273Y777908D01*
X121046Y776283D01*
X120745Y774671D01*
X120369Y773074D01*
X119920Y771496D01*
X119399Y769941D01*
X118806Y768411D01*
X118144Y766911D01*
X117413Y765442D01*
X116615Y764009D01*
X115751Y762614D01*
X114824Y761261D01*
X113835Y759952D01*
X112787Y758690D01*
X111682Y757478D01*
X110522Y756318D01*
X109310Y755213D01*
X108048Y754165D01*
X106739Y753176D01*
X105386Y752249D01*
X103991Y751386D01*
X102558Y750587D01*
X101090Y749856D01*
X99589Y749194D01*
X98059Y748601D01*
X96504Y748080D01*
X94926Y747631D01*
X93329Y747255D01*
X91717Y746954D01*
X90092Y746727D01*
X88459Y746576D01*
X86820Y746500D01*
X85180Y746500D01*
X83541Y746576D01*
X81908Y746727D01*
X80283Y746954D01*
X78671Y747255D01*
X77074Y747631D01*
X75496Y748080D01*
X73941Y748601D01*
X72411Y749194D01*
X70911Y749856D01*
X69442Y750587D01*
X68009Y751386D01*
X66614Y752249D01*
X65261Y753176D01*
X63952Y754165D01*
X62690Y755213D01*
X61478Y756318D01*
X60318Y757478D01*
X59213Y758690D01*
X58165Y759952D01*
X57176Y761261D01*
X56249Y762614D01*
X55386Y764009D01*
X54587Y765442D01*
X53856Y766911D01*
X53194Y768411D01*
X52601Y769941D01*
X52080Y771496D01*
X51631Y773074D01*
X51255Y774671D01*
X50954Y776283D01*
X50727Y777908D01*
X50576Y779541D01*
X50500Y781180D01*
X50500Y782820D01*
X50576Y784459D01*
X50727Y786092D01*
X50954Y787717D01*
X51255Y789329D01*
X51631Y790926D01*
X52080Y792504D01*
X52601Y794059D01*
X53194Y795589D01*
X53856Y797090D01*
X54587Y798558D01*
X55386Y799991D01*
X56249Y801386D01*
X57176Y802739D01*
X58165Y804048D01*
X59213Y805310D01*
X60318Y806522D01*
X61478Y807682D01*
X62690Y808787D01*
X63952Y809835D01*
X65261Y810824D01*
X66614Y811751D01*
X68009Y812615D01*
X69442Y813413D01*
X70911Y814144D01*
X72411Y814806D01*
X73941Y815399D01*
X75496Y815920D01*
X77074Y816369D01*
X78671Y816745D01*
X80283Y817046D01*
X81908Y817273D01*
X83541Y817424D01*
X85180Y817500D01*
X86820Y817500D01*
X88459Y817424D01*
X90092Y817273D01*
X91717Y817046D01*
X93329Y816745D01*
X94926Y816369D01*
X96504Y815920D01*
X98059Y815399D01*
X99589Y814806D01*
X101090Y814144D01*
X102558Y813413D01*
X103991Y812615D01*
X105386Y811751D01*
X106739Y810824D01*
X108048Y809835D01*
X109310Y808787D01*
X110522Y807682D01*
X111682Y806522D01*
X112787Y805310D01*
X113835Y804048D01*
X114824Y802739D01*
X115751Y801386D01*
X116615Y799991D01*
X117413Y798558D01*
X118144Y797090D01*
X118806Y795589D01*
X119399Y794059D01*
X119920Y792504D01*
X120369Y790926D01*
X120745Y789329D01*
X121046Y787717D01*
X121273Y786092D01*
X121424Y784459D01*
X121500Y782820D01*
X121500Y781180D01*
X248500Y595180D02*
X248424Y593541D01*
X248273Y591908D01*
X248046Y590283D01*
X247745Y588671D01*
X247369Y587074D01*
X246920Y585496D01*
X246399Y583941D01*
X245806Y582411D01*
X245144Y580911D01*
X244413Y579442D01*
X243615Y578009D01*
X242751Y576614D01*
X241824Y575261D01*
X240835Y573952D01*
X239787Y572690D01*
X238682Y571478D01*
X237522Y570318D01*
X236310Y569213D01*
X235048Y568165D01*
X233739Y567176D01*
X232386Y566249D01*
X230991Y565386D01*
X229558Y564587D01*
X228090Y563856D01*
X226589Y563194D01*
X225059Y562601D01*
X223504Y562080D01*
X221926Y561631D01*
X220329Y561255D01*
X218717Y560954D01*
X217092Y560727D01*
X215459Y560576D01*
X213820Y560500D01*
X212180Y560500D01*
X210541Y560576D01*
X208908Y560727D01*
X207283Y560954D01*
X205671Y561255D01*
X204074Y561631D01*
X202496Y562080D01*
X200941Y562601D01*
X199411Y563194D01*
X197911Y563856D01*
X196442Y564587D01*
X195009Y565386D01*
X193614Y566249D01*
X192261Y567176D01*
X190952Y568165D01*
X189690Y569213D01*
X188478Y570318D01*
X187318Y571478D01*
X186213Y572690D01*
X185165Y573952D01*
X184176Y575261D01*
X183249Y576614D01*
X182386Y578009D01*
X181587Y579442D01*
X180856Y580911D01*
X180194Y582411D01*
X179601Y583941D01*
X179080Y585496D01*
X178631Y587074D01*
X178255Y588671D01*
X177954Y590283D01*
X177727Y591908D01*
X177576Y593541D01*
X177500Y595180D01*
X177500Y596820D01*
X177576Y598459D01*
X177727Y600092D01*
X177954Y601717D01*
X178255Y603329D01*
X178631Y604926D01*
X179080Y606504D01*
X179601Y608059D01*
X180194Y609589D01*
X180856Y611090D01*
X181587Y612558D01*
X182386Y613991D01*
X183249Y615386D01*
X184176Y616739D01*
X185165Y618048D01*
X186213Y619310D01*
X187318Y620522D01*
X188478Y621682D01*
X189690Y622787D01*
X190952Y623835D01*
X192261Y624824D01*
X193614Y625751D01*
X195009Y626615D01*
X196442Y627413D01*
X197911Y628144D01*
X199411Y628806D01*
X200941Y629399D01*
X202496Y629920D01*
X204074Y630369D01*
X205671Y630745D01*
X207283Y631046D01*
X208908Y631273D01*
X210541Y631424D01*
X212180Y631500D01*
X213820Y631500D01*
X215459Y631424D01*
X217092Y631273D01*
X218717Y631046D01*
X220329Y630745D01*
X221926Y630369D01*
X223504Y629920D01*
X225059Y629399D01*
X226589Y628806D01*
X228090Y628144D01*
X229558Y627413D01*
X230991Y626615D01*
X232386Y625751D01*
X233739Y624824D01*
X235048Y623835D01*
X236310Y622787D01*
X237522Y621682D01*
X238682Y620522D01*
X239787Y619310D01*
X240835Y618048D01*
X241824Y616739D01*
X242751Y615386D01*
X243615Y613991D01*
X244413Y612558D01*
X245144Y611090D01*
X245806Y609589D01*
X246399Y608059D01*
X246920Y606504D01*
X247369Y604926D01*
X247745Y603329D01*
X248046Y601717D01*
X248273Y600092D01*
X248424Y598459D01*
X248500Y596820D01*
X248500Y595180D01*
X104500Y181251D02*
X104427Y179756D01*
X104280Y178265D01*
X104060Y176784D01*
X103768Y175315D01*
X103404Y173863D01*
X102969Y172430D01*
X102465Y171020D01*
X101892Y169636D01*
X101252Y168283D01*
X100546Y166962D01*
X99776Y165678D01*
X98944Y164433D01*
X98052Y163230D01*
X97102Y162072D01*
X96096Y160963D01*
X95037Y159904D01*
X93928Y158898D01*
X92770Y157948D01*
X91567Y157056D01*
X90322Y156224D01*
X89038Y155454D01*
X87717Y154748D01*
X86364Y154108D01*
X84980Y153535D01*
X83570Y153031D01*
X82137Y152596D01*
X80685Y152232D01*
X79216Y151940D01*
X77735Y151720D01*
X76244Y151573D01*
X74749Y151500D01*
X73251Y151500D01*
X71756Y151573D01*
X70265Y151720D01*
X68784Y151940D01*
X67315Y152232D01*
X65863Y152596D01*
X64430Y153031D01*
X63020Y153535D01*
X61636Y154108D01*
X60283Y154748D01*
X58962Y155454D01*
X57678Y156224D01*
X56433Y157056D01*
X55230Y157948D01*
X54072Y158898D01*
X52963Y159904D01*
X51904Y160963D01*
X50898Y162072D01*
X49948Y163230D01*
X49056Y164433D01*
X48224Y165678D01*
X47454Y166962D01*
X46748Y168283D01*
X46108Y169636D01*
X45535Y171020D01*
X45031Y172430D01*
X44596Y173863D01*
X44232Y175315D01*
X43940Y176784D01*
X43720Y178265D01*
X43573Y179756D01*
X43500Y181251D01*
X43500Y182749D01*
X43573Y184244D01*
X43720Y185735D01*
X43940Y187216D01*
X44232Y188685D01*
X44596Y190137D01*
X45031Y191570D01*
X45535Y192980D01*
X46108Y194364D01*
X46748Y195717D01*
X47454Y197038D01*
X48224Y198322D01*
X49056Y199567D01*
X49948Y200770D01*
X50898Y201928D01*
X51904Y203037D01*
X52963Y204096D01*
X54072Y205102D01*
X55230Y206052D01*
X56433Y206944D01*
X57678Y207776D01*
X58962Y208546D01*
X60283Y209252D01*
X61636Y209892D01*
X63020Y210465D01*
X64430Y210969D01*
X65863Y211404D01*
X67315Y211768D01*
X68784Y212060D01*
X70265Y212280D01*
X71756Y212427D01*
X73251Y212500D01*
X74749Y212500D01*
X76244Y212427D01*
X77735Y212280D01*
X79216Y212060D01*
X80685Y211768D01*
X82137Y211404D01*
X83570Y210969D01*
X84980Y210465D01*
X86364Y209892D01*
X87717Y209252D01*
X89038Y208546D01*
X90322Y207776D01*
X91567Y206944D01*
X92770Y206052D01*
X93928Y205102D01*
X95037Y204096D01*
X96096Y203037D01*
X97102Y201928D01*
X98052Y200770D01*
X98944Y199567D01*
X99776Y198322D01*
X100546Y197038D01*
X101252Y195717D01*
X101892Y194364D01*
X102465Y192980D01*
X102969Y191570D01*
X103404Y190137D01*
X103768Y188685D01*
X104060Y187216D01*
X104280Y185735D01*
X104427Y184244D01*
X104500Y182749D01*
X104500Y181251D01*
X256500Y181251D02*
X256427Y179756D01*
X256280Y178265D01*
X256060Y176784D01*
X255768Y175315D01*
X255404Y173863D01*
X254969Y172430D01*
X254465Y171020D01*
X253892Y169636D01*
X253252Y168283D01*
X252546Y166962D01*
X251776Y165678D01*
X250944Y164433D01*
X250052Y163230D01*
X249102Y162072D01*
X248096Y160963D01*
X247037Y159904D01*
X245928Y158898D01*
X244770Y157948D01*
X243567Y157056D01*
X242322Y156224D01*
X241038Y155454D01*
X239717Y154748D01*
X238364Y154108D01*
X236980Y153535D01*
X235570Y153031D01*
X234137Y152596D01*
X232685Y152232D01*
X231216Y151940D01*
X229735Y151720D01*
X228244Y151573D01*
X226749Y151500D01*
X225251Y151500D01*
X223756Y151573D01*
X222265Y151720D01*
X220784Y151940D01*
X219315Y152232D01*
X217863Y152596D01*
X216430Y153031D01*
X215020Y153535D01*
X213636Y154108D01*
X212283Y154748D01*
X210962Y155454D01*
X209678Y156224D01*
X208433Y157056D01*
X207230Y157948D01*
X206072Y158898D01*
X204963Y159904D01*
X203904Y160963D01*
X202898Y162072D01*
X201948Y163230D01*
X201056Y164433D01*
X200224Y165678D01*
X199454Y166962D01*
X198748Y168283D01*
X198108Y169636D01*
X197535Y171020D01*
X197031Y172430D01*
X196596Y173863D01*
X196232Y175315D01*
X195940Y176784D01*
X195720Y178265D01*
X195573Y179756D01*
X195500Y181251D01*
X195500Y182749D01*
X195573Y184244D01*
X195720Y185735D01*
X195940Y187216D01*
X196232Y188685D01*
X196596Y190137D01*
X197031Y191570D01*
X197535Y192980D01*
X198108Y194364D01*
X198748Y195717D01*
X199454Y197038D01*
X200224Y198322D01*
X201056Y199567D01*
X201948Y200770D01*
X202898Y201928D01*
X203904Y203037D01*
X204963Y204096D01*
X206072Y205102D01*
X207230Y206052D01*
X208433Y206944D01*
X209678Y207776D01*
X210962Y208546D01*
X212283Y209252D01*
X213636Y209892D01*
X215020Y210465D01*
X216430Y210969D01*
X217863Y211404D01*
X219315Y211768D01*
X220784Y212060D01*
X222265Y212280D01*
X223756Y212427D01*
X225251Y212500D01*
X226749Y212500D01*
X228244Y212427D01*
X229735Y212280D01*
X231216Y212060D01*
X232685Y211768D01*
X234137Y211404D01*
X235570Y210969D01*
X236980Y210465D01*
X238364Y209892D01*
X239717Y209252D01*
X241038Y208546D01*
X242322Y207776D01*
X243567Y206944D01*
X244770Y206052D01*
X245928Y205102D01*
X247037Y204096D01*
X248096Y203037D01*
X249102Y201928D01*
X250052Y200770D01*
X250944Y199567D01*
X251776Y198322D01*
X252546Y197038D01*
X253252Y195717D01*
X253892Y194364D01*
X254465Y192980D01*
X254969Y191570D01*
X255404Y190137D01*
X255768Y188685D01*
X256060Y187216D01*
X256280Y185735D01*
X256427Y184244D01*
X256500Y182749D01*
X256500Y181251D01*
X91000Y29476D02*
X90932Y28431D01*
X90795Y27392D01*
X90590Y26365D01*
X90319Y25353D01*
X89983Y24361D01*
X89582Y23393D01*
X89118Y22454D01*
X88595Y21546D01*
X88013Y20675D01*
X87375Y19844D01*
X86684Y19057D01*
X85943Y18316D01*
X85156Y17625D01*
X84325Y16988D01*
X83454Y16406D01*
X82546Y15882D01*
X81607Y15418D01*
X80639Y15017D01*
X79647Y14681D01*
X78635Y14410D01*
X77608Y14205D01*
X76569Y14069D01*
X75524Y14000D01*
X74476Y14000D01*
X73431Y14069D01*
X72392Y14205D01*
X71365Y14410D01*
X70353Y14681D01*
X69361Y15017D01*
X68393Y15418D01*
X67454Y15882D01*
X66546Y16406D01*
X65675Y16988D01*
X64844Y17625D01*
X64057Y18316D01*
X63316Y19057D01*
X62625Y19844D01*
X61988Y20675D01*
X61406Y21546D01*
X60882Y22454D01*
X60418Y23393D01*
X60017Y24361D01*
X59681Y25353D01*
X59410Y26365D01*
X59205Y27392D01*
X59069Y28431D01*
X59000Y29476D01*
X59000Y30524D01*
X59069Y31569D01*
X59205Y32608D01*
X59410Y33635D01*
X59681Y34647D01*
X60017Y35639D01*
X60418Y36607D01*
X60882Y37546D01*
X61406Y38454D01*
X61988Y39325D01*
X62625Y40156D01*
X63316Y40943D01*
X64057Y41684D01*
X64844Y42375D01*
X65675Y43013D01*
X66546Y43595D01*
X67454Y44118D01*
X68393Y44582D01*
X69361Y44983D01*
X70353Y45319D01*
X71365Y45590D01*
X72392Y45795D01*
X73431Y45932D01*
X74476Y46000D01*
X75524Y46000D01*
X76569Y45932D01*
X77608Y45795D01*
X78635Y45590D01*
X79647Y45319D01*
X80639Y44983D01*
X81607Y44582D01*
X82546Y44118D01*
X83454Y43595D01*
X84325Y43013D01*
X85156Y42375D01*
X85943Y41684D01*
X86684Y40943D01*
X87375Y40156D01*
X88013Y39325D01*
X88595Y38454D01*
X89118Y37546D01*
X89582Y36607D01*
X89983Y35639D01*
X90319Y34647D01*
X90590Y33635D01*
X90795Y32608D01*
X90932Y31569D01*
X91000Y30524D01*
X91000Y29476D01*
X91000Y1254476D02*
X90932Y1253431D01*
X90795Y1252392D01*
X90590Y1251365D01*
X90319Y1250353D01*
X89983Y1249361D01*
X89582Y1248393D01*
X89118Y1247454D01*
X88595Y1246546D01*
X88013Y1245675D01*
X87375Y1244844D01*
X86684Y1244057D01*
X85943Y1243316D01*
X85156Y1242625D01*
X84325Y1241988D01*
X83454Y1241406D01*
X82546Y1240882D01*
X81607Y1240418D01*
X80639Y1240017D01*
X79647Y1239681D01*
X78635Y1239410D01*
X77608Y1239205D01*
X76569Y1239069D01*
X75524Y1239000D01*
X74476Y1239000D01*
X73431Y1239069D01*
X72392Y1239205D01*
X71365Y1239410D01*
X70353Y1239681D01*
X69361Y1240017D01*
X68393Y1240418D01*
X67454Y1240882D01*
X66546Y1241406D01*
X65675Y1241988D01*
X64844Y1242625D01*
X64057Y1243316D01*
X63316Y1244057D01*
X62625Y1244844D01*
X61988Y1245675D01*
X61406Y1246546D01*
X60882Y1247454D01*
X60418Y1248393D01*
X60017Y1249361D01*
X59681Y1250353D01*
X59410Y1251365D01*
X59205Y1252392D01*
X59069Y1253431D01*
X59000Y1254476D01*
X59000Y1255524D01*
X59069Y1256569D01*
X59205Y1257608D01*
X59410Y1258635D01*
X59681Y1259647D01*
X60017Y1260639D01*
X60418Y1261607D01*
X60882Y1262546D01*
X61406Y1263454D01*
X61988Y1264325D01*
X62625Y1265156D01*
X63316Y1265943D01*
X64057Y1266684D01*
X64844Y1267375D01*
X65675Y1268013D01*
X66546Y1268595D01*
X67454Y1269118D01*
X68393Y1269582D01*
X69361Y1269983D01*
X70353Y1270319D01*
X71365Y1270590D01*
X72392Y1270795D01*
X73431Y1270932D01*
X74476Y1271000D01*
X75524Y1271000D01*
X76569Y1270932D01*
X77608Y1270795D01*
X78635Y1270590D01*
X79647Y1270319D01*
X80639Y1269983D01*
X81607Y1269582D01*
X82546Y1269118D01*
X83454Y1268595D01*
X84325Y1268013D01*
X85156Y1267375D01*
X85943Y1266684D01*
X86684Y1265943D01*
X87375Y1265156D01*
X88013Y1264325D01*
X88595Y1263454D01*
X89118Y1262546D01*
X89582Y1261607D01*
X89983Y1260639D01*
X90319Y1259647D01*
X90590Y1258635D01*
X90795Y1257608D01*
X90932Y1256569D01*
X91000Y1255524D01*
X91000Y1254476D01*
X254500Y745446D02*
X254421Y744342D01*
X254263Y743246D01*
X254028Y742164D01*
X253716Y741102D01*
X253329Y740065D01*
X252869Y739058D01*
X252339Y738086D01*
X251740Y737154D01*
X251077Y736268D01*
X250352Y735431D01*
X249569Y734648D01*
X248732Y733923D01*
X247846Y733260D01*
X246914Y732661D01*
X245943Y732131D01*
X244935Y731671D01*
X243898Y731284D01*
X242836Y730972D01*
X241754Y730737D01*
X240658Y730579D01*
X239554Y730500D01*
X238446Y730500D01*
X237342Y730579D01*
X236246Y730737D01*
X235164Y730972D01*
X234102Y731284D01*
X233065Y731671D01*
X232058Y732131D01*
X231086Y732661D01*
X230154Y733260D01*
X229268Y733923D01*
X228431Y734648D01*
X227648Y735431D01*
X226923Y736268D01*
X226260Y737154D01*
X225661Y738086D01*
X225131Y739058D01*
X224671Y740065D01*
X224284Y741102D01*
X223972Y742164D01*
X223737Y743246D01*
X223579Y744342D01*
X223500Y745446D01*
X223500Y746554D01*
X223579Y747658D01*
X223737Y748754D01*
X223972Y749836D01*
X224284Y750898D01*
X224671Y751935D01*
X225131Y752943D01*
X225661Y753914D01*
X226260Y754846D01*
X226923Y755732D01*
X227648Y756569D01*
X228431Y757352D01*
X229268Y758077D01*
X230154Y758740D01*
X231086Y759339D01*
X232058Y759869D01*
X233065Y760329D01*
X234102Y760716D01*
X235164Y761028D01*
X236246Y761263D01*
X237342Y761421D01*
X238446Y761500D01*
X239554Y761500D01*
X240658Y761421D01*
X241754Y761263D01*
X242836Y761028D01*
X243898Y760716D01*
X244935Y760329D01*
X245943Y759869D01*
X246914Y759339D01*
X247846Y758740D01*
X248732Y758077D01*
X249569Y757352D01*
X250352Y756569D01*
X251077Y755732D01*
X251740Y754846D01*
X252339Y753914D01*
X252869Y752943D01*
X253329Y751935D01*
X253716Y750898D01*
X254028Y749836D01*
X254263Y748754D01*
X254421Y747658D01*
X254500Y746554D01*
X254500Y745446D01*
X121500Y410180D02*
X121424Y408541D01*
X121273Y406908D01*
X121046Y405283D01*
X120745Y403671D01*
X120369Y402074D01*
X119920Y400496D01*
X119399Y398941D01*
X118806Y397411D01*
X118144Y395911D01*
X117413Y394442D01*
X116615Y393009D01*
X115751Y391614D01*
X114824Y390261D01*
X113835Y388952D01*
X112787Y387690D01*
X111682Y386478D01*
X110522Y385318D01*
X109310Y384213D01*
X108048Y383165D01*
X106739Y382176D01*
X105386Y381249D01*
X103991Y380386D01*
X102558Y379587D01*
X101090Y378856D01*
X99589Y378194D01*
X98059Y377601D01*
X96504Y377080D01*
X94926Y376631D01*
X93329Y376255D01*
X91717Y375954D01*
X90092Y375727D01*
X88459Y375576D01*
X86820Y375500D01*
X85180Y375500D01*
X83541Y375576D01*
X81908Y375727D01*
X80283Y375954D01*
X78671Y376255D01*
X77074Y376631D01*
X75496Y377080D01*
X73941Y377601D01*
X72411Y378194D01*
X70911Y378856D01*
X69442Y379587D01*
X68009Y380386D01*
X66614Y381249D01*
X65261Y382176D01*
X63952Y383165D01*
X62690Y384213D01*
X61478Y385318D01*
X60318Y386478D01*
X59213Y387690D01*
X58165Y388952D01*
X57176Y390261D01*
X56249Y391614D01*
X55386Y393009D01*
X54587Y394442D01*
X53856Y395911D01*
X53194Y397411D01*
X52601Y398941D01*
X52080Y400496D01*
X51631Y402074D01*
X51255Y403671D01*
X50954Y405283D01*
X50727Y406908D01*
X50576Y408541D01*
X50500Y410180D01*
X50500Y411820D01*
X50576Y413459D01*
X50727Y415092D01*
X50954Y416717D01*
X51255Y418329D01*
X51631Y419926D01*
X52080Y421504D01*
X52601Y423059D01*
X53194Y424589D01*
X53856Y426090D01*
X54587Y427558D01*
X55386Y428991D01*
X56249Y430386D01*
X57176Y431739D01*
X58165Y433048D01*
X59213Y434310D01*
X60318Y435522D01*
X61478Y436682D01*
X62690Y437787D01*
X63952Y438835D01*
X65261Y439824D01*
X66614Y440751D01*
X68009Y441615D01*
X69442Y442413D01*
X70911Y443144D01*
X72411Y443806D01*
X73941Y444399D01*
X75496Y444920D01*
X77074Y445369D01*
X78671Y445745D01*
X80283Y446046D01*
X81908Y446273D01*
X83541Y446424D01*
X85180Y446500D01*
X86820Y446500D01*
X88459Y446424D01*
X90092Y446273D01*
X91717Y446046D01*
X93329Y445745D01*
X94926Y445369D01*
X96504Y444920D01*
X98059Y444399D01*
X99589Y443806D01*
X101090Y443144D01*
X102558Y442413D01*
X103991Y441615D01*
X105386Y440751D01*
X106739Y439824D01*
X108048Y438835D01*
X109310Y437787D01*
X110522Y436682D01*
X111682Y435522D01*
X112787Y434310D01*
X113835Y433048D01*
X114824Y431739D01*
X115751Y430386D01*
X116615Y428991D01*
X117413Y427558D01*
X118144Y426090D01*
X118806Y424589D01*
X119399Y423059D01*
X119920Y421504D01*
X120369Y419926D01*
X120745Y418329D01*
X121046Y416717D01*
X121273Y415092D01*
X121424Y413459D01*
X121500Y411820D01*
X121500Y410180D01*
X55150Y548850D02*
X55079Y547953D01*
X54939Y547065D01*
X54729Y546190D01*
X54451Y545334D01*
X54106Y544503D01*
X53698Y543701D01*
X53228Y542934D01*
X52699Y542206D01*
X52114Y541522D01*
X51478Y540886D01*
X50794Y540301D01*
X50066Y539772D01*
X49299Y539302D01*
X48497Y538894D01*
X47666Y538549D01*
X46810Y538271D01*
X45936Y538061D01*
X45047Y537921D01*
X44150Y537850D01*
X43250Y537850D01*
X42353Y537921D01*
X41465Y538061D01*
X40590Y538271D01*
X39734Y538549D01*
X38903Y538894D01*
X38101Y539302D01*
X37334Y539772D01*
X36606Y540301D01*
X35922Y540886D01*
X35286Y541522D01*
X34701Y542206D01*
X34172Y542934D01*
X33702Y543701D01*
X33294Y544503D01*
X32949Y545334D01*
X32671Y546190D01*
X32461Y547065D01*
X32321Y547953D01*
X32250Y548850D01*
X32250Y549750D01*
X32321Y550647D01*
X32461Y551536D01*
X32671Y552410D01*
X32949Y553266D01*
X33294Y554097D01*
X33702Y554899D01*
X34172Y555666D01*
X34701Y556394D01*
X35286Y557078D01*
X35922Y557714D01*
X36606Y558299D01*
X37334Y558828D01*
X38101Y559298D01*
X38903Y559706D01*
X39734Y560051D01*
X40590Y560329D01*
X41465Y560539D01*
X42353Y560679D01*
X43250Y560750D01*
X44150Y560750D01*
X45047Y560679D01*
X45936Y560539D01*
X46810Y560329D01*
X47666Y560051D01*
X48497Y559706D01*
X49299Y559298D01*
X50066Y558828D01*
X50794Y558299D01*
X51478Y557714D01*
X52114Y557078D01*
X52699Y556394D01*
X53228Y555666D01*
X53698Y554899D01*
X54106Y554097D01*
X54451Y553266D01*
X54729Y552410D01*
X54939Y551536D01*
X55079Y550647D01*
X55150Y549750D01*
X55150Y548850D01*
X172450Y953370D02*
X172379Y952112D01*
X172238Y950860D01*
X172027Y949619D01*
X171747Y948390D01*
X171398Y947180D01*
X170982Y945991D01*
X170500Y944827D01*
X169953Y943692D01*
X169344Y942589D01*
X168674Y941523D01*
X167945Y940495D01*
X167159Y939510D01*
X166320Y938571D01*
X165429Y937680D01*
X164490Y936841D01*
X163505Y936055D01*
X162477Y935326D01*
X161411Y934656D01*
X160308Y934047D01*
X159173Y933500D01*
X158009Y933018D01*
X156820Y932602D01*
X155610Y932253D01*
X154382Y931973D01*
X153140Y931762D01*
X151888Y931621D01*
X150630Y931550D01*
X149370Y931550D01*
X148112Y931621D01*
X146860Y931762D01*
X145619Y931973D01*
X144390Y932253D01*
X143180Y932602D01*
X141991Y933018D01*
X140827Y933500D01*
X139692Y934047D01*
X138589Y934656D01*
X137523Y935326D01*
X136495Y936055D01*
X135510Y936841D01*
X134571Y937680D01*
X133680Y938571D01*
X132841Y939510D01*
X132055Y940495D01*
X131326Y941523D01*
X130656Y942589D01*
X130047Y943692D01*
X129500Y944827D01*
X129018Y945991D01*
X128602Y947180D01*
X128253Y948390D01*
X127973Y949619D01*
X127762Y950860D01*
X127621Y952112D01*
X127550Y953370D01*
X127550Y954630D01*
X127621Y955888D01*
X127762Y957140D01*
X127973Y958382D01*
X128253Y959610D01*
X128602Y960820D01*
X129018Y962009D01*
X129500Y963173D01*
X130047Y964308D01*
X130656Y965411D01*
X131326Y966477D01*
X132055Y967505D01*
X132841Y968490D01*
X133680Y969429D01*
X134571Y970320D01*
X135510Y971159D01*
X136495Y971945D01*
X137523Y972674D01*
X138589Y973344D01*
X139692Y973953D01*
X140827Y974500D01*
X141991Y974982D01*
X143180Y975398D01*
X144390Y975747D01*
X145619Y976027D01*
X146860Y976238D01*
X148112Y976379D01*
X149370Y976450D01*
X150630Y976450D01*
X151888Y976379D01*
X153140Y976238D01*
X154382Y976027D01*
X155610Y975747D01*
X156820Y975398D01*
X158009Y974982D01*
X159173Y974500D01*
X160308Y973953D01*
X161411Y973344D01*
X162477Y972674D01*
X163505Y971945D01*
X164490Y971159D01*
X165429Y970320D01*
X166320Y969429D01*
X167159Y968490D01*
X167945Y967505D01*
X168674Y966477D01*
X169344Y965411D01*
X169953Y964308D01*
X170500Y963173D01*
X170982Y962009D01*
X171398Y960820D01*
X171747Y959610D01*
X172027Y958382D01*
X172238Y957140D01*
X172379Y955888D01*
X172450Y954630D01*
X172450Y953370D01*
M02*
