G04 EAGLE Gerber RS-274X export*
G75*
%MOMM*%
%FSLAX34Y34*%
%LPD*%
%INSilkscreen Bottom*%
%IPPOS*%
%AMOC8*
5,1,8,0,0,1.08239X$1,22.5*%
G01*
%ADD10C,0.152400*%


D10*
X207604Y103238D02*
X207604Y88868D01*
X207606Y88742D01*
X207612Y88615D01*
X207622Y88489D01*
X207635Y88363D01*
X207653Y88238D01*
X207674Y88114D01*
X207699Y87990D01*
X207728Y87866D01*
X207761Y87744D01*
X207797Y87623D01*
X207837Y87503D01*
X207881Y87385D01*
X207929Y87268D01*
X207980Y87152D01*
X208034Y87038D01*
X208093Y86925D01*
X208154Y86815D01*
X208219Y86706D01*
X208287Y86600D01*
X208359Y86496D01*
X208433Y86394D01*
X208511Y86294D01*
X208592Y86197D01*
X208676Y86102D01*
X208762Y86010D01*
X208852Y85920D01*
X208944Y85834D01*
X209039Y85750D01*
X209136Y85669D01*
X209236Y85591D01*
X209338Y85517D01*
X209442Y85445D01*
X209548Y85377D01*
X209657Y85312D01*
X209767Y85251D01*
X209880Y85192D01*
X209994Y85138D01*
X210110Y85087D01*
X210227Y85039D01*
X210345Y84995D01*
X210465Y84955D01*
X210586Y84919D01*
X210709Y84886D01*
X210832Y84857D01*
X210956Y84832D01*
X211080Y84811D01*
X211205Y84793D01*
X211331Y84780D01*
X211457Y84770D01*
X211584Y84764D01*
X211710Y84762D01*
X213763Y84762D01*
X199486Y84762D02*
X199486Y103238D01*
X199486Y84762D02*
X191275Y84762D01*
X181068Y84762D02*
X176962Y84762D01*
X181068Y84762D02*
X181194Y84764D01*
X181321Y84770D01*
X181447Y84780D01*
X181573Y84793D01*
X181698Y84811D01*
X181822Y84832D01*
X181946Y84857D01*
X182070Y84886D01*
X182192Y84919D01*
X182313Y84955D01*
X182433Y84995D01*
X182551Y85039D01*
X182668Y85087D01*
X182784Y85138D01*
X182898Y85192D01*
X183011Y85251D01*
X183121Y85312D01*
X183230Y85377D01*
X183336Y85445D01*
X183440Y85517D01*
X183542Y85591D01*
X183642Y85669D01*
X183739Y85750D01*
X183834Y85834D01*
X183926Y85920D01*
X184016Y86010D01*
X184102Y86102D01*
X184186Y86197D01*
X184267Y86294D01*
X184345Y86394D01*
X184419Y86496D01*
X184491Y86600D01*
X184559Y86706D01*
X184624Y86815D01*
X184685Y86925D01*
X184744Y87038D01*
X184798Y87152D01*
X184849Y87268D01*
X184897Y87385D01*
X184941Y87503D01*
X184981Y87623D01*
X185017Y87744D01*
X185050Y87866D01*
X185079Y87990D01*
X185104Y88114D01*
X185125Y88238D01*
X185143Y88363D01*
X185156Y88489D01*
X185166Y88615D01*
X185172Y88742D01*
X185174Y88868D01*
X185173Y88868D02*
X185173Y99132D01*
X185174Y99132D02*
X185172Y99258D01*
X185166Y99385D01*
X185156Y99511D01*
X185143Y99637D01*
X185125Y99762D01*
X185104Y99886D01*
X185079Y100010D01*
X185050Y100134D01*
X185017Y100256D01*
X184981Y100377D01*
X184941Y100497D01*
X184897Y100615D01*
X184849Y100732D01*
X184798Y100848D01*
X184744Y100962D01*
X184685Y101075D01*
X184624Y101185D01*
X184559Y101294D01*
X184491Y101400D01*
X184419Y101504D01*
X184345Y101606D01*
X184267Y101706D01*
X184186Y101803D01*
X184102Y101898D01*
X184016Y101990D01*
X183926Y102080D01*
X183834Y102166D01*
X183739Y102250D01*
X183642Y102331D01*
X183542Y102409D01*
X183440Y102483D01*
X183336Y102555D01*
X183230Y102623D01*
X183121Y102688D01*
X183011Y102749D01*
X182898Y102808D01*
X182784Y102862D01*
X182668Y102913D01*
X182551Y102961D01*
X182433Y103005D01*
X182313Y103045D01*
X182192Y103081D01*
X182070Y103114D01*
X181946Y103143D01*
X181822Y103168D01*
X181698Y103189D01*
X181573Y103207D01*
X181447Y103220D01*
X181321Y103230D01*
X181194Y103236D01*
X181068Y103238D01*
X176962Y103238D01*
X166204Y103238D02*
X166204Y88868D01*
X166206Y88742D01*
X166212Y88615D01*
X166222Y88489D01*
X166235Y88363D01*
X166253Y88238D01*
X166274Y88114D01*
X166299Y87990D01*
X166328Y87866D01*
X166361Y87744D01*
X166397Y87623D01*
X166437Y87503D01*
X166481Y87385D01*
X166529Y87268D01*
X166580Y87152D01*
X166634Y87038D01*
X166693Y86925D01*
X166754Y86815D01*
X166819Y86706D01*
X166887Y86600D01*
X166959Y86496D01*
X167033Y86394D01*
X167111Y86294D01*
X167192Y86197D01*
X167276Y86102D01*
X167362Y86010D01*
X167452Y85920D01*
X167544Y85834D01*
X167639Y85750D01*
X167736Y85669D01*
X167836Y85591D01*
X167938Y85517D01*
X168042Y85445D01*
X168148Y85377D01*
X168257Y85312D01*
X168367Y85251D01*
X168480Y85192D01*
X168594Y85138D01*
X168710Y85087D01*
X168827Y85039D01*
X168945Y84995D01*
X169065Y84955D01*
X169186Y84919D01*
X169309Y84886D01*
X169432Y84857D01*
X169556Y84832D01*
X169680Y84811D01*
X169805Y84793D01*
X169931Y84780D01*
X170057Y84770D01*
X170184Y84764D01*
X170310Y84762D01*
X172363Y84762D01*
X158086Y84762D02*
X158086Y103238D01*
X158086Y84762D02*
X149875Y84762D01*
X139668Y84762D02*
X135562Y84762D01*
X139668Y84762D02*
X139794Y84764D01*
X139921Y84770D01*
X140047Y84780D01*
X140173Y84793D01*
X140298Y84811D01*
X140422Y84832D01*
X140546Y84857D01*
X140670Y84886D01*
X140792Y84919D01*
X140913Y84955D01*
X141033Y84995D01*
X141151Y85039D01*
X141268Y85087D01*
X141384Y85138D01*
X141498Y85192D01*
X141611Y85251D01*
X141721Y85312D01*
X141830Y85377D01*
X141936Y85445D01*
X142040Y85517D01*
X142142Y85591D01*
X142242Y85669D01*
X142339Y85750D01*
X142434Y85834D01*
X142526Y85920D01*
X142616Y86010D01*
X142702Y86102D01*
X142786Y86197D01*
X142867Y86294D01*
X142945Y86394D01*
X143019Y86496D01*
X143091Y86600D01*
X143159Y86706D01*
X143224Y86815D01*
X143285Y86925D01*
X143344Y87038D01*
X143398Y87152D01*
X143449Y87268D01*
X143497Y87385D01*
X143541Y87503D01*
X143581Y87623D01*
X143617Y87744D01*
X143650Y87866D01*
X143679Y87990D01*
X143704Y88114D01*
X143725Y88238D01*
X143743Y88363D01*
X143756Y88489D01*
X143766Y88615D01*
X143772Y88742D01*
X143774Y88868D01*
X143773Y88868D02*
X143773Y99132D01*
X143774Y99132D02*
X143772Y99258D01*
X143766Y99385D01*
X143756Y99511D01*
X143743Y99637D01*
X143725Y99762D01*
X143704Y99886D01*
X143679Y100010D01*
X143650Y100134D01*
X143617Y100256D01*
X143581Y100377D01*
X143541Y100497D01*
X143497Y100615D01*
X143449Y100732D01*
X143398Y100848D01*
X143344Y100962D01*
X143285Y101075D01*
X143224Y101185D01*
X143159Y101294D01*
X143091Y101400D01*
X143019Y101504D01*
X142945Y101606D01*
X142867Y101706D01*
X142786Y101803D01*
X142702Y101898D01*
X142616Y101990D01*
X142526Y102080D01*
X142434Y102166D01*
X142339Y102250D01*
X142242Y102331D01*
X142142Y102409D01*
X142040Y102483D01*
X141936Y102555D01*
X141830Y102623D01*
X141721Y102688D01*
X141611Y102749D01*
X141498Y102808D01*
X141384Y102862D01*
X141268Y102913D01*
X141151Y102961D01*
X141033Y103005D01*
X140913Y103045D01*
X140792Y103081D01*
X140670Y103114D01*
X140546Y103143D01*
X140422Y103168D01*
X140298Y103189D01*
X140173Y103207D01*
X140047Y103220D01*
X139921Y103230D01*
X139794Y103236D01*
X139668Y103238D01*
X135562Y103238D01*
X124804Y103238D02*
X124804Y88868D01*
X124806Y88742D01*
X124812Y88615D01*
X124822Y88489D01*
X124835Y88363D01*
X124853Y88238D01*
X124874Y88114D01*
X124899Y87990D01*
X124928Y87866D01*
X124961Y87744D01*
X124997Y87623D01*
X125037Y87503D01*
X125081Y87385D01*
X125129Y87268D01*
X125180Y87152D01*
X125234Y87038D01*
X125293Y86925D01*
X125354Y86815D01*
X125419Y86706D01*
X125487Y86600D01*
X125559Y86496D01*
X125633Y86394D01*
X125711Y86294D01*
X125792Y86197D01*
X125876Y86102D01*
X125962Y86010D01*
X126052Y85920D01*
X126144Y85834D01*
X126239Y85750D01*
X126336Y85669D01*
X126436Y85591D01*
X126538Y85517D01*
X126642Y85445D01*
X126748Y85377D01*
X126857Y85312D01*
X126967Y85251D01*
X127080Y85192D01*
X127194Y85138D01*
X127310Y85087D01*
X127427Y85039D01*
X127545Y84995D01*
X127665Y84955D01*
X127786Y84919D01*
X127909Y84886D01*
X128032Y84857D01*
X128156Y84832D01*
X128280Y84811D01*
X128405Y84793D01*
X128531Y84780D01*
X128657Y84770D01*
X128784Y84764D01*
X128910Y84762D01*
X130963Y84762D01*
X116686Y84762D02*
X116686Y103238D01*
X116686Y84762D02*
X108475Y84762D01*
X98268Y84762D02*
X94162Y84762D01*
X98268Y84762D02*
X98394Y84764D01*
X98521Y84770D01*
X98647Y84780D01*
X98773Y84793D01*
X98898Y84811D01*
X99022Y84832D01*
X99146Y84857D01*
X99270Y84886D01*
X99392Y84919D01*
X99513Y84955D01*
X99633Y84995D01*
X99751Y85039D01*
X99868Y85087D01*
X99984Y85138D01*
X100098Y85192D01*
X100211Y85251D01*
X100321Y85312D01*
X100430Y85377D01*
X100536Y85445D01*
X100640Y85517D01*
X100742Y85591D01*
X100842Y85669D01*
X100939Y85750D01*
X101034Y85834D01*
X101126Y85920D01*
X101216Y86010D01*
X101302Y86102D01*
X101386Y86197D01*
X101467Y86294D01*
X101545Y86394D01*
X101619Y86496D01*
X101691Y86600D01*
X101759Y86706D01*
X101824Y86815D01*
X101885Y86925D01*
X101944Y87038D01*
X101998Y87152D01*
X102049Y87268D01*
X102097Y87385D01*
X102141Y87503D01*
X102181Y87623D01*
X102217Y87744D01*
X102250Y87866D01*
X102279Y87990D01*
X102304Y88114D01*
X102325Y88238D01*
X102343Y88363D01*
X102356Y88489D01*
X102366Y88615D01*
X102372Y88742D01*
X102374Y88868D01*
X102373Y88868D02*
X102373Y99132D01*
X102374Y99132D02*
X102372Y99258D01*
X102366Y99385D01*
X102356Y99511D01*
X102343Y99637D01*
X102325Y99762D01*
X102304Y99886D01*
X102279Y100010D01*
X102250Y100134D01*
X102217Y100256D01*
X102181Y100377D01*
X102141Y100497D01*
X102097Y100615D01*
X102049Y100732D01*
X101998Y100848D01*
X101944Y100962D01*
X101885Y101075D01*
X101824Y101185D01*
X101759Y101294D01*
X101691Y101400D01*
X101619Y101504D01*
X101545Y101606D01*
X101467Y101706D01*
X101386Y101803D01*
X101302Y101898D01*
X101216Y101990D01*
X101126Y102080D01*
X101034Y102166D01*
X100939Y102250D01*
X100842Y102331D01*
X100742Y102409D01*
X100640Y102483D01*
X100536Y102555D01*
X100430Y102623D01*
X100321Y102688D01*
X100211Y102749D01*
X100098Y102808D01*
X99984Y102862D01*
X99868Y102913D01*
X99751Y102961D01*
X99633Y103005D01*
X99513Y103045D01*
X99392Y103081D01*
X99270Y103114D01*
X99146Y103143D01*
X99022Y103168D01*
X98898Y103189D01*
X98773Y103207D01*
X98647Y103220D01*
X98521Y103230D01*
X98394Y103236D01*
X98268Y103238D01*
X94162Y103238D01*
X83404Y103238D02*
X83404Y88868D01*
X83406Y88742D01*
X83412Y88615D01*
X83422Y88489D01*
X83435Y88363D01*
X83453Y88238D01*
X83474Y88114D01*
X83499Y87990D01*
X83528Y87866D01*
X83561Y87744D01*
X83597Y87623D01*
X83637Y87503D01*
X83681Y87385D01*
X83729Y87268D01*
X83780Y87152D01*
X83834Y87038D01*
X83893Y86925D01*
X83954Y86815D01*
X84019Y86706D01*
X84087Y86600D01*
X84159Y86496D01*
X84233Y86394D01*
X84311Y86294D01*
X84392Y86197D01*
X84476Y86102D01*
X84562Y86010D01*
X84652Y85920D01*
X84744Y85834D01*
X84839Y85750D01*
X84936Y85669D01*
X85036Y85591D01*
X85138Y85517D01*
X85242Y85445D01*
X85348Y85377D01*
X85457Y85312D01*
X85567Y85251D01*
X85680Y85192D01*
X85794Y85138D01*
X85910Y85087D01*
X86027Y85039D01*
X86145Y84995D01*
X86265Y84955D01*
X86386Y84919D01*
X86509Y84886D01*
X86632Y84857D01*
X86756Y84832D01*
X86880Y84811D01*
X87005Y84793D01*
X87131Y84780D01*
X87257Y84770D01*
X87384Y84764D01*
X87510Y84762D01*
X89563Y84762D01*
X75286Y84762D02*
X75286Y103238D01*
X75286Y84762D02*
X67075Y84762D01*
X56868Y84762D02*
X52762Y84762D01*
X56868Y84762D02*
X56994Y84764D01*
X57121Y84770D01*
X57247Y84780D01*
X57373Y84793D01*
X57498Y84811D01*
X57622Y84832D01*
X57746Y84857D01*
X57870Y84886D01*
X57992Y84919D01*
X58113Y84955D01*
X58233Y84995D01*
X58351Y85039D01*
X58468Y85087D01*
X58584Y85138D01*
X58698Y85192D01*
X58811Y85251D01*
X58921Y85312D01*
X59030Y85377D01*
X59136Y85445D01*
X59240Y85517D01*
X59342Y85591D01*
X59442Y85669D01*
X59539Y85750D01*
X59634Y85834D01*
X59726Y85920D01*
X59816Y86010D01*
X59902Y86102D01*
X59986Y86197D01*
X60067Y86294D01*
X60145Y86394D01*
X60219Y86496D01*
X60291Y86600D01*
X60359Y86706D01*
X60424Y86815D01*
X60485Y86925D01*
X60544Y87038D01*
X60598Y87152D01*
X60649Y87268D01*
X60697Y87385D01*
X60741Y87503D01*
X60781Y87623D01*
X60817Y87744D01*
X60850Y87866D01*
X60879Y87990D01*
X60904Y88114D01*
X60925Y88238D01*
X60943Y88363D01*
X60956Y88489D01*
X60966Y88615D01*
X60972Y88742D01*
X60974Y88868D01*
X60974Y99132D01*
X60972Y99258D01*
X60966Y99385D01*
X60956Y99511D01*
X60943Y99637D01*
X60925Y99762D01*
X60904Y99886D01*
X60879Y100010D01*
X60850Y100134D01*
X60817Y100256D01*
X60781Y100377D01*
X60741Y100497D01*
X60697Y100615D01*
X60649Y100732D01*
X60598Y100848D01*
X60544Y100962D01*
X60485Y101075D01*
X60424Y101185D01*
X60359Y101294D01*
X60291Y101400D01*
X60219Y101504D01*
X60145Y101606D01*
X60067Y101706D01*
X59986Y101803D01*
X59902Y101898D01*
X59816Y101990D01*
X59726Y102080D01*
X59634Y102166D01*
X59539Y102250D01*
X59442Y102331D01*
X59342Y102409D01*
X59240Y102483D01*
X59136Y102555D01*
X59030Y102623D01*
X58921Y102688D01*
X58811Y102749D01*
X58698Y102808D01*
X58584Y102862D01*
X58468Y102913D01*
X58351Y102961D01*
X58233Y103005D01*
X58113Y103045D01*
X57992Y103081D01*
X57870Y103114D01*
X57746Y103143D01*
X57622Y103168D01*
X57498Y103189D01*
X57373Y103207D01*
X57247Y103220D01*
X57121Y103230D01*
X56994Y103236D01*
X56868Y103238D01*
X52762Y103238D01*
M02*
