M48
;GenerationSoftware,Autodesk,EAGLE,9.6.2*%
;CreationDate,2023-09-04T08:16:02Z*%
FMAT,2
ICI,OFF
METRIC,TZ,000.000
T8C0.300
T7C0.350
T6C0.740
T5C0.813
T4C1.000
T3C1.016
T2C1.500
T1C2.200
%
G90
M71
T1
X22606Y7620
X7366Y7620
T2
X13336Y67564
X3936Y30480
X13336Y30480
X3936Y67564
X16636Y49022
X26036Y49022
T3
X25654Y104902
X20574Y104902
X17526Y84836
X7366Y13335
X7366Y10795
X7366Y3175
X22606Y13335
X22606Y10795
X22606Y3175
X14986Y84836
X12446Y84836
X7874Y104902
X25654Y102362
X7874Y102362
X23114Y102362
X23114Y104902
X20574Y102362
X10414Y104902
X18034Y102362
X18034Y104902
X15494Y102362
X15494Y104902
X12954Y102362
X12954Y104902
X10414Y102362
T4
X11136Y23480
X18836Y42022
X6136Y23480
X23836Y42022
X21336Y42022
X8636Y23480
X11136Y60564
X8636Y60564
X6136Y60564
T5
X25146Y64008
X22606Y64008
T6
X10414Y43180
X7874Y43180
X5334Y43180
T7
X15200Y96300
X25200Y87700
X13500Y50100
X21700Y29400
T8
X20574Y22733
X19812Y26797
X19558Y68072
X25146Y25019
X19812Y25019
M30