G04 EAGLE Gerber RS-274X export*
G75*
%MOMM*%
%FSLAX34Y34*%
%LPD*%
%INSilkscreen Top*%
%IPPOS*%
%AMOC8*
5,1,8,0,0,1.08239X$1,22.5*%
G01*
%ADD10C,0.050800*%
%ADD11C,0.200000*%
%ADD12C,0.100000*%
%ADD13C,0.100000*%
%ADD14C,0.101600*%
%ADD15C,0.127000*%
%ADD16C,0.203200*%


D10*
X56134Y40894D02*
X56134Y46482D01*
X57686Y46482D01*
X57763Y46480D01*
X57841Y46474D01*
X57917Y46465D01*
X57994Y46451D01*
X58069Y46434D01*
X58143Y46413D01*
X58217Y46388D01*
X58289Y46360D01*
X58359Y46328D01*
X58428Y46293D01*
X58495Y46254D01*
X58560Y46212D01*
X58623Y46167D01*
X58684Y46119D01*
X58742Y46068D01*
X58797Y46014D01*
X58850Y45957D01*
X58899Y45898D01*
X58946Y45836D01*
X58990Y45772D01*
X59030Y45706D01*
X59067Y45638D01*
X59101Y45568D01*
X59131Y45497D01*
X59157Y45424D01*
X59180Y45350D01*
X59199Y45275D01*
X59214Y45200D01*
X59226Y45123D01*
X59234Y45046D01*
X59238Y44969D01*
X59238Y44891D01*
X59234Y44814D01*
X59226Y44737D01*
X59214Y44660D01*
X59199Y44585D01*
X59180Y44510D01*
X59157Y44436D01*
X59131Y44363D01*
X59101Y44292D01*
X59067Y44222D01*
X59030Y44154D01*
X58990Y44088D01*
X58946Y44024D01*
X58899Y43962D01*
X58850Y43903D01*
X58797Y43846D01*
X58742Y43792D01*
X58684Y43741D01*
X58623Y43693D01*
X58560Y43648D01*
X58495Y43606D01*
X58428Y43567D01*
X58359Y43532D01*
X58289Y43500D01*
X58217Y43472D01*
X58143Y43447D01*
X58069Y43426D01*
X57994Y43409D01*
X57917Y43395D01*
X57841Y43386D01*
X57763Y43380D01*
X57686Y43378D01*
X56134Y43378D01*
X57997Y43378D02*
X59238Y40894D01*
X61778Y40894D02*
X64262Y40894D01*
X61778Y40894D02*
X61778Y46482D01*
X64262Y46482D01*
X63641Y43998D02*
X61778Y43998D01*
X68019Y40894D02*
X68089Y40896D01*
X68158Y40902D01*
X68227Y40912D01*
X68295Y40925D01*
X68363Y40943D01*
X68429Y40964D01*
X68494Y40989D01*
X68558Y41017D01*
X68620Y41049D01*
X68680Y41084D01*
X68738Y41123D01*
X68793Y41165D01*
X68847Y41210D01*
X68897Y41258D01*
X68945Y41308D01*
X68990Y41362D01*
X69032Y41417D01*
X69071Y41475D01*
X69106Y41535D01*
X69138Y41597D01*
X69166Y41661D01*
X69191Y41726D01*
X69212Y41792D01*
X69230Y41860D01*
X69243Y41928D01*
X69253Y41997D01*
X69259Y42066D01*
X69261Y42136D01*
X68019Y40894D02*
X67920Y40896D01*
X67822Y40901D01*
X67724Y40911D01*
X67626Y40924D01*
X67529Y40940D01*
X67432Y40960D01*
X67337Y40984D01*
X67242Y41012D01*
X67148Y41043D01*
X67056Y41077D01*
X66965Y41115D01*
X66875Y41156D01*
X66787Y41201D01*
X66701Y41249D01*
X66617Y41300D01*
X66535Y41354D01*
X66454Y41412D01*
X66376Y41472D01*
X66301Y41535D01*
X66227Y41601D01*
X66157Y41670D01*
X66311Y45240D02*
X66313Y45310D01*
X66319Y45379D01*
X66329Y45448D01*
X66342Y45516D01*
X66360Y45584D01*
X66381Y45650D01*
X66406Y45715D01*
X66434Y45779D01*
X66466Y45841D01*
X66501Y45901D01*
X66540Y45959D01*
X66582Y46014D01*
X66627Y46068D01*
X66675Y46118D01*
X66725Y46166D01*
X66779Y46211D01*
X66834Y46253D01*
X66892Y46292D01*
X66952Y46327D01*
X67014Y46359D01*
X67078Y46387D01*
X67143Y46412D01*
X67209Y46433D01*
X67277Y46451D01*
X67345Y46464D01*
X67414Y46474D01*
X67483Y46480D01*
X67553Y46482D01*
X67647Y46480D01*
X67740Y46474D01*
X67833Y46465D01*
X67926Y46452D01*
X68018Y46435D01*
X68109Y46415D01*
X68200Y46390D01*
X68289Y46363D01*
X68377Y46331D01*
X68464Y46296D01*
X68550Y46258D01*
X68633Y46216D01*
X68715Y46171D01*
X68796Y46123D01*
X68874Y46071D01*
X68950Y46016D01*
X66933Y44154D02*
X66874Y44190D01*
X66818Y44230D01*
X66764Y44273D01*
X66712Y44318D01*
X66663Y44367D01*
X66617Y44418D01*
X66574Y44471D01*
X66533Y44527D01*
X66496Y44585D01*
X66461Y44645D01*
X66431Y44706D01*
X66403Y44769D01*
X66379Y44834D01*
X66359Y44900D01*
X66342Y44967D01*
X66329Y45034D01*
X66320Y45102D01*
X66314Y45171D01*
X66312Y45240D01*
X68639Y43222D02*
X68698Y43186D01*
X68754Y43146D01*
X68808Y43103D01*
X68860Y43058D01*
X68909Y43009D01*
X68955Y42958D01*
X68998Y42905D01*
X69039Y42849D01*
X69076Y42791D01*
X69111Y42731D01*
X69141Y42670D01*
X69169Y42607D01*
X69193Y42542D01*
X69213Y42476D01*
X69230Y42409D01*
X69243Y42342D01*
X69252Y42274D01*
X69258Y42205D01*
X69260Y42136D01*
X68640Y43222D02*
X66932Y44154D01*
X71654Y40894D02*
X74137Y40894D01*
X71654Y40894D02*
X71654Y46482D01*
X74137Y46482D01*
X73516Y43998D02*
X71654Y43998D01*
X77401Y46482D02*
X77401Y40894D01*
X75849Y46482D02*
X78953Y46482D01*
X40838Y40894D02*
X39596Y40894D01*
X39526Y40896D01*
X39457Y40902D01*
X39388Y40912D01*
X39320Y40925D01*
X39252Y40943D01*
X39186Y40964D01*
X39121Y40989D01*
X39057Y41017D01*
X38995Y41049D01*
X38935Y41084D01*
X38877Y41123D01*
X38822Y41165D01*
X38768Y41210D01*
X38718Y41258D01*
X38670Y41308D01*
X38625Y41362D01*
X38583Y41417D01*
X38544Y41475D01*
X38509Y41535D01*
X38477Y41597D01*
X38449Y41661D01*
X38424Y41726D01*
X38403Y41792D01*
X38385Y41860D01*
X38372Y41928D01*
X38362Y41997D01*
X38356Y42066D01*
X38354Y42136D01*
X38354Y45240D01*
X38356Y45310D01*
X38362Y45379D01*
X38372Y45448D01*
X38385Y45516D01*
X38403Y45584D01*
X38424Y45650D01*
X38449Y45715D01*
X38477Y45779D01*
X38509Y45841D01*
X38544Y45901D01*
X38583Y45959D01*
X38625Y46014D01*
X38670Y46068D01*
X38718Y46118D01*
X38768Y46166D01*
X38822Y46211D01*
X38877Y46253D01*
X38935Y46292D01*
X38995Y46327D01*
X39057Y46359D01*
X39121Y46387D01*
X39186Y46412D01*
X39252Y46433D01*
X39320Y46451D01*
X39388Y46464D01*
X39457Y46474D01*
X39526Y46480D01*
X39596Y46482D01*
X40838Y46482D01*
X45864Y42136D02*
X45862Y42066D01*
X45856Y41997D01*
X45846Y41928D01*
X45833Y41860D01*
X45815Y41792D01*
X45794Y41726D01*
X45769Y41661D01*
X45741Y41597D01*
X45709Y41535D01*
X45674Y41475D01*
X45635Y41417D01*
X45593Y41362D01*
X45548Y41308D01*
X45500Y41258D01*
X45450Y41210D01*
X45396Y41165D01*
X45341Y41123D01*
X45283Y41084D01*
X45223Y41049D01*
X45161Y41017D01*
X45097Y40989D01*
X45032Y40964D01*
X44966Y40943D01*
X44898Y40925D01*
X44830Y40912D01*
X44761Y40902D01*
X44692Y40896D01*
X44622Y40894D01*
X44523Y40896D01*
X44425Y40901D01*
X44327Y40911D01*
X44229Y40924D01*
X44132Y40940D01*
X44035Y40960D01*
X43940Y40984D01*
X43845Y41012D01*
X43751Y41043D01*
X43659Y41077D01*
X43568Y41115D01*
X43478Y41156D01*
X43390Y41201D01*
X43304Y41249D01*
X43220Y41300D01*
X43138Y41354D01*
X43057Y41412D01*
X42979Y41472D01*
X42904Y41535D01*
X42830Y41601D01*
X42760Y41670D01*
X42914Y45240D02*
X42916Y45310D01*
X42922Y45379D01*
X42932Y45448D01*
X42945Y45516D01*
X42963Y45584D01*
X42984Y45650D01*
X43009Y45715D01*
X43037Y45779D01*
X43069Y45841D01*
X43104Y45901D01*
X43143Y45959D01*
X43185Y46014D01*
X43230Y46068D01*
X43278Y46118D01*
X43328Y46166D01*
X43382Y46211D01*
X43437Y46253D01*
X43495Y46292D01*
X43555Y46327D01*
X43617Y46359D01*
X43681Y46387D01*
X43746Y46412D01*
X43812Y46433D01*
X43880Y46451D01*
X43948Y46464D01*
X44017Y46474D01*
X44086Y46480D01*
X44156Y46482D01*
X44250Y46480D01*
X44343Y46474D01*
X44436Y46465D01*
X44529Y46452D01*
X44621Y46435D01*
X44712Y46415D01*
X44803Y46390D01*
X44892Y46363D01*
X44980Y46331D01*
X45067Y46296D01*
X45153Y46258D01*
X45236Y46216D01*
X45318Y46171D01*
X45399Y46123D01*
X45477Y46071D01*
X45553Y46016D01*
X43536Y44154D02*
X43477Y44190D01*
X43421Y44230D01*
X43367Y44273D01*
X43315Y44318D01*
X43266Y44367D01*
X43220Y44418D01*
X43177Y44471D01*
X43136Y44527D01*
X43099Y44585D01*
X43064Y44645D01*
X43034Y44706D01*
X43006Y44769D01*
X42982Y44834D01*
X42962Y44900D01*
X42945Y44967D01*
X42932Y45034D01*
X42923Y45102D01*
X42917Y45171D01*
X42915Y45240D01*
X45243Y43222D02*
X45302Y43186D01*
X45358Y43146D01*
X45412Y43103D01*
X45464Y43058D01*
X45513Y43009D01*
X45559Y42958D01*
X45602Y42905D01*
X45643Y42849D01*
X45680Y42791D01*
X45715Y42731D01*
X45745Y42670D01*
X45773Y42607D01*
X45797Y42542D01*
X45817Y42476D01*
X45834Y42409D01*
X45847Y42342D01*
X45856Y42274D01*
X45862Y42205D01*
X45864Y42136D01*
X45243Y43222D02*
X43535Y44154D01*
X87856Y40894D02*
X89098Y40894D01*
X87856Y40894D02*
X87786Y40896D01*
X87717Y40902D01*
X87648Y40912D01*
X87580Y40925D01*
X87512Y40943D01*
X87446Y40964D01*
X87381Y40989D01*
X87317Y41017D01*
X87255Y41049D01*
X87195Y41084D01*
X87137Y41123D01*
X87082Y41165D01*
X87028Y41210D01*
X86978Y41258D01*
X86930Y41308D01*
X86885Y41362D01*
X86843Y41417D01*
X86804Y41475D01*
X86769Y41535D01*
X86737Y41597D01*
X86709Y41661D01*
X86684Y41726D01*
X86663Y41792D01*
X86645Y41860D01*
X86632Y41928D01*
X86622Y41997D01*
X86616Y42066D01*
X86614Y42136D01*
X86614Y45240D01*
X86616Y45310D01*
X86622Y45379D01*
X86632Y45448D01*
X86645Y45516D01*
X86663Y45584D01*
X86684Y45650D01*
X86709Y45715D01*
X86737Y45779D01*
X86769Y45841D01*
X86804Y45901D01*
X86843Y45959D01*
X86885Y46014D01*
X86930Y46068D01*
X86978Y46118D01*
X87028Y46166D01*
X87082Y46211D01*
X87137Y46253D01*
X87195Y46292D01*
X87255Y46327D01*
X87317Y46359D01*
X87381Y46387D01*
X87446Y46412D01*
X87512Y46433D01*
X87580Y46451D01*
X87648Y46464D01*
X87717Y46474D01*
X87786Y46480D01*
X87856Y46482D01*
X89098Y46482D01*
X91440Y46482D02*
X91440Y40894D01*
X93303Y43378D02*
X91440Y46482D01*
X93303Y43378D02*
X95166Y46482D01*
X95166Y40894D01*
X97969Y40894D02*
X97969Y46482D01*
X99521Y46482D01*
X99597Y46480D01*
X99673Y46475D01*
X99749Y46465D01*
X99824Y46452D01*
X99898Y46435D01*
X99972Y46415D01*
X100044Y46391D01*
X100115Y46364D01*
X100185Y46333D01*
X100253Y46299D01*
X100319Y46261D01*
X100383Y46220D01*
X100446Y46177D01*
X100506Y46130D01*
X100563Y46080D01*
X100618Y46027D01*
X100671Y45972D01*
X100721Y45915D01*
X100768Y45855D01*
X100811Y45792D01*
X100852Y45728D01*
X100890Y45662D01*
X100924Y45594D01*
X100955Y45524D01*
X100982Y45453D01*
X101006Y45380D01*
X101026Y45307D01*
X101043Y45233D01*
X101056Y45158D01*
X101066Y45082D01*
X101071Y45006D01*
X101073Y44930D01*
X101073Y42446D01*
X101071Y42367D01*
X101065Y42289D01*
X101055Y42211D01*
X101041Y42134D01*
X101023Y42057D01*
X101002Y41981D01*
X100976Y41907D01*
X100947Y41834D01*
X100914Y41763D01*
X100878Y41693D01*
X100838Y41625D01*
X100795Y41559D01*
X100748Y41496D01*
X100699Y41435D01*
X100646Y41377D01*
X100590Y41321D01*
X100532Y41268D01*
X100471Y41219D01*
X100408Y41172D01*
X100342Y41129D01*
X100274Y41089D01*
X100205Y41053D01*
X100133Y41020D01*
X100060Y40991D01*
X99986Y40965D01*
X99910Y40944D01*
X99833Y40926D01*
X99756Y40912D01*
X99678Y40902D01*
X99600Y40896D01*
X99521Y40894D01*
X97969Y40894D01*
X113877Y40894D02*
X113947Y40896D01*
X114016Y40902D01*
X114085Y40912D01*
X114153Y40925D01*
X114221Y40943D01*
X114287Y40964D01*
X114352Y40989D01*
X114416Y41017D01*
X114478Y41049D01*
X114538Y41084D01*
X114596Y41123D01*
X114651Y41165D01*
X114705Y41210D01*
X114755Y41258D01*
X114803Y41308D01*
X114848Y41362D01*
X114890Y41417D01*
X114929Y41475D01*
X114964Y41535D01*
X114996Y41597D01*
X115024Y41661D01*
X115049Y41726D01*
X115070Y41792D01*
X115088Y41860D01*
X115101Y41928D01*
X115111Y41997D01*
X115117Y42066D01*
X115119Y42136D01*
X113877Y40894D02*
X113778Y40896D01*
X113680Y40901D01*
X113582Y40911D01*
X113484Y40924D01*
X113387Y40940D01*
X113290Y40960D01*
X113195Y40984D01*
X113100Y41012D01*
X113006Y41043D01*
X112914Y41077D01*
X112823Y41115D01*
X112733Y41156D01*
X112645Y41201D01*
X112559Y41249D01*
X112475Y41300D01*
X112393Y41354D01*
X112312Y41412D01*
X112234Y41472D01*
X112159Y41535D01*
X112085Y41601D01*
X112015Y41670D01*
X112169Y45240D02*
X112171Y45310D01*
X112177Y45379D01*
X112187Y45448D01*
X112200Y45516D01*
X112218Y45584D01*
X112239Y45650D01*
X112264Y45715D01*
X112292Y45779D01*
X112324Y45841D01*
X112359Y45901D01*
X112398Y45959D01*
X112440Y46014D01*
X112485Y46068D01*
X112533Y46118D01*
X112583Y46166D01*
X112637Y46211D01*
X112692Y46253D01*
X112750Y46292D01*
X112810Y46327D01*
X112872Y46359D01*
X112936Y46387D01*
X113001Y46412D01*
X113067Y46433D01*
X113135Y46451D01*
X113203Y46464D01*
X113272Y46474D01*
X113341Y46480D01*
X113411Y46482D01*
X113505Y46480D01*
X113598Y46474D01*
X113691Y46465D01*
X113784Y46452D01*
X113876Y46435D01*
X113967Y46415D01*
X114058Y46390D01*
X114147Y46363D01*
X114235Y46331D01*
X114322Y46296D01*
X114408Y46258D01*
X114491Y46216D01*
X114573Y46171D01*
X114654Y46123D01*
X114732Y46071D01*
X114808Y46016D01*
X112790Y44154D02*
X112731Y44190D01*
X112675Y44230D01*
X112621Y44273D01*
X112569Y44318D01*
X112520Y44367D01*
X112474Y44418D01*
X112431Y44471D01*
X112390Y44527D01*
X112353Y44585D01*
X112318Y44645D01*
X112288Y44706D01*
X112260Y44769D01*
X112236Y44834D01*
X112216Y44900D01*
X112199Y44967D01*
X112186Y45034D01*
X112177Y45102D01*
X112171Y45171D01*
X112169Y45240D01*
X114497Y43222D02*
X114556Y43186D01*
X114612Y43146D01*
X114666Y43103D01*
X114718Y43058D01*
X114767Y43009D01*
X114813Y42958D01*
X114856Y42905D01*
X114897Y42849D01*
X114934Y42791D01*
X114969Y42731D01*
X114999Y42670D01*
X115027Y42607D01*
X115051Y42542D01*
X115071Y42476D01*
X115088Y42409D01*
X115101Y42342D01*
X115110Y42274D01*
X115116Y42205D01*
X115118Y42136D01*
X114498Y43222D02*
X112790Y44154D01*
X118543Y40894D02*
X119785Y40894D01*
X118543Y40894D02*
X118473Y40896D01*
X118404Y40902D01*
X118335Y40912D01*
X118267Y40925D01*
X118199Y40943D01*
X118133Y40964D01*
X118068Y40989D01*
X118004Y41017D01*
X117942Y41049D01*
X117882Y41084D01*
X117824Y41123D01*
X117769Y41165D01*
X117715Y41210D01*
X117665Y41258D01*
X117617Y41308D01*
X117572Y41362D01*
X117530Y41417D01*
X117491Y41475D01*
X117456Y41535D01*
X117424Y41597D01*
X117396Y41661D01*
X117371Y41726D01*
X117350Y41792D01*
X117332Y41860D01*
X117319Y41928D01*
X117309Y41997D01*
X117303Y42066D01*
X117301Y42136D01*
X117301Y45240D01*
X117303Y45310D01*
X117309Y45379D01*
X117319Y45448D01*
X117332Y45516D01*
X117350Y45584D01*
X117371Y45650D01*
X117396Y45715D01*
X117424Y45779D01*
X117456Y45841D01*
X117491Y45901D01*
X117530Y45959D01*
X117572Y46014D01*
X117617Y46068D01*
X117665Y46118D01*
X117715Y46166D01*
X117769Y46211D01*
X117824Y46253D01*
X117882Y46292D01*
X117942Y46327D01*
X118004Y46359D01*
X118068Y46387D01*
X118133Y46412D01*
X118199Y46433D01*
X118267Y46451D01*
X118335Y46464D01*
X118404Y46474D01*
X118473Y46480D01*
X118543Y46482D01*
X119785Y46482D01*
X122155Y46482D02*
X122155Y40894D01*
X122155Y43067D02*
X125260Y46482D01*
X123397Y44309D02*
X125260Y40894D01*
X137414Y40894D02*
X137414Y46482D01*
X138966Y46482D01*
X139042Y46480D01*
X139118Y46475D01*
X139194Y46465D01*
X139269Y46452D01*
X139343Y46435D01*
X139417Y46415D01*
X139489Y46391D01*
X139560Y46364D01*
X139630Y46333D01*
X139698Y46299D01*
X139764Y46261D01*
X139828Y46220D01*
X139891Y46177D01*
X139951Y46130D01*
X140008Y46080D01*
X140063Y46027D01*
X140116Y45972D01*
X140166Y45915D01*
X140213Y45855D01*
X140256Y45792D01*
X140297Y45728D01*
X140335Y45662D01*
X140369Y45594D01*
X140400Y45524D01*
X140427Y45453D01*
X140451Y45380D01*
X140471Y45307D01*
X140488Y45233D01*
X140501Y45158D01*
X140511Y45082D01*
X140516Y45006D01*
X140518Y44930D01*
X140518Y42446D01*
X140516Y42367D01*
X140510Y42289D01*
X140500Y42211D01*
X140486Y42134D01*
X140468Y42057D01*
X140447Y41981D01*
X140421Y41907D01*
X140392Y41834D01*
X140359Y41763D01*
X140323Y41693D01*
X140283Y41625D01*
X140240Y41559D01*
X140193Y41496D01*
X140144Y41435D01*
X140091Y41377D01*
X140035Y41321D01*
X139977Y41268D01*
X139916Y41219D01*
X139853Y41172D01*
X139787Y41129D01*
X139719Y41089D01*
X139650Y41053D01*
X139578Y41020D01*
X139505Y40991D01*
X139431Y40965D01*
X139355Y40944D01*
X139278Y40926D01*
X139201Y40912D01*
X139123Y40902D01*
X139045Y40896D01*
X138966Y40894D01*
X137414Y40894D01*
X143538Y40894D02*
X143538Y46482D01*
X142917Y40894D02*
X144159Y40894D01*
X144159Y46482D02*
X142917Y46482D01*
X146558Y46482D02*
X146558Y40894D01*
X149662Y40894D02*
X146558Y46482D01*
X149662Y46482D02*
X149662Y40894D01*
X162447Y43998D02*
X163378Y43998D01*
X163378Y40894D01*
X161516Y40894D01*
X161446Y40896D01*
X161377Y40902D01*
X161308Y40912D01*
X161240Y40925D01*
X161172Y40943D01*
X161106Y40964D01*
X161041Y40989D01*
X160977Y41017D01*
X160915Y41049D01*
X160855Y41084D01*
X160797Y41123D01*
X160742Y41165D01*
X160688Y41210D01*
X160638Y41258D01*
X160590Y41308D01*
X160545Y41362D01*
X160503Y41417D01*
X160464Y41475D01*
X160429Y41535D01*
X160397Y41597D01*
X160369Y41661D01*
X160344Y41726D01*
X160323Y41792D01*
X160305Y41860D01*
X160292Y41928D01*
X160282Y41997D01*
X160276Y42066D01*
X160274Y42136D01*
X160274Y45240D01*
X160276Y45310D01*
X160282Y45379D01*
X160292Y45448D01*
X160305Y45516D01*
X160323Y45584D01*
X160344Y45650D01*
X160369Y45715D01*
X160397Y45779D01*
X160429Y45841D01*
X160464Y45901D01*
X160503Y45959D01*
X160545Y46014D01*
X160590Y46068D01*
X160638Y46118D01*
X160688Y46166D01*
X160742Y46211D01*
X160797Y46253D01*
X160855Y46292D01*
X160915Y46327D01*
X160977Y46359D01*
X161041Y46387D01*
X161106Y46412D01*
X161172Y46433D01*
X161240Y46451D01*
X161308Y46464D01*
X161377Y46474D01*
X161446Y46480D01*
X161516Y46482D01*
X163378Y46482D01*
X166126Y46482D02*
X166126Y40894D01*
X169231Y40894D02*
X166126Y46482D01*
X169231Y46482D02*
X169231Y40894D01*
X171978Y40894D02*
X171978Y46482D01*
X173530Y46482D01*
X173606Y46480D01*
X173682Y46475D01*
X173758Y46465D01*
X173833Y46452D01*
X173907Y46435D01*
X173981Y46415D01*
X174053Y46391D01*
X174124Y46364D01*
X174194Y46333D01*
X174262Y46299D01*
X174328Y46261D01*
X174392Y46220D01*
X174455Y46177D01*
X174515Y46130D01*
X174572Y46080D01*
X174627Y46027D01*
X174680Y45972D01*
X174730Y45915D01*
X174777Y45855D01*
X174820Y45792D01*
X174861Y45728D01*
X174899Y45662D01*
X174933Y45594D01*
X174964Y45524D01*
X174991Y45453D01*
X175015Y45380D01*
X175035Y45307D01*
X175052Y45233D01*
X175065Y45158D01*
X175075Y45082D01*
X175080Y45006D01*
X175082Y44930D01*
X175083Y44930D02*
X175083Y42446D01*
X175082Y42446D02*
X175080Y42367D01*
X175074Y42289D01*
X175064Y42211D01*
X175050Y42134D01*
X175032Y42057D01*
X175011Y41981D01*
X174985Y41907D01*
X174956Y41834D01*
X174923Y41763D01*
X174887Y41693D01*
X174847Y41625D01*
X174804Y41559D01*
X174757Y41496D01*
X174708Y41435D01*
X174655Y41377D01*
X174599Y41321D01*
X174541Y41268D01*
X174480Y41219D01*
X174417Y41172D01*
X174351Y41129D01*
X174283Y41089D01*
X174214Y41053D01*
X174142Y41020D01*
X174069Y40991D01*
X173995Y40965D01*
X173919Y40944D01*
X173842Y40926D01*
X173765Y40912D01*
X173687Y40902D01*
X173609Y40896D01*
X173530Y40894D01*
X171978Y40894D01*
X188214Y40894D02*
X189766Y40894D01*
X189843Y40896D01*
X189921Y40902D01*
X189997Y40911D01*
X190074Y40925D01*
X190149Y40942D01*
X190223Y40963D01*
X190297Y40988D01*
X190369Y41016D01*
X190439Y41048D01*
X190508Y41083D01*
X190575Y41122D01*
X190640Y41164D01*
X190703Y41209D01*
X190764Y41257D01*
X190822Y41308D01*
X190877Y41362D01*
X190930Y41419D01*
X190979Y41478D01*
X191026Y41540D01*
X191070Y41604D01*
X191110Y41670D01*
X191147Y41738D01*
X191181Y41808D01*
X191211Y41879D01*
X191237Y41952D01*
X191260Y42026D01*
X191279Y42101D01*
X191294Y42176D01*
X191306Y42253D01*
X191314Y42330D01*
X191318Y42407D01*
X191318Y42485D01*
X191314Y42562D01*
X191306Y42639D01*
X191294Y42716D01*
X191279Y42791D01*
X191260Y42866D01*
X191237Y42940D01*
X191211Y43013D01*
X191181Y43084D01*
X191147Y43154D01*
X191110Y43222D01*
X191070Y43288D01*
X191026Y43352D01*
X190979Y43414D01*
X190930Y43473D01*
X190877Y43530D01*
X190822Y43584D01*
X190764Y43635D01*
X190703Y43683D01*
X190640Y43728D01*
X190575Y43770D01*
X190508Y43809D01*
X190439Y43844D01*
X190369Y43876D01*
X190297Y43904D01*
X190223Y43929D01*
X190149Y43950D01*
X190074Y43967D01*
X189997Y43981D01*
X189921Y43990D01*
X189843Y43996D01*
X189766Y43998D01*
X190077Y46482D02*
X188214Y46482D01*
X190077Y46482D02*
X190147Y46480D01*
X190216Y46474D01*
X190285Y46464D01*
X190353Y46451D01*
X190421Y46433D01*
X190487Y46412D01*
X190552Y46387D01*
X190616Y46359D01*
X190678Y46327D01*
X190738Y46292D01*
X190796Y46253D01*
X190851Y46211D01*
X190905Y46166D01*
X190955Y46118D01*
X191003Y46068D01*
X191048Y46014D01*
X191090Y45959D01*
X191129Y45901D01*
X191164Y45841D01*
X191196Y45779D01*
X191224Y45715D01*
X191249Y45650D01*
X191270Y45584D01*
X191288Y45516D01*
X191301Y45448D01*
X191311Y45379D01*
X191317Y45310D01*
X191319Y45240D01*
X191317Y45170D01*
X191311Y45101D01*
X191301Y45032D01*
X191288Y44964D01*
X191270Y44896D01*
X191249Y44830D01*
X191224Y44765D01*
X191196Y44701D01*
X191164Y44639D01*
X191129Y44579D01*
X191090Y44521D01*
X191048Y44466D01*
X191003Y44412D01*
X190955Y44362D01*
X190905Y44314D01*
X190851Y44269D01*
X190796Y44227D01*
X190738Y44188D01*
X190678Y44153D01*
X190616Y44121D01*
X190552Y44093D01*
X190487Y44068D01*
X190421Y44047D01*
X190353Y44029D01*
X190285Y44016D01*
X190216Y44006D01*
X190147Y44000D01*
X190077Y43998D01*
X188835Y43998D01*
X193390Y46482D02*
X195253Y40894D01*
X197115Y46482D01*
X199187Y40894D02*
X200739Y40894D01*
X200816Y40896D01*
X200894Y40902D01*
X200970Y40911D01*
X201047Y40925D01*
X201122Y40942D01*
X201196Y40963D01*
X201270Y40988D01*
X201342Y41016D01*
X201412Y41048D01*
X201481Y41083D01*
X201548Y41122D01*
X201613Y41164D01*
X201676Y41209D01*
X201737Y41257D01*
X201795Y41308D01*
X201850Y41362D01*
X201903Y41419D01*
X201952Y41478D01*
X201999Y41540D01*
X202043Y41604D01*
X202083Y41670D01*
X202120Y41738D01*
X202154Y41808D01*
X202184Y41879D01*
X202210Y41952D01*
X202233Y42026D01*
X202252Y42101D01*
X202267Y42176D01*
X202279Y42253D01*
X202287Y42330D01*
X202291Y42407D01*
X202291Y42485D01*
X202287Y42562D01*
X202279Y42639D01*
X202267Y42716D01*
X202252Y42791D01*
X202233Y42866D01*
X202210Y42940D01*
X202184Y43013D01*
X202154Y43084D01*
X202120Y43154D01*
X202083Y43222D01*
X202043Y43288D01*
X201999Y43352D01*
X201952Y43414D01*
X201903Y43473D01*
X201850Y43530D01*
X201795Y43584D01*
X201737Y43635D01*
X201676Y43683D01*
X201613Y43728D01*
X201548Y43770D01*
X201481Y43809D01*
X201412Y43844D01*
X201342Y43876D01*
X201270Y43904D01*
X201196Y43929D01*
X201122Y43950D01*
X201047Y43967D01*
X200970Y43981D01*
X200894Y43990D01*
X200816Y43996D01*
X200739Y43998D01*
X201049Y46482D02*
X199187Y46482D01*
X201049Y46482D02*
X201119Y46480D01*
X201188Y46474D01*
X201257Y46464D01*
X201325Y46451D01*
X201393Y46433D01*
X201459Y46412D01*
X201524Y46387D01*
X201588Y46359D01*
X201650Y46327D01*
X201710Y46292D01*
X201768Y46253D01*
X201823Y46211D01*
X201877Y46166D01*
X201927Y46118D01*
X201975Y46068D01*
X202020Y46014D01*
X202062Y45959D01*
X202101Y45901D01*
X202136Y45841D01*
X202168Y45779D01*
X202196Y45715D01*
X202221Y45650D01*
X202242Y45584D01*
X202260Y45516D01*
X202273Y45448D01*
X202283Y45379D01*
X202289Y45310D01*
X202291Y45240D01*
X202289Y45170D01*
X202283Y45101D01*
X202273Y45032D01*
X202260Y44964D01*
X202242Y44896D01*
X202221Y44830D01*
X202196Y44765D01*
X202168Y44701D01*
X202136Y44639D01*
X202101Y44579D01*
X202062Y44521D01*
X202020Y44466D01*
X201975Y44412D01*
X201927Y44362D01*
X201877Y44314D01*
X201823Y44269D01*
X201768Y44227D01*
X201710Y44188D01*
X201650Y44153D01*
X201588Y44121D01*
X201524Y44093D01*
X201459Y44068D01*
X201393Y44047D01*
X201325Y44029D01*
X201257Y44016D01*
X201188Y44006D01*
X201119Y44000D01*
X201049Y43998D01*
X199808Y43998D01*
D11*
X201380Y168100D02*
X37380Y168100D01*
X17880Y146100D02*
X17880Y112100D01*
X41380Y112100D01*
X197380Y112100D02*
X220880Y112100D01*
X220880Y146100D01*
X199380Y168100D02*
X194380Y176100D01*
X44380Y176100D01*
X39380Y168100D01*
D12*
X191880Y91700D03*
D13*
X191924Y91702D01*
X191967Y91708D01*
X192009Y91717D01*
X192051Y91730D01*
X192091Y91747D01*
X192130Y91767D01*
X192167Y91790D01*
X192201Y91817D01*
X192234Y91846D01*
X192263Y91879D01*
X192290Y91913D01*
X192313Y91950D01*
X192333Y91989D01*
X192350Y92029D01*
X192363Y92071D01*
X192372Y92113D01*
X192378Y92156D01*
X192380Y92200D01*
X192378Y92244D01*
X192372Y92287D01*
X192363Y92329D01*
X192350Y92371D01*
X192333Y92411D01*
X192313Y92450D01*
X192290Y92487D01*
X192263Y92521D01*
X192234Y92554D01*
X192201Y92583D01*
X192167Y92610D01*
X192130Y92633D01*
X192091Y92653D01*
X192051Y92670D01*
X192009Y92683D01*
X191967Y92692D01*
X191924Y92698D01*
X191880Y92700D01*
D12*
X191880Y92700D03*
D13*
X191836Y92698D01*
X191793Y92692D01*
X191751Y92683D01*
X191709Y92670D01*
X191669Y92653D01*
X191630Y92633D01*
X191593Y92610D01*
X191559Y92583D01*
X191526Y92554D01*
X191497Y92521D01*
X191470Y92487D01*
X191447Y92450D01*
X191427Y92411D01*
X191410Y92371D01*
X191397Y92329D01*
X191388Y92287D01*
X191382Y92244D01*
X191380Y92200D01*
X191382Y92156D01*
X191388Y92113D01*
X191397Y92071D01*
X191410Y92029D01*
X191427Y91989D01*
X191447Y91950D01*
X191470Y91913D01*
X191497Y91879D01*
X191526Y91846D01*
X191559Y91817D01*
X191593Y91790D01*
X191630Y91767D01*
X191669Y91747D01*
X191709Y91730D01*
X191751Y91717D01*
X191793Y91708D01*
X191836Y91702D01*
X191880Y91700D01*
D14*
X153545Y153016D02*
X153545Y162104D01*
X153545Y153016D02*
X153543Y152917D01*
X153537Y152817D01*
X153528Y152718D01*
X153515Y152620D01*
X153498Y152522D01*
X153477Y152424D01*
X153452Y152328D01*
X153424Y152233D01*
X153392Y152139D01*
X153357Y152046D01*
X153318Y151954D01*
X153275Y151864D01*
X153230Y151776D01*
X153180Y151689D01*
X153128Y151605D01*
X153072Y151522D01*
X153014Y151442D01*
X152952Y151364D01*
X152887Y151289D01*
X152819Y151216D01*
X152749Y151146D01*
X152676Y151078D01*
X152601Y151013D01*
X152523Y150951D01*
X152443Y150893D01*
X152360Y150837D01*
X152276Y150785D01*
X152189Y150735D01*
X152101Y150690D01*
X152011Y150647D01*
X151919Y150608D01*
X151826Y150573D01*
X151732Y150541D01*
X151637Y150513D01*
X151541Y150488D01*
X151443Y150467D01*
X151345Y150450D01*
X151247Y150437D01*
X151148Y150428D01*
X151048Y150422D01*
X150949Y150420D01*
X149650Y150420D01*
X158818Y153666D02*
X158820Y153779D01*
X158826Y153892D01*
X158836Y154005D01*
X158850Y154118D01*
X158867Y154230D01*
X158889Y154341D01*
X158914Y154451D01*
X158944Y154561D01*
X158977Y154669D01*
X159014Y154776D01*
X159054Y154882D01*
X159099Y154986D01*
X159147Y155089D01*
X159198Y155190D01*
X159253Y155289D01*
X159311Y155386D01*
X159373Y155481D01*
X159438Y155574D01*
X159506Y155664D01*
X159577Y155752D01*
X159652Y155838D01*
X159729Y155921D01*
X159809Y156001D01*
X159892Y156078D01*
X159978Y156153D01*
X160066Y156224D01*
X160156Y156292D01*
X160249Y156357D01*
X160344Y156419D01*
X160441Y156477D01*
X160540Y156532D01*
X160641Y156583D01*
X160744Y156631D01*
X160848Y156676D01*
X160954Y156716D01*
X161061Y156753D01*
X161169Y156786D01*
X161279Y156816D01*
X161389Y156841D01*
X161500Y156863D01*
X161612Y156880D01*
X161725Y156894D01*
X161838Y156904D01*
X161951Y156910D01*
X162064Y156912D01*
X162177Y156910D01*
X162290Y156904D01*
X162403Y156894D01*
X162516Y156880D01*
X162628Y156863D01*
X162739Y156841D01*
X162849Y156816D01*
X162959Y156786D01*
X163067Y156753D01*
X163174Y156716D01*
X163280Y156676D01*
X163384Y156631D01*
X163487Y156583D01*
X163588Y156532D01*
X163687Y156477D01*
X163784Y156419D01*
X163879Y156357D01*
X163972Y156292D01*
X164062Y156224D01*
X164150Y156153D01*
X164236Y156078D01*
X164319Y156001D01*
X164399Y155921D01*
X164476Y155838D01*
X164551Y155752D01*
X164622Y155664D01*
X164690Y155574D01*
X164755Y155481D01*
X164817Y155386D01*
X164875Y155289D01*
X164930Y155190D01*
X164981Y155089D01*
X165029Y154986D01*
X165074Y154882D01*
X165114Y154776D01*
X165151Y154669D01*
X165184Y154561D01*
X165214Y154451D01*
X165239Y154341D01*
X165261Y154230D01*
X165278Y154118D01*
X165292Y154005D01*
X165302Y153892D01*
X165308Y153779D01*
X165310Y153666D01*
X165308Y153553D01*
X165302Y153440D01*
X165292Y153327D01*
X165278Y153214D01*
X165261Y153102D01*
X165239Y152991D01*
X165214Y152881D01*
X165184Y152771D01*
X165151Y152663D01*
X165114Y152556D01*
X165074Y152450D01*
X165029Y152346D01*
X164981Y152243D01*
X164930Y152142D01*
X164875Y152043D01*
X164817Y151946D01*
X164755Y151851D01*
X164690Y151758D01*
X164622Y151668D01*
X164551Y151580D01*
X164476Y151494D01*
X164399Y151411D01*
X164319Y151331D01*
X164236Y151254D01*
X164150Y151179D01*
X164062Y151108D01*
X163972Y151040D01*
X163879Y150975D01*
X163784Y150913D01*
X163687Y150855D01*
X163588Y150800D01*
X163487Y150749D01*
X163384Y150701D01*
X163280Y150656D01*
X163174Y150616D01*
X163067Y150579D01*
X162959Y150546D01*
X162849Y150516D01*
X162739Y150491D01*
X162628Y150469D01*
X162516Y150452D01*
X162403Y150438D01*
X162290Y150428D01*
X162177Y150422D01*
X162064Y150420D01*
X161951Y150422D01*
X161838Y150428D01*
X161725Y150438D01*
X161612Y150452D01*
X161500Y150469D01*
X161389Y150491D01*
X161279Y150516D01*
X161169Y150546D01*
X161061Y150579D01*
X160954Y150616D01*
X160848Y150656D01*
X160744Y150701D01*
X160641Y150749D01*
X160540Y150800D01*
X160441Y150855D01*
X160344Y150913D01*
X160249Y150975D01*
X160156Y151040D01*
X160066Y151108D01*
X159978Y151179D01*
X159892Y151254D01*
X159809Y151331D01*
X159729Y151411D01*
X159652Y151494D01*
X159577Y151580D01*
X159506Y151668D01*
X159438Y151758D01*
X159373Y151851D01*
X159311Y151946D01*
X159253Y152043D01*
X159198Y152142D01*
X159147Y152243D01*
X159099Y152346D01*
X159054Y152450D01*
X159014Y152556D01*
X158977Y152663D01*
X158944Y152771D01*
X158914Y152881D01*
X158889Y152991D01*
X158867Y153102D01*
X158850Y153214D01*
X158836Y153327D01*
X158826Y153440D01*
X158820Y153553D01*
X158818Y153666D01*
X159468Y159508D02*
X159470Y159609D01*
X159476Y159709D01*
X159486Y159809D01*
X159499Y159909D01*
X159517Y160008D01*
X159538Y160107D01*
X159563Y160204D01*
X159592Y160301D01*
X159625Y160396D01*
X159661Y160490D01*
X159701Y160582D01*
X159744Y160673D01*
X159791Y160762D01*
X159841Y160849D01*
X159895Y160935D01*
X159952Y161018D01*
X160012Y161098D01*
X160075Y161177D01*
X160142Y161253D01*
X160211Y161326D01*
X160283Y161396D01*
X160357Y161464D01*
X160434Y161529D01*
X160514Y161590D01*
X160596Y161649D01*
X160680Y161704D01*
X160766Y161756D01*
X160854Y161805D01*
X160944Y161850D01*
X161036Y161892D01*
X161129Y161930D01*
X161224Y161964D01*
X161319Y161995D01*
X161416Y162022D01*
X161514Y162045D01*
X161613Y162065D01*
X161713Y162080D01*
X161813Y162092D01*
X161913Y162100D01*
X162014Y162104D01*
X162114Y162104D01*
X162215Y162100D01*
X162315Y162092D01*
X162415Y162080D01*
X162515Y162065D01*
X162614Y162045D01*
X162712Y162022D01*
X162809Y161995D01*
X162904Y161964D01*
X162999Y161930D01*
X163092Y161892D01*
X163184Y161850D01*
X163274Y161805D01*
X163362Y161756D01*
X163448Y161704D01*
X163532Y161649D01*
X163614Y161590D01*
X163694Y161529D01*
X163771Y161464D01*
X163845Y161396D01*
X163917Y161326D01*
X163986Y161253D01*
X164053Y161177D01*
X164116Y161098D01*
X164176Y161018D01*
X164233Y160935D01*
X164287Y160849D01*
X164337Y160762D01*
X164384Y160673D01*
X164427Y160582D01*
X164467Y160490D01*
X164503Y160396D01*
X164536Y160301D01*
X164565Y160204D01*
X164590Y160107D01*
X164611Y160008D01*
X164629Y159909D01*
X164642Y159809D01*
X164652Y159709D01*
X164658Y159609D01*
X164660Y159508D01*
X164658Y159407D01*
X164652Y159307D01*
X164642Y159207D01*
X164629Y159107D01*
X164611Y159008D01*
X164590Y158909D01*
X164565Y158812D01*
X164536Y158715D01*
X164503Y158620D01*
X164467Y158526D01*
X164427Y158434D01*
X164384Y158343D01*
X164337Y158254D01*
X164287Y158167D01*
X164233Y158081D01*
X164176Y157998D01*
X164116Y157918D01*
X164053Y157839D01*
X163986Y157763D01*
X163917Y157690D01*
X163845Y157620D01*
X163771Y157552D01*
X163694Y157487D01*
X163614Y157426D01*
X163532Y157367D01*
X163448Y157312D01*
X163362Y157260D01*
X163274Y157211D01*
X163184Y157166D01*
X163092Y157124D01*
X162999Y157086D01*
X162904Y157052D01*
X162809Y157021D01*
X162712Y156994D01*
X162614Y156971D01*
X162515Y156951D01*
X162415Y156936D01*
X162315Y156924D01*
X162215Y156916D01*
X162114Y156912D01*
X162014Y156912D01*
X161913Y156916D01*
X161813Y156924D01*
X161713Y156936D01*
X161613Y156951D01*
X161514Y156971D01*
X161416Y156994D01*
X161319Y157021D01*
X161224Y157052D01*
X161129Y157086D01*
X161036Y157124D01*
X160944Y157166D01*
X160854Y157211D01*
X160766Y157260D01*
X160680Y157312D01*
X160596Y157367D01*
X160514Y157426D01*
X160434Y157487D01*
X160357Y157552D01*
X160283Y157620D01*
X160211Y157690D01*
X160142Y157763D01*
X160075Y157839D01*
X160012Y157918D01*
X159952Y157998D01*
X159895Y158081D01*
X159841Y158167D01*
X159791Y158254D01*
X159744Y158343D01*
X159701Y158434D01*
X159661Y158526D01*
X159625Y158620D01*
X159592Y158715D01*
X159563Y158812D01*
X159538Y158909D01*
X159517Y159008D01*
X159499Y159107D01*
X159486Y159207D01*
X159476Y159307D01*
X159470Y159407D01*
X159468Y159508D01*
D15*
X102441Y55499D02*
X101368Y55499D01*
X101303Y55501D01*
X101239Y55507D01*
X101175Y55517D01*
X101111Y55530D01*
X101049Y55548D01*
X100988Y55569D01*
X100928Y55593D01*
X100870Y55622D01*
X100813Y55654D01*
X100759Y55689D01*
X100707Y55727D01*
X100657Y55769D01*
X100610Y55813D01*
X100566Y55860D01*
X100524Y55910D01*
X100486Y55962D01*
X100451Y56016D01*
X100419Y56073D01*
X100390Y56131D01*
X100366Y56191D01*
X100345Y56252D01*
X100327Y56314D01*
X100314Y56378D01*
X100304Y56442D01*
X100298Y56506D01*
X100296Y56571D01*
X100296Y59253D01*
X100298Y59318D01*
X100304Y59382D01*
X100314Y59446D01*
X100327Y59510D01*
X100345Y59572D01*
X100366Y59633D01*
X100390Y59693D01*
X100419Y59751D01*
X100451Y59808D01*
X100486Y59862D01*
X100524Y59914D01*
X100566Y59964D01*
X100610Y60011D01*
X100657Y60055D01*
X100707Y60097D01*
X100759Y60135D01*
X100813Y60170D01*
X100870Y60202D01*
X100928Y60231D01*
X100988Y60255D01*
X101049Y60276D01*
X101111Y60294D01*
X101175Y60307D01*
X101239Y60317D01*
X101303Y60323D01*
X101368Y60325D01*
X102441Y60325D01*
X104897Y59253D02*
X106237Y60325D01*
X106237Y55499D01*
X104897Y55499D02*
X107578Y55499D01*
X110383Y56571D02*
X111455Y60325D01*
X110383Y56571D02*
X113064Y56571D01*
X112260Y57644D02*
X112260Y55499D01*
X56721Y76835D02*
X55648Y76835D01*
X55583Y76837D01*
X55519Y76843D01*
X55455Y76853D01*
X55391Y76866D01*
X55329Y76884D01*
X55268Y76905D01*
X55208Y76929D01*
X55150Y76958D01*
X55093Y76990D01*
X55039Y77025D01*
X54987Y77063D01*
X54937Y77105D01*
X54890Y77149D01*
X54846Y77196D01*
X54804Y77246D01*
X54766Y77298D01*
X54731Y77352D01*
X54699Y77409D01*
X54670Y77467D01*
X54646Y77527D01*
X54625Y77588D01*
X54607Y77650D01*
X54594Y77714D01*
X54584Y77778D01*
X54578Y77842D01*
X54576Y77907D01*
X54576Y80589D01*
X54578Y80654D01*
X54584Y80718D01*
X54594Y80782D01*
X54607Y80846D01*
X54625Y80908D01*
X54646Y80969D01*
X54670Y81029D01*
X54699Y81087D01*
X54731Y81144D01*
X54766Y81198D01*
X54804Y81250D01*
X54846Y81300D01*
X54890Y81347D01*
X54937Y81391D01*
X54987Y81433D01*
X55039Y81471D01*
X55093Y81506D01*
X55150Y81538D01*
X55208Y81567D01*
X55268Y81591D01*
X55329Y81612D01*
X55391Y81630D01*
X55455Y81643D01*
X55519Y81653D01*
X55583Y81659D01*
X55648Y81661D01*
X56721Y81661D01*
X59177Y80589D02*
X60517Y81661D01*
X60517Y76835D01*
X59177Y76835D02*
X61858Y76835D01*
X64663Y76835D02*
X66272Y76835D01*
X66337Y76837D01*
X66401Y76843D01*
X66465Y76853D01*
X66529Y76866D01*
X66591Y76884D01*
X66652Y76905D01*
X66712Y76929D01*
X66770Y76958D01*
X66827Y76990D01*
X66881Y77025D01*
X66933Y77063D01*
X66983Y77105D01*
X67030Y77149D01*
X67074Y77196D01*
X67116Y77246D01*
X67154Y77298D01*
X67189Y77352D01*
X67221Y77409D01*
X67250Y77467D01*
X67274Y77527D01*
X67295Y77588D01*
X67313Y77650D01*
X67326Y77714D01*
X67336Y77778D01*
X67342Y77842D01*
X67344Y77907D01*
X67344Y78444D01*
X67342Y78509D01*
X67336Y78573D01*
X67326Y78637D01*
X67313Y78701D01*
X67295Y78763D01*
X67274Y78824D01*
X67250Y78884D01*
X67221Y78942D01*
X67189Y78999D01*
X67154Y79053D01*
X67116Y79105D01*
X67074Y79155D01*
X67030Y79202D01*
X66983Y79246D01*
X66933Y79288D01*
X66881Y79326D01*
X66827Y79361D01*
X66770Y79393D01*
X66712Y79422D01*
X66652Y79446D01*
X66591Y79467D01*
X66529Y79485D01*
X66465Y79498D01*
X66401Y79508D01*
X66337Y79514D01*
X66272Y79516D01*
X64663Y79516D01*
X64663Y81661D01*
X67344Y81661D01*
X192808Y76835D02*
X193881Y76835D01*
X192808Y76835D02*
X192743Y76837D01*
X192679Y76843D01*
X192615Y76853D01*
X192551Y76866D01*
X192489Y76884D01*
X192428Y76905D01*
X192368Y76929D01*
X192310Y76958D01*
X192253Y76990D01*
X192199Y77025D01*
X192147Y77063D01*
X192097Y77105D01*
X192050Y77149D01*
X192006Y77196D01*
X191964Y77246D01*
X191926Y77298D01*
X191891Y77352D01*
X191859Y77409D01*
X191830Y77467D01*
X191806Y77527D01*
X191785Y77588D01*
X191767Y77650D01*
X191754Y77714D01*
X191744Y77778D01*
X191738Y77842D01*
X191736Y77907D01*
X191736Y80589D01*
X191738Y80654D01*
X191744Y80718D01*
X191754Y80782D01*
X191767Y80846D01*
X191785Y80908D01*
X191806Y80969D01*
X191830Y81029D01*
X191859Y81087D01*
X191891Y81144D01*
X191926Y81198D01*
X191964Y81250D01*
X192006Y81300D01*
X192050Y81347D01*
X192097Y81391D01*
X192147Y81433D01*
X192199Y81471D01*
X192253Y81506D01*
X192310Y81538D01*
X192368Y81567D01*
X192428Y81591D01*
X192489Y81612D01*
X192551Y81630D01*
X192615Y81643D01*
X192679Y81653D01*
X192743Y81659D01*
X192808Y81661D01*
X193881Y81661D01*
X196337Y80589D02*
X197677Y81661D01*
X197677Y76835D01*
X196337Y76835D02*
X199018Y76835D01*
X201823Y81125D02*
X201823Y81661D01*
X204504Y81661D01*
X203164Y76835D01*
X148161Y55499D02*
X147088Y55499D01*
X147023Y55501D01*
X146959Y55507D01*
X146895Y55517D01*
X146831Y55530D01*
X146769Y55548D01*
X146708Y55569D01*
X146648Y55593D01*
X146590Y55622D01*
X146533Y55654D01*
X146479Y55689D01*
X146427Y55727D01*
X146377Y55769D01*
X146330Y55813D01*
X146286Y55860D01*
X146244Y55910D01*
X146206Y55962D01*
X146171Y56016D01*
X146139Y56073D01*
X146110Y56131D01*
X146086Y56191D01*
X146065Y56252D01*
X146047Y56314D01*
X146034Y56378D01*
X146024Y56442D01*
X146018Y56506D01*
X146016Y56571D01*
X146016Y59253D01*
X146018Y59318D01*
X146024Y59382D01*
X146034Y59446D01*
X146047Y59510D01*
X146065Y59572D01*
X146086Y59633D01*
X146110Y59693D01*
X146139Y59751D01*
X146171Y59808D01*
X146206Y59862D01*
X146244Y59914D01*
X146286Y59964D01*
X146330Y60011D01*
X146377Y60055D01*
X146427Y60097D01*
X146479Y60135D01*
X146533Y60170D01*
X146590Y60202D01*
X146648Y60231D01*
X146708Y60255D01*
X146769Y60276D01*
X146831Y60294D01*
X146895Y60307D01*
X146959Y60317D01*
X147023Y60323D01*
X147088Y60325D01*
X148161Y60325D01*
X150617Y59253D02*
X151957Y60325D01*
X151957Y55499D01*
X150617Y55499D02*
X153298Y55499D01*
X156103Y58180D02*
X157712Y58180D01*
X157777Y58178D01*
X157841Y58172D01*
X157905Y58162D01*
X157969Y58149D01*
X158031Y58131D01*
X158092Y58110D01*
X158152Y58086D01*
X158210Y58057D01*
X158267Y58025D01*
X158321Y57990D01*
X158373Y57952D01*
X158423Y57910D01*
X158470Y57866D01*
X158514Y57819D01*
X158556Y57769D01*
X158594Y57717D01*
X158629Y57663D01*
X158661Y57606D01*
X158690Y57548D01*
X158714Y57488D01*
X158735Y57427D01*
X158753Y57365D01*
X158766Y57301D01*
X158776Y57237D01*
X158782Y57173D01*
X158784Y57108D01*
X158784Y56840D01*
X158785Y56840D02*
X158783Y56769D01*
X158777Y56697D01*
X158768Y56627D01*
X158755Y56557D01*
X158738Y56487D01*
X158717Y56419D01*
X158693Y56352D01*
X158665Y56286D01*
X158634Y56222D01*
X158599Y56159D01*
X158561Y56099D01*
X158520Y56040D01*
X158476Y55984D01*
X158429Y55930D01*
X158380Y55879D01*
X158327Y55831D01*
X158272Y55785D01*
X158215Y55743D01*
X158155Y55703D01*
X158094Y55667D01*
X158030Y55634D01*
X157965Y55605D01*
X157899Y55579D01*
X157831Y55556D01*
X157762Y55537D01*
X157692Y55522D01*
X157622Y55511D01*
X157551Y55503D01*
X157480Y55499D01*
X157408Y55499D01*
X157337Y55503D01*
X157266Y55511D01*
X157196Y55522D01*
X157126Y55537D01*
X157057Y55556D01*
X156989Y55579D01*
X156923Y55605D01*
X156858Y55634D01*
X156794Y55667D01*
X156733Y55703D01*
X156673Y55743D01*
X156616Y55785D01*
X156561Y55831D01*
X156508Y55879D01*
X156459Y55930D01*
X156412Y55984D01*
X156368Y56040D01*
X156327Y56099D01*
X156289Y56159D01*
X156254Y56222D01*
X156223Y56286D01*
X156195Y56352D01*
X156171Y56419D01*
X156150Y56487D01*
X156133Y56557D01*
X156120Y56627D01*
X156111Y56697D01*
X156105Y56769D01*
X156103Y56840D01*
X156103Y58180D01*
X156105Y58271D01*
X156111Y58362D01*
X156120Y58452D01*
X156134Y58543D01*
X156151Y58632D01*
X156172Y58720D01*
X156197Y58808D01*
X156226Y58895D01*
X156258Y58980D01*
X156293Y59064D01*
X156333Y59146D01*
X156375Y59226D01*
X156421Y59305D01*
X156471Y59381D01*
X156523Y59455D01*
X156579Y59528D01*
X156638Y59597D01*
X156699Y59664D01*
X156764Y59729D01*
X156831Y59790D01*
X156900Y59849D01*
X156972Y59905D01*
X157047Y59957D01*
X157123Y60007D01*
X157202Y60053D01*
X157282Y60095D01*
X157364Y60135D01*
X157448Y60170D01*
X157533Y60202D01*
X157620Y60231D01*
X157707Y60256D01*
X157796Y60277D01*
X157885Y60294D01*
X157976Y60308D01*
X158066Y60317D01*
X158157Y60323D01*
X158248Y60325D01*
D16*
X49530Y7620D02*
X36830Y7620D01*
X30480Y13970D01*
X30480Y26670D02*
X36830Y33020D01*
X74930Y7620D02*
X81280Y13970D01*
X74930Y7620D02*
X62230Y7620D01*
X55880Y13970D01*
X55880Y26670D02*
X62230Y33020D01*
X74930Y33020D01*
X81280Y26670D01*
X55880Y13970D02*
X49530Y7620D01*
X55880Y26670D02*
X49530Y33020D01*
X36830Y33020D01*
X113030Y7620D02*
X125730Y7620D01*
X113030Y7620D02*
X106680Y13970D01*
X106680Y26670D02*
X113030Y33020D01*
X106680Y13970D02*
X100330Y7620D01*
X87630Y7620D01*
X81280Y13970D01*
X81280Y26670D02*
X87630Y33020D01*
X100330Y33020D01*
X106680Y26670D01*
X151130Y7620D02*
X157480Y13970D01*
X151130Y7620D02*
X138430Y7620D01*
X132080Y13970D01*
X132080Y26670D02*
X138430Y33020D01*
X151130Y33020D01*
X157480Y26670D01*
X132080Y13970D02*
X125730Y7620D01*
X132080Y26670D02*
X125730Y33020D01*
X113030Y33020D01*
X189230Y7620D02*
X201930Y7620D01*
X189230Y7620D02*
X182880Y13970D01*
X182880Y26670D02*
X189230Y33020D01*
X182880Y13970D02*
X176530Y7620D01*
X163830Y7620D01*
X157480Y13970D01*
X157480Y26670D02*
X163830Y33020D01*
X176530Y33020D01*
X182880Y26670D01*
X208280Y26670D02*
X208280Y13970D01*
X201930Y7620D01*
X208280Y26670D02*
X201930Y33020D01*
X189230Y33020D01*
X30480Y26670D02*
X30480Y13970D01*
D15*
X202016Y5715D02*
X202016Y1961D01*
X202014Y1896D01*
X202008Y1832D01*
X201998Y1768D01*
X201985Y1704D01*
X201967Y1642D01*
X201946Y1581D01*
X201922Y1521D01*
X201893Y1463D01*
X201861Y1406D01*
X201826Y1352D01*
X201788Y1300D01*
X201746Y1250D01*
X201702Y1203D01*
X201655Y1159D01*
X201605Y1117D01*
X201553Y1079D01*
X201499Y1044D01*
X201442Y1012D01*
X201384Y983D01*
X201324Y959D01*
X201263Y938D01*
X201201Y920D01*
X201137Y907D01*
X201073Y897D01*
X201009Y891D01*
X200944Y889D01*
X200407Y889D01*
X204964Y4643D02*
X206304Y5715D01*
X206304Y889D01*
X204964Y889D02*
X207645Y889D01*
M02*
