G04 EAGLE Gerber RS-274X export*
G75*
%MOMM*%
%FSLAX34Y34*%
%LPD*%
%INSoldermask Top*%
%IPPOS*%
%AMOC8*
5,1,8,0,0,1.08239X$1,22.5*%
G01*
%ADD10R,0.503200X1.503200*%
%ADD11R,2.003200X2.403200*%
%ADD12R,1.303200X1.203200*%
%ADD13C,2.082800*%
%ADD14C,0.959600*%


D10*
X191880Y103300D03*
X186880Y103300D03*
X181880Y103300D03*
X176880Y103300D03*
X171880Y103300D03*
X166880Y103300D03*
X161880Y103300D03*
X156880Y103300D03*
X151880Y103300D03*
X146880Y103300D03*
X141880Y103300D03*
X136880Y103300D03*
X131880Y103300D03*
X126880Y103300D03*
X121880Y103300D03*
X116880Y103300D03*
X111880Y103300D03*
X106880Y103300D03*
X101880Y103300D03*
X96880Y103300D03*
X91880Y103300D03*
X86880Y103300D03*
X81880Y103300D03*
X76880Y103300D03*
X71880Y103300D03*
X66880Y103300D03*
X61880Y103300D03*
X56880Y103300D03*
X51880Y103300D03*
X46880Y103300D03*
D11*
X213380Y159800D03*
X25380Y159800D03*
D12*
X115180Y68580D03*
X98180Y68580D03*
X52460Y68580D03*
X69460Y68580D03*
X189620Y68580D03*
X206620Y68580D03*
X160900Y68580D03*
X143900Y68580D03*
D13*
X195580Y20320D03*
X170180Y20320D03*
X144780Y20320D03*
X119380Y20320D03*
X93980Y20320D03*
X68580Y20320D03*
X43180Y20320D03*
D14*
X86868Y35052D03*
X115824Y38100D03*
X115824Y82296D03*
X202692Y42672D03*
X138684Y44196D03*
M02*
