M48
;GenerationSoftware,Autodesk,EAGLE,9.6.2*%
;CreationDate,2023-03-15T21:32:09Z*%
FMAT,2
ICI,OFF
METRIC,TZ,000.000
T8C0.600
T7C0.610
T6C0.800
T5C1.000
T4C1.016
T3C1.500
T2C2.200
T1C2.800
%
G90
M71
T1
X61140Y90170
X70940Y90170
T2
X6350Y6350
X19050Y6350
X31750Y6350
X44450Y6350
X57150Y6350
X72390Y6350
T3
X44070Y62865
X34670Y62865
X70740Y62865
X61340Y62865
X17400Y36195
X8000Y36195
X44070Y36195
X34670Y36195
X17400Y62865
X8000Y62865
X70740Y36195
X61340Y36195
T4
X73660Y16828
X76200Y16828
X73660Y19368
X76200Y19368
X73660Y21907
X76200Y21907
X73660Y24447
X76200Y24447
X5080Y77470
X7620Y77470
X10160Y77470
X12700Y77470
X15240Y77470
X17780Y77470
X76200Y14287
X73660Y14287
X76835Y6350
X69215Y6350
X62865Y6350
X9525Y6350
X1905Y6350
X52705Y6350
X60325Y6350
X50165Y6350
X12065Y6350
X22225Y6350
X40005Y6350
X66675Y6350
X47625Y6350
X14605Y6350
X24765Y6350
X37465Y6350
X27305Y6350
X34925Y6350
T5
X15200Y29195
X12700Y29195
X63540Y55865
X66040Y55865
X68540Y55865
X10200Y29195
X41870Y29195
X39370Y29195
X39370Y55865
X41870Y55865
X36870Y29195
X15200Y55865
X68540Y97170
X63540Y97170
X68540Y82670
X66040Y82670
X63540Y82670
X63540Y29195
X36870Y55865
X66040Y29195
X68540Y29195
X10200Y55865
X12700Y55865
T6
X21273Y97790
X23812Y97790
X26352Y97790
X26352Y82550
X23812Y82550
X21273Y82550
X18733Y82550
X16192Y82550
X13652Y82550
X11112Y82550
X8573Y82550
X6032Y82550
X31432Y97790
X33973Y97790
X36513Y97790
X39053Y97790
X41593Y97790
X44132Y97790
X46672Y97790
X49212Y97790
X51752Y97790
X51752Y82550
X49212Y82550
X46672Y82550
X44132Y82550
X41593Y82550
X39053Y82550
X36513Y82550
X33973Y82550
X31432Y82550
X8573Y97790
X6032Y97790
X11112Y97790
X13652Y97790
X16192Y97790
X18733Y97790
T7
X5715Y69215
X4445Y69215
X5715Y67945
X4445Y67945
X4445Y70485
X5715Y70485
X4445Y71755
X5715Y71755
X4445Y73025
X5715Y73025
T8
X20003Y51752
X5080Y58420
X8890Y69215
X8890Y71755
X7620Y68580
X7620Y72708
X27305Y14605
X29210Y8890
X59055Y19368
X62230Y19368
X25082Y31432
X20320Y26670
X24765Y59690
X25082Y88265
X25717Y60642
X27622Y88265
X23812Y60960
X69215Y84455
X22542Y87630
X21273Y93027
X26352Y92392
X26352Y87313
X21273Y86678
X8573Y95567
X13652Y94932
X16192Y94297
X18733Y86043
X16192Y85408
X13652Y84773
X18733Y93662
X69215Y78105
X68580Y65723
X58102Y67310
X56515Y78105
X41910Y70803
X36195Y69850
X65405Y79058
X65405Y65723
X39688Y69215
X36513Y67945
X40323Y89852
X40323Y99695
X58737Y78423
X59055Y73660
X67945Y79058
X67310Y65087
X55245Y79058
X56832Y66358
X40640Y70168
X35243Y68580
X47942Y99695
X49212Y89217
X58102Y94932
X6667Y100330
X61595Y71120
X61277Y82868
X46355Y75248
X47942Y80645
X32702Y91122
X32702Y99695
X35243Y90487
X33973Y104140
X42863Y89217
X42863Y99695
X44450Y72073
X45402Y80645
X42863Y73660
X42863Y80645
X40323Y74613
X40323Y80645
X37783Y75248
X37783Y80645
X47942Y92392
X45402Y99695
X11112Y64135
X8890Y67628
X41910Y48895
X41910Y40640
X18733Y9208
X32385Y34608
X32702Y22542
X65087Y41910
X35560Y31750
X36195Y23177
X33338Y33655
X34290Y24130
X62865Y44450
X17780Y31115
X38418Y26352
X40323Y24765
X44132Y39688
X46037Y29527
X61912Y53340
X61912Y45720
X58102Y34925
X58420Y28257
X62547Y8890
X66675Y8890
X63817Y52387
X63817Y42863
X34608Y21907
X34290Y32385
X50165Y30162
X52070Y33338
X39688Y34925
X36195Y48895
X38100Y43815
X22860Y72390
X5080Y62865
X18415Y47307
X32385Y72073
X18415Y53340
X18415Y43180
X50800Y36830
X56832Y40323
X29527Y60325
X20955Y73025
X20955Y63817
X35560Y59055
X59372Y65087
X60007Y79693
X67310Y53022
X61595Y54927
X60642Y46672
X67628Y46672
X22225Y78740
X75248Y60642
X11747Y23495
X59372Y17145
X44450Y13970
X29210Y49530
X36830Y19050
X11430Y46990
X77470Y34290
X77470Y44450
X77470Y54610
X77470Y64770
X77470Y74930
X77470Y85090
X77470Y95250
X1270Y85090
X29210Y105410
X46990Y105410
X57150Y105410
X67310Y105410
X77470Y105410
X1270Y105410
X1270Y95250
X1270Y62230
X1270Y34290
X1270Y24130
X1270Y11430
X77470Y1270
X67310Y1270
X57150Y1270
X46990Y1270
X36830Y1270
X26670Y1270
X16510Y1270
X6350Y1270
X36830Y37465
X69215Y72073
X28257Y65723
X23177Y31432
X36830Y39688
X25400Y22860
X73343Y27940
X46037Y40005
X31115Y27305
X4445Y46990
X69215Y12382
X39688Y72708
X19685Y64770
X69533Y43815
X17145Y49847
X19685Y49847
X24447Y36195
X53975Y21590
X47307Y26670
X20638Y59372
X22225Y75883
X11112Y93345
X17780Y26035
X1905Y55880
X5398Y55880
X27305Y69215
X12700Y62865
X60960Y33655
X59690Y41275
X40640Y37465
X40640Y39688
X56197Y16192
X42545Y21907
X36513Y27305
X29845Y38735
X34925Y43815
X39370Y48895
X44767Y52705
X51752Y86995
X7302Y86043
X27305Y78740
X66040Y60642
X50800Y65723
X59055Y48577
X56515Y53340
X24447Y17145
X27940Y31432
X51752Y35560
X64452Y24447
X51435Y48895
X51435Y42545
X33973Y72390
X68580Y60642
X73025Y42545
X43180Y59690
X52070Y56832
X57626Y59849
X24130Y53657
X26670Y53657
X31115Y63500
X23177Y59372
X62865Y78740
X66675Y78105
X53975Y78105
X71755Y72390
X60642Y69850
X56197Y97155
X21907Y102235
X13652Y102235
X57467Y92710
M30