G04 EAGLE Gerber RS-274X export*
G75*
%MOMM*%
%FSLAX34Y34*%
%LPD*%
%INBottom Copper*%
%IPPOS*%
%AMOC8*
5,1,8,0,0,1.08239X$1,22.5*%
G01*
%ADD10P,1.979475X8X202.500000*%
%ADD11C,1.332000*%
%ADD12R,0.600000X1.250000*%
%ADD13C,1.828800*%
%ADD14R,0.650000X1.528000*%
%ADD15R,1.600000X2.800000*%
%ADD16R,1.600000X3.200000*%
%ADD17R,1.879600X1.879600*%
%ADD18P,2.922453X8X112.500000*%
%ADD19R,1.100000X1.000000*%
%ADD20R,0.750000X1.200000*%
%ADD21C,1.879600*%
%ADD22R,1.250000X0.600000*%
%ADD23C,0.502400*%
%ADD24C,0.127000*%
%ADD25C,0.452400*%

G36*
X296848Y2016D02*
X296848Y2016D01*
X296967Y2023D01*
X297005Y2036D01*
X297046Y2041D01*
X297156Y2084D01*
X297269Y2121D01*
X297304Y2143D01*
X297341Y2158D01*
X297437Y2227D01*
X297538Y2291D01*
X297566Y2321D01*
X297599Y2344D01*
X297675Y2436D01*
X297756Y2523D01*
X297776Y2558D01*
X297801Y2589D01*
X297852Y2697D01*
X297910Y2801D01*
X297920Y2841D01*
X297937Y2877D01*
X297959Y2994D01*
X297989Y3109D01*
X297993Y3169D01*
X297997Y3189D01*
X297995Y3210D01*
X297999Y3270D01*
X297999Y1069730D01*
X297984Y1069848D01*
X297977Y1069967D01*
X297964Y1070005D01*
X297959Y1070046D01*
X297916Y1070156D01*
X297879Y1070269D01*
X297857Y1070304D01*
X297842Y1070341D01*
X297773Y1070437D01*
X297709Y1070538D01*
X297679Y1070566D01*
X297656Y1070599D01*
X297564Y1070675D01*
X297477Y1070756D01*
X297442Y1070776D01*
X297411Y1070801D01*
X297303Y1070852D01*
X297199Y1070910D01*
X297159Y1070920D01*
X297123Y1070937D01*
X297006Y1070959D01*
X296891Y1070989D01*
X296831Y1070993D01*
X296811Y1070997D01*
X296790Y1070995D01*
X296730Y1070999D01*
X3270Y1070999D01*
X3152Y1070984D01*
X3033Y1070977D01*
X2995Y1070964D01*
X2954Y1070959D01*
X2844Y1070916D01*
X2731Y1070879D01*
X2696Y1070857D01*
X2659Y1070842D01*
X2563Y1070773D01*
X2462Y1070709D01*
X2434Y1070679D01*
X2401Y1070656D01*
X2325Y1070564D01*
X2244Y1070477D01*
X2224Y1070442D01*
X2199Y1070411D01*
X2148Y1070303D01*
X2090Y1070199D01*
X2080Y1070159D01*
X2063Y1070123D01*
X2041Y1070006D01*
X2011Y1069891D01*
X2007Y1069831D01*
X2003Y1069811D01*
X2005Y1069790D01*
X2001Y1069730D01*
X2001Y3270D01*
X2016Y3152D01*
X2023Y3033D01*
X2036Y2995D01*
X2041Y2954D01*
X2084Y2844D01*
X2121Y2731D01*
X2143Y2696D01*
X2158Y2659D01*
X2227Y2563D01*
X2291Y2462D01*
X2321Y2434D01*
X2344Y2401D01*
X2436Y2325D01*
X2523Y2244D01*
X2558Y2224D01*
X2589Y2199D01*
X2697Y2148D01*
X2801Y2090D01*
X2841Y2080D01*
X2877Y2063D01*
X2994Y2041D01*
X3109Y2011D01*
X3169Y2007D01*
X3189Y2003D01*
X3210Y2005D01*
X3270Y2001D01*
X296730Y2001D01*
X296848Y2016D01*
G37*
%LPC*%
G36*
X152334Y105489D02*
X152334Y105489D01*
X151589Y106234D01*
X151589Y117286D01*
X152334Y118031D01*
X155575Y118031D01*
X155693Y118046D01*
X155812Y118053D01*
X155850Y118066D01*
X155891Y118071D01*
X156001Y118114D01*
X156114Y118151D01*
X156149Y118173D01*
X156186Y118188D01*
X156282Y118257D01*
X156383Y118321D01*
X156411Y118351D01*
X156444Y118374D01*
X156520Y118466D01*
X156601Y118553D01*
X156621Y118588D01*
X156646Y118619D01*
X156697Y118727D01*
X156755Y118831D01*
X156765Y118871D01*
X156782Y118907D01*
X156804Y119024D01*
X156834Y119139D01*
X156838Y119199D01*
X156842Y119219D01*
X156840Y119240D01*
X156844Y119300D01*
X156844Y144145D01*
X156829Y144263D01*
X156822Y144382D01*
X156809Y144420D01*
X156804Y144461D01*
X156761Y144571D01*
X156724Y144684D01*
X156702Y144719D01*
X156687Y144756D01*
X156618Y144852D01*
X156554Y144953D01*
X156524Y144981D01*
X156501Y145014D01*
X156409Y145090D01*
X156322Y145171D01*
X156287Y145191D01*
X156256Y145216D01*
X156148Y145267D01*
X156044Y145325D01*
X156004Y145335D01*
X155968Y145352D01*
X155851Y145374D01*
X155736Y145404D01*
X155676Y145408D01*
X155656Y145412D01*
X155635Y145410D01*
X155575Y145414D01*
X150341Y145414D01*
X71995Y223760D01*
X71917Y223820D01*
X71845Y223888D01*
X71792Y223917D01*
X71744Y223954D01*
X71653Y223994D01*
X71566Y224042D01*
X71508Y224057D01*
X71452Y224081D01*
X71354Y224096D01*
X71259Y224121D01*
X71159Y224127D01*
X71138Y224131D01*
X71126Y224129D01*
X71098Y224131D01*
X51436Y224131D01*
X50691Y224876D01*
X50691Y244724D01*
X51436Y245469D01*
X71284Y245469D01*
X72029Y244724D01*
X72029Y229642D01*
X72041Y229544D01*
X72044Y229445D01*
X72061Y229387D01*
X72069Y229327D01*
X72105Y229235D01*
X72133Y229139D01*
X72163Y229087D01*
X72186Y229031D01*
X72244Y228951D01*
X72294Y228865D01*
X72360Y228790D01*
X72372Y228774D01*
X72382Y228766D01*
X72400Y228745D01*
X73525Y227621D01*
X73634Y227536D01*
X73741Y227447D01*
X73760Y227438D01*
X73776Y227426D01*
X73903Y227370D01*
X74029Y227311D01*
X74049Y227307D01*
X74068Y227299D01*
X74206Y227277D01*
X74342Y227251D01*
X74362Y227253D01*
X74382Y227249D01*
X74521Y227263D01*
X74659Y227271D01*
X74678Y227277D01*
X74698Y227279D01*
X74830Y227326D01*
X74961Y227369D01*
X74979Y227380D01*
X74998Y227387D01*
X75113Y227465D01*
X75230Y227539D01*
X75244Y227554D01*
X75261Y227565D01*
X75353Y227669D01*
X75448Y227771D01*
X75458Y227789D01*
X75471Y227804D01*
X75534Y227928D01*
X75602Y228049D01*
X75607Y228069D01*
X75616Y228087D01*
X75646Y228223D01*
X75681Y228357D01*
X75683Y228385D01*
X75686Y228397D01*
X75685Y228418D01*
X75691Y228518D01*
X75691Y244724D01*
X76436Y245469D01*
X96284Y245469D01*
X97029Y244724D01*
X97029Y224876D01*
X96284Y224131D01*
X80078Y224131D01*
X79941Y224114D01*
X79802Y224101D01*
X79783Y224094D01*
X79763Y224091D01*
X79634Y224040D01*
X79502Y223993D01*
X79486Y223982D01*
X79467Y223974D01*
X79355Y223893D01*
X79239Y223815D01*
X79226Y223799D01*
X79210Y223788D01*
X79121Y223680D01*
X79029Y223576D01*
X79020Y223558D01*
X79007Y223543D01*
X78948Y223417D01*
X78884Y223293D01*
X78880Y223273D01*
X78871Y223255D01*
X78845Y223119D01*
X78815Y222983D01*
X78815Y222962D01*
X78811Y222943D01*
X78820Y222804D01*
X78824Y222665D01*
X78830Y222645D01*
X78831Y222625D01*
X78874Y222493D01*
X78913Y222359D01*
X78923Y222342D01*
X78929Y222323D01*
X79004Y222205D01*
X79074Y222085D01*
X79093Y222064D01*
X79099Y222054D01*
X79110Y222044D01*
X79111Y222042D01*
X79118Y222036D01*
X79181Y221965D01*
X151548Y149597D01*
X151626Y149537D01*
X151698Y149469D01*
X151751Y149440D01*
X151799Y149403D01*
X151890Y149363D01*
X151977Y149315D01*
X152035Y149300D01*
X152091Y149276D01*
X152189Y149261D01*
X152284Y149236D01*
X152384Y149230D01*
X152405Y149226D01*
X152417Y149228D01*
X152445Y149226D01*
X157435Y149226D01*
X157533Y149238D01*
X157632Y149241D01*
X157690Y149258D01*
X157750Y149266D01*
X157843Y149302D01*
X157938Y149330D01*
X157990Y149360D01*
X158046Y149383D01*
X158126Y149441D01*
X158212Y149491D01*
X158287Y149557D01*
X158303Y149569D01*
X158308Y149575D01*
X158311Y149577D01*
X158316Y149583D01*
X158332Y149597D01*
X172318Y163583D01*
X172378Y163661D01*
X172446Y163733D01*
X172471Y163778D01*
X172476Y163784D01*
X172479Y163791D01*
X172512Y163834D01*
X172552Y163925D01*
X172600Y164012D01*
X172615Y164070D01*
X172639Y164126D01*
X172654Y164224D01*
X172679Y164319D01*
X172685Y164419D01*
X172689Y164440D01*
X172687Y164452D01*
X172689Y164480D01*
X172689Y173166D01*
X173434Y173911D01*
X183550Y173911D01*
X183687Y173928D01*
X183826Y173941D01*
X183845Y173948D01*
X183865Y173951D01*
X183994Y174002D01*
X184126Y174049D01*
X184142Y174060D01*
X184161Y174068D01*
X184274Y174149D01*
X184389Y174227D01*
X184402Y174243D01*
X184418Y174254D01*
X184507Y174362D01*
X184599Y174466D01*
X184608Y174484D01*
X184621Y174499D01*
X184681Y174625D01*
X184744Y174749D01*
X184748Y174769D01*
X184757Y174787D01*
X184783Y174923D01*
X184813Y175059D01*
X184813Y175080D01*
X184817Y175099D01*
X184808Y175238D01*
X184804Y175377D01*
X184798Y175397D01*
X184797Y175417D01*
X184754Y175549D01*
X184715Y175683D01*
X184705Y175700D01*
X184699Y175719D01*
X184624Y175837D01*
X184554Y175957D01*
X184535Y175978D01*
X184529Y175988D01*
X184514Y176002D01*
X184447Y176077D01*
X178434Y182091D01*
X178434Y190580D01*
X178419Y190698D01*
X178412Y190817D01*
X178399Y190855D01*
X178394Y190896D01*
X178351Y191006D01*
X178314Y191119D01*
X178292Y191154D01*
X178277Y191191D01*
X178208Y191287D01*
X178144Y191388D01*
X178114Y191416D01*
X178091Y191449D01*
X177999Y191525D01*
X177912Y191606D01*
X177877Y191626D01*
X177846Y191651D01*
X177738Y191702D01*
X177634Y191760D01*
X177594Y191770D01*
X177558Y191787D01*
X177441Y191809D01*
X177326Y191839D01*
X177266Y191843D01*
X177246Y191847D01*
X177225Y191845D01*
X177165Y191849D01*
X173434Y191849D01*
X172689Y192594D01*
X172689Y194945D01*
X172674Y195063D01*
X172667Y195182D01*
X172654Y195220D01*
X172649Y195261D01*
X172606Y195371D01*
X172569Y195484D01*
X172547Y195519D01*
X172532Y195556D01*
X172463Y195652D01*
X172399Y195753D01*
X172369Y195781D01*
X172346Y195814D01*
X172254Y195890D01*
X172167Y195971D01*
X172132Y195991D01*
X172101Y196016D01*
X171993Y196067D01*
X171889Y196125D01*
X171849Y196135D01*
X171813Y196152D01*
X171696Y196174D01*
X171581Y196204D01*
X171521Y196208D01*
X171501Y196212D01*
X171480Y196210D01*
X171420Y196214D01*
X146531Y196214D01*
X118985Y223760D01*
X118907Y223820D01*
X118835Y223888D01*
X118782Y223917D01*
X118734Y223954D01*
X118643Y223994D01*
X118557Y224042D01*
X118498Y224057D01*
X118442Y224081D01*
X118344Y224096D01*
X118249Y224121D01*
X118149Y224127D01*
X118128Y224131D01*
X118116Y224129D01*
X118088Y224131D01*
X101436Y224131D01*
X100691Y224876D01*
X100691Y244724D01*
X101436Y245469D01*
X121284Y245469D01*
X122029Y244724D01*
X122029Y226632D01*
X122041Y226534D01*
X122044Y226435D01*
X122061Y226377D01*
X122069Y226317D01*
X122105Y226224D01*
X122133Y226129D01*
X122163Y226077D01*
X122186Y226021D01*
X122244Y225941D01*
X122294Y225855D01*
X122360Y225780D01*
X122372Y225764D01*
X122382Y225756D01*
X122400Y225735D01*
X147738Y200397D01*
X147816Y200337D01*
X147888Y200269D01*
X147941Y200240D01*
X147989Y200203D01*
X148080Y200163D01*
X148167Y200115D01*
X148225Y200100D01*
X148281Y200076D01*
X148379Y200061D01*
X148474Y200036D01*
X148574Y200030D01*
X148595Y200026D01*
X148607Y200028D01*
X148635Y200026D01*
X171420Y200026D01*
X171538Y200041D01*
X171657Y200048D01*
X171695Y200061D01*
X171736Y200066D01*
X171846Y200109D01*
X171959Y200146D01*
X171994Y200168D01*
X172031Y200183D01*
X172127Y200252D01*
X172228Y200316D01*
X172256Y200346D01*
X172289Y200369D01*
X172365Y200461D01*
X172446Y200548D01*
X172466Y200583D01*
X172491Y200614D01*
X172542Y200722D01*
X172600Y200826D01*
X172610Y200866D01*
X172627Y200902D01*
X172649Y201019D01*
X172679Y201134D01*
X172683Y201194D01*
X172687Y201214D01*
X172685Y201235D01*
X172689Y201295D01*
X172689Y203646D01*
X173434Y204391D01*
X185486Y204391D01*
X186231Y203646D01*
X186231Y192594D01*
X185486Y191849D01*
X183515Y191849D01*
X183397Y191834D01*
X183278Y191827D01*
X183240Y191814D01*
X183199Y191809D01*
X183089Y191766D01*
X182976Y191729D01*
X182941Y191707D01*
X182904Y191692D01*
X182808Y191623D01*
X182707Y191559D01*
X182679Y191529D01*
X182646Y191506D01*
X182570Y191414D01*
X182489Y191327D01*
X182469Y191292D01*
X182444Y191261D01*
X182393Y191153D01*
X182335Y191049D01*
X182325Y191009D01*
X182308Y190973D01*
X182286Y190856D01*
X182256Y190741D01*
X182252Y190681D01*
X182248Y190661D01*
X182250Y190640D01*
X182246Y190580D01*
X182246Y184195D01*
X182258Y184097D01*
X182261Y183998D01*
X182278Y183940D01*
X182286Y183880D01*
X182322Y183788D01*
X182350Y183692D01*
X182380Y183640D01*
X182403Y183584D01*
X182461Y183504D01*
X182511Y183418D01*
X182577Y183343D01*
X182589Y183327D01*
X182599Y183319D01*
X182617Y183298D01*
X191633Y174282D01*
X191711Y174222D01*
X191783Y174154D01*
X191836Y174125D01*
X191884Y174088D01*
X191975Y174048D01*
X192062Y174000D01*
X192120Y173985D01*
X192176Y173961D01*
X192274Y173946D01*
X192369Y173921D01*
X192469Y173915D01*
X192490Y173911D01*
X192502Y173913D01*
X192530Y173911D01*
X202486Y173911D01*
X203231Y173166D01*
X203231Y163195D01*
X203246Y163077D01*
X203253Y162958D01*
X203266Y162920D01*
X203271Y162879D01*
X203314Y162769D01*
X203351Y162656D01*
X203373Y162621D01*
X203388Y162584D01*
X203457Y162488D01*
X203521Y162387D01*
X203551Y162359D01*
X203574Y162326D01*
X203666Y162250D01*
X203753Y162169D01*
X203788Y162149D01*
X203819Y162124D01*
X203927Y162073D01*
X204031Y162015D01*
X204071Y162005D01*
X204107Y161988D01*
X204224Y161966D01*
X204339Y161936D01*
X204399Y161932D01*
X204419Y161928D01*
X204440Y161930D01*
X204500Y161926D01*
X227285Y161926D01*
X227383Y161938D01*
X227482Y161941D01*
X227540Y161958D01*
X227600Y161966D01*
X227692Y162002D01*
X227788Y162030D01*
X227840Y162060D01*
X227896Y162083D01*
X227976Y162141D01*
X228062Y162191D01*
X228137Y162257D01*
X228153Y162269D01*
X228154Y162270D01*
X228162Y162279D01*
X228182Y162297D01*
X255567Y189683D01*
X255653Y189792D01*
X255741Y189899D01*
X255750Y189918D01*
X255762Y189934D01*
X255818Y190062D01*
X255877Y190187D01*
X255881Y190207D01*
X255889Y190226D01*
X255911Y190364D01*
X255937Y190500D01*
X255935Y190520D01*
X255939Y190540D01*
X255925Y190679D01*
X255917Y190817D01*
X255911Y190836D01*
X255909Y190856D01*
X255862Y190988D01*
X255819Y191119D01*
X255808Y191137D01*
X255801Y191156D01*
X255723Y191271D01*
X255649Y191388D01*
X255634Y191402D01*
X255623Y191419D01*
X255518Y191511D01*
X255417Y191606D01*
X255399Y191616D01*
X255384Y191629D01*
X255260Y191692D01*
X255139Y191760D01*
X255119Y191765D01*
X255101Y191774D01*
X254965Y191804D01*
X254831Y191839D01*
X254803Y191841D01*
X254791Y191844D01*
X254770Y191843D01*
X254670Y191849D01*
X246314Y191849D01*
X245569Y192594D01*
X245569Y203646D01*
X246314Y204391D01*
X248285Y204391D01*
X248403Y204406D01*
X248522Y204413D01*
X248560Y204426D01*
X248601Y204431D01*
X248711Y204474D01*
X248824Y204511D01*
X248859Y204533D01*
X248896Y204548D01*
X248992Y204617D01*
X249093Y204681D01*
X249121Y204711D01*
X249154Y204734D01*
X249230Y204826D01*
X249311Y204913D01*
X249331Y204948D01*
X249356Y204979D01*
X249407Y205087D01*
X249465Y205191D01*
X249475Y205231D01*
X249492Y205267D01*
X249514Y205384D01*
X249544Y205499D01*
X249548Y205559D01*
X249552Y205579D01*
X249550Y205600D01*
X249554Y205660D01*
X249554Y212045D01*
X249542Y212143D01*
X249539Y212242D01*
X249522Y212300D01*
X249514Y212360D01*
X249478Y212452D01*
X249450Y212548D01*
X249420Y212600D01*
X249397Y212656D01*
X249339Y212736D01*
X249289Y212822D01*
X249223Y212897D01*
X249211Y212913D01*
X249201Y212921D01*
X249183Y212942D01*
X240167Y221958D01*
X240089Y222018D01*
X240017Y222086D01*
X239964Y222115D01*
X239916Y222152D01*
X239825Y222192D01*
X239738Y222240D01*
X239680Y222255D01*
X239624Y222279D01*
X239526Y222294D01*
X239431Y222319D01*
X239331Y222325D01*
X239310Y222329D01*
X239298Y222327D01*
X239270Y222329D01*
X229314Y222329D01*
X228569Y223074D01*
X228569Y234126D01*
X229314Y234871D01*
X233045Y234871D01*
X233163Y234886D01*
X233282Y234893D01*
X233320Y234906D01*
X233361Y234911D01*
X233471Y234954D01*
X233584Y234991D01*
X233619Y235013D01*
X233656Y235028D01*
X233752Y235097D01*
X233853Y235161D01*
X233881Y235191D01*
X233914Y235214D01*
X233990Y235306D01*
X234071Y235393D01*
X234091Y235428D01*
X234116Y235459D01*
X234167Y235567D01*
X234225Y235671D01*
X234235Y235711D01*
X234252Y235747D01*
X234274Y235864D01*
X234304Y235979D01*
X234308Y236039D01*
X234312Y236059D01*
X234310Y236080D01*
X234314Y236140D01*
X234314Y240665D01*
X234299Y240783D01*
X234292Y240902D01*
X234279Y240940D01*
X234274Y240981D01*
X234231Y241091D01*
X234194Y241204D01*
X234172Y241239D01*
X234157Y241276D01*
X234088Y241372D01*
X234024Y241473D01*
X233994Y241501D01*
X233971Y241534D01*
X233879Y241610D01*
X233792Y241691D01*
X233757Y241711D01*
X233726Y241736D01*
X233618Y241787D01*
X233514Y241845D01*
X233474Y241855D01*
X233438Y241872D01*
X233321Y241894D01*
X233206Y241924D01*
X233146Y241928D01*
X233126Y241932D01*
X233105Y241930D01*
X233045Y241934D01*
X197331Y241934D01*
X195843Y243422D01*
X187542Y251723D01*
X186827Y252438D01*
X186749Y252498D01*
X186677Y252566D01*
X186624Y252595D01*
X186576Y252632D01*
X186485Y252672D01*
X186398Y252720D01*
X186340Y252735D01*
X186284Y252759D01*
X186186Y252774D01*
X186091Y252799D01*
X185991Y252805D01*
X185970Y252809D01*
X185958Y252807D01*
X185930Y252809D01*
X182245Y252809D01*
X182127Y252794D01*
X182008Y252787D01*
X181970Y252774D01*
X181929Y252769D01*
X181819Y252726D01*
X181706Y252689D01*
X181671Y252667D01*
X181634Y252652D01*
X181537Y252582D01*
X181437Y252519D01*
X181409Y252489D01*
X181376Y252466D01*
X181300Y252374D01*
X181219Y252287D01*
X181199Y252252D01*
X181174Y252221D01*
X181123Y252113D01*
X181065Y252009D01*
X181055Y251969D01*
X181038Y251933D01*
X181016Y251816D01*
X180986Y251701D01*
X180982Y251641D01*
X180978Y251621D01*
X180980Y251600D01*
X180976Y251540D01*
X180976Y236140D01*
X180991Y236022D01*
X180998Y235903D01*
X181011Y235865D01*
X181016Y235824D01*
X181059Y235714D01*
X181096Y235601D01*
X181118Y235566D01*
X181133Y235529D01*
X181202Y235433D01*
X181266Y235332D01*
X181296Y235304D01*
X181319Y235271D01*
X181411Y235195D01*
X181498Y235114D01*
X181533Y235094D01*
X181564Y235069D01*
X181672Y235018D01*
X181776Y234960D01*
X181816Y234950D01*
X181852Y234933D01*
X181969Y234911D01*
X182084Y234881D01*
X182144Y234877D01*
X182164Y234873D01*
X182185Y234875D01*
X182245Y234871D01*
X185486Y234871D01*
X186443Y233914D01*
X186548Y233833D01*
X186649Y233748D01*
X186673Y233736D01*
X186694Y233719D01*
X186816Y233667D01*
X186935Y233609D01*
X186961Y233604D01*
X186986Y233593D01*
X187117Y233572D01*
X187246Y233546D01*
X187273Y233547D01*
X187300Y233543D01*
X187432Y233556D01*
X187564Y233562D01*
X187590Y233570D01*
X187617Y233573D01*
X187741Y233618D01*
X187868Y233657D01*
X187891Y233671D01*
X187916Y233681D01*
X188026Y233755D01*
X188138Y233825D01*
X188157Y233844D01*
X188179Y233859D01*
X188267Y233958D01*
X188358Y234054D01*
X188372Y234077D01*
X188390Y234098D01*
X188450Y234216D01*
X188515Y234331D01*
X188527Y234367D01*
X188534Y234381D01*
X188539Y234402D01*
X188566Y234483D01*
X188592Y234581D01*
X188927Y235160D01*
X189400Y235633D01*
X189979Y235968D01*
X190626Y236141D01*
X193961Y236141D01*
X193961Y229830D01*
X193976Y229712D01*
X193983Y229593D01*
X193995Y229555D01*
X194001Y229515D01*
X194044Y229404D01*
X194081Y229291D01*
X194103Y229257D01*
X194118Y229219D01*
X194187Y229123D01*
X194251Y229022D01*
X194281Y228994D01*
X194304Y228962D01*
X194396Y228886D01*
X194483Y228804D01*
X194518Y228785D01*
X194549Y228759D01*
X194657Y228708D01*
X194761Y228651D01*
X194801Y228641D01*
X194837Y228623D01*
X194944Y228603D01*
X194914Y228599D01*
X194804Y228555D01*
X194691Y228519D01*
X194656Y228497D01*
X194619Y228482D01*
X194522Y228412D01*
X194422Y228349D01*
X194394Y228319D01*
X194361Y228295D01*
X194285Y228204D01*
X194204Y228117D01*
X194184Y228082D01*
X194159Y228050D01*
X194108Y227943D01*
X194050Y227838D01*
X194040Y227799D01*
X194023Y227763D01*
X194001Y227646D01*
X193971Y227530D01*
X193967Y227470D01*
X193963Y227450D01*
X193965Y227430D01*
X193961Y227370D01*
X193961Y221059D01*
X193640Y221059D01*
X193503Y221042D01*
X193364Y221029D01*
X193345Y221022D01*
X193325Y221019D01*
X193196Y220968D01*
X193064Y220921D01*
X193048Y220910D01*
X193029Y220902D01*
X192916Y220821D01*
X192801Y220743D01*
X192788Y220727D01*
X192772Y220716D01*
X192683Y220608D01*
X192591Y220504D01*
X192582Y220486D01*
X192569Y220471D01*
X192509Y220345D01*
X192446Y220221D01*
X192442Y220201D01*
X192433Y220183D01*
X192407Y220047D01*
X192377Y219911D01*
X192377Y219890D01*
X192373Y219871D01*
X192382Y219732D01*
X192386Y219593D01*
X192392Y219573D01*
X192393Y219553D01*
X192436Y219421D01*
X192475Y219287D01*
X192485Y219270D01*
X192491Y219251D01*
X192566Y219133D01*
X192636Y219013D01*
X192655Y218992D01*
X192661Y218982D01*
X192676Y218968D01*
X192743Y218893D01*
X197486Y214149D01*
X197486Y205660D01*
X197501Y205542D01*
X197508Y205423D01*
X197521Y205385D01*
X197526Y205344D01*
X197569Y205234D01*
X197606Y205121D01*
X197628Y205086D01*
X197643Y205049D01*
X197712Y204953D01*
X197776Y204852D01*
X197806Y204824D01*
X197829Y204791D01*
X197921Y204715D01*
X198008Y204634D01*
X198043Y204614D01*
X198074Y204589D01*
X198182Y204538D01*
X198286Y204480D01*
X198326Y204470D01*
X198362Y204453D01*
X198479Y204431D01*
X198594Y204401D01*
X198654Y204397D01*
X198674Y204393D01*
X198695Y204395D01*
X198755Y204391D01*
X202486Y204391D01*
X203231Y203646D01*
X203231Y192594D01*
X202486Y191849D01*
X190434Y191849D01*
X189689Y192594D01*
X189689Y203646D01*
X190434Y204391D01*
X192405Y204391D01*
X192523Y204406D01*
X192642Y204413D01*
X192680Y204426D01*
X192721Y204431D01*
X192831Y204474D01*
X192944Y204511D01*
X192979Y204533D01*
X193016Y204548D01*
X193112Y204617D01*
X193213Y204681D01*
X193241Y204711D01*
X193274Y204734D01*
X193350Y204826D01*
X193431Y204913D01*
X193451Y204948D01*
X193476Y204979D01*
X193527Y205087D01*
X193585Y205191D01*
X193595Y205231D01*
X193612Y205267D01*
X193634Y205384D01*
X193664Y205499D01*
X193668Y205559D01*
X193672Y205579D01*
X193670Y205600D01*
X193674Y205660D01*
X193674Y212045D01*
X193662Y212143D01*
X193659Y212242D01*
X193642Y212300D01*
X193634Y212360D01*
X193598Y212452D01*
X193570Y212548D01*
X193540Y212600D01*
X193517Y212656D01*
X193459Y212736D01*
X193409Y212822D01*
X193343Y212897D01*
X193331Y212913D01*
X193321Y212921D01*
X193303Y212942D01*
X184287Y221958D01*
X184209Y222018D01*
X184137Y222086D01*
X184084Y222115D01*
X184036Y222152D01*
X183945Y222192D01*
X183858Y222240D01*
X183800Y222255D01*
X183744Y222279D01*
X183646Y222294D01*
X183551Y222319D01*
X183451Y222325D01*
X183430Y222329D01*
X183418Y222327D01*
X183390Y222329D01*
X173434Y222329D01*
X172689Y223074D01*
X172689Y234126D01*
X173434Y234871D01*
X175895Y234871D01*
X176013Y234886D01*
X176132Y234893D01*
X176170Y234906D01*
X176211Y234911D01*
X176321Y234954D01*
X176434Y234991D01*
X176469Y235013D01*
X176506Y235028D01*
X176602Y235097D01*
X176703Y235161D01*
X176731Y235191D01*
X176764Y235214D01*
X176840Y235306D01*
X176921Y235393D01*
X176941Y235428D01*
X176966Y235459D01*
X177017Y235567D01*
X177075Y235671D01*
X177085Y235711D01*
X177102Y235747D01*
X177124Y235864D01*
X177154Y235979D01*
X177158Y236039D01*
X177162Y236059D01*
X177160Y236080D01*
X177164Y236140D01*
X177164Y251540D01*
X177149Y251658D01*
X177142Y251777D01*
X177129Y251815D01*
X177124Y251856D01*
X177081Y251966D01*
X177044Y252079D01*
X177022Y252114D01*
X177007Y252151D01*
X176938Y252247D01*
X176874Y252348D01*
X176844Y252376D01*
X176821Y252409D01*
X176729Y252485D01*
X176642Y252566D01*
X176607Y252586D01*
X176576Y252611D01*
X176468Y252662D01*
X176364Y252720D01*
X176324Y252730D01*
X176288Y252747D01*
X176171Y252769D01*
X176056Y252799D01*
X175996Y252803D01*
X175976Y252807D01*
X175955Y252805D01*
X175895Y252809D01*
X173434Y252809D01*
X172689Y253554D01*
X172689Y264606D01*
X173434Y265351D01*
X185930Y265351D01*
X186028Y265363D01*
X186127Y265366D01*
X186185Y265383D01*
X186245Y265391D01*
X186337Y265427D01*
X186433Y265455D01*
X186485Y265485D01*
X186541Y265508D01*
X186621Y265566D01*
X186707Y265616D01*
X186782Y265682D01*
X186798Y265694D01*
X186806Y265704D01*
X186827Y265722D01*
X203463Y282358D01*
X203523Y282436D01*
X203591Y282508D01*
X203620Y282561D01*
X203657Y282609D01*
X203697Y282700D01*
X203745Y282787D01*
X203760Y282845D01*
X203784Y282901D01*
X203799Y282999D01*
X203824Y283094D01*
X203830Y283194D01*
X203834Y283215D01*
X203832Y283227D01*
X203834Y283255D01*
X203834Y297990D01*
X203819Y298108D01*
X203812Y298227D01*
X203799Y298265D01*
X203794Y298306D01*
X203751Y298416D01*
X203714Y298529D01*
X203692Y298564D01*
X203677Y298601D01*
X203608Y298697D01*
X203544Y298798D01*
X203514Y298826D01*
X203491Y298859D01*
X203399Y298935D01*
X203312Y299016D01*
X203277Y299036D01*
X203246Y299061D01*
X203138Y299112D01*
X203034Y299170D01*
X202994Y299180D01*
X202958Y299197D01*
X202841Y299219D01*
X202726Y299249D01*
X202666Y299253D01*
X202646Y299257D01*
X202625Y299255D01*
X202565Y299259D01*
X195614Y299259D01*
X194869Y300004D01*
X194869Y316336D01*
X195614Y317081D01*
X196215Y317081D01*
X196333Y317096D01*
X196452Y317103D01*
X196490Y317116D01*
X196531Y317121D01*
X196641Y317164D01*
X196754Y317201D01*
X196789Y317223D01*
X196826Y317238D01*
X196922Y317307D01*
X197023Y317371D01*
X197051Y317401D01*
X197084Y317424D01*
X197160Y317516D01*
X197241Y317603D01*
X197261Y317638D01*
X197286Y317669D01*
X197337Y317777D01*
X197395Y317881D01*
X197405Y317921D01*
X197422Y317957D01*
X197444Y318074D01*
X197474Y318189D01*
X197478Y318249D01*
X197482Y318269D01*
X197480Y318290D01*
X197484Y318350D01*
X197484Y322535D01*
X197472Y322633D01*
X197469Y322732D01*
X197452Y322790D01*
X197444Y322850D01*
X197408Y322942D01*
X197380Y323038D01*
X197350Y323090D01*
X197327Y323146D01*
X197269Y323226D01*
X197219Y323312D01*
X197153Y323387D01*
X197141Y323403D01*
X197131Y323411D01*
X197113Y323432D01*
X88837Y431707D01*
X88728Y431793D01*
X88621Y431881D01*
X88602Y431890D01*
X88586Y431902D01*
X88458Y431958D01*
X88333Y432017D01*
X88313Y432021D01*
X88294Y432029D01*
X88156Y432051D01*
X88020Y432077D01*
X88000Y432075D01*
X87980Y432079D01*
X87841Y432065D01*
X87703Y432057D01*
X87684Y432051D01*
X87664Y432049D01*
X87532Y432002D01*
X87401Y431959D01*
X87383Y431948D01*
X87364Y431941D01*
X87249Y431863D01*
X87132Y431789D01*
X87118Y431774D01*
X87101Y431763D01*
X87009Y431658D01*
X86914Y431557D01*
X86904Y431539D01*
X86891Y431524D01*
X86827Y431400D01*
X86760Y431279D01*
X86755Y431259D01*
X86746Y431241D01*
X86716Y431105D01*
X86681Y430971D01*
X86679Y430943D01*
X86676Y430931D01*
X86677Y430910D01*
X86671Y430810D01*
X86671Y430222D01*
X85463Y427308D01*
X83232Y425077D01*
X80318Y423869D01*
X77162Y423869D01*
X74248Y425077D01*
X72017Y427308D01*
X70809Y430222D01*
X70809Y433378D01*
X72017Y436292D01*
X74248Y438523D01*
X77162Y439731D01*
X77750Y439731D01*
X77887Y439748D01*
X78026Y439761D01*
X78045Y439768D01*
X78065Y439771D01*
X78194Y439822D01*
X78326Y439869D01*
X78342Y439880D01*
X78361Y439888D01*
X78473Y439969D01*
X78589Y440047D01*
X78602Y440063D01*
X78618Y440074D01*
X78707Y440182D01*
X78799Y440286D01*
X78808Y440304D01*
X78821Y440319D01*
X78880Y440445D01*
X78944Y440569D01*
X78948Y440589D01*
X78957Y440607D01*
X78983Y440743D01*
X79013Y440879D01*
X79013Y440900D01*
X79017Y440919D01*
X79008Y441058D01*
X79004Y441197D01*
X78998Y441217D01*
X78997Y441237D01*
X78954Y441369D01*
X78915Y441503D01*
X78905Y441520D01*
X78899Y441539D01*
X78824Y441657D01*
X78754Y441777D01*
X78735Y441798D01*
X78729Y441808D01*
X78714Y441822D01*
X78647Y441897D01*
X25662Y494882D01*
X25553Y494968D01*
X25446Y495056D01*
X25427Y495065D01*
X25411Y495077D01*
X25283Y495133D01*
X25158Y495192D01*
X25138Y495196D01*
X25119Y495204D01*
X24981Y495226D01*
X24845Y495252D01*
X24825Y495250D01*
X24805Y495254D01*
X24666Y495240D01*
X24528Y495232D01*
X24509Y495226D01*
X24489Y495224D01*
X24357Y495177D01*
X24226Y495134D01*
X24208Y495123D01*
X24189Y495116D01*
X24074Y495038D01*
X23957Y494964D01*
X23943Y494949D01*
X23926Y494938D01*
X23834Y494833D01*
X23739Y494732D01*
X23729Y494714D01*
X23716Y494699D01*
X23652Y494575D01*
X23585Y494454D01*
X23580Y494434D01*
X23571Y494416D01*
X23541Y494280D01*
X23506Y494146D01*
X23504Y494118D01*
X23501Y494106D01*
X23502Y494085D01*
X23496Y493985D01*
X23496Y464865D01*
X23508Y464767D01*
X23511Y464668D01*
X23528Y464610D01*
X23536Y464550D01*
X23572Y464458D01*
X23600Y464362D01*
X23630Y464310D01*
X23653Y464254D01*
X23711Y464174D01*
X23761Y464088D01*
X23827Y464013D01*
X23839Y463997D01*
X23849Y463989D01*
X23867Y463968D01*
X48576Y439259D01*
X48599Y439241D01*
X48619Y439218D01*
X48725Y439144D01*
X48827Y439064D01*
X48854Y439052D01*
X48879Y439035D01*
X49000Y438989D01*
X49119Y438938D01*
X49148Y438933D01*
X49176Y438923D01*
X49305Y438908D01*
X49433Y438888D01*
X49463Y438891D01*
X49492Y438887D01*
X49621Y438905D01*
X49750Y438918D01*
X49778Y438928D01*
X49807Y438932D01*
X49959Y438984D01*
X51762Y439731D01*
X54918Y439731D01*
X57832Y438523D01*
X60063Y436292D01*
X61271Y433378D01*
X61271Y430222D01*
X60063Y427308D01*
X57832Y425077D01*
X54918Y423869D01*
X51762Y423869D01*
X48848Y425077D01*
X46617Y427308D01*
X45409Y430222D01*
X45409Y433378D01*
X46156Y435181D01*
X46164Y435209D01*
X46177Y435235D01*
X46206Y435362D01*
X46240Y435487D01*
X46241Y435517D01*
X46247Y435546D01*
X46243Y435676D01*
X46245Y435805D01*
X46238Y435834D01*
X46237Y435864D01*
X46201Y435988D01*
X46171Y436115D01*
X46157Y436141D01*
X46149Y436169D01*
X46083Y436281D01*
X46022Y436396D01*
X46002Y436418D01*
X45987Y436443D01*
X45881Y436564D01*
X19684Y462761D01*
X19684Y542730D01*
X19669Y542848D01*
X19662Y542967D01*
X19649Y543005D01*
X19644Y543046D01*
X19601Y543156D01*
X19564Y543269D01*
X19542Y543304D01*
X19527Y543341D01*
X19458Y543437D01*
X19394Y543538D01*
X19364Y543566D01*
X19341Y543599D01*
X19249Y543675D01*
X19162Y543756D01*
X19127Y543776D01*
X19096Y543801D01*
X18988Y543852D01*
X18884Y543910D01*
X18844Y543920D01*
X18808Y543937D01*
X18691Y543959D01*
X18576Y543989D01*
X18516Y543993D01*
X18496Y543997D01*
X18475Y543995D01*
X18415Y543999D01*
X17404Y543999D01*
X16659Y544744D01*
X16659Y558296D01*
X17404Y559041D01*
X23495Y559041D01*
X23613Y559056D01*
X23732Y559063D01*
X23770Y559076D01*
X23811Y559081D01*
X23921Y559124D01*
X24034Y559161D01*
X24069Y559183D01*
X24106Y559198D01*
X24202Y559267D01*
X24303Y559331D01*
X24331Y559361D01*
X24364Y559384D01*
X24440Y559476D01*
X24521Y559563D01*
X24541Y559598D01*
X24566Y559629D01*
X24617Y559737D01*
X24675Y559841D01*
X24685Y559881D01*
X24702Y559917D01*
X24724Y560034D01*
X24754Y560149D01*
X24758Y560209D01*
X24762Y560229D01*
X24760Y560250D01*
X24764Y560310D01*
X24764Y664165D01*
X24752Y664263D01*
X24749Y664362D01*
X24732Y664420D01*
X24724Y664480D01*
X24688Y664572D01*
X24660Y664668D01*
X24630Y664720D01*
X24607Y664776D01*
X24549Y664856D01*
X24499Y664942D01*
X24433Y665017D01*
X24421Y665033D01*
X24411Y665041D01*
X24393Y665062D01*
X20954Y668501D01*
X20954Y870739D01*
X46238Y896023D01*
X46298Y896101D01*
X46366Y896173D01*
X46395Y896226D01*
X46432Y896274D01*
X46472Y896365D01*
X46520Y896452D01*
X46535Y896510D01*
X46559Y896566D01*
X46574Y896664D01*
X46599Y896759D01*
X46605Y896859D01*
X46609Y896880D01*
X46607Y896892D01*
X46609Y896920D01*
X46609Y910290D01*
X46597Y910388D01*
X46594Y910487D01*
X46577Y910545D01*
X46569Y910605D01*
X46533Y910697D01*
X46505Y910793D01*
X46475Y910845D01*
X46452Y910901D01*
X46394Y910981D01*
X46344Y911067D01*
X46278Y911142D01*
X46266Y911158D01*
X46256Y911166D01*
X46238Y911187D01*
X31114Y926311D01*
X31114Y944740D01*
X31099Y944858D01*
X31092Y944977D01*
X31079Y945015D01*
X31074Y945056D01*
X31031Y945166D01*
X30994Y945279D01*
X30972Y945314D01*
X30957Y945351D01*
X30888Y945447D01*
X30824Y945548D01*
X30794Y945576D01*
X30771Y945609D01*
X30679Y945685D01*
X30592Y945766D01*
X30557Y945786D01*
X30526Y945811D01*
X30418Y945862D01*
X30314Y945920D01*
X30274Y945930D01*
X30238Y945947D01*
X30121Y945969D01*
X30006Y945999D01*
X29946Y946003D01*
X29926Y946007D01*
X29905Y946005D01*
X29845Y946009D01*
X28744Y946009D01*
X27999Y946754D01*
X27999Y959806D01*
X28744Y960551D01*
X37296Y960551D01*
X38041Y959806D01*
X38041Y946754D01*
X37296Y946009D01*
X36195Y946009D01*
X36077Y945994D01*
X35958Y945987D01*
X35920Y945974D01*
X35879Y945969D01*
X35769Y945926D01*
X35656Y945889D01*
X35621Y945867D01*
X35584Y945852D01*
X35488Y945783D01*
X35387Y945719D01*
X35359Y945689D01*
X35326Y945666D01*
X35250Y945574D01*
X35169Y945487D01*
X35149Y945452D01*
X35124Y945421D01*
X35073Y945313D01*
X35015Y945209D01*
X35005Y945169D01*
X34988Y945133D01*
X34966Y945016D01*
X34936Y944901D01*
X34932Y944841D01*
X34928Y944821D01*
X34930Y944800D01*
X34926Y944740D01*
X34926Y928415D01*
X34938Y928317D01*
X34941Y928218D01*
X34958Y928160D01*
X34966Y928100D01*
X35002Y928008D01*
X35030Y927912D01*
X35060Y927860D01*
X35083Y927804D01*
X35141Y927724D01*
X35191Y927638D01*
X35257Y927563D01*
X35269Y927547D01*
X35279Y927539D01*
X35297Y927518D01*
X44443Y918373D01*
X44552Y918287D01*
X44659Y918199D01*
X44678Y918190D01*
X44694Y918178D01*
X44822Y918122D01*
X44947Y918063D01*
X44967Y918059D01*
X44986Y918051D01*
X45124Y918029D01*
X45260Y918003D01*
X45280Y918005D01*
X45300Y918001D01*
X45439Y918015D01*
X45577Y918023D01*
X45596Y918029D01*
X45616Y918031D01*
X45748Y918078D01*
X45879Y918121D01*
X45897Y918132D01*
X45916Y918139D01*
X46031Y918217D01*
X46148Y918291D01*
X46162Y918306D01*
X46179Y918317D01*
X46271Y918422D01*
X46366Y918523D01*
X46376Y918541D01*
X46389Y918556D01*
X46453Y918680D01*
X46520Y918801D01*
X46525Y918821D01*
X46534Y918839D01*
X46564Y918975D01*
X46599Y919109D01*
X46601Y919137D01*
X46604Y919149D01*
X46603Y919170D01*
X46609Y919270D01*
X46609Y920366D01*
X47354Y921111D01*
X64406Y921111D01*
X65151Y920366D01*
X65151Y912495D01*
X65166Y912377D01*
X65173Y912258D01*
X65186Y912220D01*
X65191Y912179D01*
X65234Y912069D01*
X65271Y911956D01*
X65293Y911921D01*
X65308Y911884D01*
X65377Y911788D01*
X65441Y911687D01*
X65471Y911659D01*
X65494Y911626D01*
X65586Y911550D01*
X65673Y911469D01*
X65708Y911449D01*
X65739Y911424D01*
X65847Y911373D01*
X65951Y911315D01*
X65991Y911305D01*
X66027Y911288D01*
X66144Y911266D01*
X66259Y911236D01*
X66319Y911232D01*
X66339Y911228D01*
X66360Y911230D01*
X66420Y911226D01*
X110460Y911226D01*
X110578Y911241D01*
X110697Y911248D01*
X110735Y911261D01*
X110776Y911266D01*
X110886Y911309D01*
X110999Y911346D01*
X111034Y911368D01*
X111071Y911383D01*
X111167Y911452D01*
X111268Y911516D01*
X111296Y911546D01*
X111329Y911569D01*
X111405Y911661D01*
X111486Y911748D01*
X111506Y911783D01*
X111531Y911814D01*
X111582Y911922D01*
X111640Y912026D01*
X111650Y912066D01*
X111667Y912102D01*
X111689Y912219D01*
X111719Y912334D01*
X111723Y912394D01*
X111727Y912414D01*
X111725Y912435D01*
X111729Y912495D01*
X111729Y914846D01*
X112474Y915591D01*
X124970Y915591D01*
X125068Y915603D01*
X125167Y915606D01*
X125225Y915623D01*
X125285Y915631D01*
X125377Y915667D01*
X125473Y915695D01*
X125525Y915725D01*
X125581Y915748D01*
X125661Y915806D01*
X125747Y915856D01*
X125822Y915922D01*
X125838Y915934D01*
X125846Y915944D01*
X125867Y915962D01*
X128751Y918846D01*
X156999Y918846D01*
X159883Y915962D01*
X159961Y915902D01*
X160033Y915834D01*
X160086Y915805D01*
X160134Y915768D01*
X160225Y915728D01*
X160312Y915680D01*
X160370Y915665D01*
X160426Y915641D01*
X160524Y915626D01*
X160619Y915601D01*
X160719Y915595D01*
X160740Y915591D01*
X160752Y915593D01*
X160780Y915591D01*
X170246Y915591D01*
X171203Y914634D01*
X171308Y914553D01*
X171409Y914468D01*
X171433Y914456D01*
X171454Y914439D01*
X171576Y914387D01*
X171695Y914329D01*
X171721Y914324D01*
X171746Y914313D01*
X171877Y914292D01*
X172007Y914266D01*
X172033Y914267D01*
X172060Y914263D01*
X172192Y914276D01*
X172324Y914282D01*
X172350Y914290D01*
X172377Y914293D01*
X172501Y914338D01*
X172628Y914377D01*
X172651Y914391D01*
X172676Y914401D01*
X172785Y914475D01*
X172898Y914545D01*
X172917Y914564D01*
X172939Y914579D01*
X173027Y914678D01*
X173118Y914774D01*
X173132Y914797D01*
X173150Y914818D01*
X173210Y914935D01*
X173275Y915051D01*
X173287Y915087D01*
X173294Y915101D01*
X173299Y915122D01*
X173326Y915203D01*
X173352Y915301D01*
X173687Y915880D01*
X174160Y916353D01*
X174739Y916688D01*
X175386Y916861D01*
X178721Y916861D01*
X178721Y910550D01*
X178736Y910432D01*
X178743Y910313D01*
X178755Y910275D01*
X178761Y910235D01*
X178804Y910124D01*
X178841Y910011D01*
X178863Y909977D01*
X178878Y909939D01*
X178947Y909843D01*
X179011Y909742D01*
X179041Y909714D01*
X179064Y909682D01*
X179156Y909606D01*
X179243Y909524D01*
X179278Y909505D01*
X179309Y909479D01*
X179417Y909428D01*
X179521Y909371D01*
X179561Y909361D01*
X179597Y909343D01*
X179704Y909323D01*
X179674Y909319D01*
X179564Y909275D01*
X179451Y909239D01*
X179416Y909217D01*
X179379Y909202D01*
X179282Y909132D01*
X179182Y909069D01*
X179154Y909039D01*
X179121Y909015D01*
X179045Y908924D01*
X178964Y908837D01*
X178944Y908802D01*
X178919Y908770D01*
X178868Y908663D01*
X178810Y908558D01*
X178800Y908519D01*
X178783Y908483D01*
X178761Y908366D01*
X178731Y908250D01*
X178727Y908190D01*
X178723Y908170D01*
X178725Y908150D01*
X178721Y908090D01*
X178721Y901779D01*
X175386Y901779D01*
X174739Y901952D01*
X174160Y902287D01*
X173687Y902760D01*
X173352Y903339D01*
X173326Y903437D01*
X173276Y903559D01*
X173232Y903684D01*
X173216Y903706D01*
X173206Y903731D01*
X173127Y903837D01*
X173053Y903947D01*
X173033Y903965D01*
X173017Y903987D01*
X172914Y904070D01*
X172815Y904158D01*
X172791Y904170D01*
X172770Y904187D01*
X172649Y904242D01*
X172531Y904302D01*
X172505Y904308D01*
X172480Y904319D01*
X172350Y904343D01*
X172221Y904372D01*
X172194Y904371D01*
X172168Y904376D01*
X172036Y904366D01*
X171903Y904362D01*
X171877Y904355D01*
X171850Y904353D01*
X171725Y904311D01*
X171598Y904274D01*
X171574Y904260D01*
X171549Y904251D01*
X171438Y904179D01*
X171324Y904112D01*
X171295Y904087D01*
X171282Y904078D01*
X171267Y904062D01*
X171203Y904006D01*
X170246Y903049D01*
X158194Y903049D01*
X157449Y903794D01*
X157449Y912480D01*
X157437Y912578D01*
X157434Y912677D01*
X157417Y912735D01*
X157409Y912795D01*
X157373Y912887D01*
X157345Y912983D01*
X157315Y913035D01*
X157292Y913091D01*
X157234Y913171D01*
X157184Y913257D01*
X157118Y913332D01*
X157106Y913348D01*
X157096Y913356D01*
X157078Y913377D01*
X155792Y914663D01*
X155714Y914723D01*
X155642Y914791D01*
X155589Y914820D01*
X155541Y914857D01*
X155450Y914897D01*
X155363Y914945D01*
X155305Y914960D01*
X155249Y914984D01*
X155151Y914999D01*
X155056Y915024D01*
X154956Y915030D01*
X154935Y915034D01*
X154923Y915032D01*
X154895Y915034D01*
X144810Y915034D01*
X144692Y915019D01*
X144573Y915012D01*
X144535Y914999D01*
X144494Y914994D01*
X144384Y914951D01*
X144271Y914914D01*
X144236Y914892D01*
X144199Y914877D01*
X144103Y914808D01*
X144002Y914744D01*
X143974Y914714D01*
X143941Y914691D01*
X143865Y914599D01*
X143784Y914512D01*
X143764Y914477D01*
X143739Y914446D01*
X143688Y914338D01*
X143630Y914234D01*
X143620Y914194D01*
X143603Y914158D01*
X143581Y914041D01*
X143551Y913926D01*
X143547Y913866D01*
X143543Y913846D01*
X143545Y913825D01*
X143541Y913765D01*
X143541Y911819D01*
X136730Y911819D01*
X136612Y911804D01*
X136493Y911797D01*
X136455Y911784D01*
X136415Y911779D01*
X136304Y911736D01*
X136191Y911699D01*
X136157Y911677D01*
X136119Y911662D01*
X136023Y911593D01*
X135922Y911529D01*
X135894Y911499D01*
X135862Y911476D01*
X135786Y911384D01*
X135704Y911297D01*
X135685Y911262D01*
X135659Y911231D01*
X135608Y911123D01*
X135551Y911019D01*
X135541Y910979D01*
X135523Y910943D01*
X135501Y910826D01*
X135471Y910711D01*
X135467Y910651D01*
X135464Y910631D01*
X135465Y910610D01*
X135461Y910550D01*
X135461Y909359D01*
X134270Y909359D01*
X134152Y909344D01*
X134033Y909337D01*
X133995Y909324D01*
X133954Y909319D01*
X133844Y909275D01*
X133731Y909239D01*
X133696Y909217D01*
X133659Y909202D01*
X133562Y909132D01*
X133462Y909069D01*
X133434Y909039D01*
X133401Y909015D01*
X133325Y908924D01*
X133244Y908837D01*
X133224Y908802D01*
X133199Y908770D01*
X133148Y908663D01*
X133090Y908558D01*
X133080Y908519D01*
X133063Y908483D01*
X133041Y908366D01*
X133011Y908250D01*
X133007Y908190D01*
X133003Y908170D01*
X133005Y908150D01*
X133001Y908090D01*
X133001Y901779D01*
X129666Y901779D01*
X129019Y901952D01*
X128440Y902287D01*
X127967Y902760D01*
X127632Y903339D01*
X127606Y903437D01*
X127556Y903559D01*
X127512Y903684D01*
X127496Y903706D01*
X127486Y903731D01*
X127407Y903837D01*
X127333Y903947D01*
X127313Y903965D01*
X127297Y903987D01*
X127194Y904070D01*
X127095Y904158D01*
X127071Y904170D01*
X127050Y904187D01*
X126929Y904242D01*
X126811Y904302D01*
X126785Y904308D01*
X126760Y904319D01*
X126630Y904343D01*
X126501Y904372D01*
X126474Y904371D01*
X126448Y904376D01*
X126316Y904366D01*
X126183Y904362D01*
X126157Y904355D01*
X126130Y904353D01*
X126005Y904311D01*
X125878Y904274D01*
X125854Y904260D01*
X125829Y904251D01*
X125718Y904179D01*
X125604Y904112D01*
X125575Y904087D01*
X125562Y904078D01*
X125547Y904062D01*
X125483Y904006D01*
X124526Y903049D01*
X112474Y903049D01*
X111729Y903794D01*
X111729Y906145D01*
X111714Y906263D01*
X111707Y906382D01*
X111694Y906420D01*
X111689Y906461D01*
X111646Y906571D01*
X111609Y906684D01*
X111587Y906719D01*
X111572Y906756D01*
X111503Y906852D01*
X111439Y906953D01*
X111409Y906981D01*
X111386Y907014D01*
X111294Y907090D01*
X111207Y907171D01*
X111172Y907191D01*
X111141Y907216D01*
X111033Y907267D01*
X110929Y907325D01*
X110889Y907335D01*
X110853Y907352D01*
X110736Y907374D01*
X110621Y907404D01*
X110561Y907408D01*
X110541Y907412D01*
X110520Y907410D01*
X110460Y907414D01*
X66420Y907414D01*
X66302Y907399D01*
X66183Y907392D01*
X66145Y907379D01*
X66104Y907374D01*
X65994Y907331D01*
X65881Y907294D01*
X65846Y907272D01*
X65809Y907257D01*
X65713Y907188D01*
X65612Y907124D01*
X65584Y907094D01*
X65551Y907071D01*
X65475Y906979D01*
X65394Y906892D01*
X65374Y906857D01*
X65349Y906826D01*
X65298Y906718D01*
X65240Y906614D01*
X65230Y906574D01*
X65213Y906538D01*
X65191Y906421D01*
X65161Y906306D01*
X65157Y906246D01*
X65153Y906226D01*
X65155Y906205D01*
X65151Y906145D01*
X65151Y887314D01*
X64406Y886569D01*
X47354Y886569D01*
X46609Y887314D01*
X46609Y887940D01*
X46594Y888061D01*
X46587Y888174D01*
X46581Y888192D01*
X46579Y888216D01*
X46572Y888235D01*
X46569Y888255D01*
X46521Y888378D01*
X46489Y888477D01*
X46480Y888490D01*
X46471Y888516D01*
X46460Y888532D01*
X46452Y888551D01*
X46371Y888663D01*
X46368Y888668D01*
X46319Y888745D01*
X46309Y888754D01*
X46293Y888779D01*
X46277Y888792D01*
X46266Y888808D01*
X46158Y888897D01*
X46142Y888912D01*
X46087Y888963D01*
X46077Y888969D01*
X46054Y888989D01*
X46036Y888998D01*
X46021Y889011D01*
X45895Y889070D01*
X45864Y889086D01*
X45809Y889117D01*
X45800Y889119D01*
X45771Y889134D01*
X45751Y889138D01*
X45733Y889147D01*
X45597Y889173D01*
X45555Y889182D01*
X45501Y889196D01*
X45489Y889197D01*
X45461Y889203D01*
X45440Y889203D01*
X45421Y889207D01*
X45379Y889204D01*
X45340Y889206D01*
X45337Y889206D01*
X45266Y889198D01*
X45143Y889194D01*
X45123Y889188D01*
X45103Y889187D01*
X45053Y889171D01*
X45022Y889167D01*
X44948Y889137D01*
X44837Y889105D01*
X44820Y889095D01*
X44801Y889089D01*
X44760Y889063D01*
X44726Y889050D01*
X44654Y888997D01*
X44563Y888944D01*
X44542Y888925D01*
X44532Y888919D01*
X44518Y888904D01*
X44483Y888873D01*
X44469Y888863D01*
X44462Y888855D01*
X44443Y888837D01*
X25137Y869532D01*
X25077Y869454D01*
X25009Y869382D01*
X24980Y869329D01*
X24943Y869281D01*
X24903Y869190D01*
X24855Y869103D01*
X24840Y869045D01*
X24816Y868989D01*
X24801Y868891D01*
X24776Y868796D01*
X24770Y868696D01*
X24766Y868675D01*
X24768Y868663D01*
X24766Y868635D01*
X24766Y684999D01*
X24783Y684861D01*
X24796Y684723D01*
X24803Y684703D01*
X24806Y684683D01*
X24857Y684554D01*
X24904Y684423D01*
X24915Y684406D01*
X24923Y684388D01*
X25004Y684275D01*
X25082Y684160D01*
X25098Y684147D01*
X25109Y684130D01*
X25217Y684042D01*
X25321Y683950D01*
X25339Y683940D01*
X25354Y683928D01*
X25480Y683868D01*
X25604Y683805D01*
X25624Y683801D01*
X25642Y683792D01*
X25778Y683766D01*
X25914Y683735D01*
X25935Y683736D01*
X25954Y683732D01*
X26093Y683741D01*
X26232Y683745D01*
X26252Y683751D01*
X26272Y683752D01*
X26404Y683795D01*
X26538Y683833D01*
X26555Y683844D01*
X26574Y683850D01*
X26692Y683925D01*
X26812Y683995D01*
X26833Y684014D01*
X26843Y684020D01*
X26857Y684035D01*
X26932Y684101D01*
X33242Y690411D01*
X45478Y690411D01*
X54131Y681758D01*
X54131Y669522D01*
X45478Y660869D01*
X33242Y660869D01*
X30742Y663369D01*
X30633Y663454D01*
X30526Y663542D01*
X30507Y663551D01*
X30491Y663564D01*
X30363Y663619D01*
X30238Y663678D01*
X30218Y663682D01*
X30199Y663690D01*
X30061Y663712D01*
X29925Y663738D01*
X29905Y663737D01*
X29885Y663740D01*
X29746Y663727D01*
X29608Y663718D01*
X29589Y663712D01*
X29569Y663710D01*
X29437Y663663D01*
X29306Y663620D01*
X29288Y663609D01*
X29269Y663602D01*
X29154Y663524D01*
X29037Y663450D01*
X29023Y663435D01*
X29006Y663424D01*
X28914Y663319D01*
X28819Y663218D01*
X28809Y663201D01*
X28796Y663185D01*
X28732Y663061D01*
X28665Y662940D01*
X28660Y662920D01*
X28651Y662902D01*
X28621Y662766D01*
X28586Y662632D01*
X28584Y662604D01*
X28581Y662592D01*
X28582Y662571D01*
X28576Y662471D01*
X28576Y544041D01*
X27677Y543142D01*
X27617Y543064D01*
X27549Y542992D01*
X27520Y542939D01*
X27483Y542891D01*
X27443Y542800D01*
X27395Y542713D01*
X27380Y542655D01*
X27356Y542599D01*
X27341Y542501D01*
X27316Y542406D01*
X27310Y542306D01*
X27306Y542285D01*
X27308Y542273D01*
X27306Y542245D01*
X27306Y539310D01*
X27321Y539192D01*
X27328Y539073D01*
X27341Y539035D01*
X27346Y538994D01*
X27389Y538884D01*
X27426Y538771D01*
X27448Y538736D01*
X27463Y538699D01*
X27532Y538603D01*
X27596Y538502D01*
X27626Y538474D01*
X27649Y538441D01*
X27741Y538365D01*
X27828Y538284D01*
X27863Y538264D01*
X27894Y538239D01*
X28002Y538188D01*
X28106Y538130D01*
X28146Y538120D01*
X28182Y538103D01*
X28299Y538081D01*
X28414Y538051D01*
X28474Y538047D01*
X28494Y538043D01*
X28515Y538045D01*
X28575Y538041D01*
X34006Y538041D01*
X34751Y537296D01*
X34751Y532765D01*
X34766Y532647D01*
X34773Y532528D01*
X34786Y532490D01*
X34791Y532449D01*
X34834Y532339D01*
X34871Y532226D01*
X34893Y532191D01*
X34908Y532154D01*
X34977Y532058D01*
X35041Y531957D01*
X35071Y531929D01*
X35094Y531896D01*
X35186Y531820D01*
X35273Y531739D01*
X35308Y531719D01*
X35339Y531694D01*
X35447Y531643D01*
X35551Y531585D01*
X35591Y531575D01*
X35627Y531558D01*
X35744Y531536D01*
X35859Y531506D01*
X35919Y531502D01*
X35939Y531498D01*
X35960Y531500D01*
X36020Y531496D01*
X52859Y531496D01*
X63843Y520513D01*
X63952Y520427D01*
X64059Y520339D01*
X64078Y520330D01*
X64094Y520318D01*
X64222Y520262D01*
X64347Y520203D01*
X64367Y520199D01*
X64386Y520191D01*
X64524Y520169D01*
X64660Y520143D01*
X64680Y520145D01*
X64700Y520141D01*
X64839Y520155D01*
X64977Y520163D01*
X64996Y520169D01*
X65016Y520171D01*
X65148Y520218D01*
X65279Y520261D01*
X65297Y520272D01*
X65316Y520279D01*
X65431Y520357D01*
X65548Y520431D01*
X65562Y520446D01*
X65579Y520457D01*
X65671Y520562D01*
X65766Y520663D01*
X65776Y520681D01*
X65789Y520696D01*
X65853Y520820D01*
X65920Y520941D01*
X65925Y520961D01*
X65934Y520979D01*
X65964Y521115D01*
X65999Y521249D01*
X66001Y521277D01*
X66004Y521289D01*
X66003Y521310D01*
X66009Y521410D01*
X66009Y528766D01*
X66754Y529511D01*
X69215Y529511D01*
X69333Y529526D01*
X69452Y529533D01*
X69490Y529546D01*
X69531Y529551D01*
X69641Y529594D01*
X69754Y529631D01*
X69789Y529653D01*
X69826Y529668D01*
X69922Y529737D01*
X70023Y529801D01*
X70051Y529831D01*
X70084Y529854D01*
X70160Y529946D01*
X70241Y530033D01*
X70261Y530068D01*
X70286Y530099D01*
X70337Y530207D01*
X70395Y530311D01*
X70405Y530351D01*
X70422Y530387D01*
X70444Y530504D01*
X70474Y530619D01*
X70478Y530679D01*
X70482Y530699D01*
X70480Y530720D01*
X70484Y530780D01*
X70484Y548005D01*
X70469Y548123D01*
X70462Y548242D01*
X70449Y548280D01*
X70444Y548321D01*
X70401Y548431D01*
X70364Y548544D01*
X70342Y548579D01*
X70327Y548616D01*
X70258Y548712D01*
X70194Y548813D01*
X70164Y548841D01*
X70141Y548874D01*
X70049Y548950D01*
X69962Y549031D01*
X69927Y549051D01*
X69896Y549076D01*
X69788Y549127D01*
X69684Y549185D01*
X69644Y549195D01*
X69608Y549212D01*
X69491Y549234D01*
X69376Y549264D01*
X69316Y549268D01*
X69296Y549272D01*
X69275Y549270D01*
X69215Y549274D01*
X45570Y549274D01*
X45452Y549259D01*
X45333Y549252D01*
X45295Y549239D01*
X45254Y549234D01*
X45144Y549191D01*
X45031Y549154D01*
X44996Y549132D01*
X44959Y549117D01*
X44862Y549047D01*
X44762Y548984D01*
X44734Y548954D01*
X44701Y548931D01*
X44625Y548839D01*
X44544Y548752D01*
X44524Y548717D01*
X44499Y548686D01*
X44448Y548578D01*
X44390Y548474D01*
X44380Y548434D01*
X44363Y548398D01*
X44341Y548281D01*
X44311Y548166D01*
X44307Y548106D01*
X44303Y548086D01*
X44305Y548065D01*
X44301Y548005D01*
X44301Y544744D01*
X43556Y543999D01*
X36504Y543999D01*
X35759Y544744D01*
X35759Y558296D01*
X36504Y559041D01*
X43556Y559041D01*
X44301Y558296D01*
X44301Y554355D01*
X44316Y554237D01*
X44323Y554118D01*
X44336Y554080D01*
X44341Y554039D01*
X44384Y553929D01*
X44421Y553816D01*
X44443Y553781D01*
X44458Y553744D01*
X44527Y553648D01*
X44591Y553547D01*
X44621Y553519D01*
X44644Y553486D01*
X44736Y553410D01*
X44823Y553329D01*
X44858Y553309D01*
X44889Y553284D01*
X44997Y553233D01*
X45101Y553175D01*
X45141Y553165D01*
X45177Y553148D01*
X45294Y553126D01*
X45409Y553096D01*
X45469Y553092D01*
X45489Y553088D01*
X45510Y553090D01*
X45570Y553086D01*
X64740Y553086D01*
X64858Y553101D01*
X64977Y553108D01*
X65015Y553121D01*
X65056Y553126D01*
X65166Y553169D01*
X65279Y553206D01*
X65314Y553228D01*
X65351Y553243D01*
X65447Y553312D01*
X65548Y553376D01*
X65576Y553406D01*
X65609Y553429D01*
X65685Y553521D01*
X65766Y553608D01*
X65786Y553643D01*
X65811Y553674D01*
X65862Y553782D01*
X65920Y553886D01*
X65930Y553926D01*
X65947Y553962D01*
X65969Y554079D01*
X65999Y554194D01*
X66003Y554254D01*
X66007Y554274D01*
X66005Y554295D01*
X66009Y554355D01*
X66009Y564326D01*
X66754Y565071D01*
X78806Y565071D01*
X79763Y564114D01*
X79868Y564033D01*
X79969Y563948D01*
X79993Y563936D01*
X80014Y563919D01*
X80136Y563867D01*
X80255Y563809D01*
X80281Y563804D01*
X80306Y563793D01*
X80437Y563772D01*
X80567Y563746D01*
X80593Y563747D01*
X80620Y563743D01*
X80752Y563756D01*
X80884Y563762D01*
X80910Y563770D01*
X80937Y563773D01*
X81061Y563818D01*
X81188Y563857D01*
X81211Y563871D01*
X81236Y563881D01*
X81345Y563955D01*
X81458Y564025D01*
X81477Y564044D01*
X81499Y564059D01*
X81587Y564158D01*
X81678Y564254D01*
X81692Y564277D01*
X81710Y564298D01*
X81770Y564416D01*
X81835Y564531D01*
X81847Y564567D01*
X81854Y564581D01*
X81859Y564602D01*
X81886Y564683D01*
X81912Y564781D01*
X82247Y565360D01*
X82720Y565833D01*
X83299Y566168D01*
X83946Y566341D01*
X87281Y566341D01*
X87281Y560030D01*
X87296Y559912D01*
X87303Y559793D01*
X87315Y559755D01*
X87321Y559715D01*
X87364Y559604D01*
X87401Y559491D01*
X87423Y559457D01*
X87438Y559419D01*
X87507Y559323D01*
X87571Y559222D01*
X87601Y559194D01*
X87624Y559162D01*
X87716Y559086D01*
X87803Y559004D01*
X87838Y558985D01*
X87869Y558959D01*
X87977Y558908D01*
X88081Y558851D01*
X88121Y558841D01*
X88157Y558823D01*
X88264Y558803D01*
X88234Y558799D01*
X88124Y558755D01*
X88011Y558719D01*
X87976Y558697D01*
X87939Y558682D01*
X87842Y558612D01*
X87742Y558549D01*
X87714Y558519D01*
X87681Y558495D01*
X87605Y558404D01*
X87524Y558317D01*
X87504Y558282D01*
X87479Y558250D01*
X87428Y558143D01*
X87370Y558038D01*
X87360Y557999D01*
X87343Y557963D01*
X87321Y557846D01*
X87291Y557730D01*
X87287Y557670D01*
X87283Y557650D01*
X87285Y557630D01*
X87281Y557570D01*
X87281Y551259D01*
X83946Y551259D01*
X83299Y551432D01*
X82720Y551767D01*
X82247Y552240D01*
X81912Y552819D01*
X81886Y552917D01*
X81836Y553039D01*
X81792Y553164D01*
X81776Y553186D01*
X81766Y553211D01*
X81687Y553317D01*
X81613Y553427D01*
X81593Y553445D01*
X81577Y553467D01*
X81474Y553550D01*
X81375Y553638D01*
X81351Y553650D01*
X81330Y553667D01*
X81209Y553722D01*
X81091Y553782D01*
X81065Y553788D01*
X81040Y553799D01*
X80910Y553823D01*
X80781Y553852D01*
X80754Y553851D01*
X80728Y553856D01*
X80596Y553846D01*
X80463Y553842D01*
X80437Y553835D01*
X80410Y553833D01*
X80285Y553791D01*
X80158Y553754D01*
X80134Y553740D01*
X80109Y553731D01*
X79998Y553659D01*
X79884Y553592D01*
X79855Y553567D01*
X79842Y553558D01*
X79827Y553542D01*
X79763Y553486D01*
X78806Y552529D01*
X75565Y552529D01*
X75447Y552514D01*
X75328Y552507D01*
X75290Y552494D01*
X75249Y552489D01*
X75139Y552446D01*
X75026Y552409D01*
X74991Y552387D01*
X74954Y552372D01*
X74858Y552303D01*
X74757Y552239D01*
X74729Y552209D01*
X74696Y552186D01*
X74620Y552094D01*
X74539Y552007D01*
X74519Y551972D01*
X74494Y551941D01*
X74443Y551833D01*
X74385Y551729D01*
X74375Y551689D01*
X74358Y551653D01*
X74336Y551536D01*
X74306Y551421D01*
X74302Y551361D01*
X74298Y551341D01*
X74300Y551320D01*
X74296Y551260D01*
X74296Y530780D01*
X74311Y530662D01*
X74318Y530543D01*
X74331Y530505D01*
X74336Y530464D01*
X74379Y530354D01*
X74416Y530241D01*
X74438Y530206D01*
X74453Y530169D01*
X74522Y530073D01*
X74586Y529972D01*
X74616Y529944D01*
X74639Y529911D01*
X74731Y529835D01*
X74818Y529754D01*
X74853Y529734D01*
X74884Y529709D01*
X74992Y529658D01*
X75096Y529600D01*
X75136Y529590D01*
X75172Y529573D01*
X75289Y529551D01*
X75404Y529521D01*
X75464Y529517D01*
X75484Y529513D01*
X75505Y529515D01*
X75565Y529511D01*
X78806Y529511D01*
X79763Y528554D01*
X79868Y528473D01*
X79969Y528388D01*
X79993Y528376D01*
X80014Y528359D01*
X80136Y528307D01*
X80255Y528249D01*
X80281Y528244D01*
X80306Y528233D01*
X80437Y528212D01*
X80567Y528186D01*
X80593Y528187D01*
X80620Y528183D01*
X80752Y528196D01*
X80884Y528202D01*
X80910Y528210D01*
X80937Y528213D01*
X81061Y528258D01*
X81188Y528297D01*
X81211Y528311D01*
X81236Y528321D01*
X81345Y528395D01*
X81458Y528465D01*
X81477Y528484D01*
X81499Y528499D01*
X81587Y528598D01*
X81678Y528694D01*
X81692Y528717D01*
X81710Y528738D01*
X81770Y528856D01*
X81835Y528971D01*
X81847Y529007D01*
X81854Y529021D01*
X81859Y529042D01*
X81886Y529123D01*
X81912Y529221D01*
X82247Y529800D01*
X82720Y530273D01*
X83299Y530608D01*
X83946Y530781D01*
X87281Y530781D01*
X87281Y524470D01*
X87296Y524352D01*
X87303Y524233D01*
X87315Y524195D01*
X87321Y524155D01*
X87364Y524044D01*
X87401Y523931D01*
X87423Y523897D01*
X87438Y523859D01*
X87507Y523763D01*
X87571Y523662D01*
X87601Y523634D01*
X87624Y523602D01*
X87716Y523526D01*
X87803Y523444D01*
X87838Y523425D01*
X87869Y523399D01*
X87977Y523348D01*
X88081Y523291D01*
X88121Y523281D01*
X88157Y523263D01*
X88274Y523241D01*
X88389Y523211D01*
X88449Y523207D01*
X88469Y523204D01*
X88490Y523205D01*
X88550Y523201D01*
X89741Y523201D01*
X89741Y522010D01*
X89756Y521892D01*
X89763Y521773D01*
X89776Y521735D01*
X89781Y521694D01*
X89825Y521584D01*
X89861Y521471D01*
X89883Y521436D01*
X89898Y521399D01*
X89968Y521302D01*
X90031Y521202D01*
X90061Y521174D01*
X90085Y521141D01*
X90176Y521065D01*
X90263Y520984D01*
X90298Y520964D01*
X90330Y520939D01*
X90437Y520888D01*
X90542Y520830D01*
X90581Y520820D01*
X90617Y520803D01*
X90734Y520781D01*
X90850Y520751D01*
X90910Y520747D01*
X90930Y520743D01*
X90950Y520745D01*
X91010Y520741D01*
X97821Y520741D01*
X97821Y518795D01*
X97836Y518677D01*
X97843Y518558D01*
X97856Y518520D01*
X97861Y518479D01*
X97904Y518369D01*
X97941Y518256D01*
X97963Y518221D01*
X97978Y518184D01*
X98047Y518088D01*
X98111Y517987D01*
X98141Y517959D01*
X98164Y517926D01*
X98256Y517850D01*
X98343Y517769D01*
X98378Y517749D01*
X98409Y517724D01*
X98517Y517673D01*
X98621Y517615D01*
X98661Y517605D01*
X98697Y517588D01*
X98814Y517566D01*
X98929Y517536D01*
X98989Y517532D01*
X99009Y517528D01*
X99030Y517530D01*
X99090Y517526D01*
X109175Y517526D01*
X109273Y517538D01*
X109372Y517541D01*
X109430Y517558D01*
X109490Y517566D01*
X109582Y517602D01*
X109678Y517630D01*
X109730Y517660D01*
X109786Y517683D01*
X109866Y517741D01*
X109952Y517791D01*
X110027Y517857D01*
X110043Y517869D01*
X110051Y517879D01*
X110072Y517897D01*
X111358Y519183D01*
X111418Y519261D01*
X111486Y519333D01*
X111515Y519386D01*
X111552Y519434D01*
X111592Y519525D01*
X111640Y519612D01*
X111655Y519670D01*
X111679Y519726D01*
X111694Y519824D01*
X111719Y519919D01*
X111725Y520019D01*
X111729Y520040D01*
X111727Y520052D01*
X111729Y520080D01*
X111729Y528766D01*
X112474Y529511D01*
X114935Y529511D01*
X115053Y529526D01*
X115172Y529533D01*
X115210Y529546D01*
X115251Y529551D01*
X115361Y529594D01*
X115474Y529631D01*
X115509Y529653D01*
X115546Y529668D01*
X115642Y529737D01*
X115743Y529801D01*
X115771Y529831D01*
X115804Y529854D01*
X115880Y529946D01*
X115961Y530033D01*
X115981Y530068D01*
X116006Y530099D01*
X116057Y530207D01*
X116115Y530311D01*
X116125Y530351D01*
X116142Y530387D01*
X116164Y530504D01*
X116194Y530619D01*
X116198Y530679D01*
X116202Y530699D01*
X116200Y530720D01*
X116204Y530780D01*
X116204Y551260D01*
X116189Y551378D01*
X116182Y551497D01*
X116169Y551535D01*
X116164Y551576D01*
X116121Y551686D01*
X116084Y551799D01*
X116062Y551834D01*
X116047Y551871D01*
X115978Y551967D01*
X115914Y552068D01*
X115884Y552096D01*
X115861Y552129D01*
X115769Y552205D01*
X115682Y552286D01*
X115647Y552306D01*
X115616Y552331D01*
X115508Y552382D01*
X115404Y552440D01*
X115364Y552450D01*
X115328Y552467D01*
X115211Y552489D01*
X115096Y552519D01*
X115036Y552523D01*
X115016Y552527D01*
X114995Y552525D01*
X114935Y552529D01*
X112474Y552529D01*
X111729Y553274D01*
X111729Y564326D01*
X112474Y565071D01*
X121160Y565071D01*
X121258Y565083D01*
X121357Y565086D01*
X121415Y565103D01*
X121475Y565111D01*
X121567Y565147D01*
X121663Y565175D01*
X121715Y565205D01*
X121771Y565228D01*
X121851Y565286D01*
X121937Y565336D01*
X122012Y565402D01*
X122028Y565414D01*
X122036Y565424D01*
X122057Y565442D01*
X155421Y598806D01*
X155970Y598806D01*
X156088Y598821D01*
X156207Y598828D01*
X156245Y598841D01*
X156286Y598846D01*
X156396Y598889D01*
X156509Y598926D01*
X156544Y598948D01*
X156581Y598963D01*
X156677Y599032D01*
X156778Y599096D01*
X156806Y599126D01*
X156839Y599149D01*
X156915Y599241D01*
X156996Y599328D01*
X157016Y599363D01*
X157041Y599394D01*
X157092Y599502D01*
X157150Y599606D01*
X157160Y599646D01*
X157177Y599682D01*
X157199Y599799D01*
X157229Y599914D01*
X157233Y599974D01*
X157237Y599994D01*
X157235Y600015D01*
X157239Y600075D01*
X157239Y601036D01*
X157984Y601781D01*
X171536Y601781D01*
X172458Y600860D01*
X172567Y600775D01*
X172674Y600686D01*
X172693Y600677D01*
X172709Y600665D01*
X172836Y600609D01*
X172962Y600550D01*
X172982Y600546D01*
X173001Y600538D01*
X173139Y600516D01*
X173275Y600490D01*
X173295Y600492D01*
X173315Y600488D01*
X173454Y600502D01*
X173592Y600510D01*
X173611Y600516D01*
X173631Y600518D01*
X173763Y600565D01*
X173894Y600608D01*
X173912Y600619D01*
X173931Y600626D01*
X174046Y600704D01*
X174163Y600778D01*
X174177Y600793D01*
X174194Y600804D01*
X174286Y600909D01*
X174381Y601010D01*
X174391Y601028D01*
X174404Y601043D01*
X174468Y601167D01*
X174535Y601288D01*
X174540Y601308D01*
X174549Y601326D01*
X174579Y601462D01*
X174614Y601596D01*
X174616Y601624D01*
X174619Y601636D01*
X174618Y601657D01*
X174624Y601757D01*
X174624Y610567D01*
X174607Y610707D01*
X174593Y610847D01*
X174587Y610864D01*
X174584Y610882D01*
X174533Y611013D01*
X174485Y611146D01*
X174474Y611161D01*
X174467Y611178D01*
X174385Y611292D01*
X174305Y611408D01*
X174291Y611421D01*
X174281Y611435D01*
X174172Y611525D01*
X174066Y611618D01*
X174050Y611626D01*
X174036Y611638D01*
X173908Y611698D01*
X173783Y611762D01*
X173765Y611766D01*
X173748Y611774D01*
X173610Y611800D01*
X173472Y611831D01*
X173454Y611830D01*
X173436Y611834D01*
X173295Y611825D01*
X173154Y611820D01*
X173137Y611815D01*
X173118Y611814D01*
X172985Y611771D01*
X172849Y611731D01*
X172833Y611722D01*
X172816Y611716D01*
X172776Y611691D01*
X172715Y611660D01*
X171991Y611242D01*
X171344Y611069D01*
X166259Y611069D01*
X166259Y616380D01*
X166244Y616498D01*
X166237Y616617D01*
X166235Y616624D01*
X166249Y616680D01*
X166253Y616740D01*
X166257Y616760D01*
X166255Y616780D01*
X166259Y616840D01*
X166259Y622151D01*
X171344Y622151D01*
X171991Y621978D01*
X172670Y621585D01*
X172674Y621582D01*
X172685Y621577D01*
X172694Y621571D01*
X172706Y621562D01*
X172823Y621511D01*
X172872Y621484D01*
X172892Y621479D01*
X172962Y621446D01*
X172980Y621443D01*
X172997Y621435D01*
X173137Y621413D01*
X173275Y621386D01*
X173293Y621388D01*
X173311Y621385D01*
X173452Y621397D01*
X173592Y621406D01*
X173609Y621412D01*
X173628Y621414D01*
X173761Y621461D01*
X173894Y621504D01*
X173910Y621514D01*
X173928Y621520D01*
X174044Y621599D01*
X174163Y621674D01*
X174176Y621688D01*
X174191Y621698D01*
X174284Y621803D01*
X174381Y621906D01*
X174390Y621922D01*
X174402Y621936D01*
X174467Y622061D01*
X174535Y622184D01*
X174539Y622202D01*
X174548Y622219D01*
X174557Y622261D01*
X174562Y622271D01*
X174574Y622337D01*
X174579Y622356D01*
X174614Y622492D01*
X174616Y622518D01*
X174618Y622529D01*
X174618Y622549D01*
X174619Y622569D01*
X174622Y622583D01*
X174621Y622598D01*
X174624Y622653D01*
X174624Y647219D01*
X206208Y678803D01*
X206268Y678881D01*
X206336Y678953D01*
X206365Y679006D01*
X206402Y679054D01*
X206442Y679145D01*
X206490Y679232D01*
X206505Y679290D01*
X206529Y679346D01*
X206544Y679444D01*
X206569Y679539D01*
X206575Y679639D01*
X206579Y679660D01*
X206577Y679672D01*
X206579Y679700D01*
X206579Y685841D01*
X212720Y685841D01*
X212818Y685853D01*
X212917Y685856D01*
X212975Y685873D01*
X213035Y685881D01*
X213127Y685917D01*
X213223Y685945D01*
X213275Y685975D01*
X213331Y685998D01*
X213411Y686056D01*
X213496Y686106D01*
X213572Y686172D01*
X213588Y686184D01*
X213596Y686194D01*
X213617Y686212D01*
X232673Y705268D01*
X232733Y705346D01*
X232801Y705418D01*
X232830Y705471D01*
X232867Y705519D01*
X232907Y705610D01*
X232955Y705697D01*
X232970Y705755D01*
X232994Y705811D01*
X233009Y705909D01*
X233034Y706004D01*
X233040Y706104D01*
X233044Y706125D01*
X233042Y706137D01*
X233044Y706165D01*
X233044Y718900D01*
X233029Y719018D01*
X233022Y719137D01*
X233009Y719175D01*
X233004Y719216D01*
X232961Y719326D01*
X232924Y719439D01*
X232902Y719474D01*
X232887Y719511D01*
X232818Y719607D01*
X232754Y719708D01*
X232724Y719736D01*
X232701Y719769D01*
X232609Y719845D01*
X232522Y719926D01*
X232487Y719946D01*
X232456Y719971D01*
X232348Y720022D01*
X232244Y720080D01*
X232204Y720090D01*
X232168Y720107D01*
X232051Y720129D01*
X231936Y720159D01*
X231876Y720163D01*
X231856Y720167D01*
X231835Y720165D01*
X231775Y720169D01*
X229314Y720169D01*
X228569Y720914D01*
X228569Y731966D01*
X229314Y732711D01*
X233045Y732711D01*
X233163Y732726D01*
X233282Y732733D01*
X233320Y732746D01*
X233361Y732751D01*
X233471Y732794D01*
X233584Y732831D01*
X233619Y732853D01*
X233656Y732868D01*
X233752Y732937D01*
X233853Y733001D01*
X233881Y733031D01*
X233914Y733054D01*
X233990Y733146D01*
X234071Y733233D01*
X234091Y733268D01*
X234116Y733299D01*
X234167Y733407D01*
X234225Y733511D01*
X234235Y733551D01*
X234252Y733587D01*
X234274Y733704D01*
X234304Y733819D01*
X234308Y733879D01*
X234312Y733899D01*
X234310Y733920D01*
X234314Y733980D01*
X234314Y823749D01*
X239278Y828713D01*
X239338Y828791D01*
X239406Y828863D01*
X239435Y828916D01*
X239472Y828964D01*
X239512Y829055D01*
X239560Y829142D01*
X239575Y829200D01*
X239599Y829256D01*
X239614Y829354D01*
X239639Y829449D01*
X239645Y829549D01*
X239649Y829570D01*
X239647Y829582D01*
X239649Y829610D01*
X239649Y842980D01*
X239637Y843078D01*
X239634Y843177D01*
X239617Y843235D01*
X239609Y843295D01*
X239573Y843388D01*
X239545Y843483D01*
X239515Y843535D01*
X239492Y843591D01*
X239434Y843671D01*
X239384Y843757D01*
X239318Y843832D01*
X239306Y843848D01*
X239296Y843856D01*
X239278Y843877D01*
X238342Y844813D01*
X236854Y846301D01*
X236854Y900385D01*
X236842Y900483D01*
X236839Y900582D01*
X236822Y900640D01*
X236814Y900700D01*
X236778Y900792D01*
X236750Y900888D01*
X236720Y900940D01*
X236697Y900996D01*
X236639Y901076D01*
X236589Y901162D01*
X236523Y901237D01*
X236511Y901253D01*
X236501Y901261D01*
X236483Y901282D01*
X190157Y947607D01*
X190048Y947693D01*
X189941Y947781D01*
X189922Y947790D01*
X189906Y947802D01*
X189778Y947858D01*
X189653Y947917D01*
X189633Y947921D01*
X189614Y947929D01*
X189476Y947951D01*
X189340Y947977D01*
X189320Y947975D01*
X189300Y947979D01*
X189161Y947965D01*
X189023Y947957D01*
X189004Y947951D01*
X188984Y947949D01*
X188852Y947902D01*
X188721Y947859D01*
X188703Y947848D01*
X188684Y947841D01*
X188569Y947763D01*
X188452Y947689D01*
X188438Y947674D01*
X188421Y947663D01*
X188329Y947558D01*
X188234Y947457D01*
X188224Y947439D01*
X188211Y947424D01*
X188147Y947300D01*
X188080Y947179D01*
X188075Y947159D01*
X188066Y947141D01*
X188036Y947005D01*
X188001Y946871D01*
X187999Y946843D01*
X187996Y946831D01*
X187997Y946810D01*
X187991Y946710D01*
X187991Y939354D01*
X187246Y938609D01*
X175194Y938609D01*
X174237Y939566D01*
X174132Y939647D01*
X174031Y939732D01*
X174007Y939744D01*
X173986Y939761D01*
X173864Y939813D01*
X173745Y939871D01*
X173719Y939876D01*
X173694Y939887D01*
X173563Y939908D01*
X173434Y939934D01*
X173407Y939933D01*
X173380Y939937D01*
X173248Y939924D01*
X173116Y939918D01*
X173090Y939910D01*
X173063Y939907D01*
X172939Y939862D01*
X172812Y939823D01*
X172789Y939809D01*
X172764Y939799D01*
X172654Y939725D01*
X172542Y939655D01*
X172523Y939636D01*
X172501Y939621D01*
X172413Y939522D01*
X172322Y939426D01*
X172308Y939403D01*
X172290Y939382D01*
X172230Y939264D01*
X172165Y939149D01*
X172153Y939113D01*
X172146Y939099D01*
X172141Y939078D01*
X172114Y938997D01*
X172088Y938899D01*
X171753Y938320D01*
X171280Y937847D01*
X170701Y937512D01*
X170054Y937339D01*
X166719Y937339D01*
X166719Y943650D01*
X166704Y943768D01*
X166697Y943887D01*
X166684Y943925D01*
X166679Y943965D01*
X166636Y944076D01*
X166599Y944189D01*
X166577Y944223D01*
X166562Y944261D01*
X166493Y944357D01*
X166429Y944458D01*
X166399Y944486D01*
X166376Y944518D01*
X166284Y944594D01*
X166197Y944676D01*
X166162Y944695D01*
X166131Y944721D01*
X166023Y944772D01*
X165919Y944829D01*
X165879Y944839D01*
X165843Y944857D01*
X165726Y944879D01*
X165611Y944909D01*
X165551Y944913D01*
X165531Y944916D01*
X165510Y944915D01*
X165450Y944919D01*
X164259Y944919D01*
X164259Y946110D01*
X164244Y946228D01*
X164237Y946347D01*
X164224Y946385D01*
X164219Y946426D01*
X164175Y946536D01*
X164139Y946649D01*
X164117Y946684D01*
X164102Y946721D01*
X164032Y946817D01*
X163969Y946918D01*
X163939Y946946D01*
X163915Y946979D01*
X163824Y947055D01*
X163737Y947136D01*
X163702Y947156D01*
X163670Y947181D01*
X163563Y947232D01*
X163458Y947290D01*
X163419Y947300D01*
X163383Y947317D01*
X163266Y947339D01*
X163150Y947369D01*
X163090Y947373D01*
X163070Y947377D01*
X163050Y947375D01*
X162990Y947379D01*
X155580Y947379D01*
X155482Y947367D01*
X155383Y947364D01*
X155325Y947347D01*
X155265Y947339D01*
X155173Y947303D01*
X155077Y947275D01*
X155025Y947245D01*
X154969Y947222D01*
X154889Y947164D01*
X154803Y947114D01*
X154728Y947048D01*
X154712Y947036D01*
X154704Y947026D01*
X154683Y947008D01*
X150649Y942974D01*
X143540Y942974D01*
X143422Y942959D01*
X143303Y942952D01*
X143265Y942939D01*
X143224Y942934D01*
X143114Y942891D01*
X143001Y942854D01*
X142966Y942832D01*
X142929Y942817D01*
X142833Y942748D01*
X142732Y942684D01*
X142704Y942654D01*
X142671Y942631D01*
X142595Y942539D01*
X142514Y942452D01*
X142494Y942417D01*
X142469Y942386D01*
X142418Y942278D01*
X142360Y942174D01*
X142350Y942134D01*
X142333Y942098D01*
X142311Y941981D01*
X142281Y941866D01*
X142277Y941806D01*
X142273Y941786D01*
X142275Y941765D01*
X142271Y941705D01*
X142271Y939354D01*
X141526Y938609D01*
X129474Y938609D01*
X128517Y939566D01*
X128412Y939647D01*
X128311Y939732D01*
X128287Y939744D01*
X128266Y939761D01*
X128144Y939813D01*
X128025Y939871D01*
X127999Y939876D01*
X127974Y939887D01*
X127843Y939908D01*
X127714Y939934D01*
X127687Y939933D01*
X127660Y939937D01*
X127528Y939924D01*
X127396Y939918D01*
X127370Y939910D01*
X127343Y939907D01*
X127219Y939862D01*
X127092Y939823D01*
X127069Y939809D01*
X127044Y939799D01*
X126934Y939725D01*
X126822Y939655D01*
X126803Y939636D01*
X126781Y939621D01*
X126693Y939522D01*
X126602Y939426D01*
X126588Y939403D01*
X126570Y939382D01*
X126510Y939264D01*
X126445Y939149D01*
X126433Y939113D01*
X126426Y939099D01*
X126421Y939078D01*
X126394Y938997D01*
X126368Y938899D01*
X126033Y938320D01*
X125560Y937847D01*
X124981Y937512D01*
X124334Y937339D01*
X120999Y937339D01*
X120999Y943650D01*
X120984Y943768D01*
X120977Y943887D01*
X120964Y943925D01*
X120959Y943965D01*
X120916Y944076D01*
X120879Y944189D01*
X120857Y944223D01*
X120842Y944261D01*
X120773Y944357D01*
X120709Y944458D01*
X120679Y944486D01*
X120656Y944518D01*
X120564Y944594D01*
X120477Y944676D01*
X120442Y944695D01*
X120411Y944721D01*
X120303Y944772D01*
X120199Y944829D01*
X120159Y944839D01*
X120123Y944857D01*
X120006Y944879D01*
X119891Y944909D01*
X119831Y944913D01*
X119811Y944916D01*
X119790Y944915D01*
X119730Y944919D01*
X118539Y944919D01*
X118539Y946110D01*
X118524Y946228D01*
X118517Y946347D01*
X118504Y946385D01*
X118499Y946426D01*
X118455Y946536D01*
X118419Y946649D01*
X118397Y946684D01*
X118382Y946721D01*
X118312Y946817D01*
X118249Y946918D01*
X118219Y946946D01*
X118195Y946979D01*
X118104Y947055D01*
X118017Y947136D01*
X117982Y947156D01*
X117950Y947181D01*
X117843Y947232D01*
X117738Y947290D01*
X117699Y947300D01*
X117663Y947317D01*
X117546Y947339D01*
X117430Y947369D01*
X117370Y947373D01*
X117350Y947377D01*
X117330Y947375D01*
X117270Y947379D01*
X110459Y947379D01*
X110459Y949325D01*
X110444Y949443D01*
X110437Y949562D01*
X110424Y949600D01*
X110419Y949641D01*
X110376Y949751D01*
X110339Y949864D01*
X110317Y949899D01*
X110302Y949936D01*
X110233Y950032D01*
X110169Y950133D01*
X110139Y950161D01*
X110116Y950194D01*
X110024Y950270D01*
X109937Y950351D01*
X109902Y950371D01*
X109871Y950396D01*
X109763Y950447D01*
X109659Y950505D01*
X109619Y950515D01*
X109583Y950532D01*
X109466Y950554D01*
X109351Y950584D01*
X109291Y950588D01*
X109271Y950592D01*
X109250Y950590D01*
X109190Y950594D01*
X87570Y950594D01*
X87452Y950579D01*
X87333Y950572D01*
X87295Y950559D01*
X87254Y950554D01*
X87144Y950511D01*
X87031Y950474D01*
X86996Y950452D01*
X86959Y950437D01*
X86863Y950368D01*
X86762Y950304D01*
X86734Y950274D01*
X86701Y950251D01*
X86625Y950159D01*
X86544Y950072D01*
X86524Y950037D01*
X86499Y950006D01*
X86448Y949898D01*
X86390Y949794D01*
X86380Y949754D01*
X86363Y949718D01*
X86341Y949601D01*
X86311Y949486D01*
X86307Y949426D01*
X86303Y949406D01*
X86305Y949385D01*
X86301Y949325D01*
X86301Y946754D01*
X85556Y946009D01*
X77004Y946009D01*
X76259Y946754D01*
X76259Y959806D01*
X77004Y960551D01*
X85556Y960551D01*
X86301Y959806D01*
X86301Y955675D01*
X86316Y955557D01*
X86323Y955438D01*
X86336Y955400D01*
X86341Y955359D01*
X86384Y955249D01*
X86421Y955136D01*
X86443Y955101D01*
X86458Y955064D01*
X86527Y954968D01*
X86591Y954867D01*
X86621Y954839D01*
X86644Y954806D01*
X86736Y954730D01*
X86823Y954649D01*
X86858Y954629D01*
X86889Y954604D01*
X86997Y954553D01*
X87101Y954495D01*
X87141Y954485D01*
X87177Y954468D01*
X87294Y954446D01*
X87409Y954416D01*
X87469Y954412D01*
X87489Y954408D01*
X87510Y954410D01*
X87570Y954406D01*
X123825Y954406D01*
X123943Y954421D01*
X124062Y954428D01*
X124100Y954441D01*
X124141Y954446D01*
X124251Y954489D01*
X124364Y954526D01*
X124399Y954548D01*
X124436Y954563D01*
X124532Y954632D01*
X124633Y954696D01*
X124661Y954726D01*
X124694Y954749D01*
X124770Y954841D01*
X124851Y954928D01*
X124871Y954963D01*
X124896Y954994D01*
X124947Y955102D01*
X125005Y955206D01*
X125015Y955246D01*
X125032Y955282D01*
X125054Y955399D01*
X125084Y955514D01*
X125088Y955574D01*
X125092Y955594D01*
X125090Y955615D01*
X125094Y955675D01*
X125094Y971630D01*
X125079Y971748D01*
X125072Y971867D01*
X125059Y971905D01*
X125054Y971946D01*
X125011Y972056D01*
X124974Y972169D01*
X124952Y972204D01*
X124937Y972241D01*
X124868Y972337D01*
X124804Y972438D01*
X124774Y972466D01*
X124751Y972499D01*
X124659Y972575D01*
X124572Y972656D01*
X124537Y972676D01*
X124506Y972701D01*
X124398Y972752D01*
X124294Y972810D01*
X124254Y972820D01*
X124218Y972837D01*
X124101Y972859D01*
X123986Y972889D01*
X123926Y972893D01*
X123906Y972897D01*
X123885Y972895D01*
X123825Y972899D01*
X120999Y972899D01*
X120999Y979210D01*
X120984Y979328D01*
X120977Y979447D01*
X120964Y979485D01*
X120959Y979525D01*
X120916Y979636D01*
X120879Y979749D01*
X120857Y979783D01*
X120842Y979821D01*
X120773Y979917D01*
X120709Y980018D01*
X120679Y980046D01*
X120656Y980078D01*
X120564Y980154D01*
X120477Y980236D01*
X120442Y980255D01*
X120411Y980281D01*
X120303Y980332D01*
X120199Y980389D01*
X120159Y980399D01*
X120123Y980417D01*
X120006Y980439D01*
X119891Y980469D01*
X119831Y980473D01*
X119811Y980476D01*
X119790Y980475D01*
X119730Y980479D01*
X118539Y980479D01*
X118539Y981670D01*
X118524Y981788D01*
X118517Y981907D01*
X118504Y981945D01*
X118499Y981986D01*
X118455Y982096D01*
X118419Y982209D01*
X118397Y982244D01*
X118382Y982281D01*
X118312Y982377D01*
X118249Y982478D01*
X118219Y982506D01*
X118195Y982539D01*
X118104Y982615D01*
X118017Y982696D01*
X117982Y982716D01*
X117950Y982741D01*
X117843Y982792D01*
X117738Y982850D01*
X117699Y982860D01*
X117663Y982877D01*
X117546Y982899D01*
X117430Y982929D01*
X117370Y982933D01*
X117350Y982937D01*
X117330Y982935D01*
X117270Y982939D01*
X110459Y982939D01*
X110459Y984885D01*
X110444Y985003D01*
X110437Y985122D01*
X110424Y985160D01*
X110419Y985201D01*
X110376Y985311D01*
X110339Y985424D01*
X110317Y985459D01*
X110302Y985496D01*
X110233Y985592D01*
X110169Y985693D01*
X110139Y985721D01*
X110116Y985754D01*
X110024Y985830D01*
X109937Y985911D01*
X109902Y985931D01*
X109871Y985956D01*
X109763Y986007D01*
X109659Y986065D01*
X109619Y986075D01*
X109583Y986092D01*
X109466Y986114D01*
X109351Y986144D01*
X109291Y986148D01*
X109271Y986152D01*
X109250Y986150D01*
X109190Y986154D01*
X87570Y986154D01*
X87452Y986139D01*
X87333Y986132D01*
X87295Y986119D01*
X87254Y986114D01*
X87144Y986071D01*
X87031Y986034D01*
X86996Y986012D01*
X86959Y985997D01*
X86863Y985928D01*
X86762Y985864D01*
X86734Y985834D01*
X86701Y985811D01*
X86625Y985719D01*
X86544Y985632D01*
X86524Y985597D01*
X86499Y985566D01*
X86448Y985458D01*
X86390Y985354D01*
X86380Y985314D01*
X86363Y985278D01*
X86341Y985161D01*
X86311Y985046D01*
X86307Y984986D01*
X86303Y984966D01*
X86305Y984945D01*
X86301Y984885D01*
X86301Y980754D01*
X85556Y980009D01*
X77004Y980009D01*
X76259Y980754D01*
X76259Y993806D01*
X77004Y994551D01*
X85556Y994551D01*
X86301Y993806D01*
X86301Y991235D01*
X86316Y991117D01*
X86323Y990998D01*
X86336Y990960D01*
X86341Y990919D01*
X86384Y990809D01*
X86421Y990696D01*
X86443Y990661D01*
X86458Y990624D01*
X86527Y990528D01*
X86591Y990427D01*
X86621Y990399D01*
X86644Y990366D01*
X86736Y990290D01*
X86823Y990209D01*
X86858Y990189D01*
X86889Y990164D01*
X86997Y990113D01*
X87101Y990055D01*
X87141Y990045D01*
X87177Y990028D01*
X87294Y990006D01*
X87409Y989976D01*
X87469Y989972D01*
X87489Y989968D01*
X87510Y989970D01*
X87570Y989966D01*
X124415Y989966D01*
X124513Y989978D01*
X124612Y989981D01*
X124670Y989998D01*
X124730Y990006D01*
X124822Y990042D01*
X124918Y990070D01*
X124970Y990100D01*
X125026Y990123D01*
X125106Y990181D01*
X125192Y990231D01*
X125267Y990297D01*
X125283Y990309D01*
X125291Y990319D01*
X125312Y990337D01*
X147582Y1012607D01*
X147607Y1012632D01*
X147680Y1012727D01*
X147759Y1012816D01*
X147778Y1012852D01*
X147802Y1012883D01*
X147850Y1012993D01*
X147904Y1013099D01*
X147913Y1013138D01*
X147929Y1013175D01*
X147947Y1013293D01*
X147974Y1013410D01*
X147972Y1013450D01*
X147979Y1013489D01*
X147968Y1013608D01*
X147964Y1013727D01*
X147953Y1013766D01*
X147949Y1013806D01*
X147909Y1013918D01*
X147876Y1014033D01*
X147855Y1014067D01*
X147842Y1014105D01*
X147775Y1014204D01*
X147714Y1014307D01*
X147675Y1014352D01*
X147663Y1014368D01*
X147648Y1014382D01*
X147608Y1014428D01*
X143137Y1018898D01*
X143043Y1018971D01*
X142954Y1019050D01*
X142918Y1019068D01*
X142886Y1019093D01*
X142777Y1019140D01*
X142671Y1019194D01*
X142632Y1019203D01*
X142594Y1019219D01*
X142477Y1019238D01*
X142361Y1019264D01*
X142320Y1019263D01*
X142280Y1019269D01*
X142162Y1019258D01*
X142043Y1019254D01*
X142004Y1019243D01*
X141964Y1019239D01*
X141851Y1019199D01*
X141737Y1019166D01*
X141702Y1019145D01*
X141664Y1019132D01*
X141566Y1019065D01*
X141463Y1019004D01*
X141418Y1018964D01*
X141401Y1018953D01*
X141388Y1018938D01*
X141342Y1018898D01*
X134380Y1011935D01*
X132079Y1011935D01*
X132079Y1021081D01*
X153670Y1021081D01*
X153788Y1021096D01*
X153907Y1021103D01*
X153945Y1021116D01*
X153985Y1021121D01*
X154096Y1021164D01*
X154209Y1021201D01*
X154243Y1021223D01*
X154281Y1021238D01*
X154377Y1021308D01*
X154478Y1021371D01*
X154506Y1021401D01*
X154538Y1021424D01*
X154614Y1021516D01*
X154696Y1021603D01*
X154715Y1021638D01*
X154741Y1021669D01*
X154792Y1021777D01*
X154849Y1021881D01*
X154860Y1021921D01*
X154877Y1021957D01*
X154899Y1022074D01*
X154929Y1022189D01*
X154933Y1022250D01*
X154937Y1022270D01*
X154935Y1022290D01*
X154939Y1022350D01*
X154939Y1023621D01*
X154941Y1023621D01*
X154941Y1022350D01*
X154956Y1022232D01*
X154963Y1022113D01*
X154976Y1022075D01*
X154981Y1022034D01*
X155025Y1021924D01*
X155061Y1021811D01*
X155083Y1021776D01*
X155098Y1021739D01*
X155168Y1021643D01*
X155231Y1021542D01*
X155261Y1021514D01*
X155285Y1021481D01*
X155376Y1021406D01*
X155463Y1021324D01*
X155498Y1021304D01*
X155530Y1021279D01*
X155637Y1021228D01*
X155742Y1021170D01*
X155781Y1021160D01*
X155817Y1021143D01*
X155934Y1021121D01*
X156049Y1021091D01*
X156110Y1021087D01*
X156130Y1021083D01*
X156150Y1021085D01*
X156210Y1021081D01*
X166625Y1021081D01*
X166625Y1018780D01*
X164107Y1016262D01*
X164022Y1016153D01*
X163933Y1016046D01*
X163925Y1016027D01*
X163912Y1016011D01*
X163857Y1015883D01*
X163798Y1015758D01*
X163794Y1015738D01*
X163786Y1015719D01*
X163764Y1015581D01*
X163738Y1015445D01*
X163739Y1015425D01*
X163736Y1015405D01*
X163749Y1015266D01*
X163758Y1015128D01*
X163764Y1015109D01*
X163766Y1015089D01*
X163813Y1014957D01*
X163856Y1014826D01*
X163867Y1014808D01*
X163873Y1014789D01*
X163952Y1014674D01*
X164026Y1014557D01*
X164041Y1014543D01*
X164052Y1014526D01*
X164156Y1014434D01*
X164258Y1014339D01*
X164275Y1014329D01*
X164290Y1014316D01*
X164415Y1014252D01*
X164536Y1014185D01*
X164556Y1014180D01*
X164574Y1014171D01*
X164710Y1014141D01*
X164844Y1014106D01*
X164872Y1014104D01*
X164884Y1014101D01*
X164904Y1014102D01*
X165005Y1014096D01*
X167595Y1014096D01*
X167693Y1014108D01*
X167792Y1014111D01*
X167850Y1014128D01*
X167910Y1014136D01*
X168002Y1014172D01*
X168098Y1014200D01*
X168150Y1014230D01*
X168206Y1014253D01*
X168286Y1014311D01*
X168372Y1014361D01*
X168447Y1014427D01*
X168463Y1014439D01*
X168471Y1014449D01*
X168492Y1014467D01*
X170731Y1016706D01*
X170804Y1016800D01*
X170882Y1016889D01*
X170901Y1016925D01*
X170926Y1016957D01*
X170973Y1017066D01*
X171027Y1017172D01*
X171036Y1017212D01*
X171052Y1017249D01*
X171071Y1017367D01*
X171097Y1017483D01*
X171095Y1017523D01*
X171102Y1017563D01*
X171091Y1017682D01*
X171087Y1017800D01*
X171076Y1017839D01*
X171072Y1017880D01*
X171032Y1017992D01*
X170999Y1018106D01*
X170978Y1018141D01*
X170964Y1018179D01*
X170897Y1018277D01*
X170837Y1018380D01*
X170797Y1018425D01*
X170786Y1018442D01*
X170770Y1018456D01*
X170731Y1018501D01*
X169925Y1019306D01*
X169925Y1027934D01*
X176026Y1034035D01*
X184654Y1034035D01*
X190238Y1028451D01*
X190347Y1028366D01*
X190454Y1028277D01*
X190473Y1028269D01*
X190489Y1028256D01*
X190617Y1028201D01*
X190742Y1028142D01*
X190762Y1028138D01*
X190781Y1028130D01*
X190919Y1028108D01*
X191055Y1028082D01*
X191075Y1028083D01*
X191095Y1028080D01*
X191234Y1028093D01*
X191372Y1028102D01*
X191391Y1028108D01*
X191411Y1028110D01*
X191543Y1028157D01*
X191674Y1028200D01*
X191692Y1028211D01*
X191711Y1028217D01*
X191826Y1028295D01*
X191943Y1028370D01*
X191957Y1028385D01*
X191974Y1028396D01*
X192066Y1028500D01*
X192161Y1028601D01*
X192171Y1028619D01*
X192184Y1028634D01*
X192248Y1028759D01*
X192315Y1028880D01*
X192320Y1028900D01*
X192329Y1028918D01*
X192359Y1029053D01*
X192394Y1029188D01*
X192396Y1029216D01*
X192399Y1029228D01*
X192398Y1029248D01*
X192404Y1029349D01*
X192404Y1029489D01*
X199871Y1036956D01*
X200011Y1036956D01*
X200149Y1036973D01*
X200288Y1036986D01*
X200307Y1036993D01*
X200327Y1036996D01*
X200456Y1037047D01*
X200587Y1037094D01*
X200604Y1037105D01*
X200623Y1037113D01*
X200735Y1037194D01*
X200850Y1037272D01*
X200864Y1037288D01*
X200880Y1037299D01*
X200969Y1037407D01*
X201061Y1037511D01*
X201070Y1037529D01*
X201083Y1037544D01*
X201142Y1037670D01*
X201205Y1037794D01*
X201210Y1037814D01*
X201218Y1037832D01*
X201244Y1037968D01*
X201275Y1038104D01*
X201274Y1038125D01*
X201278Y1038144D01*
X201269Y1038283D01*
X201265Y1038422D01*
X201260Y1038442D01*
X201258Y1038462D01*
X201216Y1038594D01*
X201177Y1038728D01*
X201167Y1038745D01*
X201160Y1038764D01*
X201086Y1038882D01*
X201015Y1039002D01*
X200997Y1039023D01*
X200990Y1039033D01*
X200975Y1039047D01*
X200909Y1039122D01*
X195325Y1044706D01*
X195325Y1053334D01*
X201426Y1059435D01*
X210054Y1059435D01*
X216155Y1053334D01*
X216155Y1044706D01*
X210571Y1039122D01*
X210486Y1039013D01*
X210397Y1038906D01*
X210389Y1038887D01*
X210376Y1038871D01*
X210321Y1038743D01*
X210262Y1038618D01*
X210258Y1038598D01*
X210250Y1038579D01*
X210228Y1038441D01*
X210202Y1038305D01*
X210203Y1038285D01*
X210200Y1038265D01*
X210213Y1038126D01*
X210222Y1037988D01*
X210228Y1037969D01*
X210230Y1037949D01*
X210277Y1037817D01*
X210320Y1037686D01*
X210331Y1037668D01*
X210337Y1037649D01*
X210415Y1037534D01*
X210490Y1037417D01*
X210505Y1037403D01*
X210516Y1037386D01*
X210620Y1037294D01*
X210721Y1037199D01*
X210739Y1037189D01*
X210754Y1037176D01*
X210879Y1037112D01*
X211000Y1037045D01*
X211020Y1037040D01*
X211038Y1037031D01*
X211173Y1037001D01*
X211308Y1036966D01*
X211336Y1036964D01*
X211348Y1036961D01*
X211368Y1036962D01*
X211469Y1036956D01*
X211609Y1036956D01*
X219781Y1028784D01*
X219875Y1028711D01*
X219964Y1028633D01*
X220000Y1028614D01*
X220032Y1028589D01*
X220141Y1028542D01*
X220247Y1028488D01*
X220287Y1028479D01*
X220324Y1028463D01*
X220442Y1028444D01*
X220558Y1028418D01*
X220598Y1028420D01*
X220638Y1028413D01*
X220757Y1028424D01*
X220875Y1028428D01*
X220914Y1028439D01*
X220955Y1028443D01*
X221067Y1028483D01*
X221181Y1028516D01*
X221216Y1028537D01*
X221254Y1028551D01*
X221353Y1028618D01*
X221455Y1028678D01*
X221500Y1028718D01*
X221517Y1028729D01*
X221530Y1028745D01*
X221576Y1028784D01*
X226826Y1034035D01*
X235454Y1034035D01*
X241555Y1027934D01*
X241555Y1019306D01*
X235454Y1013205D01*
X226826Y1013205D01*
X223782Y1016249D01*
X223673Y1016334D01*
X223566Y1016423D01*
X223547Y1016431D01*
X223531Y1016444D01*
X223403Y1016499D01*
X223278Y1016558D01*
X223258Y1016562D01*
X223239Y1016570D01*
X223101Y1016592D01*
X222965Y1016618D01*
X222945Y1016617D01*
X222925Y1016620D01*
X222786Y1016607D01*
X222648Y1016598D01*
X222629Y1016592D01*
X222609Y1016590D01*
X222477Y1016543D01*
X222346Y1016500D01*
X222328Y1016489D01*
X222309Y1016483D01*
X222194Y1016405D01*
X222077Y1016330D01*
X222063Y1016315D01*
X222046Y1016304D01*
X221954Y1016200D01*
X221859Y1016099D01*
X221849Y1016081D01*
X221836Y1016066D01*
X221772Y1015941D01*
X221705Y1015820D01*
X221700Y1015800D01*
X221691Y1015782D01*
X221661Y1015647D01*
X221626Y1015512D01*
X221624Y1015484D01*
X221621Y1015472D01*
X221622Y1015452D01*
X221616Y1015351D01*
X221616Y990645D01*
X221628Y990547D01*
X221631Y990448D01*
X221648Y990390D01*
X221656Y990330D01*
X221692Y990238D01*
X221720Y990142D01*
X221750Y990090D01*
X221773Y990034D01*
X221831Y989954D01*
X221881Y989868D01*
X221947Y989793D01*
X221959Y989777D01*
X221969Y989769D01*
X221987Y989748D01*
X237483Y974253D01*
X237592Y974167D01*
X237699Y974079D01*
X237718Y974070D01*
X237734Y974058D01*
X237862Y974002D01*
X237987Y973943D01*
X238007Y973939D01*
X238026Y973931D01*
X238164Y973909D01*
X238300Y973883D01*
X238320Y973885D01*
X238340Y973881D01*
X238479Y973895D01*
X238617Y973903D01*
X238636Y973909D01*
X238656Y973911D01*
X238788Y973958D01*
X238919Y974001D01*
X238937Y974012D01*
X238956Y974019D01*
X239071Y974097D01*
X239188Y974171D01*
X239202Y974186D01*
X239219Y974197D01*
X239311Y974302D01*
X239406Y974403D01*
X239416Y974421D01*
X239429Y974436D01*
X239493Y974560D01*
X239560Y974681D01*
X239565Y974701D01*
X239574Y974719D01*
X239604Y974855D01*
X239639Y974989D01*
X239641Y975017D01*
X239644Y975029D01*
X239643Y975050D01*
X239649Y975150D01*
X239649Y976246D01*
X240394Y976991D01*
X257446Y976991D01*
X258191Y976246D01*
X258191Y952800D01*
X258203Y952702D01*
X258206Y952603D01*
X258223Y952545D01*
X258231Y952485D01*
X258267Y952392D01*
X258295Y952297D01*
X258325Y952245D01*
X258348Y952189D01*
X258406Y952109D01*
X258456Y952023D01*
X258522Y951948D01*
X258534Y951932D01*
X258544Y951924D01*
X258562Y951903D01*
X264796Y945669D01*
X264796Y634211D01*
X246117Y615532D01*
X246057Y615454D01*
X245989Y615382D01*
X245960Y615329D01*
X245923Y615281D01*
X245883Y615190D01*
X245835Y615103D01*
X245820Y615045D01*
X245796Y614989D01*
X245781Y614891D01*
X245756Y614796D01*
X245750Y614696D01*
X245746Y614675D01*
X245748Y614663D01*
X245746Y614635D01*
X245746Y499559D01*
X245763Y499421D01*
X245776Y499283D01*
X245783Y499263D01*
X245786Y499243D01*
X245837Y499114D01*
X245884Y498983D01*
X245895Y498966D01*
X245903Y498948D01*
X245984Y498835D01*
X246062Y498720D01*
X246078Y498707D01*
X246089Y498690D01*
X246197Y498602D01*
X246301Y498510D01*
X246319Y498500D01*
X246334Y498488D01*
X246460Y498428D01*
X246584Y498365D01*
X246604Y498361D01*
X246622Y498352D01*
X246758Y498326D01*
X246894Y498295D01*
X246915Y498296D01*
X246934Y498292D01*
X247073Y498301D01*
X247212Y498305D01*
X247232Y498311D01*
X247252Y498312D01*
X247384Y498355D01*
X247518Y498393D01*
X247535Y498404D01*
X247554Y498410D01*
X247672Y498485D01*
X247792Y498555D01*
X247813Y498574D01*
X247823Y498580D01*
X247837Y498595D01*
X247912Y498661D01*
X254242Y504991D01*
X266478Y504991D01*
X275131Y496338D01*
X275131Y484102D01*
X266478Y475449D01*
X255905Y475449D01*
X255787Y475434D01*
X255668Y475427D01*
X255630Y475414D01*
X255589Y475409D01*
X255479Y475366D01*
X255366Y475329D01*
X255331Y475307D01*
X255294Y475292D01*
X255198Y475223D01*
X255097Y475159D01*
X255069Y475129D01*
X255036Y475106D01*
X254960Y475014D01*
X254879Y474927D01*
X254859Y474892D01*
X254834Y474861D01*
X254783Y474753D01*
X254725Y474649D01*
X254715Y474609D01*
X254698Y474573D01*
X254676Y474456D01*
X254646Y474341D01*
X254642Y474281D01*
X254638Y474261D01*
X254639Y474247D01*
X254638Y474242D01*
X254639Y474231D01*
X254636Y474180D01*
X254636Y408151D01*
X239767Y393282D01*
X239707Y393204D01*
X239639Y393132D01*
X239610Y393079D01*
X239573Y393031D01*
X239533Y392940D01*
X239485Y392853D01*
X239470Y392795D01*
X239446Y392739D01*
X239431Y392641D01*
X239406Y392546D01*
X239400Y392446D01*
X239396Y392425D01*
X239398Y392413D01*
X239396Y392385D01*
X239396Y372570D01*
X239411Y372452D01*
X239418Y372333D01*
X239431Y372295D01*
X239436Y372254D01*
X239479Y372144D01*
X239516Y372031D01*
X239538Y371996D01*
X239553Y371959D01*
X239622Y371863D01*
X239686Y371762D01*
X239716Y371734D01*
X239739Y371701D01*
X239831Y371625D01*
X239918Y371544D01*
X239953Y371524D01*
X239984Y371499D01*
X240092Y371448D01*
X240196Y371390D01*
X240236Y371380D01*
X240272Y371363D01*
X240389Y371341D01*
X240504Y371311D01*
X240564Y371307D01*
X240584Y371303D01*
X240605Y371305D01*
X240665Y371301D01*
X241266Y371301D01*
X242011Y370556D01*
X242011Y354224D01*
X241266Y353479D01*
X233714Y353479D01*
X232969Y354224D01*
X232969Y370556D01*
X233714Y371301D01*
X234315Y371301D01*
X234433Y371316D01*
X234552Y371323D01*
X234590Y371336D01*
X234631Y371341D01*
X234741Y371384D01*
X234854Y371421D01*
X234889Y371443D01*
X234926Y371458D01*
X235022Y371527D01*
X235123Y371591D01*
X235151Y371621D01*
X235184Y371644D01*
X235260Y371736D01*
X235341Y371823D01*
X235361Y371858D01*
X235386Y371889D01*
X235437Y371997D01*
X235495Y372101D01*
X235505Y372141D01*
X235522Y372177D01*
X235544Y372294D01*
X235574Y372409D01*
X235578Y372469D01*
X235582Y372489D01*
X235580Y372510D01*
X235584Y372570D01*
X235584Y389845D01*
X235567Y389982D01*
X235554Y390121D01*
X235547Y390140D01*
X235544Y390160D01*
X235493Y390289D01*
X235446Y390421D01*
X235435Y390437D01*
X235427Y390456D01*
X235346Y390569D01*
X235268Y390684D01*
X235252Y390697D01*
X235241Y390713D01*
X235133Y390802D01*
X235029Y390894D01*
X235011Y390903D01*
X234996Y390916D01*
X234870Y390976D01*
X234746Y391039D01*
X234726Y391043D01*
X234708Y391052D01*
X234572Y391078D01*
X234436Y391108D01*
X234415Y391108D01*
X234396Y391112D01*
X234257Y391103D01*
X234118Y391099D01*
X234098Y391093D01*
X234078Y391092D01*
X233946Y391049D01*
X233812Y391010D01*
X233795Y391000D01*
X233776Y390994D01*
X233658Y390919D01*
X233538Y390849D01*
X233517Y390830D01*
X233507Y390824D01*
X233493Y390809D01*
X233418Y390742D01*
X227067Y384392D01*
X227007Y384314D01*
X226939Y384242D01*
X226910Y384189D01*
X226873Y384141D01*
X226833Y384050D01*
X226785Y383963D01*
X226770Y383905D01*
X226746Y383849D01*
X226731Y383751D01*
X226706Y383656D01*
X226700Y383556D01*
X226696Y383535D01*
X226698Y383523D01*
X226696Y383495D01*
X226696Y372570D01*
X226711Y372452D01*
X226718Y372333D01*
X226731Y372295D01*
X226736Y372254D01*
X226779Y372144D01*
X226816Y372031D01*
X226838Y371996D01*
X226853Y371959D01*
X226922Y371863D01*
X226986Y371762D01*
X227016Y371734D01*
X227039Y371701D01*
X227131Y371625D01*
X227218Y371544D01*
X227253Y371524D01*
X227284Y371499D01*
X227392Y371448D01*
X227496Y371390D01*
X227536Y371380D01*
X227572Y371363D01*
X227689Y371341D01*
X227804Y371311D01*
X227864Y371307D01*
X227884Y371303D01*
X227905Y371305D01*
X227965Y371301D01*
X228566Y371301D01*
X229311Y370556D01*
X229311Y354224D01*
X228566Y353479D01*
X225050Y353479D01*
X224913Y353462D01*
X224774Y353449D01*
X224755Y353442D01*
X224735Y353439D01*
X224606Y353388D01*
X224474Y353341D01*
X224458Y353330D01*
X224439Y353322D01*
X224327Y353241D01*
X224211Y353163D01*
X224198Y353147D01*
X224182Y353136D01*
X224093Y353028D01*
X224001Y352924D01*
X223992Y352906D01*
X223979Y352891D01*
X223919Y352765D01*
X223856Y352641D01*
X223852Y352621D01*
X223843Y352603D01*
X223817Y352467D01*
X223787Y352331D01*
X223787Y352310D01*
X223783Y352291D01*
X223792Y352152D01*
X223796Y352013D01*
X223802Y351993D01*
X223803Y351973D01*
X223846Y351841D01*
X223885Y351707D01*
X223895Y351690D01*
X223901Y351671D01*
X223976Y351553D01*
X224046Y351433D01*
X224065Y351412D01*
X224071Y351402D01*
X224086Y351388D01*
X224153Y351313D01*
X233046Y342419D01*
X233046Y318350D01*
X233061Y318232D01*
X233068Y318113D01*
X233081Y318075D01*
X233086Y318034D01*
X233129Y317924D01*
X233166Y317811D01*
X233188Y317776D01*
X233203Y317739D01*
X233272Y317643D01*
X233336Y317542D01*
X233366Y317514D01*
X233389Y317481D01*
X233481Y317405D01*
X233568Y317324D01*
X233603Y317304D01*
X233634Y317279D01*
X233742Y317228D01*
X233846Y317170D01*
X233886Y317160D01*
X233922Y317143D01*
X234039Y317121D01*
X234154Y317091D01*
X234214Y317087D01*
X234234Y317083D01*
X234255Y317085D01*
X234315Y317081D01*
X241266Y317081D01*
X242011Y316336D01*
X242011Y300004D01*
X241266Y299259D01*
X240665Y299259D01*
X240547Y299244D01*
X240428Y299237D01*
X240390Y299224D01*
X240349Y299219D01*
X240239Y299176D01*
X240126Y299139D01*
X240091Y299117D01*
X240054Y299102D01*
X239958Y299033D01*
X239857Y298969D01*
X239829Y298939D01*
X239796Y298916D01*
X239720Y298824D01*
X239639Y298737D01*
X239619Y298702D01*
X239594Y298671D01*
X239543Y298563D01*
X239485Y298459D01*
X239475Y298419D01*
X239458Y298383D01*
X239436Y298266D01*
X239406Y298151D01*
X239402Y298091D01*
X239398Y298071D01*
X239400Y298050D01*
X239396Y297990D01*
X239396Y289605D01*
X239408Y289507D01*
X239411Y289408D01*
X239428Y289350D01*
X239436Y289290D01*
X239472Y289198D01*
X239500Y289102D01*
X239530Y289050D01*
X239553Y288994D01*
X239611Y288914D01*
X239661Y288828D01*
X239727Y288753D01*
X239739Y288737D01*
X239749Y288729D01*
X239767Y288708D01*
X262256Y266219D01*
X262256Y190981D01*
X229389Y158114D01*
X187171Y158114D01*
X184287Y160998D01*
X184209Y161058D01*
X184137Y161126D01*
X184084Y161155D01*
X184036Y161192D01*
X183945Y161232D01*
X183858Y161280D01*
X183800Y161295D01*
X183744Y161319D01*
X183646Y161334D01*
X183551Y161359D01*
X183451Y161365D01*
X183430Y161369D01*
X183418Y161367D01*
X183390Y161369D01*
X176020Y161369D01*
X175922Y161357D01*
X175823Y161354D01*
X175765Y161337D01*
X175705Y161329D01*
X175613Y161293D01*
X175517Y161265D01*
X175465Y161235D01*
X175409Y161212D01*
X175329Y161154D01*
X175243Y161104D01*
X175168Y161038D01*
X175152Y161026D01*
X175144Y161016D01*
X175123Y160998D01*
X161027Y146902D01*
X160967Y146824D01*
X160899Y146752D01*
X160870Y146699D01*
X160833Y146651D01*
X160793Y146560D01*
X160745Y146474D01*
X160730Y146415D01*
X160706Y146359D01*
X160691Y146261D01*
X160666Y146166D01*
X160660Y146066D01*
X160656Y146045D01*
X160658Y146033D01*
X160656Y146005D01*
X160656Y119300D01*
X160671Y119182D01*
X160678Y119063D01*
X160691Y119025D01*
X160696Y118984D01*
X160739Y118874D01*
X160776Y118761D01*
X160798Y118726D01*
X160813Y118689D01*
X160882Y118593D01*
X160946Y118492D01*
X160976Y118464D01*
X160999Y118431D01*
X161091Y118355D01*
X161178Y118274D01*
X161213Y118254D01*
X161244Y118229D01*
X161352Y118178D01*
X161456Y118120D01*
X161496Y118110D01*
X161532Y118093D01*
X161649Y118071D01*
X161764Y118041D01*
X161824Y118037D01*
X161844Y118033D01*
X161865Y118035D01*
X161925Y118031D01*
X164386Y118031D01*
X165131Y117286D01*
X165131Y106234D01*
X164386Y105489D01*
X152334Y105489D01*
G37*
%LPD*%
G36*
X203468Y317093D02*
X203468Y317093D01*
X203567Y317096D01*
X203625Y317113D01*
X203685Y317121D01*
X203777Y317157D01*
X203873Y317185D01*
X203925Y317215D01*
X203981Y317238D01*
X204061Y317296D01*
X204147Y317346D01*
X204222Y317412D01*
X204238Y317424D01*
X204246Y317434D01*
X204267Y317452D01*
X209813Y322998D01*
X209873Y323076D01*
X209941Y323148D01*
X209970Y323201D01*
X210007Y323249D01*
X210047Y323340D01*
X210095Y323427D01*
X210110Y323485D01*
X210134Y323541D01*
X210149Y323639D01*
X210174Y323734D01*
X210180Y323834D01*
X210184Y323855D01*
X210182Y323867D01*
X210184Y323895D01*
X210184Y352210D01*
X210169Y352328D01*
X210162Y352447D01*
X210149Y352485D01*
X210144Y352526D01*
X210101Y352636D01*
X210064Y352749D01*
X210042Y352784D01*
X210027Y352821D01*
X209958Y352917D01*
X209894Y353018D01*
X209864Y353046D01*
X209841Y353079D01*
X209749Y353155D01*
X209662Y353236D01*
X209627Y353256D01*
X209596Y353281D01*
X209488Y353332D01*
X209384Y353390D01*
X209344Y353400D01*
X209308Y353417D01*
X209191Y353439D01*
X209076Y353469D01*
X209016Y353473D01*
X208996Y353477D01*
X208975Y353475D01*
X208915Y353479D01*
X208314Y353479D01*
X207199Y354593D01*
X207095Y354675D01*
X206994Y354760D01*
X206969Y354772D01*
X206948Y354788D01*
X206827Y354841D01*
X206708Y354899D01*
X206681Y354904D01*
X206656Y354915D01*
X206525Y354936D01*
X206396Y354962D01*
X206369Y354960D01*
X206342Y354965D01*
X206210Y354952D01*
X206078Y354945D01*
X206053Y354937D01*
X206026Y354935D01*
X205901Y354890D01*
X205775Y354851D01*
X205752Y354836D01*
X205726Y354827D01*
X205617Y354753D01*
X205504Y354683D01*
X205486Y354664D01*
X205463Y354649D01*
X205375Y354549D01*
X205284Y354454D01*
X205271Y354430D01*
X205253Y354410D01*
X205192Y354292D01*
X205127Y354177D01*
X205115Y354141D01*
X205108Y354127D01*
X205103Y354106D01*
X205076Y354024D01*
X205008Y353769D01*
X204673Y353190D01*
X204200Y352717D01*
X203621Y352382D01*
X202974Y352209D01*
X201014Y352209D01*
X201014Y362035D01*
X200999Y362153D01*
X200992Y362272D01*
X200979Y362310D01*
X200974Y362350D01*
X200959Y362389D01*
X200974Y362469D01*
X201004Y362585D01*
X201008Y362645D01*
X201012Y362665D01*
X201010Y362685D01*
X201014Y362745D01*
X201014Y372571D01*
X202974Y372571D01*
X203621Y372398D01*
X204200Y372063D01*
X204673Y371590D01*
X205008Y371011D01*
X205076Y370756D01*
X205126Y370633D01*
X205171Y370508D01*
X205186Y370486D01*
X205196Y370461D01*
X205275Y370355D01*
X205349Y370245D01*
X205370Y370227D01*
X205386Y370206D01*
X205489Y370122D01*
X205588Y370035D01*
X205612Y370022D01*
X205633Y370006D01*
X205753Y369950D01*
X205871Y369890D01*
X205897Y369884D01*
X205922Y369873D01*
X206052Y369850D01*
X206181Y369821D01*
X206208Y369821D01*
X206235Y369817D01*
X206367Y369826D01*
X206499Y369830D01*
X206525Y369838D01*
X206552Y369840D01*
X206677Y369882D01*
X206805Y369919D01*
X206828Y369932D01*
X206854Y369941D01*
X206965Y370013D01*
X207079Y370080D01*
X207107Y370105D01*
X207120Y370114D01*
X207135Y370130D01*
X207199Y370187D01*
X208314Y371301D01*
X215265Y371301D01*
X215383Y371316D01*
X215502Y371323D01*
X215540Y371336D01*
X215581Y371341D01*
X215691Y371384D01*
X215804Y371421D01*
X215839Y371443D01*
X215876Y371458D01*
X215972Y371527D01*
X216073Y371591D01*
X216101Y371621D01*
X216134Y371644D01*
X216210Y371736D01*
X216291Y371823D01*
X216311Y371858D01*
X216336Y371889D01*
X216387Y371997D01*
X216445Y372101D01*
X216455Y372141D01*
X216472Y372177D01*
X216494Y372294D01*
X216524Y372409D01*
X216528Y372469D01*
X216532Y372489D01*
X216530Y372510D01*
X216534Y372570D01*
X216534Y408282D01*
X216519Y408400D01*
X216512Y408519D01*
X216499Y408557D01*
X216494Y408598D01*
X216451Y408708D01*
X216414Y408821D01*
X216392Y408856D01*
X216377Y408893D01*
X216308Y408989D01*
X216244Y409090D01*
X216214Y409118D01*
X216191Y409151D01*
X216099Y409227D01*
X216012Y409308D01*
X215977Y409328D01*
X215946Y409353D01*
X215838Y409404D01*
X215734Y409462D01*
X215694Y409472D01*
X215658Y409489D01*
X215541Y409511D01*
X215426Y409541D01*
X215366Y409545D01*
X215346Y409549D01*
X215325Y409547D01*
X215265Y409551D01*
X203436Y409551D01*
X202691Y410296D01*
X202691Y428625D01*
X202676Y428743D01*
X202669Y428862D01*
X202656Y428900D01*
X202651Y428941D01*
X202608Y429051D01*
X202571Y429164D01*
X202549Y429199D01*
X202534Y429236D01*
X202465Y429332D01*
X202401Y429433D01*
X202371Y429461D01*
X202348Y429494D01*
X202256Y429570D01*
X202169Y429651D01*
X202134Y429671D01*
X202103Y429696D01*
X201995Y429747D01*
X201891Y429805D01*
X201851Y429815D01*
X201815Y429832D01*
X201698Y429854D01*
X201583Y429884D01*
X201523Y429888D01*
X201503Y429892D01*
X201482Y429890D01*
X201422Y429894D01*
X200298Y429894D01*
X200180Y429879D01*
X200061Y429872D01*
X200023Y429859D01*
X199982Y429854D01*
X199872Y429811D01*
X199759Y429774D01*
X199724Y429752D01*
X199687Y429737D01*
X199591Y429668D01*
X199490Y429604D01*
X199462Y429574D01*
X199429Y429551D01*
X199353Y429459D01*
X199272Y429372D01*
X199252Y429337D01*
X199227Y429306D01*
X199176Y429198D01*
X199118Y429094D01*
X199108Y429054D01*
X199091Y429018D01*
X199069Y428901D01*
X199039Y428786D01*
X199035Y428726D01*
X199031Y428706D01*
X199033Y428685D01*
X199029Y428625D01*
X199029Y410296D01*
X198284Y409551D01*
X178436Y409551D01*
X177691Y410296D01*
X177691Y430144D01*
X178436Y430889D01*
X184785Y430889D01*
X184903Y430904D01*
X185022Y430911D01*
X185060Y430924D01*
X185101Y430929D01*
X185211Y430972D01*
X185324Y431009D01*
X185359Y431031D01*
X185396Y431046D01*
X185492Y431115D01*
X185593Y431179D01*
X185621Y431209D01*
X185654Y431232D01*
X185730Y431324D01*
X185811Y431411D01*
X185831Y431446D01*
X185856Y431477D01*
X185907Y431585D01*
X185965Y431689D01*
X185975Y431729D01*
X185992Y431765D01*
X186014Y431882D01*
X186044Y431997D01*
X186048Y432057D01*
X186052Y432077D01*
X186050Y432098D01*
X186054Y432158D01*
X186054Y490175D01*
X186042Y490273D01*
X186039Y490372D01*
X186022Y490430D01*
X186014Y490490D01*
X185978Y490582D01*
X185950Y490678D01*
X185920Y490730D01*
X185897Y490786D01*
X185839Y490866D01*
X185789Y490952D01*
X185723Y491027D01*
X185711Y491043D01*
X185701Y491051D01*
X185683Y491072D01*
X183297Y493457D01*
X183188Y493543D01*
X183081Y493631D01*
X183062Y493640D01*
X183046Y493652D01*
X182918Y493708D01*
X182793Y493767D01*
X182773Y493771D01*
X182754Y493779D01*
X182616Y493801D01*
X182480Y493827D01*
X182460Y493825D01*
X182440Y493829D01*
X182301Y493815D01*
X182163Y493807D01*
X182144Y493801D01*
X182124Y493799D01*
X181992Y493752D01*
X181861Y493709D01*
X181843Y493698D01*
X181824Y493691D01*
X181709Y493613D01*
X181592Y493539D01*
X181578Y493524D01*
X181561Y493513D01*
X181469Y493408D01*
X181374Y493307D01*
X181364Y493289D01*
X181351Y493274D01*
X181287Y493150D01*
X181220Y493029D01*
X181215Y493009D01*
X181206Y492991D01*
X181176Y492855D01*
X181141Y492721D01*
X181139Y492693D01*
X181136Y492681D01*
X181137Y492660D01*
X181131Y492560D01*
X181131Y484102D01*
X172478Y475449D01*
X160242Y475449D01*
X151589Y484102D01*
X151589Y496338D01*
X160242Y504991D01*
X168700Y504991D01*
X168837Y505008D01*
X168976Y505021D01*
X168995Y505028D01*
X169015Y505031D01*
X169144Y505082D01*
X169276Y505129D01*
X169292Y505140D01*
X169311Y505148D01*
X169423Y505229D01*
X169539Y505307D01*
X169552Y505323D01*
X169568Y505334D01*
X169657Y505442D01*
X169749Y505546D01*
X169758Y505564D01*
X169771Y505579D01*
X169830Y505705D01*
X169894Y505829D01*
X169898Y505849D01*
X169907Y505867D01*
X169933Y506003D01*
X169963Y506139D01*
X169963Y506160D01*
X169967Y506179D01*
X169958Y506318D01*
X169954Y506457D01*
X169948Y506477D01*
X169947Y506497D01*
X169904Y506629D01*
X169865Y506763D01*
X169855Y506780D01*
X169849Y506799D01*
X169774Y506917D01*
X169704Y507037D01*
X169685Y507058D01*
X169679Y507068D01*
X169664Y507082D01*
X169597Y507157D01*
X133984Y542771D01*
X133984Y551260D01*
X133969Y551378D01*
X133962Y551497D01*
X133949Y551535D01*
X133944Y551576D01*
X133901Y551686D01*
X133864Y551799D01*
X133842Y551834D01*
X133827Y551871D01*
X133758Y551967D01*
X133694Y552068D01*
X133664Y552096D01*
X133641Y552129D01*
X133549Y552205D01*
X133462Y552286D01*
X133427Y552306D01*
X133396Y552331D01*
X133288Y552382D01*
X133184Y552440D01*
X133144Y552450D01*
X133108Y552467D01*
X132991Y552489D01*
X132876Y552519D01*
X132816Y552523D01*
X132796Y552527D01*
X132775Y552525D01*
X132715Y552529D01*
X130175Y552529D01*
X130057Y552514D01*
X129938Y552507D01*
X129900Y552494D01*
X129859Y552489D01*
X129749Y552446D01*
X129636Y552409D01*
X129601Y552387D01*
X129564Y552372D01*
X129468Y552303D01*
X129367Y552239D01*
X129339Y552209D01*
X129306Y552186D01*
X129230Y552094D01*
X129149Y552007D01*
X129129Y551972D01*
X129104Y551941D01*
X129053Y551833D01*
X128995Y551729D01*
X128985Y551689D01*
X128968Y551653D01*
X128946Y551536D01*
X128916Y551421D01*
X128912Y551361D01*
X128908Y551341D01*
X128910Y551320D01*
X128906Y551260D01*
X128906Y532050D01*
X128921Y531932D01*
X128928Y531813D01*
X128941Y531775D01*
X128946Y531734D01*
X128989Y531624D01*
X129026Y531511D01*
X129048Y531476D01*
X129063Y531439D01*
X129133Y531342D01*
X129196Y531242D01*
X129226Y531214D01*
X129249Y531181D01*
X129341Y531105D01*
X129428Y531024D01*
X129463Y531004D01*
X129494Y530979D01*
X129602Y530928D01*
X129706Y530870D01*
X129746Y530860D01*
X129782Y530843D01*
X129899Y530821D01*
X130014Y530791D01*
X130074Y530787D01*
X130094Y530783D01*
X130115Y530785D01*
X130175Y530781D01*
X133001Y530781D01*
X133001Y524470D01*
X133016Y524352D01*
X133023Y524233D01*
X133035Y524195D01*
X133041Y524155D01*
X133084Y524044D01*
X133121Y523931D01*
X133143Y523897D01*
X133158Y523859D01*
X133227Y523763D01*
X133291Y523662D01*
X133321Y523634D01*
X133344Y523602D01*
X133436Y523526D01*
X133523Y523444D01*
X133558Y523425D01*
X133589Y523399D01*
X133697Y523348D01*
X133801Y523291D01*
X133841Y523281D01*
X133877Y523263D01*
X133984Y523243D01*
X133954Y523239D01*
X133844Y523195D01*
X133731Y523159D01*
X133696Y523137D01*
X133659Y523122D01*
X133562Y523052D01*
X133462Y522989D01*
X133434Y522959D01*
X133401Y522935D01*
X133325Y522844D01*
X133244Y522757D01*
X133224Y522722D01*
X133199Y522690D01*
X133148Y522583D01*
X133090Y522478D01*
X133080Y522439D01*
X133063Y522403D01*
X133041Y522286D01*
X133011Y522170D01*
X133007Y522110D01*
X133003Y522090D01*
X133005Y522070D01*
X133001Y522010D01*
X133001Y515699D01*
X129666Y515699D01*
X129019Y515872D01*
X128841Y515975D01*
X128737Y516019D01*
X128637Y516070D01*
X128591Y516080D01*
X128548Y516099D01*
X128437Y516115D01*
X128327Y516140D01*
X128280Y516138D01*
X128233Y516145D01*
X128121Y516133D01*
X128009Y516130D01*
X127964Y516117D01*
X127917Y516112D01*
X127812Y516073D01*
X127704Y516042D01*
X127663Y516018D01*
X127619Y516001D01*
X127527Y515937D01*
X127430Y515880D01*
X127375Y515832D01*
X127358Y515820D01*
X127346Y515806D01*
X127309Y515774D01*
X106417Y494882D01*
X106357Y494804D01*
X106289Y494732D01*
X106260Y494679D01*
X106223Y494631D01*
X106183Y494540D01*
X106135Y494453D01*
X106120Y494395D01*
X106096Y494339D01*
X106081Y494241D01*
X106056Y494146D01*
X106050Y494046D01*
X106046Y494025D01*
X106048Y494013D01*
X106046Y493985D01*
X106046Y440443D01*
X106049Y440414D01*
X106047Y440384D01*
X106069Y440256D01*
X106086Y440127D01*
X106096Y440100D01*
X106101Y440071D01*
X106155Y439952D01*
X106203Y439832D01*
X106220Y439808D01*
X106232Y439781D01*
X106313Y439679D01*
X106389Y439574D01*
X106412Y439555D01*
X106431Y439532D01*
X106534Y439454D01*
X106634Y439371D01*
X106661Y439359D01*
X106685Y439341D01*
X106829Y439270D01*
X108632Y438523D01*
X110863Y436292D01*
X112071Y433378D01*
X112071Y430222D01*
X110863Y427308D01*
X108632Y425077D01*
X105718Y423869D01*
X105130Y423869D01*
X104993Y423852D01*
X104854Y423839D01*
X104835Y423832D01*
X104815Y423829D01*
X104686Y423778D01*
X104554Y423731D01*
X104538Y423720D01*
X104519Y423712D01*
X104407Y423631D01*
X104291Y423553D01*
X104278Y423537D01*
X104262Y423526D01*
X104173Y423418D01*
X104081Y423314D01*
X104072Y423296D01*
X104059Y423281D01*
X103999Y423155D01*
X103936Y423031D01*
X103932Y423011D01*
X103923Y422993D01*
X103897Y422857D01*
X103867Y422721D01*
X103867Y422700D01*
X103863Y422681D01*
X103872Y422542D01*
X103876Y422403D01*
X103882Y422383D01*
X103883Y422363D01*
X103926Y422231D01*
X103965Y422097D01*
X103975Y422080D01*
X103981Y422061D01*
X104056Y421943D01*
X104126Y421823D01*
X104145Y421802D01*
X104151Y421792D01*
X104166Y421778D01*
X104233Y421703D01*
X201296Y324639D01*
X201296Y318350D01*
X201311Y318232D01*
X201318Y318113D01*
X201331Y318075D01*
X201336Y318034D01*
X201379Y317924D01*
X201416Y317811D01*
X201438Y317776D01*
X201453Y317739D01*
X201522Y317643D01*
X201586Y317542D01*
X201616Y317514D01*
X201639Y317481D01*
X201731Y317405D01*
X201818Y317324D01*
X201853Y317304D01*
X201884Y317279D01*
X201992Y317228D01*
X202096Y317170D01*
X202136Y317160D01*
X202172Y317143D01*
X202289Y317121D01*
X202404Y317091D01*
X202464Y317087D01*
X202484Y317083D01*
X202505Y317085D01*
X202565Y317081D01*
X203370Y317081D01*
X203468Y317093D01*
G37*
G36*
X217223Y608978D02*
X217223Y608978D01*
X217322Y608981D01*
X217380Y608998D01*
X217440Y609006D01*
X217532Y609042D01*
X217628Y609070D01*
X217680Y609100D01*
X217736Y609123D01*
X217816Y609181D01*
X217902Y609231D01*
X217977Y609297D01*
X217993Y609309D01*
X218001Y609319D01*
X218022Y609337D01*
X241905Y633221D01*
X241924Y633244D01*
X241946Y633263D01*
X242021Y633369D01*
X242100Y633472D01*
X242112Y633499D01*
X242129Y633523D01*
X242175Y633644D01*
X242227Y633764D01*
X242231Y633793D01*
X242242Y633820D01*
X242256Y633949D01*
X242277Y634078D01*
X242274Y634107D01*
X242277Y634137D01*
X242259Y634265D01*
X242247Y634394D01*
X242237Y634422D01*
X242233Y634451D01*
X242181Y634604D01*
X240791Y637958D01*
X240791Y642202D01*
X242415Y646123D01*
X245417Y649125D01*
X249338Y650749D01*
X253582Y650749D01*
X257503Y649125D01*
X258818Y647810D01*
X258927Y647725D01*
X259034Y647636D01*
X259053Y647628D01*
X259069Y647615D01*
X259196Y647560D01*
X259322Y647501D01*
X259342Y647497D01*
X259361Y647489D01*
X259499Y647467D01*
X259635Y647441D01*
X259655Y647442D01*
X259675Y647439D01*
X259814Y647452D01*
X259952Y647461D01*
X259971Y647467D01*
X259991Y647469D01*
X260123Y647516D01*
X260254Y647559D01*
X260272Y647570D01*
X260291Y647577D01*
X260406Y647655D01*
X260523Y647729D01*
X260537Y647744D01*
X260554Y647755D01*
X260646Y647859D01*
X260741Y647961D01*
X260751Y647978D01*
X260764Y647994D01*
X260828Y648118D01*
X260895Y648239D01*
X260900Y648259D01*
X260909Y648277D01*
X260939Y648413D01*
X260974Y648547D01*
X260976Y648575D01*
X260979Y648587D01*
X260978Y648608D01*
X260984Y648708D01*
X260984Y719723D01*
X260967Y719861D01*
X260954Y719999D01*
X260947Y720018D01*
X260944Y720038D01*
X260893Y720168D01*
X260846Y720299D01*
X260835Y720315D01*
X260827Y720334D01*
X260746Y720446D01*
X260668Y720562D01*
X260652Y720575D01*
X260641Y720592D01*
X260533Y720680D01*
X260429Y720772D01*
X260411Y720781D01*
X260396Y720794D01*
X260270Y720854D01*
X260146Y720917D01*
X260126Y720921D01*
X260108Y720930D01*
X259971Y720956D01*
X259836Y720986D01*
X259815Y720986D01*
X259796Y720990D01*
X259657Y720981D01*
X259518Y720977D01*
X259498Y720971D01*
X259478Y720970D01*
X259346Y720927D01*
X259212Y720888D01*
X259195Y720878D01*
X259176Y720872D01*
X259058Y720798D01*
X258938Y720727D01*
X258917Y720708D01*
X258907Y720702D01*
X258893Y720687D01*
X258818Y720620D01*
X258366Y720169D01*
X254635Y720169D01*
X254517Y720154D01*
X254398Y720147D01*
X254360Y720134D01*
X254319Y720129D01*
X254209Y720086D01*
X254096Y720049D01*
X254061Y720027D01*
X254024Y720012D01*
X253928Y719943D01*
X253827Y719879D01*
X253799Y719849D01*
X253766Y719826D01*
X253690Y719734D01*
X253609Y719647D01*
X253589Y719612D01*
X253564Y719581D01*
X253513Y719473D01*
X253455Y719369D01*
X253445Y719329D01*
X253428Y719293D01*
X253406Y719176D01*
X253376Y719061D01*
X253372Y719001D01*
X253368Y718981D01*
X253370Y718960D01*
X253366Y718900D01*
X253366Y664691D01*
X235615Y646939D01*
X235596Y646916D01*
X235574Y646897D01*
X235499Y646791D01*
X235420Y646688D01*
X235408Y646661D01*
X235391Y646637D01*
X235345Y646516D01*
X235293Y646396D01*
X235289Y646367D01*
X235278Y646340D01*
X235264Y646211D01*
X235243Y646082D01*
X235246Y646053D01*
X235243Y646023D01*
X235261Y645895D01*
X235273Y645766D01*
X235283Y645738D01*
X235287Y645709D01*
X235339Y645556D01*
X236729Y642202D01*
X236729Y637958D01*
X235105Y634037D01*
X232103Y631035D01*
X228182Y629411D01*
X223938Y629411D01*
X220017Y631035D01*
X217015Y634037D01*
X215391Y637958D01*
X215391Y642202D01*
X217015Y646123D01*
X220017Y649125D01*
X223938Y650749D01*
X228182Y650749D01*
X231536Y649359D01*
X231565Y649352D01*
X231591Y649338D01*
X231718Y649310D01*
X231843Y649275D01*
X231872Y649275D01*
X231901Y649269D01*
X232031Y649272D01*
X232161Y649270D01*
X232190Y649277D01*
X232219Y649278D01*
X232344Y649314D01*
X232470Y649345D01*
X232496Y649358D01*
X232525Y649367D01*
X232636Y649432D01*
X232751Y649493D01*
X232773Y649513D01*
X232799Y649528D01*
X232919Y649635D01*
X249183Y665898D01*
X249243Y665976D01*
X249311Y666048D01*
X249340Y666101D01*
X249377Y666149D01*
X249417Y666240D01*
X249465Y666327D01*
X249480Y666385D01*
X249504Y666441D01*
X249519Y666539D01*
X249544Y666634D01*
X249550Y666734D01*
X249554Y666755D01*
X249552Y666767D01*
X249554Y666795D01*
X249554Y718900D01*
X249539Y719018D01*
X249532Y719137D01*
X249519Y719175D01*
X249514Y719216D01*
X249471Y719326D01*
X249434Y719439D01*
X249412Y719474D01*
X249397Y719511D01*
X249328Y719607D01*
X249264Y719708D01*
X249234Y719736D01*
X249211Y719769D01*
X249119Y719845D01*
X249032Y719926D01*
X248997Y719946D01*
X248966Y719971D01*
X248858Y720022D01*
X248754Y720080D01*
X248714Y720090D01*
X248678Y720107D01*
X248561Y720129D01*
X248446Y720159D01*
X248386Y720163D01*
X248366Y720167D01*
X248345Y720165D01*
X248285Y720169D01*
X246314Y720169D01*
X245569Y720914D01*
X245569Y731966D01*
X246314Y732711D01*
X258366Y732711D01*
X258818Y732260D01*
X258927Y732175D01*
X259034Y732086D01*
X259053Y732077D01*
X259069Y732065D01*
X259197Y732009D01*
X259322Y731950D01*
X259342Y731946D01*
X259361Y731938D01*
X259499Y731916D01*
X259635Y731890D01*
X259655Y731892D01*
X259675Y731888D01*
X259814Y731902D01*
X259952Y731910D01*
X259971Y731916D01*
X259991Y731918D01*
X260122Y731965D01*
X260254Y732008D01*
X260272Y732019D01*
X260291Y732026D01*
X260405Y732104D01*
X260523Y732178D01*
X260537Y732193D01*
X260554Y732204D01*
X260646Y732308D01*
X260741Y732410D01*
X260751Y732428D01*
X260764Y732443D01*
X260827Y732567D01*
X260895Y732688D01*
X260900Y732708D01*
X260909Y732726D01*
X260939Y732862D01*
X260974Y732996D01*
X260976Y733024D01*
X260979Y733036D01*
X260978Y733057D01*
X260984Y733157D01*
X260984Y777247D01*
X260967Y777385D01*
X260954Y777523D01*
X260947Y777542D01*
X260944Y777562D01*
X260893Y777692D01*
X260846Y777823D01*
X260835Y777839D01*
X260827Y777858D01*
X260746Y777970D01*
X260668Y778086D01*
X260652Y778099D01*
X260641Y778115D01*
X260534Y778204D01*
X260429Y778296D01*
X260411Y778305D01*
X260396Y778318D01*
X260270Y778377D01*
X260146Y778441D01*
X260126Y778445D01*
X260108Y778454D01*
X259972Y778480D01*
X259836Y778510D01*
X259815Y778510D01*
X259796Y778514D01*
X259657Y778505D01*
X259518Y778501D01*
X259498Y778495D01*
X259478Y778494D01*
X259346Y778451D01*
X259212Y778412D01*
X259195Y778402D01*
X259176Y778396D01*
X259058Y778322D01*
X258938Y778251D01*
X258917Y778232D01*
X258907Y778226D01*
X258893Y778211D01*
X258817Y778144D01*
X258480Y777807D01*
X257901Y777472D01*
X257254Y777299D01*
X251459Y777299D01*
X251459Y792570D01*
X251444Y792688D01*
X251437Y792807D01*
X251424Y792845D01*
X251419Y792885D01*
X251375Y792996D01*
X251339Y793109D01*
X251317Y793144D01*
X251302Y793181D01*
X251232Y793277D01*
X251169Y793378D01*
X251139Y793406D01*
X251115Y793438D01*
X251024Y793514D01*
X250937Y793596D01*
X250902Y793615D01*
X250870Y793641D01*
X250763Y793692D01*
X250659Y793749D01*
X250619Y793760D01*
X250583Y793777D01*
X250466Y793799D01*
X250351Y793829D01*
X250290Y793833D01*
X250270Y793837D01*
X250250Y793835D01*
X250190Y793839D01*
X247650Y793839D01*
X247532Y793824D01*
X247413Y793817D01*
X247375Y793804D01*
X247335Y793799D01*
X247224Y793755D01*
X247111Y793719D01*
X247076Y793697D01*
X247039Y793682D01*
X246943Y793612D01*
X246842Y793549D01*
X246814Y793519D01*
X246781Y793495D01*
X246706Y793404D01*
X246624Y793317D01*
X246604Y793282D01*
X246579Y793250D01*
X246528Y793143D01*
X246470Y793039D01*
X246460Y792999D01*
X246443Y792963D01*
X246421Y792846D01*
X246391Y792731D01*
X246387Y792670D01*
X246383Y792650D01*
X246385Y792630D01*
X246381Y792570D01*
X246381Y777299D01*
X240586Y777299D01*
X239862Y777493D01*
X239788Y777528D01*
X239762Y777533D01*
X239737Y777543D01*
X239605Y777563D01*
X239475Y777588D01*
X239449Y777586D01*
X239422Y777590D01*
X239290Y777576D01*
X239158Y777568D01*
X239133Y777560D01*
X239106Y777557D01*
X238982Y777511D01*
X238856Y777470D01*
X238833Y777456D01*
X238808Y777446D01*
X238699Y777371D01*
X238587Y777300D01*
X238569Y777280D01*
X238547Y777265D01*
X238460Y777165D01*
X238369Y777068D01*
X238356Y777045D01*
X238338Y777025D01*
X238279Y776906D01*
X238215Y776790D01*
X238209Y776764D01*
X238197Y776740D01*
X238169Y776610D01*
X238136Y776482D01*
X238134Y776444D01*
X238130Y776429D01*
X238131Y776407D01*
X238126Y776321D01*
X238126Y733980D01*
X238141Y733862D01*
X238148Y733743D01*
X238161Y733705D01*
X238166Y733664D01*
X238209Y733554D01*
X238246Y733441D01*
X238268Y733406D01*
X238283Y733369D01*
X238352Y733273D01*
X238416Y733172D01*
X238446Y733144D01*
X238469Y733111D01*
X238561Y733035D01*
X238648Y732954D01*
X238683Y732934D01*
X238714Y732909D01*
X238822Y732858D01*
X238926Y732800D01*
X238966Y732790D01*
X239002Y732773D01*
X239119Y732751D01*
X239234Y732721D01*
X239294Y732717D01*
X239314Y732713D01*
X239335Y732715D01*
X239395Y732711D01*
X241366Y732711D01*
X242111Y731966D01*
X242111Y720914D01*
X241366Y720169D01*
X238125Y720169D01*
X238007Y720154D01*
X237888Y720147D01*
X237850Y720134D01*
X237809Y720129D01*
X237699Y720086D01*
X237586Y720049D01*
X237551Y720027D01*
X237514Y720012D01*
X237418Y719943D01*
X237317Y719879D01*
X237289Y719849D01*
X237256Y719826D01*
X237180Y719734D01*
X237099Y719647D01*
X237079Y719612D01*
X237054Y719581D01*
X237003Y719473D01*
X236945Y719369D01*
X236935Y719329D01*
X236918Y719293D01*
X236896Y719176D01*
X236866Y719061D01*
X236862Y719001D01*
X236858Y718981D01*
X236860Y718960D01*
X236856Y718900D01*
X236856Y704061D01*
X178807Y646012D01*
X178747Y645934D01*
X178679Y645862D01*
X178650Y645809D01*
X178613Y645761D01*
X178573Y645670D01*
X178525Y645583D01*
X178510Y645525D01*
X178486Y645469D01*
X178471Y645371D01*
X178446Y645276D01*
X178440Y645176D01*
X178436Y645155D01*
X178438Y645143D01*
X178436Y645115D01*
X178436Y612600D01*
X178451Y612482D01*
X178458Y612363D01*
X178471Y612325D01*
X178476Y612284D01*
X178519Y612174D01*
X178556Y612061D01*
X178578Y612026D01*
X178593Y611989D01*
X178662Y611893D01*
X178726Y611792D01*
X178756Y611764D01*
X178779Y611731D01*
X178871Y611655D01*
X178958Y611574D01*
X178993Y611554D01*
X179024Y611529D01*
X179132Y611478D01*
X179236Y611420D01*
X179276Y611410D01*
X179312Y611393D01*
X179429Y611371D01*
X179544Y611341D01*
X179604Y611337D01*
X179624Y611333D01*
X179645Y611335D01*
X179705Y611331D01*
X192536Y611331D01*
X193281Y610586D01*
X193281Y610235D01*
X193296Y610117D01*
X193303Y609998D01*
X193316Y609960D01*
X193321Y609919D01*
X193364Y609809D01*
X193401Y609696D01*
X193423Y609661D01*
X193438Y609624D01*
X193507Y609528D01*
X193571Y609427D01*
X193601Y609399D01*
X193624Y609366D01*
X193716Y609290D01*
X193803Y609209D01*
X193838Y609189D01*
X193869Y609164D01*
X193977Y609113D01*
X194081Y609055D01*
X194121Y609045D01*
X194157Y609028D01*
X194274Y609006D01*
X194389Y608976D01*
X194449Y608972D01*
X194469Y608968D01*
X194490Y608970D01*
X194550Y608966D01*
X217125Y608966D01*
X217223Y608978D01*
G37*
G36*
X250308Y793856D02*
X250308Y793856D01*
X250427Y793863D01*
X250465Y793876D01*
X250505Y793881D01*
X250616Y793925D01*
X250729Y793961D01*
X250764Y793983D01*
X250801Y793998D01*
X250897Y794068D01*
X250998Y794131D01*
X251026Y794161D01*
X251058Y794185D01*
X251134Y794276D01*
X251216Y794363D01*
X251235Y794398D01*
X251261Y794430D01*
X251312Y794537D01*
X251369Y794641D01*
X251380Y794681D01*
X251397Y794717D01*
X251419Y794834D01*
X251449Y794949D01*
X251453Y795010D01*
X251457Y795030D01*
X251455Y795050D01*
X251459Y795110D01*
X251459Y810381D01*
X257254Y810381D01*
X257901Y810208D01*
X258480Y809873D01*
X258817Y809536D01*
X258927Y809450D01*
X259034Y809362D01*
X259053Y809353D01*
X259069Y809341D01*
X259197Y809285D01*
X259322Y809226D01*
X259342Y809222D01*
X259361Y809214D01*
X259499Y809192D01*
X259635Y809166D01*
X259655Y809168D01*
X259675Y809164D01*
X259814Y809178D01*
X259952Y809186D01*
X259971Y809192D01*
X259991Y809194D01*
X260123Y809241D01*
X260254Y809284D01*
X260271Y809295D01*
X260291Y809302D01*
X260406Y809380D01*
X260523Y809454D01*
X260537Y809469D01*
X260554Y809480D01*
X260646Y809584D01*
X260741Y809686D01*
X260751Y809704D01*
X260764Y809719D01*
X260828Y809843D01*
X260895Y809964D01*
X260900Y809984D01*
X260909Y810002D01*
X260939Y810138D01*
X260974Y810272D01*
X260976Y810300D01*
X260979Y810312D01*
X260978Y810333D01*
X260984Y810433D01*
X260984Y891127D01*
X260967Y891265D01*
X260954Y891403D01*
X260947Y891422D01*
X260944Y891442D01*
X260893Y891572D01*
X260846Y891703D01*
X260835Y891719D01*
X260827Y891738D01*
X260746Y891850D01*
X260668Y891966D01*
X260652Y891979D01*
X260641Y891995D01*
X260534Y892084D01*
X260429Y892176D01*
X260411Y892185D01*
X260396Y892198D01*
X260270Y892257D01*
X260146Y892321D01*
X260126Y892325D01*
X260108Y892334D01*
X259972Y892360D01*
X259836Y892390D01*
X259815Y892390D01*
X259796Y892394D01*
X259657Y892385D01*
X259518Y892381D01*
X259498Y892375D01*
X259478Y892374D01*
X259346Y892331D01*
X259212Y892292D01*
X259195Y892282D01*
X259176Y892276D01*
X259058Y892202D01*
X258938Y892131D01*
X258917Y892112D01*
X258907Y892106D01*
X258893Y892091D01*
X258817Y892024D01*
X258480Y891687D01*
X257901Y891352D01*
X257254Y891179D01*
X251459Y891179D01*
X251459Y908450D01*
X251444Y908568D01*
X251437Y908687D01*
X251424Y908725D01*
X251419Y908765D01*
X251375Y908876D01*
X251339Y908989D01*
X251317Y909024D01*
X251302Y909061D01*
X251232Y909157D01*
X251169Y909258D01*
X251139Y909286D01*
X251115Y909318D01*
X251024Y909394D01*
X250937Y909476D01*
X250902Y909495D01*
X250870Y909521D01*
X250763Y909572D01*
X250659Y909629D01*
X250619Y909640D01*
X250583Y909657D01*
X250466Y909679D01*
X250351Y909709D01*
X250290Y909713D01*
X250270Y909717D01*
X250250Y909715D01*
X250190Y909719D01*
X248919Y909719D01*
X248919Y909721D01*
X250190Y909721D01*
X250308Y909736D01*
X250427Y909743D01*
X250465Y909756D01*
X250505Y909761D01*
X250616Y909805D01*
X250729Y909841D01*
X250764Y909863D01*
X250801Y909878D01*
X250897Y909948D01*
X250998Y910011D01*
X251026Y910041D01*
X251058Y910065D01*
X251134Y910156D01*
X251216Y910243D01*
X251235Y910278D01*
X251261Y910310D01*
X251312Y910417D01*
X251369Y910521D01*
X251380Y910561D01*
X251397Y910597D01*
X251419Y910714D01*
X251449Y910829D01*
X251453Y910890D01*
X251457Y910910D01*
X251455Y910930D01*
X251459Y910990D01*
X251459Y928261D01*
X257254Y928261D01*
X257901Y928088D01*
X258480Y927753D01*
X258817Y927416D01*
X258927Y927330D01*
X259034Y927242D01*
X259053Y927233D01*
X259069Y927221D01*
X259197Y927165D01*
X259322Y927106D01*
X259342Y927102D01*
X259361Y927094D01*
X259499Y927072D01*
X259635Y927046D01*
X259655Y927048D01*
X259675Y927044D01*
X259814Y927058D01*
X259952Y927066D01*
X259971Y927072D01*
X259991Y927074D01*
X260123Y927121D01*
X260254Y927164D01*
X260271Y927175D01*
X260291Y927182D01*
X260406Y927260D01*
X260523Y927334D01*
X260537Y927349D01*
X260554Y927360D01*
X260646Y927464D01*
X260741Y927566D01*
X260751Y927584D01*
X260764Y927599D01*
X260828Y927723D01*
X260895Y927844D01*
X260900Y927864D01*
X260909Y927882D01*
X260939Y928018D01*
X260974Y928152D01*
X260976Y928180D01*
X260979Y928192D01*
X260978Y928213D01*
X260984Y928313D01*
X260984Y943565D01*
X260972Y943663D01*
X260969Y943762D01*
X260952Y943820D01*
X260944Y943880D01*
X260908Y943972D01*
X260880Y944068D01*
X260850Y944120D01*
X260827Y944176D01*
X260769Y944256D01*
X260719Y944341D01*
X260653Y944417D01*
X260641Y944433D01*
X260631Y944441D01*
X260613Y944462D01*
X260358Y944717D01*
X260266Y944788D01*
X260243Y944810D01*
X260230Y944818D01*
X260141Y944891D01*
X260122Y944900D01*
X260106Y944912D01*
X259979Y944968D01*
X259853Y945027D01*
X259833Y945031D01*
X259814Y945039D01*
X259677Y945060D01*
X259540Y945087D01*
X259520Y945085D01*
X259500Y945089D01*
X259362Y945076D01*
X259223Y945067D01*
X259204Y945061D01*
X259184Y945059D01*
X259053Y945012D01*
X258921Y944969D01*
X258903Y944958D01*
X258884Y944951D01*
X258769Y944873D01*
X258652Y944799D01*
X258638Y944784D01*
X258621Y944773D01*
X258529Y944668D01*
X258434Y944567D01*
X258424Y944549D01*
X258411Y944534D01*
X258348Y944410D01*
X258280Y944289D01*
X258275Y944269D01*
X258266Y944251D01*
X258236Y944115D01*
X258201Y943981D01*
X258199Y943953D01*
X258196Y943941D01*
X258197Y943920D01*
X258194Y943867D01*
X258193Y943865D01*
X258193Y943862D01*
X258191Y943820D01*
X258191Y943194D01*
X257446Y942449D01*
X240394Y942449D01*
X239649Y943194D01*
X239649Y966170D01*
X239637Y966268D01*
X239634Y966367D01*
X239617Y966425D01*
X239609Y966485D01*
X239573Y966577D01*
X239545Y966673D01*
X239515Y966725D01*
X239492Y966781D01*
X239434Y966861D01*
X239384Y966947D01*
X239318Y967022D01*
X239306Y967038D01*
X239296Y967046D01*
X239278Y967067D01*
X217804Y988541D01*
X217804Y1017891D01*
X217787Y1018029D01*
X217774Y1018168D01*
X217767Y1018187D01*
X217764Y1018207D01*
X217713Y1018336D01*
X217666Y1018467D01*
X217655Y1018484D01*
X217647Y1018503D01*
X217566Y1018615D01*
X217488Y1018730D01*
X217472Y1018744D01*
X217461Y1018760D01*
X217353Y1018849D01*
X217249Y1018941D01*
X217231Y1018950D01*
X217216Y1018963D01*
X217090Y1019022D01*
X216966Y1019085D01*
X216946Y1019090D01*
X216928Y1019098D01*
X216792Y1019124D01*
X216656Y1019155D01*
X216635Y1019154D01*
X216616Y1019158D01*
X216477Y1019149D01*
X216338Y1019145D01*
X216318Y1019140D01*
X216298Y1019138D01*
X216166Y1019096D01*
X216032Y1019057D01*
X216015Y1019047D01*
X215996Y1019040D01*
X215878Y1018966D01*
X215758Y1018895D01*
X215737Y1018877D01*
X215727Y1018870D01*
X215713Y1018855D01*
X215638Y1018789D01*
X210054Y1013205D01*
X201426Y1013205D01*
X200621Y1014011D01*
X200527Y1014083D01*
X200437Y1014162D01*
X200401Y1014181D01*
X200369Y1014206D01*
X200260Y1014253D01*
X200154Y1014307D01*
X200115Y1014316D01*
X200078Y1014332D01*
X199960Y1014351D01*
X199844Y1014377D01*
X199804Y1014375D01*
X199764Y1014382D01*
X199645Y1014371D01*
X199526Y1014367D01*
X199487Y1014356D01*
X199447Y1014352D01*
X199335Y1014312D01*
X199221Y1014279D01*
X199186Y1014258D01*
X199148Y1014244D01*
X199049Y1014178D01*
X198947Y1014117D01*
X198901Y1014077D01*
X198884Y1014066D01*
X198871Y1014051D01*
X198826Y1014011D01*
X175043Y990227D01*
X174970Y990133D01*
X174891Y990044D01*
X174873Y990008D01*
X174848Y989976D01*
X174800Y989867D01*
X174746Y989761D01*
X174737Y989722D01*
X174721Y989684D01*
X174703Y989567D01*
X174677Y989451D01*
X174678Y989410D01*
X174671Y989370D01*
X174683Y989252D01*
X174686Y989133D01*
X174698Y989094D01*
X174701Y989054D01*
X174742Y988942D01*
X174775Y988827D01*
X174795Y988792D01*
X174809Y988754D01*
X174876Y988656D01*
X174936Y988553D01*
X174976Y988508D01*
X174987Y988491D01*
X175003Y988478D01*
X175043Y988432D01*
X176393Y987082D01*
X176471Y987022D01*
X176543Y986954D01*
X176596Y986925D01*
X176644Y986888D01*
X176735Y986848D01*
X176822Y986800D01*
X176880Y986785D01*
X176936Y986761D01*
X177034Y986746D01*
X177129Y986721D01*
X177230Y986715D01*
X177250Y986711D01*
X177262Y986713D01*
X177290Y986711D01*
X187246Y986711D01*
X187991Y985966D01*
X187991Y974914D01*
X187246Y974169D01*
X184785Y974169D01*
X184667Y974154D01*
X184548Y974147D01*
X184510Y974134D01*
X184469Y974129D01*
X184359Y974086D01*
X184246Y974049D01*
X184211Y974027D01*
X184174Y974012D01*
X184078Y973943D01*
X183977Y973879D01*
X183949Y973849D01*
X183916Y973826D01*
X183840Y973734D01*
X183759Y973647D01*
X183739Y973612D01*
X183714Y973581D01*
X183663Y973473D01*
X183605Y973369D01*
X183595Y973329D01*
X183578Y973293D01*
X183556Y973176D01*
X183526Y973061D01*
X183522Y973001D01*
X183518Y972981D01*
X183520Y972960D01*
X183516Y972900D01*
X183516Y960165D01*
X183528Y960067D01*
X183531Y959968D01*
X183548Y959910D01*
X183556Y959850D01*
X183592Y959758D01*
X183620Y959662D01*
X183650Y959610D01*
X183673Y959554D01*
X183731Y959474D01*
X183781Y959388D01*
X183847Y959313D01*
X183859Y959297D01*
X183869Y959289D01*
X183887Y959268D01*
X236213Y906943D01*
X236322Y906857D01*
X236429Y906769D01*
X236448Y906760D01*
X236464Y906748D01*
X236592Y906692D01*
X236717Y906633D01*
X236737Y906629D01*
X236756Y906621D01*
X236894Y906599D01*
X237030Y906573D01*
X237050Y906575D01*
X237070Y906571D01*
X237209Y906585D01*
X237347Y906593D01*
X237366Y906599D01*
X237386Y906601D01*
X237518Y906648D01*
X237649Y906691D01*
X237667Y906702D01*
X237686Y906709D01*
X237801Y906787D01*
X237918Y906861D01*
X237932Y906876D01*
X237949Y906887D01*
X238041Y906992D01*
X238136Y907093D01*
X238146Y907111D01*
X238159Y907126D01*
X238187Y907181D01*
X246381Y907181D01*
X246381Y891179D01*
X241935Y891179D01*
X241817Y891164D01*
X241698Y891157D01*
X241660Y891144D01*
X241619Y891139D01*
X241509Y891096D01*
X241396Y891059D01*
X241361Y891037D01*
X241324Y891022D01*
X241228Y890953D01*
X241127Y890889D01*
X241099Y890859D01*
X241066Y890836D01*
X240990Y890744D01*
X240909Y890657D01*
X240889Y890622D01*
X240864Y890591D01*
X240813Y890483D01*
X240755Y890379D01*
X240745Y890339D01*
X240728Y890303D01*
X240706Y890186D01*
X240676Y890071D01*
X240672Y890011D01*
X240668Y889991D01*
X240670Y889970D01*
X240666Y889910D01*
X240666Y853380D01*
X240681Y853262D01*
X240688Y853143D01*
X240701Y853105D01*
X240706Y853064D01*
X240749Y852954D01*
X240786Y852841D01*
X240808Y852806D01*
X240823Y852769D01*
X240892Y852673D01*
X240956Y852572D01*
X240986Y852544D01*
X241009Y852511D01*
X241101Y852435D01*
X241188Y852354D01*
X241223Y852334D01*
X241254Y852309D01*
X241362Y852258D01*
X241466Y852200D01*
X241506Y852190D01*
X241542Y852173D01*
X241659Y852151D01*
X241774Y852121D01*
X241834Y852117D01*
X241854Y852113D01*
X241875Y852115D01*
X241935Y852111D01*
X257446Y852111D01*
X258191Y851366D01*
X258191Y822314D01*
X257446Y821569D01*
X240394Y821569D01*
X240293Y821670D01*
X240183Y821756D01*
X240076Y821844D01*
X240057Y821853D01*
X240041Y821865D01*
X239913Y821921D01*
X239788Y821980D01*
X239768Y821984D01*
X239749Y821992D01*
X239611Y822014D01*
X239475Y822040D01*
X239455Y822038D01*
X239435Y822042D01*
X239296Y822028D01*
X239158Y822020D01*
X239139Y822014D01*
X239119Y822012D01*
X238988Y821965D01*
X238856Y821922D01*
X238838Y821911D01*
X238819Y821904D01*
X238705Y821826D01*
X238587Y821752D01*
X238573Y821737D01*
X238556Y821726D01*
X238464Y821622D01*
X238369Y821520D01*
X238359Y821502D01*
X238346Y821487D01*
X238282Y821363D01*
X238215Y821242D01*
X238210Y821222D01*
X238201Y821204D01*
X238171Y821068D01*
X238136Y820934D01*
X238134Y820906D01*
X238131Y820894D01*
X238132Y820873D01*
X238126Y820773D01*
X238126Y811359D01*
X238142Y811227D01*
X238153Y811095D01*
X238162Y811070D01*
X238166Y811043D01*
X238214Y810920D01*
X238258Y810795D01*
X238273Y810773D01*
X238283Y810748D01*
X238361Y810640D01*
X238434Y810530D01*
X238454Y810512D01*
X238469Y810490D01*
X238572Y810406D01*
X238670Y810317D01*
X238694Y810305D01*
X238714Y810288D01*
X238835Y810231D01*
X238952Y810170D01*
X238978Y810163D01*
X239002Y810152D01*
X239132Y810127D01*
X239261Y810097D01*
X239288Y810097D01*
X239314Y810092D01*
X239447Y810100D01*
X239579Y810103D01*
X239605Y810110D01*
X239632Y810112D01*
X239758Y810153D01*
X239886Y810188D01*
X239907Y810199D01*
X240586Y810381D01*
X246381Y810381D01*
X246381Y795110D01*
X246396Y794992D01*
X246403Y794873D01*
X246416Y794835D01*
X246421Y794795D01*
X246464Y794684D01*
X246501Y794571D01*
X246523Y794536D01*
X246538Y794499D01*
X246608Y794403D01*
X246671Y794302D01*
X246701Y794274D01*
X246725Y794242D01*
X246816Y794166D01*
X246903Y794084D01*
X246938Y794065D01*
X246969Y794039D01*
X247077Y793988D01*
X247181Y793931D01*
X247221Y793920D01*
X247257Y793903D01*
X247374Y793881D01*
X247489Y793851D01*
X247550Y793847D01*
X247570Y793843D01*
X247590Y793845D01*
X247650Y793841D01*
X250190Y793841D01*
X250308Y793856D01*
G37*
%LPC*%
G36*
X63859Y593701D02*
X63859Y593701D01*
X63859Y604410D01*
X63844Y604528D01*
X63837Y604647D01*
X63824Y604685D01*
X63819Y604725D01*
X63776Y604836D01*
X63739Y604949D01*
X63717Y604983D01*
X63702Y605021D01*
X63633Y605117D01*
X63569Y605218D01*
X63539Y605246D01*
X63516Y605278D01*
X63424Y605354D01*
X63337Y605436D01*
X63302Y605455D01*
X63271Y605481D01*
X63163Y605532D01*
X63059Y605589D01*
X63019Y605599D01*
X62983Y605617D01*
X62876Y605637D01*
X62906Y605641D01*
X63016Y605685D01*
X63129Y605721D01*
X63164Y605743D01*
X63201Y605758D01*
X63297Y605828D01*
X63398Y605891D01*
X63426Y605921D01*
X63459Y605945D01*
X63535Y606036D01*
X63616Y606123D01*
X63636Y606158D01*
X63661Y606190D01*
X63712Y606297D01*
X63770Y606402D01*
X63780Y606441D01*
X63797Y606477D01*
X63819Y606594D01*
X63849Y606710D01*
X63853Y606770D01*
X63857Y606790D01*
X63855Y606810D01*
X63859Y606870D01*
X63859Y617579D01*
X71092Y617579D01*
X71739Y617406D01*
X72318Y617071D01*
X72791Y616598D01*
X73126Y616019D01*
X73196Y615756D01*
X73254Y615614D01*
X73266Y615582D01*
X73291Y615514D01*
X73297Y615506D01*
X73310Y615473D01*
X73314Y615468D01*
X73316Y615461D01*
X73407Y615339D01*
X73452Y615277D01*
X73469Y615251D01*
X73473Y615248D01*
X73496Y615216D01*
X73502Y615211D01*
X73506Y615206D01*
X73624Y615111D01*
X73741Y615013D01*
X73748Y615010D01*
X73753Y615006D01*
X73892Y614942D01*
X74029Y614877D01*
X74036Y614876D01*
X74042Y614873D01*
X74193Y614846D01*
X74342Y614818D01*
X74348Y614818D01*
X74355Y614817D01*
X74507Y614828D01*
X74659Y614837D01*
X74665Y614839D01*
X74672Y614840D01*
X74818Y614889D01*
X74961Y614935D01*
X74967Y614939D01*
X74974Y614941D01*
X75102Y615024D01*
X75230Y615106D01*
X75235Y615110D01*
X75240Y615114D01*
X75283Y615161D01*
X75320Y615193D01*
X76436Y616309D01*
X93658Y616309D01*
X93756Y616321D01*
X93855Y616324D01*
X93913Y616341D01*
X93973Y616349D01*
X94066Y616385D01*
X94161Y616413D01*
X94213Y616443D01*
X94269Y616466D01*
X94349Y616524D01*
X94435Y616574D01*
X94510Y616640D01*
X94526Y616652D01*
X94532Y616659D01*
X94535Y616661D01*
X94540Y616667D01*
X94555Y616680D01*
X136577Y658703D01*
X136663Y658812D01*
X136751Y658919D01*
X136760Y658938D01*
X136772Y658954D01*
X136828Y659082D01*
X136887Y659207D01*
X136891Y659227D01*
X136899Y659246D01*
X136921Y659384D01*
X136947Y659520D01*
X136945Y659540D01*
X136949Y659560D01*
X136935Y659699D01*
X136927Y659837D01*
X136921Y659856D01*
X136919Y659876D01*
X136872Y660008D01*
X136829Y660139D01*
X136818Y660157D01*
X136811Y660176D01*
X136733Y660291D01*
X136659Y660408D01*
X136644Y660422D01*
X136633Y660439D01*
X136528Y660531D01*
X136427Y660626D01*
X136409Y660636D01*
X136394Y660649D01*
X136270Y660712D01*
X136149Y660780D01*
X136129Y660785D01*
X136111Y660794D01*
X135975Y660824D01*
X135841Y660859D01*
X135813Y660861D01*
X135801Y660864D01*
X135780Y660863D01*
X135680Y660869D01*
X127242Y660869D01*
X118589Y669522D01*
X118589Y681758D01*
X127242Y690411D01*
X139478Y690411D01*
X145788Y684101D01*
X145897Y684016D01*
X146004Y683928D01*
X146023Y683919D01*
X146039Y683906D01*
X146167Y683851D01*
X146292Y683792D01*
X146312Y683788D01*
X146331Y683780D01*
X146469Y683758D01*
X146605Y683732D01*
X146625Y683733D01*
X146645Y683730D01*
X146784Y683743D01*
X146922Y683752D01*
X146941Y683758D01*
X146961Y683760D01*
X147093Y683807D01*
X147224Y683850D01*
X147242Y683861D01*
X147261Y683868D01*
X147376Y683946D01*
X147493Y684020D01*
X147507Y684035D01*
X147524Y684046D01*
X147616Y684151D01*
X147711Y684252D01*
X147721Y684269D01*
X147734Y684285D01*
X147798Y684409D01*
X147865Y684530D01*
X147870Y684550D01*
X147879Y684568D01*
X147909Y684704D01*
X147944Y684838D01*
X147946Y684866D01*
X147949Y684878D01*
X147948Y684899D01*
X147954Y684999D01*
X147954Y704369D01*
X179551Y735966D01*
X193829Y735966D01*
X196713Y733082D01*
X196791Y733022D01*
X196863Y732954D01*
X196916Y732925D01*
X196964Y732888D01*
X197055Y732848D01*
X197142Y732800D01*
X197200Y732785D01*
X197256Y732761D01*
X197354Y732746D01*
X197449Y732721D01*
X197549Y732715D01*
X197570Y732711D01*
X197582Y732713D01*
X197610Y732711D01*
X210106Y732711D01*
X210851Y731966D01*
X210851Y720914D01*
X210106Y720169D01*
X198054Y720169D01*
X197309Y720914D01*
X197309Y726570D01*
X197297Y726668D01*
X197294Y726767D01*
X197277Y726825D01*
X197269Y726885D01*
X197233Y726977D01*
X197205Y727073D01*
X197175Y727125D01*
X197152Y727181D01*
X197094Y727261D01*
X197044Y727347D01*
X196978Y727422D01*
X196966Y727438D01*
X196956Y727446D01*
X196938Y727467D01*
X196017Y728387D01*
X195908Y728472D01*
X195801Y728561D01*
X195782Y728570D01*
X195766Y728582D01*
X195638Y728638D01*
X195513Y728697D01*
X195493Y728701D01*
X195474Y728709D01*
X195336Y728731D01*
X195200Y728757D01*
X195180Y728755D01*
X195160Y728759D01*
X195021Y728745D01*
X194883Y728737D01*
X194864Y728731D01*
X194844Y728729D01*
X194712Y728682D01*
X194581Y728639D01*
X194563Y728628D01*
X194544Y728621D01*
X194429Y728543D01*
X194312Y728469D01*
X194298Y728454D01*
X194281Y728443D01*
X194189Y728339D01*
X194094Y728237D01*
X194084Y728219D01*
X194071Y728204D01*
X194008Y728080D01*
X193940Y727959D01*
X193935Y727939D01*
X193926Y727921D01*
X193896Y727785D01*
X193861Y727651D01*
X193859Y727623D01*
X193856Y727611D01*
X193857Y727590D01*
X193851Y727490D01*
X193851Y720914D01*
X193106Y720169D01*
X189865Y720169D01*
X189747Y720154D01*
X189628Y720147D01*
X189590Y720134D01*
X189549Y720129D01*
X189439Y720086D01*
X189326Y720049D01*
X189291Y720027D01*
X189254Y720012D01*
X189158Y719943D01*
X189057Y719879D01*
X189029Y719849D01*
X188996Y719826D01*
X188920Y719734D01*
X188839Y719647D01*
X188819Y719612D01*
X188794Y719581D01*
X188743Y719473D01*
X188685Y719369D01*
X188675Y719329D01*
X188658Y719293D01*
X188636Y719176D01*
X188606Y719061D01*
X188602Y719001D01*
X188598Y718981D01*
X188600Y718960D01*
X188596Y718900D01*
X188596Y695880D01*
X188611Y695762D01*
X188618Y695643D01*
X188631Y695605D01*
X188636Y695564D01*
X188679Y695454D01*
X188716Y695341D01*
X188738Y695306D01*
X188753Y695269D01*
X188822Y695173D01*
X188886Y695072D01*
X188916Y695044D01*
X188939Y695011D01*
X189031Y694935D01*
X189118Y694854D01*
X189153Y694834D01*
X189184Y694809D01*
X189292Y694758D01*
X189396Y694700D01*
X189436Y694690D01*
X189472Y694673D01*
X189589Y694651D01*
X189704Y694621D01*
X189764Y694617D01*
X189784Y694613D01*
X189805Y694615D01*
X189865Y694611D01*
X193106Y694611D01*
X194063Y693654D01*
X194168Y693573D01*
X194269Y693488D01*
X194293Y693476D01*
X194314Y693459D01*
X194436Y693407D01*
X194555Y693349D01*
X194581Y693344D01*
X194606Y693333D01*
X194737Y693312D01*
X194866Y693286D01*
X194893Y693287D01*
X194920Y693283D01*
X195052Y693296D01*
X195184Y693302D01*
X195210Y693310D01*
X195237Y693313D01*
X195361Y693358D01*
X195488Y693397D01*
X195511Y693411D01*
X195536Y693421D01*
X195646Y693495D01*
X195758Y693565D01*
X195777Y693584D01*
X195799Y693599D01*
X195887Y693698D01*
X195978Y693794D01*
X195992Y693817D01*
X196010Y693838D01*
X196070Y693956D01*
X196135Y694071D01*
X196147Y694107D01*
X196154Y694121D01*
X196159Y694142D01*
X196186Y694223D01*
X196212Y694321D01*
X196547Y694900D01*
X197020Y695373D01*
X197599Y695708D01*
X198246Y695881D01*
X201581Y695881D01*
X201581Y689570D01*
X201596Y689452D01*
X201603Y689333D01*
X201615Y689295D01*
X201621Y689255D01*
X201664Y689144D01*
X201701Y689031D01*
X201723Y688997D01*
X201738Y688959D01*
X201807Y688863D01*
X201871Y688762D01*
X201901Y688734D01*
X201924Y688702D01*
X202016Y688626D01*
X202103Y688544D01*
X202138Y688525D01*
X202169Y688499D01*
X202277Y688448D01*
X202381Y688391D01*
X202421Y688381D01*
X202457Y688363D01*
X202564Y688343D01*
X202534Y688339D01*
X202424Y688295D01*
X202311Y688259D01*
X202276Y688237D01*
X202239Y688222D01*
X202142Y688152D01*
X202042Y688089D01*
X202014Y688059D01*
X201981Y688035D01*
X201905Y687944D01*
X201824Y687857D01*
X201804Y687822D01*
X201779Y687790D01*
X201728Y687683D01*
X201670Y687578D01*
X201660Y687539D01*
X201643Y687503D01*
X201621Y687386D01*
X201591Y687270D01*
X201587Y687210D01*
X201583Y687190D01*
X201585Y687170D01*
X201581Y687110D01*
X201581Y680799D01*
X200382Y680799D01*
X200264Y680784D01*
X200145Y680777D01*
X200107Y680764D01*
X200066Y680759D01*
X199956Y680716D01*
X199843Y680679D01*
X199808Y680657D01*
X199771Y680642D01*
X199675Y680573D01*
X199574Y680509D01*
X199546Y680479D01*
X199513Y680456D01*
X199437Y680364D01*
X199356Y680277D01*
X199336Y680242D01*
X199311Y680211D01*
X199260Y680103D01*
X199202Y679999D01*
X199192Y679959D01*
X199175Y679923D01*
X199153Y679806D01*
X199123Y679691D01*
X199119Y679631D01*
X199115Y679611D01*
X199117Y679590D01*
X199113Y679530D01*
X199113Y679257D01*
X197043Y677187D01*
X194117Y677187D01*
X192047Y679257D01*
X192047Y680800D01*
X192032Y680918D01*
X192025Y681037D01*
X192012Y681075D01*
X192007Y681116D01*
X191964Y681226D01*
X191927Y681339D01*
X191905Y681374D01*
X191890Y681411D01*
X191821Y681507D01*
X191757Y681608D01*
X191727Y681636D01*
X191704Y681669D01*
X191612Y681745D01*
X191525Y681826D01*
X191490Y681846D01*
X191459Y681871D01*
X191351Y681922D01*
X191247Y681980D01*
X191207Y681990D01*
X191171Y682007D01*
X191054Y682029D01*
X190939Y682059D01*
X190879Y682063D01*
X190859Y682067D01*
X190838Y682065D01*
X190778Y682069D01*
X181054Y682069D01*
X180309Y682814D01*
X180309Y693866D01*
X181054Y694611D01*
X183515Y694611D01*
X183633Y694626D01*
X183752Y694633D01*
X183790Y694646D01*
X183831Y694651D01*
X183941Y694694D01*
X184054Y694731D01*
X184089Y694753D01*
X184126Y694768D01*
X184222Y694837D01*
X184323Y694901D01*
X184351Y694931D01*
X184384Y694954D01*
X184460Y695046D01*
X184541Y695133D01*
X184561Y695168D01*
X184586Y695199D01*
X184637Y695307D01*
X184695Y695411D01*
X184705Y695451D01*
X184722Y695487D01*
X184744Y695604D01*
X184774Y695719D01*
X184778Y695779D01*
X184782Y695799D01*
X184780Y695820D01*
X184784Y695880D01*
X184784Y718900D01*
X184769Y719018D01*
X184762Y719137D01*
X184749Y719175D01*
X184744Y719216D01*
X184701Y719326D01*
X184664Y719439D01*
X184642Y719474D01*
X184627Y719511D01*
X184558Y719607D01*
X184494Y719708D01*
X184464Y719736D01*
X184441Y719769D01*
X184349Y719845D01*
X184262Y719926D01*
X184227Y719946D01*
X184196Y719971D01*
X184088Y720022D01*
X183984Y720080D01*
X183944Y720090D01*
X183908Y720107D01*
X183791Y720129D01*
X183676Y720159D01*
X183616Y720163D01*
X183596Y720167D01*
X183575Y720165D01*
X183515Y720169D01*
X181054Y720169D01*
X180309Y720914D01*
X180309Y728270D01*
X180292Y728407D01*
X180279Y728546D01*
X180272Y728565D01*
X180269Y728585D01*
X180218Y728714D01*
X180171Y728846D01*
X180160Y728862D01*
X180152Y728881D01*
X180071Y728993D01*
X179993Y729109D01*
X179977Y729122D01*
X179966Y729138D01*
X179858Y729227D01*
X179754Y729319D01*
X179736Y729328D01*
X179721Y729341D01*
X179595Y729400D01*
X179471Y729464D01*
X179451Y729468D01*
X179433Y729477D01*
X179297Y729503D01*
X179161Y729533D01*
X179140Y729533D01*
X179121Y729537D01*
X178982Y729528D01*
X178843Y729524D01*
X178823Y729518D01*
X178803Y729517D01*
X178671Y729474D01*
X178537Y729435D01*
X178520Y729425D01*
X178501Y729419D01*
X178383Y729344D01*
X178263Y729274D01*
X178242Y729255D01*
X178232Y729249D01*
X178218Y729234D01*
X178143Y729167D01*
X152137Y703162D01*
X152077Y703084D01*
X152009Y703012D01*
X151980Y702959D01*
X151943Y702911D01*
X151903Y702820D01*
X151855Y702733D01*
X151840Y702675D01*
X151816Y702619D01*
X151801Y702521D01*
X151776Y702426D01*
X151770Y702326D01*
X151766Y702305D01*
X151768Y702293D01*
X151766Y702265D01*
X151766Y668501D01*
X101741Y618475D01*
X101655Y618366D01*
X101567Y618259D01*
X101558Y618240D01*
X101546Y618224D01*
X101490Y618096D01*
X101431Y617971D01*
X101427Y617951D01*
X101419Y617932D01*
X101397Y617794D01*
X101371Y617658D01*
X101373Y617638D01*
X101369Y617618D01*
X101383Y617479D01*
X101391Y617341D01*
X101397Y617322D01*
X101399Y617302D01*
X101446Y617170D01*
X101489Y617039D01*
X101500Y617021D01*
X101507Y617002D01*
X101585Y616887D01*
X101659Y616770D01*
X101674Y616756D01*
X101685Y616739D01*
X101790Y616647D01*
X101891Y616552D01*
X101909Y616542D01*
X101924Y616529D01*
X102048Y616465D01*
X102169Y616398D01*
X102189Y616393D01*
X102207Y616384D01*
X102343Y616354D01*
X102477Y616319D01*
X102505Y616317D01*
X102517Y616314D01*
X102538Y616315D01*
X102638Y616309D01*
X121284Y616309D01*
X122029Y615564D01*
X122029Y595716D01*
X121284Y594971D01*
X101436Y594971D01*
X100691Y595716D01*
X100691Y614362D01*
X100674Y614499D01*
X100661Y614638D01*
X100654Y614657D01*
X100651Y614677D01*
X100600Y614806D01*
X100553Y614938D01*
X100542Y614954D01*
X100534Y614973D01*
X100453Y615085D01*
X100375Y615201D01*
X100359Y615214D01*
X100348Y615230D01*
X100240Y615319D01*
X100136Y615411D01*
X100118Y615420D01*
X100103Y615433D01*
X99977Y615492D01*
X99853Y615556D01*
X99833Y615560D01*
X99815Y615569D01*
X99679Y615595D01*
X99543Y615625D01*
X99522Y615625D01*
X99503Y615629D01*
X99364Y615620D01*
X99225Y615616D01*
X99205Y615610D01*
X99185Y615609D01*
X99053Y615566D01*
X98919Y615527D01*
X98902Y615517D01*
X98883Y615511D01*
X98765Y615436D01*
X98645Y615366D01*
X98624Y615347D01*
X98614Y615341D01*
X98600Y615326D01*
X98525Y615259D01*
X97400Y614135D01*
X97340Y614057D01*
X97272Y613985D01*
X97243Y613932D01*
X97206Y613884D01*
X97166Y613793D01*
X97118Y613707D01*
X97103Y613648D01*
X97079Y613592D01*
X97064Y613494D01*
X97039Y613399D01*
X97033Y613299D01*
X97029Y613278D01*
X97031Y613266D01*
X97029Y613238D01*
X97029Y595716D01*
X96284Y594971D01*
X76436Y594971D01*
X75367Y596040D01*
X75357Y596054D01*
X75351Y596059D01*
X75348Y596064D01*
X75231Y596161D01*
X75114Y596260D01*
X75108Y596263D01*
X75103Y596267D01*
X74966Y596331D01*
X74828Y596398D01*
X74821Y596400D01*
X74815Y596403D01*
X74667Y596431D01*
X74516Y596461D01*
X74509Y596461D01*
X74503Y596462D01*
X74351Y596453D01*
X74198Y596445D01*
X74192Y596443D01*
X74185Y596443D01*
X74040Y596396D01*
X73895Y596350D01*
X73889Y596347D01*
X73883Y596345D01*
X73754Y596263D01*
X73624Y596183D01*
X73620Y596178D01*
X73614Y596174D01*
X73585Y596144D01*
X73583Y596143D01*
X73575Y596133D01*
X73509Y596063D01*
X73404Y595954D01*
X73401Y595948D01*
X73396Y595943D01*
X73378Y595910D01*
X73373Y595904D01*
X73350Y595859D01*
X73323Y595810D01*
X73247Y595677D01*
X73245Y595668D01*
X73242Y595664D01*
X73240Y595654D01*
X73229Y595623D01*
X73228Y595621D01*
X73227Y595617D01*
X73196Y595524D01*
X73126Y595261D01*
X72791Y594682D01*
X72318Y594209D01*
X71739Y593874D01*
X71092Y593701D01*
X63859Y593701D01*
G37*
%LPD*%
%LPC*%
G36*
X221746Y21335D02*
X221746Y21335D01*
X215645Y27436D01*
X215645Y28575D01*
X215630Y28693D01*
X215623Y28812D01*
X215610Y28850D01*
X215605Y28891D01*
X215562Y29001D01*
X215525Y29114D01*
X215503Y29149D01*
X215488Y29186D01*
X215419Y29282D01*
X215355Y29383D01*
X215325Y29411D01*
X215302Y29444D01*
X215210Y29520D01*
X215123Y29601D01*
X215088Y29621D01*
X215057Y29646D01*
X214949Y29697D01*
X214845Y29755D01*
X214805Y29765D01*
X214769Y29782D01*
X214652Y29804D01*
X214537Y29834D01*
X214477Y29838D01*
X214457Y29842D01*
X214436Y29840D01*
X214376Y29844D01*
X152881Y29844D01*
X151393Y31332D01*
X148727Y33998D01*
X148649Y34058D01*
X148577Y34126D01*
X148524Y34155D01*
X148476Y34192D01*
X148385Y34232D01*
X148299Y34280D01*
X148240Y34295D01*
X148184Y34319D01*
X148086Y34334D01*
X147991Y34359D01*
X147891Y34365D01*
X147870Y34369D01*
X147858Y34367D01*
X147830Y34369D01*
X135334Y34369D01*
X134589Y35114D01*
X134589Y46166D01*
X135334Y46911D01*
X137795Y46911D01*
X137913Y46926D01*
X138032Y46933D01*
X138070Y46946D01*
X138111Y46951D01*
X138221Y46994D01*
X138334Y47031D01*
X138369Y47053D01*
X138406Y47068D01*
X138502Y47137D01*
X138603Y47201D01*
X138631Y47231D01*
X138664Y47254D01*
X138740Y47346D01*
X138821Y47433D01*
X138841Y47468D01*
X138866Y47499D01*
X138917Y47607D01*
X138975Y47711D01*
X138985Y47751D01*
X139002Y47787D01*
X139024Y47904D01*
X139054Y48019D01*
X139058Y48079D01*
X139062Y48099D01*
X139060Y48120D01*
X139064Y48180D01*
X139064Y68660D01*
X139049Y68778D01*
X139042Y68897D01*
X139029Y68935D01*
X139024Y68976D01*
X138981Y69086D01*
X138944Y69199D01*
X138922Y69234D01*
X138907Y69271D01*
X138838Y69367D01*
X138774Y69468D01*
X138744Y69496D01*
X138721Y69529D01*
X138629Y69605D01*
X138542Y69686D01*
X138507Y69706D01*
X138476Y69731D01*
X138368Y69782D01*
X138264Y69840D01*
X138224Y69850D01*
X138188Y69867D01*
X138071Y69889D01*
X137956Y69919D01*
X137896Y69923D01*
X137876Y69927D01*
X137855Y69925D01*
X137795Y69929D01*
X135334Y69929D01*
X134589Y70674D01*
X134589Y81726D01*
X135334Y82471D01*
X145450Y82471D01*
X145587Y82488D01*
X145726Y82501D01*
X145745Y82508D01*
X145765Y82511D01*
X145894Y82562D01*
X146026Y82609D01*
X146042Y82620D01*
X146061Y82628D01*
X146174Y82709D01*
X146289Y82787D01*
X146302Y82803D01*
X146318Y82814D01*
X146407Y82922D01*
X146499Y83026D01*
X146508Y83044D01*
X146521Y83059D01*
X146581Y83185D01*
X146644Y83309D01*
X146648Y83329D01*
X146657Y83347D01*
X146683Y83483D01*
X146713Y83619D01*
X146713Y83640D01*
X146717Y83659D01*
X146708Y83798D01*
X146704Y83937D01*
X146698Y83957D01*
X146697Y83977D01*
X146654Y84109D01*
X146615Y84243D01*
X146605Y84260D01*
X146599Y84279D01*
X146524Y84397D01*
X146454Y84517D01*
X146435Y84538D01*
X146429Y84548D01*
X146414Y84562D01*
X146347Y84637D01*
X140334Y90651D01*
X140334Y104220D01*
X140319Y104338D01*
X140312Y104457D01*
X140299Y104495D01*
X140294Y104536D01*
X140251Y104646D01*
X140214Y104759D01*
X140192Y104794D01*
X140177Y104831D01*
X140108Y104927D01*
X140044Y105028D01*
X140014Y105056D01*
X139991Y105089D01*
X139899Y105165D01*
X139812Y105246D01*
X139777Y105266D01*
X139746Y105291D01*
X139638Y105342D01*
X139534Y105400D01*
X139494Y105410D01*
X139458Y105427D01*
X139341Y105449D01*
X139226Y105479D01*
X139166Y105483D01*
X139146Y105487D01*
X139125Y105485D01*
X139065Y105489D01*
X135334Y105489D01*
X134589Y106234D01*
X134589Y117286D01*
X135334Y118031D01*
X147386Y118031D01*
X148131Y117286D01*
X148131Y106234D01*
X147386Y105489D01*
X145415Y105489D01*
X145297Y105474D01*
X145178Y105467D01*
X145140Y105454D01*
X145099Y105449D01*
X144989Y105406D01*
X144876Y105369D01*
X144841Y105347D01*
X144804Y105332D01*
X144708Y105263D01*
X144607Y105199D01*
X144579Y105169D01*
X144546Y105146D01*
X144470Y105054D01*
X144389Y104967D01*
X144369Y104932D01*
X144344Y104901D01*
X144293Y104793D01*
X144235Y104689D01*
X144225Y104649D01*
X144208Y104613D01*
X144186Y104496D01*
X144156Y104381D01*
X144152Y104321D01*
X144148Y104301D01*
X144150Y104280D01*
X144146Y104220D01*
X144146Y92755D01*
X144158Y92657D01*
X144161Y92558D01*
X144178Y92500D01*
X144186Y92440D01*
X144222Y92348D01*
X144250Y92252D01*
X144280Y92200D01*
X144303Y92144D01*
X144361Y92064D01*
X144411Y91978D01*
X144477Y91903D01*
X144489Y91887D01*
X144499Y91879D01*
X144517Y91858D01*
X153533Y82842D01*
X153611Y82782D01*
X153683Y82714D01*
X153736Y82685D01*
X153784Y82648D01*
X153875Y82608D01*
X153962Y82560D01*
X154020Y82545D01*
X154076Y82521D01*
X154174Y82506D01*
X154269Y82481D01*
X154369Y82475D01*
X154390Y82471D01*
X154402Y82473D01*
X154430Y82471D01*
X164386Y82471D01*
X165131Y81726D01*
X165131Y70674D01*
X164386Y69929D01*
X152334Y69929D01*
X151589Y70674D01*
X151589Y78870D01*
X151577Y78968D01*
X151574Y79067D01*
X151557Y79125D01*
X151549Y79185D01*
X151513Y79277D01*
X151485Y79373D01*
X151455Y79425D01*
X151432Y79481D01*
X151374Y79561D01*
X151324Y79647D01*
X151258Y79722D01*
X151246Y79738D01*
X151236Y79746D01*
X151218Y79767D01*
X150297Y80687D01*
X150188Y80772D01*
X150081Y80861D01*
X150062Y80870D01*
X150046Y80882D01*
X149918Y80938D01*
X149793Y80997D01*
X149773Y81001D01*
X149754Y81009D01*
X149616Y81031D01*
X149480Y81057D01*
X149460Y81055D01*
X149440Y81059D01*
X149301Y81045D01*
X149163Y81037D01*
X149144Y81031D01*
X149124Y81029D01*
X148992Y80982D01*
X148861Y80939D01*
X148843Y80928D01*
X148824Y80921D01*
X148709Y80843D01*
X148592Y80769D01*
X148578Y80754D01*
X148561Y80743D01*
X148469Y80639D01*
X148374Y80537D01*
X148364Y80519D01*
X148351Y80504D01*
X148288Y80380D01*
X148220Y80259D01*
X148215Y80239D01*
X148206Y80221D01*
X148176Y80085D01*
X148141Y79951D01*
X148139Y79923D01*
X148136Y79911D01*
X148137Y79890D01*
X148131Y79790D01*
X148131Y70674D01*
X147386Y69929D01*
X144145Y69929D01*
X144027Y69914D01*
X143908Y69907D01*
X143870Y69894D01*
X143829Y69889D01*
X143719Y69846D01*
X143606Y69809D01*
X143571Y69787D01*
X143534Y69772D01*
X143438Y69703D01*
X143337Y69639D01*
X143309Y69609D01*
X143276Y69586D01*
X143200Y69494D01*
X143119Y69407D01*
X143099Y69372D01*
X143074Y69341D01*
X143023Y69233D01*
X142965Y69129D01*
X142955Y69089D01*
X142938Y69053D01*
X142916Y68936D01*
X142886Y68821D01*
X142882Y68761D01*
X142878Y68741D01*
X142880Y68720D01*
X142876Y68660D01*
X142876Y48180D01*
X142891Y48062D01*
X142898Y47943D01*
X142911Y47905D01*
X142916Y47864D01*
X142959Y47754D01*
X142996Y47641D01*
X143018Y47606D01*
X143033Y47569D01*
X143102Y47473D01*
X143166Y47372D01*
X143196Y47344D01*
X143219Y47311D01*
X143311Y47235D01*
X143398Y47154D01*
X143433Y47134D01*
X143464Y47109D01*
X143572Y47058D01*
X143676Y47000D01*
X143716Y46990D01*
X143752Y46973D01*
X143869Y46951D01*
X143984Y46921D01*
X144044Y46917D01*
X144064Y46913D01*
X144085Y46915D01*
X144145Y46911D01*
X147386Y46911D01*
X148343Y45954D01*
X148448Y45873D01*
X148549Y45788D01*
X148573Y45776D01*
X148594Y45759D01*
X148716Y45707D01*
X148835Y45649D01*
X148861Y45644D01*
X148886Y45633D01*
X149017Y45612D01*
X149147Y45586D01*
X149173Y45587D01*
X149200Y45583D01*
X149332Y45596D01*
X149464Y45602D01*
X149490Y45610D01*
X149517Y45613D01*
X149641Y45658D01*
X149768Y45697D01*
X149791Y45711D01*
X149816Y45721D01*
X149925Y45795D01*
X150038Y45865D01*
X150057Y45884D01*
X150079Y45899D01*
X150167Y45998D01*
X150258Y46094D01*
X150272Y46117D01*
X150290Y46138D01*
X150350Y46256D01*
X150415Y46371D01*
X150427Y46407D01*
X150434Y46421D01*
X150439Y46442D01*
X150466Y46523D01*
X150492Y46621D01*
X150827Y47200D01*
X151300Y47673D01*
X151879Y48008D01*
X152526Y48181D01*
X155861Y48181D01*
X155861Y41870D01*
X155876Y41752D01*
X155883Y41633D01*
X155895Y41595D01*
X155901Y41555D01*
X155944Y41444D01*
X155981Y41331D01*
X156003Y41297D01*
X156018Y41259D01*
X156087Y41163D01*
X156151Y41062D01*
X156181Y41034D01*
X156204Y41002D01*
X156296Y40926D01*
X156383Y40844D01*
X156418Y40825D01*
X156449Y40799D01*
X156557Y40748D01*
X156661Y40691D01*
X156701Y40681D01*
X156737Y40663D01*
X156854Y40641D01*
X156969Y40611D01*
X157029Y40607D01*
X157049Y40604D01*
X157070Y40605D01*
X157130Y40601D01*
X158321Y40601D01*
X158321Y39410D01*
X158336Y39292D01*
X158343Y39173D01*
X158356Y39135D01*
X158361Y39094D01*
X158405Y38984D01*
X158441Y38871D01*
X158463Y38836D01*
X158478Y38799D01*
X158548Y38702D01*
X158611Y38602D01*
X158641Y38574D01*
X158665Y38541D01*
X158756Y38465D01*
X158843Y38384D01*
X158878Y38364D01*
X158910Y38339D01*
X159017Y38288D01*
X159122Y38230D01*
X159161Y38220D01*
X159197Y38203D01*
X159314Y38181D01*
X159430Y38151D01*
X159490Y38147D01*
X159510Y38143D01*
X159530Y38145D01*
X159590Y38141D01*
X166401Y38141D01*
X166401Y35306D01*
X166387Y35254D01*
X166370Y35129D01*
X166346Y35005D01*
X166348Y34972D01*
X166344Y34939D01*
X166358Y34813D01*
X166366Y34688D01*
X166376Y34656D01*
X166380Y34623D01*
X166425Y34505D01*
X166464Y34386D01*
X166482Y34357D01*
X166494Y34326D01*
X166567Y34223D01*
X166634Y34117D01*
X166659Y34094D01*
X166678Y34066D01*
X166774Y33985D01*
X166866Y33899D01*
X166895Y33883D01*
X166921Y33861D01*
X167034Y33806D01*
X167144Y33745D01*
X167177Y33737D01*
X167207Y33722D01*
X167330Y33697D01*
X167452Y33666D01*
X167501Y33663D01*
X167519Y33659D01*
X167540Y33660D01*
X167613Y33656D01*
X214376Y33656D01*
X214494Y33671D01*
X214613Y33678D01*
X214651Y33691D01*
X214692Y33696D01*
X214802Y33739D01*
X214915Y33776D01*
X214950Y33798D01*
X214987Y33813D01*
X215083Y33882D01*
X215184Y33946D01*
X215212Y33976D01*
X215245Y33999D01*
X215321Y34091D01*
X215402Y34178D01*
X215422Y34213D01*
X215447Y34244D01*
X215498Y34352D01*
X215556Y34456D01*
X215566Y34496D01*
X215583Y34532D01*
X215605Y34649D01*
X215635Y34764D01*
X215639Y34824D01*
X215643Y34844D01*
X215641Y34865D01*
X215645Y34925D01*
X215645Y36064D01*
X221746Y42165D01*
X230374Y42165D01*
X236475Y36064D01*
X236475Y27436D01*
X230374Y21335D01*
X221746Y21335D01*
G37*
%LPD*%
G36*
X148643Y946798D02*
X148643Y946798D01*
X148742Y946801D01*
X148800Y946818D01*
X148860Y946826D01*
X148952Y946862D01*
X149048Y946890D01*
X149100Y946920D01*
X149156Y946943D01*
X149236Y947001D01*
X149322Y947051D01*
X149397Y947117D01*
X149413Y947129D01*
X149421Y947139D01*
X149442Y947157D01*
X156691Y954406D01*
X173509Y954406D01*
X176393Y951522D01*
X176471Y951462D01*
X176543Y951394D01*
X176596Y951365D01*
X176644Y951328D01*
X176735Y951288D01*
X176822Y951240D01*
X176880Y951225D01*
X176936Y951201D01*
X177034Y951186D01*
X177129Y951161D01*
X177229Y951155D01*
X177250Y951151D01*
X177262Y951153D01*
X177290Y951151D01*
X183550Y951151D01*
X183687Y951168D01*
X183826Y951181D01*
X183845Y951188D01*
X183865Y951191D01*
X183994Y951242D01*
X184126Y951289D01*
X184142Y951300D01*
X184161Y951308D01*
X184274Y951389D01*
X184389Y951467D01*
X184402Y951483D01*
X184418Y951494D01*
X184507Y951602D01*
X184599Y951706D01*
X184608Y951724D01*
X184621Y951739D01*
X184681Y951865D01*
X184744Y951989D01*
X184748Y952009D01*
X184757Y952027D01*
X184783Y952163D01*
X184813Y952299D01*
X184813Y952320D01*
X184817Y952339D01*
X184808Y952478D01*
X184804Y952617D01*
X184798Y952637D01*
X184797Y952657D01*
X184754Y952789D01*
X184715Y952923D01*
X184705Y952940D01*
X184699Y952959D01*
X184624Y953077D01*
X184554Y953197D01*
X184535Y953218D01*
X184529Y953228D01*
X184514Y953242D01*
X184447Y953317D01*
X179704Y958061D01*
X179704Y972900D01*
X179689Y973018D01*
X179682Y973137D01*
X179669Y973175D01*
X179664Y973216D01*
X179621Y973326D01*
X179584Y973439D01*
X179562Y973474D01*
X179547Y973511D01*
X179478Y973607D01*
X179414Y973708D01*
X179384Y973736D01*
X179361Y973769D01*
X179269Y973845D01*
X179182Y973926D01*
X179147Y973946D01*
X179116Y973971D01*
X179008Y974022D01*
X178904Y974080D01*
X178864Y974090D01*
X178828Y974107D01*
X178711Y974129D01*
X178596Y974159D01*
X178536Y974163D01*
X178516Y974167D01*
X178495Y974165D01*
X178435Y974169D01*
X175194Y974169D01*
X174237Y975126D01*
X174132Y975207D01*
X174031Y975292D01*
X174007Y975304D01*
X173986Y975321D01*
X173864Y975373D01*
X173745Y975431D01*
X173719Y975436D01*
X173694Y975447D01*
X173563Y975468D01*
X173433Y975494D01*
X173407Y975493D01*
X173380Y975497D01*
X173248Y975484D01*
X173116Y975478D01*
X173090Y975470D01*
X173063Y975467D01*
X172939Y975422D01*
X172812Y975383D01*
X172789Y975369D01*
X172764Y975359D01*
X172655Y975285D01*
X172542Y975215D01*
X172523Y975196D01*
X172501Y975181D01*
X172413Y975082D01*
X172322Y974986D01*
X172308Y974963D01*
X172290Y974942D01*
X172230Y974824D01*
X172165Y974709D01*
X172153Y974673D01*
X172146Y974659D01*
X172141Y974638D01*
X172114Y974557D01*
X172088Y974459D01*
X171753Y973880D01*
X171280Y973407D01*
X170701Y973072D01*
X170054Y972899D01*
X166719Y972899D01*
X166719Y979210D01*
X166704Y979328D01*
X166697Y979447D01*
X166684Y979485D01*
X166679Y979525D01*
X166636Y979636D01*
X166599Y979749D01*
X166577Y979783D01*
X166562Y979821D01*
X166493Y979917D01*
X166429Y980018D01*
X166399Y980046D01*
X166376Y980078D01*
X166284Y980154D01*
X166197Y980236D01*
X166162Y980255D01*
X166131Y980281D01*
X166023Y980332D01*
X165919Y980389D01*
X165879Y980399D01*
X165843Y980417D01*
X165726Y980439D01*
X165611Y980469D01*
X165551Y980473D01*
X165531Y980476D01*
X165510Y980475D01*
X165450Y980479D01*
X164259Y980479D01*
X164259Y981670D01*
X164244Y981788D01*
X164237Y981907D01*
X164224Y981945D01*
X164219Y981986D01*
X164175Y982096D01*
X164139Y982209D01*
X164117Y982244D01*
X164102Y982281D01*
X164032Y982377D01*
X163969Y982478D01*
X163939Y982506D01*
X163915Y982539D01*
X163824Y982615D01*
X163737Y982696D01*
X163702Y982716D01*
X163670Y982741D01*
X163563Y982792D01*
X163458Y982850D01*
X163419Y982860D01*
X163383Y982877D01*
X163266Y982899D01*
X163150Y982929D01*
X163090Y982933D01*
X163070Y982937D01*
X163050Y982935D01*
X162990Y982939D01*
X155580Y982939D01*
X155482Y982927D01*
X155383Y982924D01*
X155325Y982907D01*
X155265Y982899D01*
X155173Y982863D01*
X155077Y982835D01*
X155025Y982805D01*
X154969Y982782D01*
X154889Y982724D01*
X154803Y982674D01*
X154728Y982608D01*
X154712Y982596D01*
X154704Y982586D01*
X154683Y982568D01*
X150649Y978534D01*
X143540Y978534D01*
X143422Y978519D01*
X143303Y978512D01*
X143265Y978499D01*
X143224Y978494D01*
X143114Y978451D01*
X143001Y978414D01*
X142966Y978392D01*
X142929Y978377D01*
X142833Y978308D01*
X142732Y978244D01*
X142704Y978214D01*
X142671Y978191D01*
X142595Y978099D01*
X142514Y978012D01*
X142494Y977977D01*
X142469Y977946D01*
X142418Y977838D01*
X142360Y977734D01*
X142350Y977694D01*
X142333Y977658D01*
X142311Y977541D01*
X142281Y977426D01*
X142277Y977366D01*
X142273Y977346D01*
X142275Y977325D01*
X142271Y977265D01*
X142271Y974914D01*
X141526Y974169D01*
X130175Y974169D01*
X130057Y974154D01*
X129938Y974147D01*
X129900Y974134D01*
X129859Y974129D01*
X129749Y974086D01*
X129636Y974049D01*
X129601Y974027D01*
X129564Y974012D01*
X129468Y973943D01*
X129367Y973879D01*
X129339Y973849D01*
X129306Y973826D01*
X129230Y973734D01*
X129149Y973647D01*
X129129Y973612D01*
X129104Y973581D01*
X129053Y973473D01*
X128995Y973369D01*
X128985Y973329D01*
X128968Y973293D01*
X128946Y973176D01*
X128916Y973061D01*
X128912Y973001D01*
X128908Y972981D01*
X128910Y972960D01*
X128906Y972900D01*
X128906Y953815D01*
X128918Y953717D01*
X128921Y953618D01*
X128938Y953560D01*
X128946Y953500D01*
X128982Y953408D01*
X129010Y953312D01*
X129040Y953260D01*
X129063Y953204D01*
X129121Y953124D01*
X129171Y953038D01*
X129237Y952963D01*
X129249Y952947D01*
X129259Y952939D01*
X129277Y952918D01*
X130673Y951522D01*
X130751Y951462D01*
X130823Y951394D01*
X130876Y951365D01*
X130924Y951328D01*
X131015Y951288D01*
X131102Y951240D01*
X131160Y951225D01*
X131216Y951201D01*
X131314Y951186D01*
X131409Y951161D01*
X131509Y951155D01*
X131530Y951151D01*
X131542Y951153D01*
X131570Y951151D01*
X141526Y951151D01*
X142271Y950406D01*
X142271Y948055D01*
X142286Y947937D01*
X142293Y947818D01*
X142306Y947780D01*
X142311Y947739D01*
X142354Y947629D01*
X142391Y947516D01*
X142413Y947481D01*
X142428Y947444D01*
X142497Y947348D01*
X142561Y947247D01*
X142591Y947219D01*
X142614Y947186D01*
X142706Y947110D01*
X142793Y947029D01*
X142828Y947009D01*
X142859Y946984D01*
X142967Y946933D01*
X143071Y946875D01*
X143111Y946865D01*
X143147Y946848D01*
X143264Y946826D01*
X143379Y946796D01*
X143439Y946792D01*
X143459Y946788D01*
X143480Y946790D01*
X143540Y946786D01*
X148545Y946786D01*
X148643Y946798D01*
G37*
%LPC*%
G36*
X127242Y290029D02*
X127242Y290029D01*
X118589Y298682D01*
X118589Y310918D01*
X127242Y319571D01*
X139478Y319571D01*
X148131Y310918D01*
X148131Y298682D01*
X139478Y290029D01*
X127242Y290029D01*
G37*
%LPD*%
%LPC*%
G36*
X33242Y290029D02*
X33242Y290029D01*
X24589Y298682D01*
X24589Y310918D01*
X33242Y319571D01*
X45478Y319571D01*
X54131Y310918D01*
X54131Y298682D01*
X45478Y290029D01*
X33242Y290029D01*
G37*
%LPD*%
%LPC*%
G36*
X28744Y980009D02*
X28744Y980009D01*
X27999Y980754D01*
X27999Y993806D01*
X28744Y994551D01*
X37296Y994551D01*
X38041Y993806D01*
X38041Y991235D01*
X38056Y991117D01*
X38063Y990998D01*
X38076Y990960D01*
X38081Y990919D01*
X38124Y990809D01*
X38161Y990696D01*
X38183Y990661D01*
X38198Y990624D01*
X38267Y990528D01*
X38331Y990427D01*
X38361Y990399D01*
X38384Y990366D01*
X38476Y990290D01*
X38563Y990209D01*
X38598Y990189D01*
X38629Y990164D01*
X38737Y990113D01*
X38841Y990055D01*
X38881Y990045D01*
X38917Y990028D01*
X39034Y990006D01*
X39149Y989976D01*
X39209Y989972D01*
X39229Y989968D01*
X39250Y989970D01*
X39310Y989966D01*
X41865Y989966D01*
X41963Y989978D01*
X42062Y989981D01*
X42120Y989998D01*
X42180Y990006D01*
X42272Y990042D01*
X42368Y990070D01*
X42420Y990100D01*
X42476Y990123D01*
X42556Y990181D01*
X42642Y990231D01*
X42717Y990297D01*
X42733Y990309D01*
X42741Y990319D01*
X42762Y990337D01*
X69131Y1016706D01*
X69204Y1016800D01*
X69282Y1016889D01*
X69301Y1016925D01*
X69326Y1016957D01*
X69373Y1017066D01*
X69427Y1017172D01*
X69436Y1017212D01*
X69452Y1017249D01*
X69471Y1017367D01*
X69497Y1017483D01*
X69495Y1017523D01*
X69502Y1017563D01*
X69491Y1017682D01*
X69487Y1017800D01*
X69476Y1017839D01*
X69472Y1017880D01*
X69432Y1017992D01*
X69399Y1018106D01*
X69378Y1018141D01*
X69364Y1018179D01*
X69297Y1018277D01*
X69237Y1018380D01*
X69197Y1018425D01*
X69186Y1018442D01*
X69170Y1018456D01*
X69131Y1018501D01*
X68325Y1019306D01*
X68325Y1027934D01*
X74426Y1034035D01*
X83054Y1034035D01*
X89155Y1027934D01*
X89155Y1019306D01*
X83054Y1013205D01*
X74426Y1013205D01*
X73621Y1014011D01*
X73527Y1014083D01*
X73437Y1014162D01*
X73401Y1014181D01*
X73369Y1014206D01*
X73260Y1014253D01*
X73154Y1014307D01*
X73115Y1014316D01*
X73078Y1014332D01*
X72960Y1014351D01*
X72844Y1014377D01*
X72804Y1014375D01*
X72764Y1014382D01*
X72645Y1014371D01*
X72526Y1014367D01*
X72487Y1014356D01*
X72447Y1014352D01*
X72335Y1014312D01*
X72221Y1014279D01*
X72186Y1014258D01*
X72148Y1014244D01*
X72049Y1014178D01*
X71947Y1014117D01*
X71901Y1014077D01*
X71884Y1014066D01*
X71871Y1014051D01*
X71826Y1014011D01*
X43969Y986154D01*
X39310Y986154D01*
X39192Y986139D01*
X39073Y986132D01*
X39035Y986119D01*
X38994Y986114D01*
X38884Y986071D01*
X38771Y986034D01*
X38736Y986012D01*
X38699Y985997D01*
X38603Y985928D01*
X38502Y985864D01*
X38474Y985834D01*
X38441Y985811D01*
X38365Y985719D01*
X38284Y985632D01*
X38264Y985597D01*
X38239Y985566D01*
X38188Y985458D01*
X38130Y985354D01*
X38120Y985314D01*
X38103Y985278D01*
X38081Y985161D01*
X38051Y985046D01*
X38047Y984986D01*
X38043Y984966D01*
X38045Y984945D01*
X38041Y984885D01*
X38041Y980754D01*
X37296Y980009D01*
X28744Y980009D01*
G37*
%LPD*%
%LPC*%
G36*
X223474Y63199D02*
X223474Y63199D01*
X218696Y65178D01*
X215038Y68836D01*
X213059Y73614D01*
X213059Y78786D01*
X215038Y83564D01*
X218696Y87222D01*
X223474Y89201D01*
X228646Y89201D01*
X233424Y87222D01*
X237082Y83564D01*
X239061Y78786D01*
X239061Y73614D01*
X237082Y68836D01*
X233424Y65178D01*
X228646Y63199D01*
X223474Y63199D01*
G37*
%LPD*%
%LPC*%
G36*
X71074Y63199D02*
X71074Y63199D01*
X66296Y65178D01*
X62638Y68836D01*
X60659Y73614D01*
X60659Y78786D01*
X62638Y83564D01*
X66296Y87222D01*
X71074Y89201D01*
X76246Y89201D01*
X81024Y87222D01*
X84682Y83564D01*
X86661Y78786D01*
X86661Y73614D01*
X84682Y68836D01*
X81024Y65178D01*
X76246Y63199D01*
X71074Y63199D01*
G37*
%LPD*%
%LPC*%
G36*
X132079Y1026159D02*
X132079Y1026159D01*
X132079Y1046481D01*
X152401Y1046481D01*
X152401Y1026159D01*
X132079Y1026159D01*
G37*
%LPD*%
%LPC*%
G36*
X106679Y1026159D02*
X106679Y1026159D01*
X106679Y1046481D01*
X127001Y1046481D01*
X127001Y1026159D01*
X106679Y1026159D01*
G37*
%LPD*%
%LPC*%
G36*
X229314Y191849D02*
X229314Y191849D01*
X228569Y192594D01*
X228569Y201280D01*
X228557Y201378D01*
X228554Y201477D01*
X228548Y201499D01*
X228547Y201510D01*
X228536Y201544D01*
X228529Y201595D01*
X228493Y201688D01*
X228465Y201783D01*
X228450Y201808D01*
X228449Y201812D01*
X228435Y201835D01*
X228412Y201891D01*
X228354Y201971D01*
X228304Y202057D01*
X228238Y202132D01*
X228226Y202148D01*
X228216Y202156D01*
X228198Y202177D01*
X206949Y223426D01*
X206871Y223486D01*
X206799Y223554D01*
X206746Y223583D01*
X206698Y223620D01*
X206607Y223660D01*
X206521Y223708D01*
X206462Y223723D01*
X206406Y223747D01*
X206308Y223762D01*
X206213Y223787D01*
X206113Y223793D01*
X206092Y223797D01*
X206080Y223795D01*
X206052Y223797D01*
X205617Y223797D01*
X205506Y223783D01*
X205393Y223777D01*
X205348Y223763D01*
X205302Y223757D01*
X205197Y223716D01*
X205090Y223683D01*
X205050Y223658D01*
X205006Y223640D01*
X204915Y223574D01*
X204819Y223515D01*
X204787Y223481D01*
X204749Y223454D01*
X204677Y223367D01*
X204599Y223286D01*
X204576Y223245D01*
X204546Y223209D01*
X204498Y223107D01*
X204443Y223009D01*
X204419Y222940D01*
X204410Y222921D01*
X204407Y222903D01*
X204391Y222857D01*
X204328Y222619D01*
X203993Y222040D01*
X203520Y221567D01*
X202941Y221232D01*
X202294Y221059D01*
X198959Y221059D01*
X198959Y227370D01*
X198944Y227488D01*
X198937Y227607D01*
X198924Y227645D01*
X198919Y227685D01*
X198876Y227796D01*
X198839Y227909D01*
X198817Y227943D01*
X198802Y227981D01*
X198733Y228077D01*
X198669Y228178D01*
X198639Y228206D01*
X198616Y228238D01*
X198524Y228314D01*
X198437Y228396D01*
X198402Y228415D01*
X198371Y228441D01*
X198263Y228492D01*
X198159Y228549D01*
X198119Y228559D01*
X198083Y228577D01*
X197976Y228597D01*
X198006Y228601D01*
X198116Y228645D01*
X198229Y228681D01*
X198264Y228703D01*
X198301Y228718D01*
X198397Y228788D01*
X198498Y228851D01*
X198526Y228881D01*
X198559Y228905D01*
X198635Y228996D01*
X198716Y229083D01*
X198736Y229118D01*
X198761Y229150D01*
X198812Y229257D01*
X198870Y229362D01*
X198880Y229401D01*
X198897Y229437D01*
X198919Y229554D01*
X198949Y229670D01*
X198953Y229730D01*
X198957Y229750D01*
X198955Y229770D01*
X198959Y229830D01*
X198959Y236141D01*
X202294Y236141D01*
X202941Y235968D01*
X203520Y235633D01*
X203993Y235160D01*
X204328Y234581D01*
X204501Y233934D01*
X204501Y232132D01*
X204516Y232014D01*
X204523Y231895D01*
X204536Y231857D01*
X204541Y231816D01*
X204584Y231706D01*
X204621Y231593D01*
X204643Y231558D01*
X204658Y231521D01*
X204727Y231425D01*
X204791Y231324D01*
X204821Y231296D01*
X204844Y231263D01*
X204936Y231187D01*
X205023Y231106D01*
X205058Y231086D01*
X205089Y231061D01*
X205197Y231010D01*
X205301Y230952D01*
X205341Y230942D01*
X205377Y230925D01*
X205494Y230903D01*
X205609Y230873D01*
X205669Y230869D01*
X205689Y230865D01*
X205710Y230867D01*
X205770Y230863D01*
X207203Y230863D01*
X209273Y228793D01*
X209273Y227018D01*
X209285Y226920D01*
X209288Y226821D01*
X209305Y226763D01*
X209313Y226703D01*
X209349Y226610D01*
X209377Y226515D01*
X209407Y226463D01*
X209430Y226407D01*
X209488Y226327D01*
X209538Y226241D01*
X209604Y226166D01*
X209616Y226150D01*
X209626Y226142D01*
X209644Y226121D01*
X231003Y204762D01*
X231081Y204702D01*
X231153Y204634D01*
X231206Y204605D01*
X231254Y204568D01*
X231345Y204528D01*
X231431Y204480D01*
X231490Y204465D01*
X231546Y204441D01*
X231644Y204426D01*
X231739Y204401D01*
X231839Y204395D01*
X231860Y204391D01*
X231872Y204393D01*
X231900Y204391D01*
X241366Y204391D01*
X242111Y203646D01*
X242111Y192594D01*
X241366Y191849D01*
X229314Y191849D01*
G37*
%LPD*%
%LPC*%
G36*
X69346Y21335D02*
X69346Y21335D01*
X63245Y27436D01*
X63245Y36064D01*
X69346Y42165D01*
X77974Y42165D01*
X84075Y36064D01*
X84075Y27436D01*
X77974Y21335D01*
X69346Y21335D01*
G37*
%LPD*%
%LPC*%
G36*
X252226Y1013205D02*
X252226Y1013205D01*
X246125Y1019306D01*
X246125Y1027934D01*
X252226Y1034035D01*
X260854Y1034035D01*
X266955Y1027934D01*
X266955Y1019306D01*
X260854Y1013205D01*
X252226Y1013205D01*
G37*
%LPD*%
%LPC*%
G36*
X74426Y1038605D02*
X74426Y1038605D01*
X68325Y1044706D01*
X68325Y1053334D01*
X74426Y1059435D01*
X83054Y1059435D01*
X89155Y1053334D01*
X89155Y1044706D01*
X83054Y1038605D01*
X74426Y1038605D01*
G37*
%LPD*%
%LPC*%
G36*
X176026Y1038605D02*
X176026Y1038605D01*
X169925Y1044706D01*
X169925Y1053334D01*
X176026Y1059435D01*
X184654Y1059435D01*
X190755Y1053334D01*
X190755Y1044706D01*
X184654Y1038605D01*
X176026Y1038605D01*
G37*
%LPD*%
%LPC*%
G36*
X226826Y1038605D02*
X226826Y1038605D01*
X220725Y1044706D01*
X220725Y1053334D01*
X226826Y1059435D01*
X235454Y1059435D01*
X241555Y1053334D01*
X241555Y1044706D01*
X235454Y1038605D01*
X226826Y1038605D01*
G37*
%LPD*%
%LPC*%
G36*
X252226Y1038605D02*
X252226Y1038605D01*
X246125Y1044706D01*
X246125Y1053334D01*
X252226Y1059435D01*
X260854Y1059435D01*
X266955Y1053334D01*
X266955Y1044706D01*
X260854Y1038605D01*
X252226Y1038605D01*
G37*
%LPD*%
%LPC*%
G36*
X69346Y97535D02*
X69346Y97535D01*
X63245Y103636D01*
X63245Y112264D01*
X69346Y118365D01*
X77974Y118365D01*
X84075Y112264D01*
X84075Y103636D01*
X77974Y97535D01*
X69346Y97535D01*
G37*
%LPD*%
%LPC*%
G36*
X221746Y97535D02*
X221746Y97535D01*
X215645Y103636D01*
X215645Y112264D01*
X221746Y118365D01*
X230374Y118365D01*
X236475Y112264D01*
X236475Y103636D01*
X230374Y97535D01*
X221746Y97535D01*
G37*
%LPD*%
%LPC*%
G36*
X147788Y837945D02*
X147788Y837945D01*
X143961Y839531D01*
X141031Y842461D01*
X139445Y846288D01*
X139445Y850432D01*
X141031Y854259D01*
X143961Y857189D01*
X147788Y858775D01*
X151932Y858775D01*
X155759Y857189D01*
X158689Y854259D01*
X160275Y850432D01*
X160275Y846288D01*
X158689Y842461D01*
X155759Y839531D01*
X151932Y837945D01*
X147788Y837945D01*
G37*
%LPD*%
%LPC*%
G36*
X122388Y837945D02*
X122388Y837945D01*
X118561Y839531D01*
X115631Y842461D01*
X114045Y846288D01*
X114045Y850432D01*
X115631Y854259D01*
X118561Y857189D01*
X122388Y858775D01*
X126532Y858775D01*
X130359Y857189D01*
X133289Y854259D01*
X134875Y850432D01*
X134875Y846288D01*
X133289Y842461D01*
X130359Y839531D01*
X126532Y837945D01*
X122388Y837945D01*
G37*
%LPD*%
%LPC*%
G36*
X173188Y837945D02*
X173188Y837945D01*
X169361Y839531D01*
X166431Y842461D01*
X164845Y846288D01*
X164845Y850432D01*
X166431Y854259D01*
X169361Y857189D01*
X173188Y858775D01*
X177332Y858775D01*
X181159Y857189D01*
X184089Y854259D01*
X185675Y850432D01*
X185675Y846288D01*
X184089Y842461D01*
X181159Y839531D01*
X177332Y837945D01*
X173188Y837945D01*
G37*
%LPD*%
G36*
X208973Y281997D02*
X208973Y281997D01*
X209112Y282001D01*
X209132Y282007D01*
X209152Y282008D01*
X209284Y282051D01*
X209418Y282090D01*
X209435Y282100D01*
X209454Y282106D01*
X209572Y282181D01*
X209692Y282251D01*
X209713Y282270D01*
X209723Y282276D01*
X209737Y282291D01*
X209812Y282358D01*
X222513Y295058D01*
X222573Y295136D01*
X222641Y295208D01*
X222670Y295261D01*
X222707Y295309D01*
X222747Y295400D01*
X222795Y295487D01*
X222810Y295545D01*
X222834Y295601D01*
X222849Y295699D01*
X222874Y295794D01*
X222880Y295894D01*
X222884Y295915D01*
X222882Y295927D01*
X222884Y295955D01*
X222884Y297990D01*
X222869Y298108D01*
X222862Y298227D01*
X222849Y298265D01*
X222844Y298306D01*
X222801Y298416D01*
X222764Y298529D01*
X222742Y298564D01*
X222727Y298601D01*
X222658Y298697D01*
X222594Y298798D01*
X222564Y298826D01*
X222541Y298859D01*
X222449Y298935D01*
X222362Y299016D01*
X222327Y299036D01*
X222296Y299061D01*
X222188Y299112D01*
X222084Y299170D01*
X222044Y299180D01*
X222008Y299197D01*
X221891Y299219D01*
X221776Y299249D01*
X221716Y299253D01*
X221696Y299257D01*
X221675Y299255D01*
X221615Y299259D01*
X221014Y299259D01*
X219899Y300373D01*
X219795Y300455D01*
X219694Y300540D01*
X219669Y300552D01*
X219648Y300568D01*
X219527Y300621D01*
X219408Y300679D01*
X219381Y300684D01*
X219356Y300695D01*
X219225Y300716D01*
X219096Y300742D01*
X219069Y300740D01*
X219042Y300745D01*
X218910Y300732D01*
X218778Y300725D01*
X218753Y300717D01*
X218726Y300715D01*
X218601Y300670D01*
X218475Y300631D01*
X218452Y300616D01*
X218426Y300607D01*
X218317Y300533D01*
X218204Y300463D01*
X218186Y300444D01*
X218163Y300429D01*
X218075Y300329D01*
X217984Y300234D01*
X217971Y300210D01*
X217953Y300190D01*
X217892Y300072D01*
X217827Y299957D01*
X217815Y299921D01*
X217808Y299907D01*
X217803Y299886D01*
X217776Y299804D01*
X217708Y299549D01*
X217373Y298970D01*
X216900Y298497D01*
X216321Y298162D01*
X215674Y297989D01*
X213714Y297989D01*
X213714Y307815D01*
X213699Y307933D01*
X213692Y308052D01*
X213679Y308090D01*
X213674Y308130D01*
X213631Y308241D01*
X213594Y308354D01*
X213572Y308388D01*
X213557Y308426D01*
X213488Y308522D01*
X213424Y308623D01*
X213394Y308651D01*
X213371Y308683D01*
X213279Y308759D01*
X213192Y308841D01*
X213157Y308860D01*
X213126Y308886D01*
X213018Y308937D01*
X212914Y308994D01*
X212874Y309004D01*
X212838Y309022D01*
X212721Y309044D01*
X212606Y309074D01*
X212546Y309078D01*
X212526Y309081D01*
X212505Y309080D01*
X212445Y309084D01*
X211735Y309084D01*
X211617Y309069D01*
X211498Y309062D01*
X211460Y309049D01*
X211419Y309044D01*
X211309Y309000D01*
X211196Y308964D01*
X211161Y308942D01*
X211124Y308927D01*
X211027Y308857D01*
X210927Y308794D01*
X210899Y308764D01*
X210866Y308740D01*
X210790Y308649D01*
X210709Y308562D01*
X210689Y308527D01*
X210664Y308495D01*
X210613Y308388D01*
X210555Y308283D01*
X210545Y308244D01*
X210528Y308208D01*
X210506Y308091D01*
X210476Y307975D01*
X210472Y307915D01*
X210468Y307895D01*
X210470Y307875D01*
X210466Y307815D01*
X210466Y297989D01*
X208915Y297989D01*
X208797Y297974D01*
X208678Y297967D01*
X208640Y297954D01*
X208599Y297949D01*
X208489Y297906D01*
X208376Y297869D01*
X208341Y297847D01*
X208304Y297832D01*
X208208Y297763D01*
X208107Y297699D01*
X208079Y297669D01*
X208046Y297646D01*
X207970Y297554D01*
X207889Y297467D01*
X207869Y297432D01*
X207844Y297401D01*
X207793Y297293D01*
X207735Y297189D01*
X207725Y297149D01*
X207708Y297113D01*
X207686Y296996D01*
X207656Y296881D01*
X207652Y296821D01*
X207648Y296801D01*
X207650Y296780D01*
X207646Y296720D01*
X207646Y283255D01*
X207663Y283118D01*
X207676Y282979D01*
X207683Y282960D01*
X207686Y282940D01*
X207737Y282811D01*
X207784Y282679D01*
X207795Y282663D01*
X207803Y282644D01*
X207884Y282532D01*
X207962Y282416D01*
X207978Y282403D01*
X207989Y282387D01*
X208097Y282298D01*
X208201Y282206D01*
X208219Y282197D01*
X208234Y282184D01*
X208360Y282124D01*
X208484Y282061D01*
X208504Y282057D01*
X208522Y282048D01*
X208658Y282022D01*
X208794Y281992D01*
X208815Y281992D01*
X208834Y281988D01*
X208973Y281997D01*
G37*
%LPC*%
G36*
X58419Y856379D02*
X58419Y856379D01*
X58419Y872381D01*
X64214Y872381D01*
X64861Y872208D01*
X65440Y871873D01*
X65913Y871400D01*
X66248Y870821D01*
X66421Y870174D01*
X66421Y856379D01*
X58419Y856379D01*
G37*
%LPD*%
%LPC*%
G36*
X58419Y835299D02*
X58419Y835299D01*
X58419Y851301D01*
X66421Y851301D01*
X66421Y837506D01*
X66248Y836859D01*
X65913Y836280D01*
X65440Y835807D01*
X64861Y835472D01*
X64214Y835299D01*
X58419Y835299D01*
G37*
%LPD*%
%LPC*%
G36*
X238379Y912259D02*
X238379Y912259D01*
X238379Y926054D01*
X238552Y926701D01*
X238887Y927280D01*
X239360Y927753D01*
X239939Y928088D01*
X240586Y928261D01*
X246381Y928261D01*
X246381Y912259D01*
X238379Y912259D01*
G37*
%LPD*%
%LPC*%
G36*
X45339Y856379D02*
X45339Y856379D01*
X45339Y870174D01*
X45512Y870821D01*
X45847Y871400D01*
X46320Y871873D01*
X46899Y872208D01*
X47546Y872381D01*
X53341Y872381D01*
X53341Y856379D01*
X45339Y856379D01*
G37*
%LPD*%
%LPC*%
G36*
X47546Y835299D02*
X47546Y835299D01*
X46899Y835472D01*
X46320Y835807D01*
X45847Y836280D01*
X45512Y836859D01*
X45339Y837506D01*
X45339Y851301D01*
X53341Y851301D01*
X53341Y835299D01*
X47546Y835299D01*
G37*
%LPD*%
%LPC*%
G36*
X132079Y1051559D02*
X132079Y1051559D01*
X132079Y1060705D01*
X134380Y1060705D01*
X141343Y1053742D01*
X141437Y1053669D01*
X141526Y1053590D01*
X141562Y1053572D01*
X141594Y1053547D01*
X141703Y1053500D01*
X141809Y1053446D01*
X141848Y1053437D01*
X141886Y1053421D01*
X142003Y1053402D01*
X142119Y1053376D01*
X142160Y1053377D01*
X142200Y1053371D01*
X142318Y1053382D01*
X142437Y1053386D01*
X142476Y1053397D01*
X142516Y1053401D01*
X142629Y1053441D01*
X142743Y1053474D01*
X142778Y1053495D01*
X142816Y1053508D01*
X142914Y1053575D01*
X143017Y1053636D01*
X143062Y1053676D01*
X143079Y1053687D01*
X143092Y1053702D01*
X143138Y1053742D01*
X150100Y1060705D01*
X152401Y1060705D01*
X152401Y1051559D01*
X132079Y1051559D01*
G37*
%LPD*%
%LPC*%
G36*
X106679Y1051559D02*
X106679Y1051559D01*
X106679Y1060705D01*
X108980Y1060705D01*
X115943Y1053742D01*
X116037Y1053669D01*
X116126Y1053590D01*
X116162Y1053572D01*
X116194Y1053547D01*
X116303Y1053500D01*
X116409Y1053446D01*
X116448Y1053437D01*
X116486Y1053421D01*
X116603Y1053402D01*
X116719Y1053376D01*
X116760Y1053377D01*
X116800Y1053371D01*
X116918Y1053382D01*
X117037Y1053386D01*
X117076Y1053397D01*
X117116Y1053401D01*
X117229Y1053441D01*
X117343Y1053474D01*
X117378Y1053495D01*
X117416Y1053508D01*
X117514Y1053575D01*
X117617Y1053636D01*
X117662Y1053676D01*
X117679Y1053687D01*
X117692Y1053702D01*
X117738Y1053742D01*
X124700Y1060705D01*
X127001Y1060705D01*
X127001Y1051559D01*
X106679Y1051559D01*
G37*
%LPD*%
%LPC*%
G36*
X157479Y1026159D02*
X157479Y1026159D01*
X157479Y1046481D01*
X166625Y1046481D01*
X166625Y1044180D01*
X159662Y1037218D01*
X159589Y1037123D01*
X159510Y1037034D01*
X159492Y1036998D01*
X159467Y1036966D01*
X159420Y1036857D01*
X159366Y1036751D01*
X159357Y1036712D01*
X159341Y1036674D01*
X159322Y1036557D01*
X159296Y1036441D01*
X159297Y1036400D01*
X159291Y1036360D01*
X159302Y1036242D01*
X159306Y1036123D01*
X159317Y1036084D01*
X159321Y1036044D01*
X159361Y1035931D01*
X159394Y1035817D01*
X159415Y1035783D01*
X159428Y1035744D01*
X159495Y1035646D01*
X159556Y1035543D01*
X159596Y1035498D01*
X159607Y1035481D01*
X159622Y1035468D01*
X159662Y1035423D01*
X166625Y1028460D01*
X166625Y1026159D01*
X157479Y1026159D01*
G37*
%LPD*%
%LPC*%
G36*
X106679Y1011935D02*
X106679Y1011935D01*
X106679Y1021081D01*
X127001Y1021081D01*
X127001Y1011935D01*
X124700Y1011935D01*
X117738Y1018898D01*
X117643Y1018971D01*
X117554Y1019050D01*
X117518Y1019068D01*
X117486Y1019093D01*
X117377Y1019140D01*
X117271Y1019194D01*
X117232Y1019203D01*
X117194Y1019219D01*
X117077Y1019238D01*
X116961Y1019264D01*
X116920Y1019263D01*
X116880Y1019269D01*
X116762Y1019258D01*
X116643Y1019254D01*
X116604Y1019243D01*
X116564Y1019239D01*
X116451Y1019199D01*
X116337Y1019166D01*
X116303Y1019145D01*
X116264Y1019132D01*
X116166Y1019065D01*
X116063Y1019004D01*
X116018Y1018964D01*
X116001Y1018953D01*
X115988Y1018938D01*
X115943Y1018898D01*
X108980Y1011935D01*
X106679Y1011935D01*
G37*
%LPD*%
%LPC*%
G36*
X92455Y1026159D02*
X92455Y1026159D01*
X92455Y1028460D01*
X99418Y1035422D01*
X99491Y1035517D01*
X99570Y1035606D01*
X99588Y1035642D01*
X99613Y1035674D01*
X99660Y1035783D01*
X99714Y1035889D01*
X99723Y1035928D01*
X99739Y1035966D01*
X99758Y1036083D01*
X99784Y1036199D01*
X99783Y1036240D01*
X99789Y1036280D01*
X99778Y1036398D01*
X99774Y1036517D01*
X99763Y1036556D01*
X99759Y1036596D01*
X99719Y1036709D01*
X99686Y1036823D01*
X99665Y1036857D01*
X99652Y1036896D01*
X99585Y1036994D01*
X99524Y1037097D01*
X99484Y1037142D01*
X99473Y1037159D01*
X99458Y1037172D01*
X99418Y1037217D01*
X92455Y1044180D01*
X92455Y1046481D01*
X101601Y1046481D01*
X101601Y1026159D01*
X92455Y1026159D01*
G37*
%LPD*%
%LPC*%
G36*
X49421Y608139D02*
X49421Y608139D01*
X49421Y615372D01*
X49594Y616019D01*
X49929Y616598D01*
X50402Y617071D01*
X50981Y617406D01*
X51628Y617579D01*
X58861Y617579D01*
X58861Y608139D01*
X49421Y608139D01*
G37*
%LPD*%
%LPC*%
G36*
X51628Y593701D02*
X51628Y593701D01*
X50981Y593874D01*
X50402Y594209D01*
X49929Y594682D01*
X49594Y595261D01*
X49421Y595908D01*
X49421Y603141D01*
X58861Y603141D01*
X58861Y593701D01*
X51628Y593701D01*
G37*
%LPD*%
%LPC*%
G36*
X157479Y1051559D02*
X157479Y1051559D01*
X157479Y1060705D01*
X159780Y1060705D01*
X166625Y1053860D01*
X166625Y1051559D01*
X157479Y1051559D01*
G37*
%LPD*%
%LPC*%
G36*
X76199Y135889D02*
X76199Y135889D01*
X76199Y145035D01*
X78500Y145035D01*
X85345Y138190D01*
X85345Y135889D01*
X76199Y135889D01*
G37*
%LPD*%
%LPC*%
G36*
X228599Y135889D02*
X228599Y135889D01*
X228599Y145035D01*
X230900Y145035D01*
X237745Y138190D01*
X237745Y135889D01*
X228599Y135889D01*
G37*
%LPD*%
%LPC*%
G36*
X76199Y121665D02*
X76199Y121665D01*
X76199Y130811D01*
X85345Y130811D01*
X85345Y128510D01*
X78500Y121665D01*
X76199Y121665D01*
G37*
%LPD*%
%LPC*%
G36*
X61975Y135889D02*
X61975Y135889D01*
X61975Y138190D01*
X68820Y145035D01*
X71121Y145035D01*
X71121Y135889D01*
X61975Y135889D01*
G37*
%LPD*%
%LPC*%
G36*
X92455Y1051559D02*
X92455Y1051559D01*
X92455Y1053860D01*
X99300Y1060705D01*
X101601Y1060705D01*
X101601Y1051559D01*
X92455Y1051559D01*
G37*
%LPD*%
%LPC*%
G36*
X228599Y121665D02*
X228599Y121665D01*
X228599Y130811D01*
X237745Y130811D01*
X237745Y128510D01*
X230900Y121665D01*
X228599Y121665D01*
G37*
%LPD*%
%LPC*%
G36*
X214375Y135889D02*
X214375Y135889D01*
X214375Y138190D01*
X221220Y145035D01*
X223521Y145035D01*
X223521Y135889D01*
X214375Y135889D01*
G37*
%LPD*%
%LPC*%
G36*
X221220Y121665D02*
X221220Y121665D01*
X214375Y128510D01*
X214375Y130811D01*
X223521Y130811D01*
X223521Y121665D01*
X221220Y121665D01*
G37*
%LPD*%
%LPC*%
G36*
X68820Y121665D02*
X68820Y121665D01*
X61975Y128510D01*
X61975Y130811D01*
X71121Y130811D01*
X71121Y121665D01*
X68820Y121665D01*
G37*
%LPD*%
%LPC*%
G36*
X99300Y1011935D02*
X99300Y1011935D01*
X92455Y1018780D01*
X92455Y1021081D01*
X101601Y1021081D01*
X101601Y1011935D01*
X99300Y1011935D01*
G37*
%LPD*%
%LPC*%
G36*
X193599Y364014D02*
X193599Y364014D01*
X193599Y370364D01*
X193772Y371011D01*
X194107Y371590D01*
X194580Y372063D01*
X195159Y372398D01*
X195806Y372571D01*
X197766Y372571D01*
X197766Y364014D01*
X193599Y364014D01*
G37*
%LPD*%
%LPC*%
G36*
X195806Y352209D02*
X195806Y352209D01*
X195159Y352382D01*
X194580Y352717D01*
X194107Y353190D01*
X193772Y353769D01*
X193599Y354416D01*
X193599Y360766D01*
X197766Y360766D01*
X197766Y352209D01*
X195806Y352209D01*
G37*
%LPD*%
%LPC*%
G36*
X155969Y618109D02*
X155969Y618109D01*
X155969Y619944D01*
X156142Y620591D01*
X156477Y621170D01*
X156950Y621643D01*
X157529Y621978D01*
X158176Y622151D01*
X163261Y622151D01*
X163261Y618109D01*
X155969Y618109D01*
G37*
%LPD*%
%LPC*%
G36*
X158176Y611069D02*
X158176Y611069D01*
X157529Y611242D01*
X156950Y611577D01*
X156477Y612050D01*
X156142Y612629D01*
X155969Y613276D01*
X155969Y615111D01*
X163261Y615111D01*
X163261Y611069D01*
X158176Y611069D01*
G37*
%LPD*%
%LPC*%
G36*
X137999Y525739D02*
X137999Y525739D01*
X137999Y530781D01*
X141334Y530781D01*
X141981Y530608D01*
X142560Y530273D01*
X143033Y529800D01*
X143368Y529221D01*
X143541Y528574D01*
X143541Y525739D01*
X137999Y525739D01*
G37*
%LPD*%
%LPC*%
G36*
X160859Y43139D02*
X160859Y43139D01*
X160859Y48181D01*
X164194Y48181D01*
X164841Y48008D01*
X165420Y47673D01*
X165893Y47200D01*
X166228Y46621D01*
X166401Y45974D01*
X166401Y43139D01*
X160859Y43139D01*
G37*
%LPD*%
%LPC*%
G36*
X183719Y911819D02*
X183719Y911819D01*
X183719Y916861D01*
X187054Y916861D01*
X187701Y916688D01*
X188280Y916353D01*
X188753Y915880D01*
X189088Y915301D01*
X189261Y914654D01*
X189261Y911819D01*
X183719Y911819D01*
G37*
%LPD*%
%LPC*%
G36*
X206579Y690839D02*
X206579Y690839D01*
X206579Y695881D01*
X209914Y695881D01*
X210561Y695708D01*
X211140Y695373D01*
X211613Y694900D01*
X211948Y694321D01*
X212121Y693674D01*
X212121Y690839D01*
X206579Y690839D01*
G37*
%LPD*%
%LPC*%
G36*
X92279Y525739D02*
X92279Y525739D01*
X92279Y530781D01*
X95614Y530781D01*
X96261Y530608D01*
X96840Y530273D01*
X97313Y529800D01*
X97648Y529221D01*
X97821Y528574D01*
X97821Y525739D01*
X92279Y525739D01*
G37*
%LPD*%
%LPC*%
G36*
X92279Y561299D02*
X92279Y561299D01*
X92279Y566341D01*
X95614Y566341D01*
X96261Y566168D01*
X96840Y565833D01*
X97313Y565360D01*
X97648Y564781D01*
X97821Y564134D01*
X97821Y561299D01*
X92279Y561299D01*
G37*
%LPD*%
%LPC*%
G36*
X183719Y901779D02*
X183719Y901779D01*
X183719Y906821D01*
X189261Y906821D01*
X189261Y903986D01*
X189088Y903339D01*
X188753Y902760D01*
X188280Y902287D01*
X187701Y901952D01*
X187054Y901779D01*
X183719Y901779D01*
G37*
%LPD*%
%LPC*%
G36*
X137999Y901779D02*
X137999Y901779D01*
X137999Y906821D01*
X143541Y906821D01*
X143541Y903986D01*
X143368Y903339D01*
X143033Y902760D01*
X142560Y902287D01*
X141981Y901952D01*
X141334Y901779D01*
X137999Y901779D01*
G37*
%LPD*%
%LPC*%
G36*
X137999Y515699D02*
X137999Y515699D01*
X137999Y520741D01*
X143541Y520741D01*
X143541Y517906D01*
X143368Y517259D01*
X143033Y516680D01*
X142560Y516207D01*
X141981Y515872D01*
X141334Y515699D01*
X137999Y515699D01*
G37*
%LPD*%
%LPC*%
G36*
X92279Y551259D02*
X92279Y551259D01*
X92279Y556301D01*
X97821Y556301D01*
X97821Y553466D01*
X97648Y552819D01*
X97313Y552240D01*
X96840Y551767D01*
X96261Y551432D01*
X95614Y551259D01*
X92279Y551259D01*
G37*
%LPD*%
%LPC*%
G36*
X112666Y937339D02*
X112666Y937339D01*
X112019Y937512D01*
X111440Y937847D01*
X110967Y938320D01*
X110632Y938899D01*
X110459Y939546D01*
X110459Y942381D01*
X116001Y942381D01*
X116001Y937339D01*
X112666Y937339D01*
G37*
%LPD*%
%LPC*%
G36*
X158386Y972899D02*
X158386Y972899D01*
X157739Y973072D01*
X157160Y973407D01*
X156687Y973880D01*
X156352Y974459D01*
X156179Y975106D01*
X156179Y977941D01*
X161721Y977941D01*
X161721Y972899D01*
X158386Y972899D01*
G37*
%LPD*%
%LPC*%
G36*
X158386Y937339D02*
X158386Y937339D01*
X157739Y937512D01*
X157160Y937847D01*
X156687Y938320D01*
X156352Y938899D01*
X156179Y939546D01*
X156179Y942381D01*
X161721Y942381D01*
X161721Y937339D01*
X158386Y937339D01*
G37*
%LPD*%
%LPC*%
G36*
X112666Y972899D02*
X112666Y972899D01*
X112019Y973072D01*
X111440Y973407D01*
X110967Y973880D01*
X110632Y974459D01*
X110459Y975106D01*
X110459Y977941D01*
X116001Y977941D01*
X116001Y972899D01*
X112666Y972899D01*
G37*
%LPD*%
%LPC*%
G36*
X226059Y133349D02*
X226059Y133349D01*
X226059Y133351D01*
X226061Y133351D01*
X226061Y133349D01*
X226059Y133349D01*
G37*
%LPD*%
%LPC*%
G36*
X104139Y1049019D02*
X104139Y1049019D01*
X104139Y1049021D01*
X104141Y1049021D01*
X104141Y1049019D01*
X104139Y1049019D01*
G37*
%LPD*%
%LPC*%
G36*
X73659Y133349D02*
X73659Y133349D01*
X73659Y133351D01*
X73661Y133351D01*
X73661Y133349D01*
X73659Y133349D01*
G37*
%LPD*%
%LPC*%
G36*
X104139Y1023619D02*
X104139Y1023619D01*
X104139Y1023621D01*
X104141Y1023621D01*
X104141Y1023619D01*
X104139Y1023619D01*
G37*
%LPD*%
%LPC*%
G36*
X129539Y1023619D02*
X129539Y1023619D01*
X129539Y1023621D01*
X129541Y1023621D01*
X129541Y1023619D01*
X129539Y1023619D01*
G37*
%LPD*%
%LPC*%
G36*
X129539Y1049019D02*
X129539Y1049019D01*
X129539Y1049021D01*
X129541Y1049021D01*
X129541Y1049019D01*
X129539Y1049019D01*
G37*
%LPD*%
%LPC*%
G36*
X154939Y1049019D02*
X154939Y1049019D01*
X154939Y1049021D01*
X154941Y1049021D01*
X154941Y1049019D01*
X154939Y1049019D01*
G37*
%LPD*%
%LPC*%
G36*
X55879Y853839D02*
X55879Y853839D01*
X55879Y853841D01*
X55881Y853841D01*
X55881Y853839D01*
X55879Y853839D01*
G37*
%LPD*%
D10*
X73660Y133350D03*
X73660Y107950D03*
X73660Y31750D03*
X226060Y133350D03*
X226060Y107950D03*
X226060Y31750D03*
D11*
X53340Y431800D03*
X78740Y431800D03*
X104140Y431800D03*
D10*
X256540Y1023620D03*
X256540Y1049020D03*
X231140Y1023620D03*
X231140Y1049020D03*
X205740Y1023620D03*
X205740Y1049020D03*
X180340Y1023620D03*
X180340Y1049020D03*
X154940Y1023620D03*
X154940Y1049020D03*
X129540Y1023620D03*
X129540Y1049020D03*
X104140Y1023620D03*
X104140Y1049020D03*
X78740Y1023620D03*
X78740Y1049020D03*
D12*
X20930Y551520D03*
X40030Y551520D03*
X30480Y530520D03*
D13*
X124460Y848360D03*
X149860Y848360D03*
X175260Y848360D03*
D14*
X237490Y308170D03*
X224790Y308170D03*
X212090Y308170D03*
X199390Y308170D03*
X199390Y362390D03*
X212090Y362390D03*
X224790Y362390D03*
X237490Y362390D03*
D15*
X248920Y836840D03*
X248920Y793840D03*
D16*
X248920Y959720D03*
X248920Y909720D03*
X55880Y853840D03*
X55880Y903840D03*
D17*
X111360Y605640D03*
X86360Y605640D03*
X61360Y605640D03*
D18*
X133360Y675640D03*
X39360Y675640D03*
D19*
X204080Y726440D03*
X187080Y726440D03*
D20*
X81280Y953280D03*
X81280Y987280D03*
X33020Y987280D03*
X33020Y953280D03*
D19*
X181220Y980440D03*
X164220Y980440D03*
X135500Y980440D03*
X118500Y980440D03*
X181220Y944880D03*
X164220Y944880D03*
X135500Y944880D03*
X118500Y944880D03*
X181220Y909320D03*
X164220Y909320D03*
X135500Y909320D03*
X118500Y909320D03*
D17*
X238360Y420220D03*
X213360Y420220D03*
X188360Y420220D03*
D18*
X260360Y490220D03*
X166360Y490220D03*
D17*
X111360Y234800D03*
X86360Y234800D03*
X61360Y234800D03*
D18*
X133360Y304800D03*
X39360Y304800D03*
D21*
X226060Y640080D03*
X251460Y640080D03*
D19*
X252340Y726440D03*
X235340Y726440D03*
D22*
X164760Y597510D03*
X164760Y616610D03*
X185760Y607060D03*
D19*
X204080Y688340D03*
X187080Y688340D03*
X89780Y558800D03*
X72780Y558800D03*
X72780Y523240D03*
X89780Y523240D03*
X252340Y228600D03*
X235340Y228600D03*
X252340Y259080D03*
X235340Y259080D03*
X252340Y198120D03*
X235340Y198120D03*
X135500Y558800D03*
X118500Y558800D03*
X135500Y523240D03*
X118500Y523240D03*
X196460Y259080D03*
X179460Y259080D03*
X196460Y228600D03*
X179460Y228600D03*
X196460Y198120D03*
X179460Y198120D03*
X196460Y167640D03*
X179460Y167640D03*
X158360Y111760D03*
X141360Y111760D03*
X158360Y76200D03*
X141360Y76200D03*
X158360Y40640D03*
X141360Y40640D03*
D23*
X217000Y294000D03*
X135000Y501000D03*
X252000Y877000D03*
X152000Y963000D03*
D24*
X149860Y980440D02*
X135500Y980440D01*
X149860Y980440D02*
X157480Y988060D01*
X172720Y988060D01*
X180340Y980440D01*
X181220Y980440D01*
X172720Y988060D02*
X172720Y990600D01*
X205740Y1023620D01*
X236220Y822960D02*
X236220Y726440D01*
X236220Y822960D02*
X248920Y835660D01*
X236220Y726440D02*
X235340Y726440D01*
X248920Y835660D02*
X248920Y836840D01*
X104140Y495300D02*
X104140Y431800D01*
X104140Y495300D02*
X127000Y518160D01*
X127000Y563880D01*
X154940Y591820D01*
X171450Y591820D01*
X176530Y596900D01*
X176530Y646430D01*
X234950Y704850D01*
X234950Y726440D01*
X235340Y726440D01*
X181610Y958850D02*
X181610Y980440D01*
X181610Y958850D02*
X238760Y901700D01*
X238760Y847090D01*
X248920Y836930D01*
X181610Y980440D02*
X181220Y980440D01*
X248920Y836930D02*
X248920Y836840D01*
X196850Y259080D02*
X196850Y251460D01*
X198120Y250190D01*
X196850Y259080D02*
X196460Y259080D01*
X21590Y463550D02*
X21590Y551180D01*
X21590Y463550D02*
X53340Y431800D01*
X21590Y551180D02*
X20930Y551520D01*
D25*
X198120Y250190D03*
D24*
X200660Y726440D02*
X204080Y726440D01*
X200660Y726440D02*
X193040Y734060D01*
X180340Y734060D01*
X149860Y703580D01*
X149860Y669290D01*
X86360Y605790D01*
X86360Y605640D01*
X81280Y988060D02*
X125730Y988060D01*
X149860Y1012190D01*
X168910Y1012190D01*
X180340Y1023620D01*
X81280Y988060D02*
X81280Y987280D01*
X43180Y988060D02*
X33020Y988060D01*
X43180Y988060D02*
X78740Y1023620D01*
X33020Y988060D02*
X33020Y987280D01*
X135500Y944880D02*
X149860Y944880D01*
X157480Y952500D01*
X172720Y952500D01*
X180340Y944880D01*
X181220Y944880D01*
X127000Y952500D02*
X81280Y952500D01*
X127000Y952500D02*
X134620Y944880D01*
X81280Y952500D02*
X81280Y953280D01*
X134620Y944880D02*
X135500Y944880D01*
X237490Y393700D02*
X237490Y362390D01*
X237490Y393700D02*
X252730Y408940D01*
X252730Y474980D01*
X243840Y483870D01*
X243840Y615950D01*
X262890Y635000D01*
X262890Y944880D01*
X248920Y958850D01*
X248920Y959720D01*
X127000Y952500D02*
X127000Y985520D01*
X151130Y1009650D01*
X182880Y1009650D01*
X194310Y1021080D01*
X194310Y1028700D01*
X200660Y1035050D01*
X210820Y1035050D01*
X219710Y1026160D01*
X219710Y989330D01*
X248920Y960120D01*
X248920Y959720D01*
X121920Y909320D02*
X118500Y909320D01*
X121920Y909320D02*
X129540Y916940D01*
X156210Y916940D01*
X163830Y909320D01*
X164220Y909320D01*
X33020Y927100D02*
X33020Y953280D01*
X33020Y927100D02*
X55880Y904240D01*
X199390Y323850D02*
X199390Y308170D01*
X199390Y323850D02*
X25400Y497840D01*
X25400Y543560D01*
X26670Y544830D01*
X26670Y665480D01*
X22860Y669290D01*
X22860Y869950D01*
X55880Y902970D01*
X55880Y903840D01*
X60960Y909320D02*
X118500Y909320D01*
X60960Y909320D02*
X55880Y904240D01*
X55880Y903840D01*
X251460Y726440D02*
X251460Y665480D01*
X226060Y640080D01*
X251460Y726440D02*
X252340Y726440D01*
X218440Y607060D02*
X185760Y607060D01*
X218440Y607060D02*
X251460Y640080D01*
X251460Y250190D02*
X251460Y228600D01*
X195580Y680720D02*
X187960Y688340D01*
X251460Y228600D02*
X252340Y228600D01*
X187960Y688340D02*
X187080Y688340D01*
X186690Y688340D02*
X186690Y726440D01*
X187080Y726440D01*
X187080Y688340D02*
X186690Y688340D01*
D25*
X251460Y250190D03*
X195580Y680720D03*
D24*
X72390Y558800D02*
X72390Y551180D01*
X72390Y523240D01*
X72780Y523240D01*
X72780Y558800D02*
X72390Y558800D01*
X72390Y551180D02*
X40640Y551180D01*
X40030Y551520D01*
X158750Y147320D02*
X158750Y111760D01*
X158750Y147320D02*
X179070Y167640D01*
X158750Y111760D02*
X158360Y111760D01*
X179070Y167640D02*
X179460Y167640D01*
X237490Y288290D02*
X237490Y308170D01*
X237490Y288290D02*
X260350Y265430D01*
X260350Y191770D01*
X228600Y160020D01*
X187960Y160020D01*
X180340Y167640D01*
X179460Y167640D01*
X64770Y233680D02*
X62230Y233680D01*
X64770Y233680D02*
X151130Y147320D01*
X158750Y147320D01*
X62230Y233680D02*
X61360Y234800D01*
X180340Y198120D02*
X180340Y182880D01*
X195580Y167640D01*
X180340Y198120D02*
X179460Y198120D01*
X195580Y167640D02*
X196460Y167640D01*
X224790Y294640D02*
X224790Y308170D01*
X224790Y294640D02*
X198120Y267970D01*
X179460Y198120D02*
X147320Y198120D01*
X111760Y233680D01*
X111360Y234800D01*
D25*
X198120Y267970D03*
D24*
X205740Y227330D02*
X234950Y198120D01*
X235340Y198120D01*
X135890Y543560D02*
X135890Y558800D01*
X135890Y543560D02*
X187960Y491490D01*
X187960Y431800D02*
X187960Y420370D01*
X187960Y431800D02*
X187960Y491490D01*
X135890Y558800D02*
X135500Y558800D01*
X187960Y420370D02*
X188360Y420220D01*
X224790Y384810D02*
X224790Y362390D01*
X224790Y384810D02*
X250190Y410210D01*
X250190Y430530D01*
X248920Y431800D01*
X187960Y431800D01*
D25*
X205740Y227330D03*
D24*
X236220Y228600D02*
X236220Y243840D01*
X251460Y259080D01*
X252340Y259080D01*
X251460Y213360D02*
X251460Y198120D01*
X251460Y213360D02*
X236220Y228600D01*
X251460Y198120D02*
X252340Y198120D01*
X236220Y228600D02*
X235340Y228600D01*
X212090Y322580D02*
X212090Y362390D01*
X212090Y322580D02*
X205740Y316230D01*
X205740Y281940D01*
X187960Y264160D01*
X187960Y254000D01*
X198120Y243840D01*
X236220Y243840D01*
X234950Y259080D02*
X234950Y295910D01*
X231140Y299720D01*
X231140Y341630D01*
X218440Y354330D01*
X218440Y414020D01*
X213360Y419100D01*
X234950Y259080D02*
X235340Y259080D01*
X213360Y419100D02*
X213360Y420220D01*
X223520Y419100D02*
X237490Y419100D01*
X223520Y419100D02*
X218440Y414020D01*
X237490Y419100D02*
X238360Y420220D01*
X218440Y414020D02*
X213360Y420220D01*
X118110Y523240D02*
X118110Y558800D01*
X52070Y529590D02*
X30480Y529590D01*
X52070Y529590D02*
X66040Y515620D01*
X110490Y515620D01*
X118110Y523240D01*
X30480Y529590D02*
X30480Y530520D01*
X118110Y523240D02*
X118500Y523240D01*
X156210Y596900D02*
X163830Y596900D01*
X156210Y596900D02*
X118110Y558800D01*
X163830Y596900D02*
X164760Y597510D01*
X118500Y558800D02*
X118110Y558800D01*
X179070Y259080D02*
X179070Y228600D01*
X179460Y228600D01*
X179460Y259080D02*
X179070Y259080D01*
X195580Y213360D02*
X195580Y198120D01*
X195580Y213360D02*
X180340Y228600D01*
X195580Y198120D02*
X196460Y198120D01*
X180340Y228600D02*
X179460Y228600D01*
X140970Y76200D02*
X140970Y40640D01*
X141360Y40640D01*
X141360Y76200D02*
X140970Y76200D01*
X141360Y40640D02*
X144780Y40640D01*
X153670Y31750D01*
X226060Y31750D01*
X142240Y91440D02*
X142240Y111760D01*
X142240Y91440D02*
X157480Y76200D01*
X142240Y111760D02*
X141360Y111760D01*
X157480Y76200D02*
X158360Y76200D01*
M02*
