G04 EAGLE Gerber RS-274X export*
G75*
%MOMM*%
%FSLAX34Y34*%
%LPD*%
%INTop Copper*%
%IPPOS*%
%AMOC8*
5,1,8,0,0,1.08239X$1,22.5*%
G01*
%ADD10P,1.979475X8X202.500000*%
%ADD11C,1.332000*%
%ADD12C,1.828800*%
%ADD13R,1.879600X1.879600*%
%ADD14P,2.922453X8X112.500000*%
%ADD15C,1.879600*%
%ADD16C,0.127000*%
%ADD17C,0.502400*%
%ADD18C,0.452400*%

G36*
X296848Y2016D02*
X296848Y2016D01*
X296967Y2023D01*
X297005Y2036D01*
X297046Y2041D01*
X297156Y2084D01*
X297269Y2121D01*
X297304Y2143D01*
X297341Y2158D01*
X297437Y2227D01*
X297538Y2291D01*
X297566Y2321D01*
X297599Y2344D01*
X297675Y2436D01*
X297756Y2523D01*
X297776Y2558D01*
X297801Y2589D01*
X297852Y2697D01*
X297910Y2801D01*
X297920Y2841D01*
X297937Y2877D01*
X297959Y2994D01*
X297989Y3109D01*
X297993Y3169D01*
X297997Y3189D01*
X297995Y3210D01*
X297999Y3270D01*
X297999Y1069730D01*
X297984Y1069848D01*
X297977Y1069967D01*
X297964Y1070005D01*
X297959Y1070046D01*
X297916Y1070156D01*
X297879Y1070269D01*
X297857Y1070304D01*
X297842Y1070341D01*
X297773Y1070437D01*
X297709Y1070538D01*
X297679Y1070566D01*
X297656Y1070599D01*
X297564Y1070675D01*
X297477Y1070756D01*
X297442Y1070776D01*
X297411Y1070801D01*
X297303Y1070852D01*
X297199Y1070910D01*
X297159Y1070920D01*
X297123Y1070937D01*
X297006Y1070959D01*
X296891Y1070989D01*
X296831Y1070993D01*
X296811Y1070997D01*
X296790Y1070995D01*
X296730Y1070999D01*
X3270Y1070999D01*
X3152Y1070984D01*
X3033Y1070977D01*
X2995Y1070964D01*
X2954Y1070959D01*
X2844Y1070916D01*
X2731Y1070879D01*
X2696Y1070857D01*
X2659Y1070842D01*
X2563Y1070773D01*
X2462Y1070709D01*
X2434Y1070679D01*
X2401Y1070656D01*
X2325Y1070564D01*
X2244Y1070477D01*
X2224Y1070442D01*
X2199Y1070411D01*
X2148Y1070303D01*
X2090Y1070199D01*
X2080Y1070159D01*
X2063Y1070123D01*
X2041Y1070006D01*
X2011Y1069891D01*
X2007Y1069831D01*
X2003Y1069811D01*
X2005Y1069790D01*
X2001Y1069730D01*
X2001Y3270D01*
X2016Y3152D01*
X2023Y3033D01*
X2036Y2995D01*
X2041Y2954D01*
X2084Y2844D01*
X2121Y2731D01*
X2143Y2696D01*
X2158Y2659D01*
X2227Y2563D01*
X2291Y2462D01*
X2321Y2434D01*
X2344Y2401D01*
X2436Y2325D01*
X2523Y2244D01*
X2558Y2224D01*
X2589Y2199D01*
X2697Y2148D01*
X2801Y2090D01*
X2841Y2080D01*
X2877Y2063D01*
X2994Y2041D01*
X3109Y2011D01*
X3169Y2007D01*
X3189Y2003D01*
X3210Y2005D01*
X3270Y2001D01*
X296730Y2001D01*
X296848Y2016D01*
G37*
%LPC*%
G36*
X69346Y21335D02*
X69346Y21335D01*
X63245Y27436D01*
X63245Y36064D01*
X69346Y42165D01*
X70485Y42165D01*
X70603Y42180D01*
X70722Y42187D01*
X70760Y42200D01*
X70801Y42205D01*
X70911Y42248D01*
X71024Y42285D01*
X71059Y42307D01*
X71096Y42322D01*
X71192Y42391D01*
X71293Y42455D01*
X71321Y42485D01*
X71354Y42508D01*
X71430Y42600D01*
X71511Y42687D01*
X71531Y42722D01*
X71556Y42753D01*
X71607Y42861D01*
X71665Y42965D01*
X71675Y43005D01*
X71692Y43041D01*
X71714Y43158D01*
X71744Y43273D01*
X71748Y43333D01*
X71752Y43353D01*
X71750Y43374D01*
X71754Y43434D01*
X71754Y54565D01*
X71742Y54663D01*
X71739Y54762D01*
X71722Y54820D01*
X71714Y54880D01*
X71678Y54972D01*
X71650Y55068D01*
X71620Y55120D01*
X71597Y55176D01*
X71539Y55256D01*
X71489Y55342D01*
X71423Y55417D01*
X71411Y55433D01*
X71401Y55441D01*
X71383Y55462D01*
X47624Y79221D01*
X47624Y289111D01*
X47607Y289249D01*
X47594Y289387D01*
X47587Y289406D01*
X47584Y289427D01*
X47533Y289556D01*
X47486Y289687D01*
X47475Y289704D01*
X47467Y289722D01*
X47386Y289835D01*
X47308Y289950D01*
X47292Y289963D01*
X47281Y289980D01*
X47173Y290068D01*
X47069Y290160D01*
X47051Y290170D01*
X47036Y290182D01*
X46910Y290242D01*
X46786Y290305D01*
X46766Y290309D01*
X46748Y290318D01*
X46612Y290344D01*
X46476Y290375D01*
X46455Y290374D01*
X46436Y290378D01*
X46297Y290369D01*
X46158Y290365D01*
X46138Y290359D01*
X46118Y290358D01*
X45986Y290315D01*
X45852Y290277D01*
X45835Y290266D01*
X45816Y290260D01*
X45698Y290186D01*
X45578Y290115D01*
X45557Y290096D01*
X45547Y290090D01*
X45533Y290075D01*
X45481Y290029D01*
X33242Y290029D01*
X24589Y298682D01*
X24589Y310918D01*
X33242Y319571D01*
X45478Y319571D01*
X51808Y313241D01*
X51917Y313156D01*
X52024Y313068D01*
X52043Y313059D01*
X52059Y313046D01*
X52187Y312991D01*
X52312Y312932D01*
X52332Y312928D01*
X52351Y312920D01*
X52489Y312898D01*
X52625Y312872D01*
X52645Y312873D01*
X52665Y312870D01*
X52804Y312883D01*
X52942Y312892D01*
X52961Y312898D01*
X52981Y312900D01*
X53113Y312947D01*
X53244Y312990D01*
X53262Y313001D01*
X53281Y313008D01*
X53396Y313086D01*
X53513Y313160D01*
X53527Y313175D01*
X53544Y313186D01*
X53636Y313291D01*
X53731Y313392D01*
X53741Y313409D01*
X53754Y313425D01*
X53818Y313549D01*
X53885Y313670D01*
X53890Y313690D01*
X53899Y313708D01*
X53929Y313844D01*
X53964Y313978D01*
X53966Y314006D01*
X53969Y314018D01*
X53968Y314039D01*
X53974Y314139D01*
X53974Y415245D01*
X53962Y415343D01*
X53959Y415442D01*
X53942Y415500D01*
X53934Y415560D01*
X53898Y415652D01*
X53870Y415748D01*
X53840Y415800D01*
X53817Y415856D01*
X53759Y415936D01*
X53709Y416022D01*
X53643Y416097D01*
X53631Y416113D01*
X53621Y416121D01*
X53603Y416142D01*
X42544Y427201D01*
X42544Y658649D01*
X42597Y658702D01*
X42683Y658812D01*
X42771Y658919D01*
X42780Y658938D01*
X42792Y658954D01*
X42848Y659081D01*
X42907Y659207D01*
X42911Y659227D01*
X42919Y659246D01*
X42941Y659383D01*
X42967Y659520D01*
X42965Y659540D01*
X42969Y659560D01*
X42955Y659699D01*
X42947Y659837D01*
X42941Y659856D01*
X42939Y659876D01*
X42892Y660008D01*
X42849Y660139D01*
X42838Y660156D01*
X42831Y660176D01*
X42753Y660291D01*
X42679Y660408D01*
X42664Y660422D01*
X42653Y660439D01*
X42548Y660531D01*
X42447Y660626D01*
X42429Y660636D01*
X42414Y660649D01*
X42290Y660713D01*
X42169Y660780D01*
X42149Y660785D01*
X42131Y660794D01*
X41995Y660824D01*
X41861Y660859D01*
X41833Y660861D01*
X41821Y660864D01*
X41800Y660863D01*
X41700Y660869D01*
X33242Y660869D01*
X24589Y669522D01*
X24589Y681758D01*
X33242Y690411D01*
X45478Y690411D01*
X54131Y681758D01*
X54131Y673300D01*
X54148Y673163D01*
X54161Y673024D01*
X54168Y673005D01*
X54171Y672985D01*
X54222Y672856D01*
X54269Y672724D01*
X54280Y672708D01*
X54288Y672689D01*
X54369Y672577D01*
X54447Y672461D01*
X54463Y672448D01*
X54474Y672432D01*
X54582Y672343D01*
X54686Y672251D01*
X54704Y672242D01*
X54719Y672229D01*
X54845Y672170D01*
X54969Y672106D01*
X54989Y672102D01*
X55007Y672093D01*
X55143Y672067D01*
X55279Y672037D01*
X55300Y672037D01*
X55319Y672033D01*
X55458Y672042D01*
X55597Y672046D01*
X55617Y672052D01*
X55637Y672053D01*
X55769Y672096D01*
X55903Y672135D01*
X55920Y672145D01*
X55939Y672151D01*
X56057Y672226D01*
X56177Y672296D01*
X56198Y672315D01*
X56208Y672321D01*
X56222Y672336D01*
X56297Y672403D01*
X147583Y763688D01*
X147643Y763766D01*
X147711Y763838D01*
X147740Y763891D01*
X147777Y763939D01*
X147817Y764030D01*
X147865Y764117D01*
X147880Y764175D01*
X147904Y764231D01*
X147919Y764329D01*
X147944Y764424D01*
X147950Y764524D01*
X147954Y764545D01*
X147952Y764557D01*
X147954Y764585D01*
X147954Y837028D01*
X147951Y837058D01*
X147953Y837087D01*
X147931Y837215D01*
X147914Y837344D01*
X147904Y837371D01*
X147899Y837401D01*
X147845Y837519D01*
X147797Y837640D01*
X147780Y837664D01*
X147768Y837691D01*
X147687Y837792D01*
X147611Y837897D01*
X147588Y837916D01*
X147569Y837939D01*
X147466Y838017D01*
X147366Y838100D01*
X147339Y838112D01*
X147315Y838130D01*
X147171Y838201D01*
X143961Y839531D01*
X141031Y842461D01*
X139445Y846288D01*
X139445Y848696D01*
X139428Y848833D01*
X139415Y848972D01*
X139408Y848991D01*
X139405Y849011D01*
X139354Y849140D01*
X139307Y849272D01*
X139296Y849288D01*
X139288Y849307D01*
X139207Y849419D01*
X139129Y849535D01*
X139113Y849548D01*
X139102Y849564D01*
X138994Y849653D01*
X138890Y849745D01*
X138872Y849754D01*
X138857Y849767D01*
X138731Y849826D01*
X138607Y849890D01*
X138587Y849894D01*
X138569Y849903D01*
X138433Y849929D01*
X138297Y849959D01*
X138276Y849959D01*
X138257Y849963D01*
X138118Y849954D01*
X137979Y849950D01*
X137959Y849944D01*
X137939Y849943D01*
X137807Y849900D01*
X137673Y849861D01*
X137656Y849851D01*
X137637Y849845D01*
X137519Y849770D01*
X137399Y849700D01*
X137378Y849681D01*
X137368Y849675D01*
X137354Y849660D01*
X137279Y849593D01*
X135246Y847561D01*
X135186Y847483D01*
X135118Y847411D01*
X135089Y847358D01*
X135052Y847310D01*
X135012Y847219D01*
X134964Y847133D01*
X134949Y847074D01*
X134925Y847018D01*
X134910Y846920D01*
X134885Y846825D01*
X134879Y846725D01*
X134875Y846704D01*
X134877Y846692D01*
X134875Y846664D01*
X134875Y846288D01*
X133289Y842461D01*
X130359Y839531D01*
X126532Y837945D01*
X122388Y837945D01*
X118561Y839531D01*
X115631Y842461D01*
X114045Y846288D01*
X114045Y850432D01*
X115631Y854259D01*
X118561Y857189D01*
X122388Y858775D01*
X126532Y858775D01*
X130359Y857189D01*
X133289Y854259D01*
X133519Y853706D01*
X133543Y853663D01*
X133560Y853616D01*
X133622Y853525D01*
X133676Y853429D01*
X133711Y853394D01*
X133739Y853353D01*
X133821Y853280D01*
X133897Y853201D01*
X133940Y853175D01*
X133977Y853142D01*
X134075Y853092D01*
X134169Y853035D01*
X134216Y853020D01*
X134260Y852997D01*
X134367Y852973D01*
X134472Y852941D01*
X134522Y852939D01*
X134571Y852928D01*
X134681Y852931D01*
X134790Y852926D01*
X134839Y852936D01*
X134888Y852937D01*
X134994Y852968D01*
X135102Y852990D01*
X135146Y853012D01*
X135194Y853026D01*
X135288Y853082D01*
X135387Y853130D01*
X135425Y853162D01*
X135468Y853187D01*
X135589Y853294D01*
X142503Y860208D01*
X143991Y861696D01*
X181129Y861696D01*
X192406Y850419D01*
X192406Y685522D01*
X192421Y685404D01*
X192428Y685285D01*
X192441Y685247D01*
X192446Y685206D01*
X192489Y685096D01*
X192526Y684983D01*
X192548Y684948D01*
X192563Y684911D01*
X192632Y684815D01*
X192696Y684714D01*
X192726Y684686D01*
X192749Y684653D01*
X192841Y684577D01*
X192928Y684496D01*
X192963Y684476D01*
X192994Y684451D01*
X193102Y684400D01*
X193206Y684342D01*
X193246Y684332D01*
X193282Y684315D01*
X193399Y684293D01*
X193514Y684263D01*
X193574Y684259D01*
X193594Y684255D01*
X193615Y684257D01*
X193675Y684253D01*
X197043Y684253D01*
X199113Y682183D01*
X199113Y679257D01*
X197857Y678001D01*
X197797Y677923D01*
X197729Y677851D01*
X197700Y677798D01*
X197663Y677750D01*
X197623Y677659D01*
X197575Y677573D01*
X197560Y677514D01*
X197536Y677458D01*
X197521Y677360D01*
X197496Y677265D01*
X197490Y677165D01*
X197486Y677144D01*
X197488Y677132D01*
X197486Y677104D01*
X197486Y533445D01*
X197498Y533347D01*
X197501Y533248D01*
X197518Y533190D01*
X197526Y533130D01*
X197562Y533037D01*
X197590Y532942D01*
X197620Y532890D01*
X197643Y532834D01*
X197701Y532754D01*
X197751Y532668D01*
X197817Y532593D01*
X197829Y532577D01*
X197839Y532569D01*
X197857Y532548D01*
X243423Y486983D01*
X243532Y486897D01*
X243639Y486809D01*
X243658Y486800D01*
X243674Y486788D01*
X243802Y486732D01*
X243927Y486673D01*
X243947Y486669D01*
X243966Y486661D01*
X244104Y486639D01*
X244240Y486613D01*
X244260Y486615D01*
X244280Y486611D01*
X244419Y486625D01*
X244557Y486633D01*
X244576Y486639D01*
X244596Y486641D01*
X244728Y486688D01*
X244859Y486731D01*
X244877Y486742D01*
X244896Y486749D01*
X245011Y486827D01*
X245128Y486901D01*
X245142Y486916D01*
X245159Y486927D01*
X245251Y487032D01*
X245346Y487133D01*
X245356Y487151D01*
X245369Y487166D01*
X245433Y487290D01*
X245500Y487411D01*
X245505Y487431D01*
X245514Y487449D01*
X245544Y487585D01*
X245579Y487719D01*
X245581Y487747D01*
X245584Y487759D01*
X245583Y487780D01*
X245589Y487880D01*
X245589Y496338D01*
X254242Y504991D01*
X266478Y504991D01*
X275131Y496338D01*
X275131Y484102D01*
X266478Y475449D01*
X254635Y475449D01*
X254517Y475434D01*
X254398Y475427D01*
X254360Y475414D01*
X254319Y475409D01*
X254209Y475366D01*
X254096Y475329D01*
X254061Y475307D01*
X254024Y475292D01*
X253928Y475223D01*
X253827Y475159D01*
X253799Y475129D01*
X253766Y475106D01*
X253690Y475014D01*
X253609Y474927D01*
X253589Y474892D01*
X253564Y474861D01*
X253513Y474753D01*
X253455Y474649D01*
X253445Y474609D01*
X253428Y474573D01*
X253406Y474456D01*
X253376Y474341D01*
X253372Y474281D01*
X253368Y474261D01*
X253369Y474247D01*
X253368Y474242D01*
X253369Y474231D01*
X253366Y474180D01*
X253366Y253806D01*
X253378Y253708D01*
X253381Y253609D01*
X253398Y253551D01*
X253406Y253490D01*
X253442Y253398D01*
X253470Y253303D01*
X253500Y253251D01*
X253523Y253195D01*
X253581Y253115D01*
X253631Y253029D01*
X253697Y252954D01*
X253709Y252937D01*
X253719Y252930D01*
X253737Y252909D01*
X254993Y251653D01*
X254993Y248727D01*
X252923Y246657D01*
X249997Y246657D01*
X247927Y248727D01*
X247927Y251653D01*
X249183Y252909D01*
X249243Y252987D01*
X249311Y253059D01*
X249340Y253112D01*
X249377Y253160D01*
X249417Y253251D01*
X249465Y253337D01*
X249480Y253396D01*
X249504Y253452D01*
X249519Y253550D01*
X249544Y253645D01*
X249550Y253745D01*
X249554Y253766D01*
X249552Y253778D01*
X249554Y253806D01*
X249554Y408282D01*
X249539Y408400D01*
X249532Y408519D01*
X249519Y408557D01*
X249514Y408598D01*
X249471Y408708D01*
X249434Y408821D01*
X249412Y408856D01*
X249397Y408893D01*
X249328Y408989D01*
X249264Y409090D01*
X249234Y409118D01*
X249211Y409151D01*
X249119Y409227D01*
X249032Y409308D01*
X248997Y409328D01*
X248966Y409353D01*
X248858Y409404D01*
X248754Y409462D01*
X248714Y409472D01*
X248678Y409489D01*
X248561Y409511D01*
X248446Y409541D01*
X248386Y409545D01*
X248366Y409549D01*
X248345Y409547D01*
X248285Y409551D01*
X228436Y409551D01*
X227691Y410296D01*
X227691Y430144D01*
X228436Y430889D01*
X248285Y430889D01*
X248403Y430904D01*
X248522Y430911D01*
X248560Y430924D01*
X248601Y430929D01*
X248711Y430972D01*
X248824Y431009D01*
X248859Y431031D01*
X248896Y431046D01*
X248992Y431115D01*
X249093Y431179D01*
X249121Y431209D01*
X249154Y431232D01*
X249230Y431324D01*
X249311Y431411D01*
X249331Y431446D01*
X249356Y431477D01*
X249407Y431585D01*
X249465Y431689D01*
X249475Y431729D01*
X249492Y431765D01*
X249514Y431882D01*
X249544Y431997D01*
X249548Y432057D01*
X249552Y432077D01*
X249550Y432098D01*
X249554Y432158D01*
X249554Y474935D01*
X249542Y475033D01*
X249539Y475132D01*
X249522Y475190D01*
X249514Y475250D01*
X249478Y475343D01*
X249450Y475438D01*
X249420Y475490D01*
X249397Y475546D01*
X249339Y475626D01*
X249289Y475712D01*
X249223Y475787D01*
X249211Y475803D01*
X249201Y475811D01*
X249183Y475832D01*
X195162Y529853D01*
X194573Y530442D01*
X194463Y530528D01*
X194356Y530616D01*
X194337Y530625D01*
X194321Y530637D01*
X194193Y530693D01*
X194068Y530752D01*
X194048Y530756D01*
X194029Y530764D01*
X193891Y530786D01*
X193755Y530812D01*
X193735Y530810D01*
X193715Y530814D01*
X193576Y530800D01*
X193438Y530792D01*
X193419Y530786D01*
X193399Y530784D01*
X193268Y530737D01*
X193136Y530694D01*
X193118Y530683D01*
X193099Y530676D01*
X192985Y530598D01*
X192867Y530524D01*
X192853Y530509D01*
X192836Y530498D01*
X192744Y530394D01*
X192649Y530292D01*
X192639Y530274D01*
X192626Y530259D01*
X192563Y530135D01*
X192495Y530014D01*
X192490Y529994D01*
X192481Y529976D01*
X192451Y529840D01*
X192416Y529706D01*
X192414Y529678D01*
X192411Y529666D01*
X192412Y529645D01*
X192406Y529545D01*
X192406Y442005D01*
X192418Y441907D01*
X192421Y441808D01*
X192438Y441750D01*
X192446Y441690D01*
X192482Y441598D01*
X192510Y441502D01*
X192540Y441450D01*
X192563Y441394D01*
X192621Y441314D01*
X192671Y441228D01*
X192737Y441153D01*
X192749Y441137D01*
X192759Y441129D01*
X192777Y441108D01*
X202625Y431260D01*
X202703Y431200D01*
X202775Y431132D01*
X202828Y431103D01*
X202876Y431066D01*
X202967Y431026D01*
X203054Y430978D01*
X203112Y430963D01*
X203168Y430939D01*
X203266Y430924D01*
X203361Y430899D01*
X203461Y430893D01*
X203482Y430889D01*
X203494Y430891D01*
X203522Y430889D01*
X223284Y430889D01*
X224029Y430144D01*
X224029Y410296D01*
X223284Y409551D01*
X205808Y409551D01*
X205671Y409534D01*
X205532Y409521D01*
X205513Y409514D01*
X205493Y409511D01*
X205364Y409460D01*
X205232Y409413D01*
X205216Y409402D01*
X205197Y409394D01*
X205085Y409313D01*
X204969Y409235D01*
X204956Y409219D01*
X204940Y409208D01*
X204851Y409100D01*
X204759Y408996D01*
X204750Y408978D01*
X204737Y408963D01*
X204677Y408837D01*
X204614Y408713D01*
X204610Y408693D01*
X204601Y408675D01*
X204575Y408539D01*
X204545Y408403D01*
X204545Y408382D01*
X204541Y408363D01*
X204550Y408224D01*
X204554Y408085D01*
X204560Y408065D01*
X204561Y408045D01*
X204604Y407913D01*
X204643Y407779D01*
X204653Y407762D01*
X204659Y407743D01*
X204734Y407625D01*
X204804Y407505D01*
X204823Y407484D01*
X204829Y407474D01*
X204844Y407460D01*
X204911Y407385D01*
X212508Y399787D01*
X213996Y398299D01*
X213996Y140875D01*
X214013Y140737D01*
X214026Y140598D01*
X214033Y140579D01*
X214036Y140559D01*
X214087Y140430D01*
X214134Y140299D01*
X214145Y140282D01*
X214153Y140263D01*
X214234Y140151D01*
X214312Y140036D01*
X214328Y140022D01*
X214339Y140006D01*
X214447Y139917D01*
X214551Y139825D01*
X214569Y139816D01*
X214584Y139803D01*
X214710Y139744D01*
X214834Y139681D01*
X214854Y139676D01*
X214872Y139668D01*
X215008Y139642D01*
X215144Y139611D01*
X215165Y139612D01*
X215184Y139608D01*
X215323Y139617D01*
X215462Y139621D01*
X215482Y139626D01*
X215502Y139628D01*
X215634Y139671D01*
X215768Y139709D01*
X215785Y139719D01*
X215804Y139726D01*
X215922Y139800D01*
X216042Y139871D01*
X216063Y139889D01*
X216073Y139896D01*
X216087Y139911D01*
X216162Y139977D01*
X221220Y145035D01*
X223521Y145035D01*
X223521Y134620D01*
X223536Y134502D01*
X223543Y134383D01*
X223556Y134345D01*
X223561Y134305D01*
X223604Y134194D01*
X223641Y134081D01*
X223663Y134047D01*
X223678Y134009D01*
X223748Y133913D01*
X223811Y133812D01*
X223841Y133784D01*
X223864Y133752D01*
X223956Y133676D01*
X224043Y133594D01*
X224078Y133575D01*
X224109Y133549D01*
X224217Y133498D01*
X224321Y133441D01*
X224361Y133430D01*
X224397Y133413D01*
X224514Y133391D01*
X224629Y133361D01*
X224690Y133357D01*
X224710Y133353D01*
X224730Y133355D01*
X224790Y133351D01*
X226061Y133351D01*
X226061Y133349D01*
X224790Y133349D01*
X224672Y133334D01*
X224553Y133327D01*
X224515Y133314D01*
X224474Y133309D01*
X224364Y133265D01*
X224251Y133229D01*
X224216Y133207D01*
X224179Y133192D01*
X224083Y133122D01*
X223982Y133059D01*
X223954Y133029D01*
X223921Y133005D01*
X223846Y132914D01*
X223764Y132827D01*
X223744Y132792D01*
X223719Y132760D01*
X223668Y132653D01*
X223610Y132548D01*
X223600Y132509D01*
X223583Y132473D01*
X223561Y132356D01*
X223531Y132241D01*
X223527Y132180D01*
X223523Y132160D01*
X223525Y132140D01*
X223521Y132080D01*
X223521Y121665D01*
X221220Y121665D01*
X216162Y126723D01*
X216053Y126808D01*
X215946Y126897D01*
X215927Y126905D01*
X215911Y126918D01*
X215783Y126973D01*
X215658Y127032D01*
X215638Y127036D01*
X215619Y127044D01*
X215481Y127066D01*
X215345Y127092D01*
X215325Y127091D01*
X215305Y127094D01*
X215166Y127081D01*
X215028Y127072D01*
X215009Y127066D01*
X214989Y127064D01*
X214857Y127017D01*
X214726Y126974D01*
X214708Y126963D01*
X214689Y126957D01*
X214574Y126878D01*
X214457Y126804D01*
X214443Y126789D01*
X214426Y126778D01*
X214334Y126674D01*
X214239Y126572D01*
X214229Y126555D01*
X214216Y126540D01*
X214152Y126415D01*
X214085Y126294D01*
X214080Y126274D01*
X214071Y126256D01*
X214041Y126120D01*
X214006Y125986D01*
X214004Y125958D01*
X214001Y125946D01*
X214002Y125926D01*
X213996Y125825D01*
X213996Y113679D01*
X214013Y113545D01*
X214018Y113458D01*
X214022Y113445D01*
X214026Y113402D01*
X214033Y113383D01*
X214036Y113363D01*
X214087Y113234D01*
X214134Y113103D01*
X214145Y113086D01*
X214153Y113067D01*
X214234Y112955D01*
X214312Y112840D01*
X214328Y112826D01*
X214339Y112810D01*
X214447Y112721D01*
X214551Y112629D01*
X214569Y112620D01*
X214584Y112607D01*
X214710Y112548D01*
X214834Y112485D01*
X214854Y112480D01*
X214872Y112472D01*
X215008Y112446D01*
X215144Y112415D01*
X215165Y112416D01*
X215184Y112412D01*
X215323Y112421D01*
X215462Y112425D01*
X215482Y112430D01*
X215502Y112432D01*
X215634Y112474D01*
X215768Y112513D01*
X215785Y112523D01*
X215804Y112530D01*
X215880Y112577D01*
X215892Y112582D01*
X215924Y112605D01*
X216042Y112675D01*
X216063Y112693D01*
X216073Y112700D01*
X216087Y112715D01*
X216146Y112766D01*
X216150Y112769D01*
X216152Y112772D01*
X216162Y112781D01*
X221746Y118365D01*
X230374Y118365D01*
X236475Y112264D01*
X236475Y103636D01*
X230374Y97535D01*
X221746Y97535D01*
X216162Y103119D01*
X216053Y103204D01*
X215946Y103293D01*
X215927Y103301D01*
X215911Y103314D01*
X215783Y103369D01*
X215658Y103428D01*
X215638Y103432D01*
X215619Y103440D01*
X215481Y103462D01*
X215345Y103488D01*
X215325Y103487D01*
X215305Y103490D01*
X215166Y103477D01*
X215028Y103468D01*
X215009Y103462D01*
X214989Y103460D01*
X214857Y103413D01*
X214726Y103370D01*
X214708Y103359D01*
X214689Y103353D01*
X214574Y103275D01*
X214457Y103200D01*
X214443Y103185D01*
X214426Y103174D01*
X214334Y103070D01*
X214239Y102969D01*
X214229Y102951D01*
X214216Y102936D01*
X214152Y102811D01*
X214085Y102690D01*
X214080Y102670D01*
X214071Y102652D01*
X214041Y102517D01*
X214006Y102382D01*
X214004Y102354D01*
X214001Y102342D01*
X214002Y102322D01*
X213996Y102221D01*
X213996Y85586D01*
X214013Y85448D01*
X214026Y85309D01*
X214033Y85290D01*
X214036Y85270D01*
X214087Y85141D01*
X214134Y85010D01*
X214145Y84993D01*
X214153Y84975D01*
X214234Y84862D01*
X214312Y84747D01*
X214328Y84734D01*
X214339Y84717D01*
X214447Y84628D01*
X214551Y84537D01*
X214569Y84527D01*
X214584Y84514D01*
X214710Y84455D01*
X214834Y84392D01*
X214854Y84387D01*
X214872Y84379D01*
X215008Y84353D01*
X215144Y84322D01*
X215165Y84323D01*
X215184Y84319D01*
X215323Y84328D01*
X215462Y84332D01*
X215482Y84338D01*
X215502Y84339D01*
X215634Y84382D01*
X215768Y84420D01*
X215785Y84431D01*
X215804Y84437D01*
X215922Y84511D01*
X216042Y84582D01*
X216063Y84600D01*
X216073Y84607D01*
X216087Y84622D01*
X216162Y84688D01*
X218696Y87222D01*
X223474Y89201D01*
X228646Y89201D01*
X233424Y87222D01*
X237082Y83564D01*
X239061Y78786D01*
X239061Y73614D01*
X237082Y68836D01*
X233424Y65178D01*
X228646Y63199D01*
X223474Y63199D01*
X218696Y65178D01*
X216162Y67712D01*
X216053Y67797D01*
X215946Y67886D01*
X215927Y67894D01*
X215911Y67907D01*
X215783Y67962D01*
X215658Y68021D01*
X215638Y68025D01*
X215619Y68033D01*
X215481Y68055D01*
X215345Y68081D01*
X215325Y68080D01*
X215305Y68083D01*
X215166Y68070D01*
X215028Y68061D01*
X215009Y68055D01*
X214989Y68053D01*
X214857Y68006D01*
X214726Y67963D01*
X214708Y67952D01*
X214689Y67945D01*
X214574Y67867D01*
X214457Y67793D01*
X214443Y67778D01*
X214426Y67767D01*
X214334Y67663D01*
X214239Y67561D01*
X214229Y67544D01*
X214216Y67528D01*
X214152Y67404D01*
X214085Y67283D01*
X214080Y67263D01*
X214071Y67245D01*
X214041Y67109D01*
X214006Y66975D01*
X214004Y66947D01*
X214001Y66935D01*
X214002Y66914D01*
X213996Y66814D01*
X213996Y47035D01*
X214008Y46937D01*
X214011Y46838D01*
X214028Y46780D01*
X214036Y46720D01*
X214072Y46628D01*
X214100Y46532D01*
X214130Y46480D01*
X214153Y46424D01*
X214211Y46344D01*
X214261Y46258D01*
X214327Y46183D01*
X214339Y46167D01*
X214349Y46159D01*
X214367Y46138D01*
X219146Y41359D01*
X219240Y41286D01*
X219329Y41208D01*
X219365Y41189D01*
X219397Y41164D01*
X219506Y41117D01*
X219612Y41063D01*
X219652Y41054D01*
X219689Y41038D01*
X219807Y41019D01*
X219923Y40993D01*
X219963Y40995D01*
X220003Y40988D01*
X220122Y40999D01*
X220240Y41003D01*
X220279Y41014D01*
X220320Y41018D01*
X220432Y41058D01*
X220546Y41091D01*
X220581Y41112D01*
X220619Y41126D01*
X220717Y41193D01*
X220820Y41253D01*
X220865Y41293D01*
X220882Y41304D01*
X220896Y41320D01*
X220941Y41359D01*
X221746Y42165D01*
X230374Y42165D01*
X236475Y36064D01*
X236475Y27436D01*
X230374Y21335D01*
X221746Y21335D01*
X215645Y27436D01*
X215645Y36064D01*
X216451Y36869D01*
X216523Y36963D01*
X216602Y37053D01*
X216621Y37089D01*
X216646Y37121D01*
X216693Y37230D01*
X216747Y37336D01*
X216756Y37375D01*
X216772Y37412D01*
X216791Y37530D01*
X216817Y37646D01*
X216815Y37686D01*
X216822Y37726D01*
X216811Y37845D01*
X216807Y37964D01*
X216796Y38003D01*
X216792Y38043D01*
X216752Y38155D01*
X216719Y38269D01*
X216698Y38304D01*
X216684Y38342D01*
X216617Y38441D01*
X216557Y38543D01*
X216517Y38589D01*
X216506Y38606D01*
X216490Y38619D01*
X216451Y38664D01*
X210184Y44931D01*
X210184Y223714D01*
X210167Y223852D01*
X210154Y223990D01*
X210147Y224009D01*
X210144Y224030D01*
X210093Y224159D01*
X210046Y224290D01*
X210035Y224307D01*
X210027Y224325D01*
X209946Y224438D01*
X209868Y224553D01*
X209852Y224566D01*
X209841Y224583D01*
X209733Y224671D01*
X209629Y224763D01*
X209611Y224772D01*
X209596Y224785D01*
X209470Y224845D01*
X209346Y224908D01*
X209326Y224912D01*
X209308Y224921D01*
X209171Y224947D01*
X209036Y224978D01*
X209015Y224977D01*
X208996Y224981D01*
X208857Y224972D01*
X208718Y224968D01*
X208698Y224962D01*
X208678Y224961D01*
X208546Y224918D01*
X208412Y224879D01*
X208395Y224869D01*
X208376Y224863D01*
X208258Y224788D01*
X208138Y224718D01*
X208117Y224699D01*
X208107Y224693D01*
X208093Y224678D01*
X208018Y224611D01*
X207203Y223797D01*
X204277Y223797D01*
X202207Y225867D01*
X202207Y228793D01*
X203463Y230049D01*
X203523Y230127D01*
X203591Y230199D01*
X203620Y230252D01*
X203657Y230300D01*
X203697Y230391D01*
X203745Y230477D01*
X203760Y230536D01*
X203784Y230592D01*
X203799Y230690D01*
X203824Y230785D01*
X203830Y230885D01*
X203834Y230906D01*
X203832Y230918D01*
X203834Y230946D01*
X203834Y247844D01*
X203817Y247981D01*
X203804Y248120D01*
X203797Y248140D01*
X203794Y248160D01*
X203743Y248288D01*
X203696Y248420D01*
X203685Y248436D01*
X203677Y248455D01*
X203596Y248568D01*
X203518Y248683D01*
X203502Y248696D01*
X203491Y248713D01*
X203383Y248801D01*
X203279Y248893D01*
X203261Y248902D01*
X203246Y248915D01*
X203120Y248975D01*
X202996Y249038D01*
X202976Y249042D01*
X202958Y249051D01*
X202822Y249077D01*
X202686Y249108D01*
X202665Y249107D01*
X202646Y249111D01*
X202507Y249102D01*
X202368Y249098D01*
X202348Y249092D01*
X202328Y249091D01*
X202196Y249048D01*
X202062Y249009D01*
X202045Y248999D01*
X202026Y248993D01*
X201908Y248918D01*
X201788Y248848D01*
X201767Y248829D01*
X201757Y248823D01*
X201743Y248808D01*
X201668Y248742D01*
X199583Y246657D01*
X196657Y246657D01*
X194587Y248727D01*
X194587Y251653D01*
X195843Y252909D01*
X195903Y252987D01*
X195971Y253059D01*
X196000Y253112D01*
X196037Y253160D01*
X196077Y253251D01*
X196125Y253337D01*
X196140Y253396D01*
X196164Y253452D01*
X196179Y253550D01*
X196204Y253645D01*
X196210Y253745D01*
X196214Y253766D01*
X196212Y253778D01*
X196214Y253806D01*
X196214Y262409D01*
X196552Y262747D01*
X196625Y262841D01*
X196704Y262930D01*
X196722Y262966D01*
X196747Y262998D01*
X196794Y263108D01*
X196848Y263214D01*
X196857Y263253D01*
X196873Y263290D01*
X196892Y263408D01*
X196918Y263524D01*
X196917Y263564D01*
X196923Y263604D01*
X196912Y263723D01*
X196908Y263842D01*
X196897Y263881D01*
X196893Y263921D01*
X196853Y264033D01*
X196820Y264147D01*
X196799Y264182D01*
X196786Y264220D01*
X196719Y264319D01*
X196658Y264421D01*
X196619Y264466D01*
X196607Y264483D01*
X196592Y264497D01*
X196552Y264542D01*
X195401Y265693D01*
X195323Y265753D01*
X195251Y265821D01*
X195198Y265850D01*
X195150Y265887D01*
X195059Y265927D01*
X194973Y265975D01*
X194914Y265990D01*
X194858Y266014D01*
X194760Y266029D01*
X194665Y266054D01*
X194565Y266060D01*
X194544Y266064D01*
X194532Y266062D01*
X194504Y266064D01*
X146095Y266064D01*
X145997Y266052D01*
X145898Y266049D01*
X145840Y266032D01*
X145780Y266024D01*
X145688Y265988D01*
X145592Y265960D01*
X145540Y265930D01*
X145484Y265907D01*
X145404Y265849D01*
X145318Y265799D01*
X145243Y265733D01*
X145227Y265721D01*
X145219Y265711D01*
X145198Y265693D01*
X122400Y242895D01*
X122340Y242817D01*
X122272Y242745D01*
X122243Y242692D01*
X122206Y242644D01*
X122166Y242553D01*
X122118Y242466D01*
X122103Y242408D01*
X122079Y242352D01*
X122064Y242254D01*
X122039Y242159D01*
X122033Y242059D01*
X122029Y242038D01*
X122031Y242026D01*
X122029Y241998D01*
X122029Y224876D01*
X121284Y224131D01*
X101436Y224131D01*
X100691Y224876D01*
X100691Y231775D01*
X100676Y231893D01*
X100669Y232012D01*
X100656Y232050D01*
X100651Y232091D01*
X100608Y232201D01*
X100571Y232314D01*
X100549Y232349D01*
X100534Y232386D01*
X100465Y232482D01*
X100401Y232583D01*
X100371Y232611D01*
X100348Y232644D01*
X100256Y232720D01*
X100169Y232801D01*
X100134Y232821D01*
X100103Y232846D01*
X99995Y232897D01*
X99891Y232955D01*
X99851Y232965D01*
X99815Y232982D01*
X99698Y233004D01*
X99583Y233034D01*
X99523Y233038D01*
X99503Y233042D01*
X99482Y233040D01*
X99422Y233044D01*
X98298Y233044D01*
X98180Y233029D01*
X98061Y233022D01*
X98023Y233009D01*
X97982Y233004D01*
X97872Y232961D01*
X97759Y232924D01*
X97724Y232902D01*
X97687Y232887D01*
X97591Y232818D01*
X97490Y232754D01*
X97462Y232724D01*
X97429Y232701D01*
X97353Y232609D01*
X97272Y232522D01*
X97252Y232487D01*
X97227Y232456D01*
X97176Y232348D01*
X97118Y232244D01*
X97108Y232204D01*
X97091Y232168D01*
X97069Y232051D01*
X97039Y231936D01*
X97035Y231876D01*
X97031Y231856D01*
X97033Y231835D01*
X97029Y231775D01*
X97029Y224876D01*
X96284Y224131D01*
X76436Y224131D01*
X75691Y224876D01*
X75691Y244724D01*
X76436Y245469D01*
X96284Y245469D01*
X97029Y244724D01*
X97029Y238125D01*
X97044Y238007D01*
X97051Y237888D01*
X97064Y237850D01*
X97069Y237809D01*
X97112Y237699D01*
X97149Y237586D01*
X97171Y237551D01*
X97186Y237514D01*
X97255Y237418D01*
X97319Y237317D01*
X97349Y237289D01*
X97372Y237256D01*
X97464Y237180D01*
X97551Y237099D01*
X97586Y237079D01*
X97617Y237054D01*
X97725Y237003D01*
X97829Y236945D01*
X97869Y236935D01*
X97905Y236918D01*
X98022Y236896D01*
X98137Y236866D01*
X98197Y236862D01*
X98217Y236858D01*
X98238Y236860D01*
X98298Y236856D01*
X99422Y236856D01*
X99540Y236871D01*
X99659Y236878D01*
X99697Y236891D01*
X99738Y236896D01*
X99848Y236939D01*
X99961Y236976D01*
X99996Y236998D01*
X100033Y237013D01*
X100129Y237082D01*
X100230Y237146D01*
X100258Y237176D01*
X100291Y237199D01*
X100367Y237291D01*
X100448Y237378D01*
X100468Y237413D01*
X100493Y237444D01*
X100544Y237552D01*
X100602Y237656D01*
X100612Y237696D01*
X100629Y237732D01*
X100651Y237849D01*
X100681Y237964D01*
X100685Y238024D01*
X100689Y238044D01*
X100687Y238065D01*
X100691Y238125D01*
X100691Y244724D01*
X101436Y245469D01*
X119058Y245469D01*
X119156Y245481D01*
X119255Y245484D01*
X119313Y245501D01*
X119373Y245509D01*
X119465Y245545D01*
X119561Y245573D01*
X119613Y245603D01*
X119669Y245626D01*
X119749Y245684D01*
X119835Y245734D01*
X119910Y245800D01*
X119926Y245812D01*
X119934Y245822D01*
X119955Y245840D01*
X143991Y269876D01*
X194504Y269876D01*
X194602Y269888D01*
X194701Y269891D01*
X194759Y269908D01*
X194819Y269916D01*
X194912Y269952D01*
X195007Y269980D01*
X195059Y270010D01*
X195115Y270033D01*
X195195Y270091D01*
X195281Y270141D01*
X195356Y270207D01*
X195373Y270219D01*
X195380Y270229D01*
X195401Y270247D01*
X196657Y271503D01*
X200025Y271503D01*
X200143Y271518D01*
X200262Y271525D01*
X200300Y271538D01*
X200341Y271543D01*
X200451Y271586D01*
X200564Y271623D01*
X200599Y271645D01*
X200636Y271660D01*
X200732Y271729D01*
X200833Y271793D01*
X200861Y271823D01*
X200894Y271846D01*
X200970Y271938D01*
X201051Y272025D01*
X201071Y272060D01*
X201096Y272091D01*
X201147Y272199D01*
X201205Y272303D01*
X201215Y272343D01*
X201232Y272379D01*
X201254Y272496D01*
X201284Y272611D01*
X201288Y272671D01*
X201292Y272691D01*
X201290Y272712D01*
X201294Y272772D01*
X201294Y280625D01*
X201282Y280723D01*
X201279Y280822D01*
X201262Y280880D01*
X201254Y280940D01*
X201218Y281032D01*
X201190Y281128D01*
X201160Y281180D01*
X201137Y281236D01*
X201079Y281316D01*
X201029Y281402D01*
X200963Y281477D01*
X200951Y281493D01*
X200941Y281501D01*
X200923Y281522D01*
X58104Y424341D01*
X58080Y424359D01*
X58061Y424382D01*
X57955Y424456D01*
X57853Y424536D01*
X57825Y424548D01*
X57801Y424565D01*
X57680Y424611D01*
X57561Y424662D01*
X57532Y424667D01*
X57504Y424677D01*
X57375Y424692D01*
X57247Y424712D01*
X57217Y424709D01*
X57188Y424713D01*
X57059Y424695D01*
X56930Y424682D01*
X56902Y424672D01*
X56873Y424668D01*
X56721Y424616D01*
X54918Y423869D01*
X54330Y423869D01*
X54193Y423852D01*
X54054Y423839D01*
X54035Y423832D01*
X54015Y423829D01*
X53886Y423778D01*
X53754Y423731D01*
X53738Y423720D01*
X53719Y423712D01*
X53606Y423631D01*
X53491Y423553D01*
X53478Y423537D01*
X53462Y423526D01*
X53373Y423418D01*
X53281Y423314D01*
X53272Y423296D01*
X53259Y423281D01*
X53199Y423155D01*
X53136Y423031D01*
X53132Y423011D01*
X53123Y422993D01*
X53097Y422857D01*
X53067Y422721D01*
X53067Y422700D01*
X53063Y422681D01*
X53072Y422542D01*
X53076Y422403D01*
X53082Y422383D01*
X53083Y422363D01*
X53126Y422231D01*
X53165Y422097D01*
X53175Y422080D01*
X53181Y422061D01*
X53256Y421943D01*
X53326Y421823D01*
X53345Y421802D01*
X53351Y421792D01*
X53366Y421778D01*
X53433Y421703D01*
X57786Y417349D01*
X57786Y297661D01*
X51807Y291682D01*
X51747Y291604D01*
X51679Y291532D01*
X51650Y291479D01*
X51613Y291431D01*
X51573Y291340D01*
X51525Y291253D01*
X51510Y291195D01*
X51486Y291139D01*
X51471Y291041D01*
X51446Y290946D01*
X51440Y290846D01*
X51436Y290825D01*
X51438Y290813D01*
X51436Y290785D01*
X51436Y246738D01*
X51451Y246620D01*
X51458Y246501D01*
X51471Y246463D01*
X51476Y246422D01*
X51519Y246312D01*
X51556Y246199D01*
X51578Y246164D01*
X51593Y246127D01*
X51662Y246031D01*
X51726Y245930D01*
X51756Y245902D01*
X51779Y245869D01*
X51871Y245793D01*
X51958Y245712D01*
X51993Y245692D01*
X52024Y245667D01*
X52132Y245616D01*
X52236Y245558D01*
X52276Y245548D01*
X52312Y245531D01*
X52429Y245509D01*
X52544Y245479D01*
X52604Y245475D01*
X52624Y245471D01*
X52645Y245473D01*
X52705Y245469D01*
X71284Y245469D01*
X72029Y244724D01*
X72029Y224876D01*
X71284Y224131D01*
X52705Y224131D01*
X52587Y224116D01*
X52468Y224109D01*
X52430Y224096D01*
X52389Y224091D01*
X52279Y224048D01*
X52166Y224011D01*
X52131Y223989D01*
X52094Y223974D01*
X51998Y223905D01*
X51897Y223841D01*
X51869Y223811D01*
X51836Y223788D01*
X51760Y223696D01*
X51679Y223609D01*
X51659Y223574D01*
X51634Y223543D01*
X51583Y223435D01*
X51525Y223331D01*
X51515Y223291D01*
X51498Y223255D01*
X51476Y223138D01*
X51446Y223023D01*
X51442Y222963D01*
X51438Y222943D01*
X51439Y222934D01*
X51438Y222931D01*
X51439Y222916D01*
X51436Y222862D01*
X51436Y81325D01*
X51448Y81227D01*
X51451Y81128D01*
X51468Y81070D01*
X51476Y81010D01*
X51512Y80918D01*
X51540Y80822D01*
X51570Y80770D01*
X51593Y80714D01*
X51651Y80634D01*
X51701Y80548D01*
X51767Y80473D01*
X51779Y80457D01*
X51789Y80449D01*
X51807Y80428D01*
X58493Y73743D01*
X58602Y73657D01*
X58709Y73569D01*
X58728Y73560D01*
X58744Y73548D01*
X58872Y73492D01*
X58997Y73433D01*
X59017Y73429D01*
X59036Y73421D01*
X59174Y73399D01*
X59310Y73373D01*
X59330Y73375D01*
X59350Y73371D01*
X59489Y73385D01*
X59627Y73393D01*
X59646Y73399D01*
X59666Y73401D01*
X59798Y73448D01*
X59929Y73491D01*
X59947Y73502D01*
X59966Y73509D01*
X60081Y73587D01*
X60198Y73661D01*
X60212Y73676D01*
X60229Y73687D01*
X60321Y73792D01*
X60416Y73893D01*
X60426Y73911D01*
X60439Y73926D01*
X60503Y74050D01*
X60570Y74171D01*
X60575Y74191D01*
X60584Y74209D01*
X60614Y74345D01*
X60649Y74479D01*
X60651Y74507D01*
X60654Y74519D01*
X60653Y74540D01*
X60659Y74640D01*
X60659Y78786D01*
X62638Y83564D01*
X66296Y87222D01*
X71074Y89201D01*
X76246Y89201D01*
X81024Y87222D01*
X84682Y83564D01*
X86661Y78786D01*
X86661Y73614D01*
X84682Y68836D01*
X81024Y65178D01*
X76246Y63199D01*
X72100Y63199D01*
X71963Y63182D01*
X71824Y63169D01*
X71805Y63162D01*
X71785Y63159D01*
X71656Y63108D01*
X71524Y63061D01*
X71508Y63050D01*
X71489Y63042D01*
X71376Y62961D01*
X71261Y62883D01*
X71248Y62867D01*
X71232Y62856D01*
X71143Y62748D01*
X71051Y62644D01*
X71042Y62626D01*
X71029Y62611D01*
X70969Y62485D01*
X70906Y62361D01*
X70902Y62341D01*
X70893Y62323D01*
X70867Y62187D01*
X70837Y62051D01*
X70837Y62030D01*
X70833Y62011D01*
X70842Y61872D01*
X70846Y61733D01*
X70852Y61713D01*
X70853Y61693D01*
X70896Y61561D01*
X70935Y61427D01*
X70945Y61410D01*
X70951Y61391D01*
X71026Y61273D01*
X71096Y61153D01*
X71115Y61132D01*
X71121Y61122D01*
X71136Y61108D01*
X71203Y61033D01*
X75566Y56669D01*
X75566Y43434D01*
X75581Y43316D01*
X75588Y43197D01*
X75601Y43159D01*
X75606Y43118D01*
X75649Y43008D01*
X75686Y42895D01*
X75708Y42860D01*
X75723Y42823D01*
X75792Y42727D01*
X75856Y42626D01*
X75886Y42598D01*
X75909Y42565D01*
X76001Y42489D01*
X76088Y42408D01*
X76123Y42388D01*
X76154Y42363D01*
X76262Y42312D01*
X76366Y42254D01*
X76406Y42244D01*
X76442Y42227D01*
X76559Y42205D01*
X76674Y42175D01*
X76734Y42171D01*
X76754Y42167D01*
X76775Y42169D01*
X76835Y42165D01*
X77974Y42165D01*
X84075Y36064D01*
X84075Y27436D01*
X77974Y21335D01*
X69346Y21335D01*
G37*
%LPD*%
G36*
X202664Y285810D02*
X202664Y285810D01*
X202802Y285818D01*
X202821Y285824D01*
X202841Y285826D01*
X202973Y285873D01*
X203104Y285916D01*
X203122Y285927D01*
X203141Y285934D01*
X203256Y286012D01*
X203373Y286086D01*
X203387Y286101D01*
X203404Y286112D01*
X203496Y286217D01*
X203591Y286318D01*
X203601Y286336D01*
X203614Y286351D01*
X203678Y286475D01*
X203745Y286596D01*
X203750Y286616D01*
X203759Y286634D01*
X203789Y286770D01*
X203824Y286904D01*
X203826Y286932D01*
X203829Y286944D01*
X203828Y286965D01*
X203834Y287065D01*
X203834Y398735D01*
X203822Y398833D01*
X203819Y398932D01*
X203802Y398990D01*
X203794Y399050D01*
X203758Y399142D01*
X203730Y399238D01*
X203700Y399290D01*
X203677Y399346D01*
X203619Y399426D01*
X203569Y399512D01*
X203503Y399587D01*
X203491Y399603D01*
X203481Y399611D01*
X203463Y399632D01*
X193915Y409180D01*
X193837Y409240D01*
X193765Y409308D01*
X193712Y409337D01*
X193664Y409374D01*
X193573Y409414D01*
X193486Y409462D01*
X193428Y409477D01*
X193372Y409501D01*
X193274Y409516D01*
X193179Y409541D01*
X193079Y409547D01*
X193058Y409551D01*
X193046Y409549D01*
X193018Y409551D01*
X178436Y409551D01*
X177691Y410296D01*
X177691Y430144D01*
X178436Y430889D01*
X194542Y430889D01*
X194679Y430906D01*
X194818Y430919D01*
X194837Y430926D01*
X194857Y430929D01*
X194986Y430980D01*
X195118Y431027D01*
X195134Y431038D01*
X195153Y431046D01*
X195265Y431127D01*
X195381Y431205D01*
X195394Y431221D01*
X195410Y431232D01*
X195499Y431340D01*
X195591Y431444D01*
X195600Y431462D01*
X195613Y431477D01*
X195673Y431603D01*
X195736Y431727D01*
X195740Y431747D01*
X195749Y431765D01*
X195775Y431901D01*
X195805Y432037D01*
X195805Y432058D01*
X195809Y432077D01*
X195800Y432216D01*
X195796Y432355D01*
X195790Y432375D01*
X195789Y432395D01*
X195746Y432527D01*
X195707Y432661D01*
X195697Y432678D01*
X195691Y432697D01*
X195616Y432815D01*
X195546Y432935D01*
X195527Y432956D01*
X195521Y432966D01*
X195506Y432980D01*
X195439Y433055D01*
X188594Y439901D01*
X188594Y848315D01*
X188582Y848413D01*
X188579Y848512D01*
X188562Y848570D01*
X188554Y848630D01*
X188518Y848722D01*
X188490Y848818D01*
X188460Y848870D01*
X188437Y848926D01*
X188379Y849006D01*
X188329Y849091D01*
X188263Y849167D01*
X188251Y849183D01*
X188241Y849191D01*
X188223Y849212D01*
X187842Y849593D01*
X187732Y849679D01*
X187625Y849767D01*
X187606Y849776D01*
X187590Y849788D01*
X187463Y849844D01*
X187337Y849903D01*
X187317Y849907D01*
X187298Y849915D01*
X187161Y849936D01*
X187024Y849963D01*
X187004Y849961D01*
X186984Y849965D01*
X186846Y849951D01*
X186707Y849943D01*
X186688Y849937D01*
X186668Y849935D01*
X186536Y849888D01*
X186405Y849845D01*
X186388Y849834D01*
X186368Y849827D01*
X186253Y849749D01*
X186136Y849675D01*
X186122Y849660D01*
X186105Y849649D01*
X186013Y849544D01*
X185918Y849443D01*
X185908Y849425D01*
X185895Y849410D01*
X185831Y849286D01*
X185764Y849165D01*
X185759Y849145D01*
X185750Y849127D01*
X185720Y848991D01*
X185685Y848857D01*
X185683Y848829D01*
X185680Y848817D01*
X185681Y848796D01*
X185675Y848696D01*
X185675Y846288D01*
X184089Y842461D01*
X181159Y839531D01*
X177949Y838201D01*
X177924Y838186D01*
X177896Y838177D01*
X177786Y838108D01*
X177673Y838044D01*
X177652Y838023D01*
X177627Y838007D01*
X177538Y837913D01*
X177445Y837822D01*
X177429Y837797D01*
X177409Y837776D01*
X177346Y837662D01*
X177278Y837551D01*
X177270Y837523D01*
X177255Y837497D01*
X177223Y837371D01*
X177185Y837247D01*
X177183Y837218D01*
X177176Y837189D01*
X177166Y837028D01*
X177166Y668501D01*
X122400Y613735D01*
X122340Y613657D01*
X122272Y613585D01*
X122243Y613532D01*
X122206Y613484D01*
X122166Y613393D01*
X122118Y613306D01*
X122103Y613248D01*
X122079Y613192D01*
X122064Y613094D01*
X122039Y612999D01*
X122033Y612899D01*
X122029Y612878D01*
X122031Y612866D01*
X122029Y612838D01*
X122029Y595716D01*
X121284Y594971D01*
X101436Y594971D01*
X100691Y595716D01*
X100691Y615564D01*
X101436Y616309D01*
X119058Y616309D01*
X119156Y616321D01*
X119255Y616324D01*
X119313Y616341D01*
X119373Y616349D01*
X119465Y616385D01*
X119561Y616413D01*
X119613Y616443D01*
X119669Y616466D01*
X119749Y616524D01*
X119835Y616574D01*
X119910Y616640D01*
X119926Y616652D01*
X119932Y616659D01*
X119935Y616661D01*
X119940Y616667D01*
X119955Y616680D01*
X172983Y669708D01*
X173043Y669786D01*
X173111Y669858D01*
X173140Y669911D01*
X173177Y669959D01*
X173217Y670050D01*
X173265Y670137D01*
X173280Y670195D01*
X173304Y670251D01*
X173319Y670349D01*
X173344Y670444D01*
X173350Y670544D01*
X173354Y670565D01*
X173352Y670577D01*
X173354Y670605D01*
X173354Y837028D01*
X173351Y837058D01*
X173353Y837087D01*
X173331Y837215D01*
X173314Y837344D01*
X173304Y837371D01*
X173299Y837401D01*
X173245Y837519D01*
X173197Y837640D01*
X173180Y837664D01*
X173168Y837691D01*
X173087Y837792D01*
X173011Y837897D01*
X172988Y837916D01*
X172969Y837939D01*
X172866Y838017D01*
X172766Y838100D01*
X172739Y838112D01*
X172715Y838130D01*
X172571Y838201D01*
X169361Y839531D01*
X166431Y842461D01*
X164845Y846288D01*
X164845Y850432D01*
X166431Y854259D01*
X167889Y855718D01*
X167974Y855827D01*
X168063Y855934D01*
X168071Y855953D01*
X168084Y855969D01*
X168139Y856097D01*
X168198Y856222D01*
X168202Y856242D01*
X168210Y856261D01*
X168232Y856399D01*
X168258Y856535D01*
X168257Y856555D01*
X168260Y856575D01*
X168247Y856714D01*
X168238Y856852D01*
X168232Y856871D01*
X168230Y856891D01*
X168183Y857023D01*
X168140Y857154D01*
X168129Y857172D01*
X168123Y857191D01*
X168045Y857306D01*
X167970Y857423D01*
X167955Y857437D01*
X167944Y857454D01*
X167840Y857546D01*
X167739Y857641D01*
X167721Y857651D01*
X167706Y857664D01*
X167581Y857728D01*
X167460Y857795D01*
X167440Y857800D01*
X167422Y857809D01*
X167287Y857839D01*
X167152Y857874D01*
X167124Y857876D01*
X167112Y857879D01*
X167092Y857878D01*
X166991Y857884D01*
X158129Y857884D01*
X157991Y857867D01*
X157852Y857854D01*
X157833Y857847D01*
X157813Y857844D01*
X157684Y857793D01*
X157553Y857746D01*
X157536Y857735D01*
X157517Y857727D01*
X157405Y857646D01*
X157290Y857568D01*
X157276Y857552D01*
X157260Y857541D01*
X157171Y857433D01*
X157079Y857329D01*
X157070Y857311D01*
X157057Y857296D01*
X156998Y857170D01*
X156935Y857046D01*
X156930Y857026D01*
X156922Y857008D01*
X156896Y856871D01*
X156865Y856736D01*
X156866Y856715D01*
X156862Y856696D01*
X156871Y856557D01*
X156875Y856418D01*
X156880Y856398D01*
X156882Y856378D01*
X156924Y856246D01*
X156963Y856112D01*
X156973Y856095D01*
X156980Y856076D01*
X157054Y855958D01*
X157125Y855838D01*
X157143Y855817D01*
X157150Y855807D01*
X157165Y855793D01*
X157231Y855718D01*
X158689Y854259D01*
X160275Y850432D01*
X160275Y846288D01*
X158689Y842461D01*
X155759Y839531D01*
X152549Y838201D01*
X152524Y838186D01*
X152496Y838177D01*
X152386Y838108D01*
X152273Y838044D01*
X152252Y838023D01*
X152227Y838007D01*
X152138Y837913D01*
X152045Y837822D01*
X152029Y837797D01*
X152009Y837776D01*
X151946Y837662D01*
X151878Y837551D01*
X151870Y837523D01*
X151855Y837497D01*
X151823Y837371D01*
X151785Y837247D01*
X151783Y837218D01*
X151776Y837189D01*
X151766Y837028D01*
X151766Y762481D01*
X46727Y657442D01*
X46667Y657364D01*
X46599Y657292D01*
X46570Y657239D01*
X46533Y657191D01*
X46493Y657100D01*
X46445Y657013D01*
X46430Y656955D01*
X46406Y656899D01*
X46391Y656801D01*
X46366Y656706D01*
X46360Y656606D01*
X46356Y656585D01*
X46358Y656573D01*
X46356Y656545D01*
X46356Y439096D01*
X46373Y438958D01*
X46386Y438819D01*
X46393Y438800D01*
X46396Y438780D01*
X46447Y438651D01*
X46494Y438520D01*
X46505Y438503D01*
X46513Y438484D01*
X46594Y438372D01*
X46672Y438257D01*
X46688Y438244D01*
X46699Y438227D01*
X46807Y438138D01*
X46911Y438046D01*
X46929Y438037D01*
X46944Y438024D01*
X47070Y437965D01*
X47194Y437902D01*
X47214Y437897D01*
X47232Y437889D01*
X47368Y437863D01*
X47504Y437832D01*
X47525Y437833D01*
X47544Y437829D01*
X47683Y437838D01*
X47822Y437842D01*
X47842Y437848D01*
X47862Y437849D01*
X47994Y437892D01*
X48128Y437930D01*
X48145Y437941D01*
X48164Y437947D01*
X48282Y438021D01*
X48402Y438092D01*
X48423Y438110D01*
X48433Y438117D01*
X48447Y438132D01*
X48523Y438198D01*
X48848Y438523D01*
X51762Y439731D01*
X54918Y439731D01*
X57832Y438523D01*
X60063Y436292D01*
X61271Y433378D01*
X61271Y430222D01*
X60524Y428419D01*
X60516Y428391D01*
X60503Y428365D01*
X60474Y428238D01*
X60440Y428113D01*
X60439Y428083D01*
X60433Y428054D01*
X60437Y427925D01*
X60435Y427795D01*
X60442Y427766D01*
X60443Y427736D01*
X60479Y427612D01*
X60509Y427485D01*
X60523Y427459D01*
X60531Y427431D01*
X60597Y427319D01*
X60658Y427204D01*
X60678Y427182D01*
X60693Y427157D01*
X60799Y427036D01*
X201668Y286168D01*
X201777Y286082D01*
X201884Y285994D01*
X201903Y285985D01*
X201919Y285973D01*
X202047Y285917D01*
X202172Y285858D01*
X202192Y285854D01*
X202211Y285846D01*
X202349Y285824D01*
X202485Y285798D01*
X202505Y285800D01*
X202525Y285796D01*
X202664Y285810D01*
G37*
%LPC*%
G36*
X74426Y1013205D02*
X74426Y1013205D01*
X68325Y1019306D01*
X68325Y1027934D01*
X74426Y1034035D01*
X75565Y1034035D01*
X75683Y1034050D01*
X75802Y1034057D01*
X75840Y1034070D01*
X75881Y1034075D01*
X75991Y1034118D01*
X76104Y1034155D01*
X76139Y1034177D01*
X76176Y1034192D01*
X76272Y1034261D01*
X76373Y1034325D01*
X76401Y1034355D01*
X76434Y1034378D01*
X76510Y1034470D01*
X76591Y1034557D01*
X76611Y1034592D01*
X76636Y1034623D01*
X76687Y1034731D01*
X76745Y1034835D01*
X76755Y1034875D01*
X76772Y1034911D01*
X76794Y1035028D01*
X76824Y1035143D01*
X76828Y1035203D01*
X76832Y1035223D01*
X76830Y1035244D01*
X76834Y1035304D01*
X76834Y1037336D01*
X76819Y1037454D01*
X76812Y1037573D01*
X76799Y1037611D01*
X76794Y1037652D01*
X76751Y1037762D01*
X76714Y1037875D01*
X76692Y1037910D01*
X76677Y1037947D01*
X76608Y1038043D01*
X76544Y1038144D01*
X76514Y1038172D01*
X76491Y1038205D01*
X76399Y1038281D01*
X76312Y1038362D01*
X76277Y1038382D01*
X76246Y1038407D01*
X76138Y1038458D01*
X76034Y1038516D01*
X75994Y1038526D01*
X75958Y1038543D01*
X75841Y1038565D01*
X75726Y1038595D01*
X75666Y1038599D01*
X75646Y1038603D01*
X75625Y1038601D01*
X75565Y1038605D01*
X74426Y1038605D01*
X68325Y1044706D01*
X68325Y1053334D01*
X74426Y1059435D01*
X83054Y1059435D01*
X89155Y1053334D01*
X89155Y1044706D01*
X83054Y1038605D01*
X81915Y1038605D01*
X81797Y1038590D01*
X81678Y1038583D01*
X81640Y1038570D01*
X81599Y1038565D01*
X81489Y1038522D01*
X81376Y1038485D01*
X81341Y1038463D01*
X81304Y1038448D01*
X81208Y1038379D01*
X81107Y1038315D01*
X81079Y1038285D01*
X81046Y1038262D01*
X80970Y1038170D01*
X80889Y1038083D01*
X80869Y1038048D01*
X80844Y1038017D01*
X80793Y1037909D01*
X80735Y1037805D01*
X80725Y1037765D01*
X80708Y1037729D01*
X80686Y1037612D01*
X80656Y1037497D01*
X80652Y1037437D01*
X80648Y1037417D01*
X80650Y1037396D01*
X80646Y1037336D01*
X80646Y1035304D01*
X80661Y1035186D01*
X80668Y1035067D01*
X80681Y1035029D01*
X80686Y1034988D01*
X80729Y1034878D01*
X80766Y1034765D01*
X80788Y1034730D01*
X80803Y1034693D01*
X80872Y1034597D01*
X80936Y1034496D01*
X80966Y1034468D01*
X80989Y1034435D01*
X81081Y1034359D01*
X81168Y1034278D01*
X81203Y1034258D01*
X81234Y1034233D01*
X81342Y1034182D01*
X81446Y1034124D01*
X81486Y1034114D01*
X81522Y1034097D01*
X81639Y1034075D01*
X81754Y1034045D01*
X81814Y1034041D01*
X81834Y1034037D01*
X81855Y1034039D01*
X81915Y1034035D01*
X83054Y1034035D01*
X89155Y1027934D01*
X89155Y1019306D01*
X83054Y1013205D01*
X74426Y1013205D01*
G37*
%LPD*%
%LPC*%
G36*
X176026Y1013205D02*
X176026Y1013205D01*
X169925Y1019306D01*
X169925Y1027934D01*
X176026Y1034035D01*
X177165Y1034035D01*
X177283Y1034050D01*
X177402Y1034057D01*
X177440Y1034070D01*
X177481Y1034075D01*
X177591Y1034118D01*
X177704Y1034155D01*
X177739Y1034177D01*
X177776Y1034192D01*
X177872Y1034261D01*
X177973Y1034325D01*
X178001Y1034355D01*
X178034Y1034378D01*
X178110Y1034470D01*
X178191Y1034557D01*
X178211Y1034592D01*
X178236Y1034623D01*
X178287Y1034731D01*
X178345Y1034835D01*
X178355Y1034875D01*
X178372Y1034911D01*
X178394Y1035028D01*
X178424Y1035143D01*
X178428Y1035203D01*
X178432Y1035223D01*
X178430Y1035244D01*
X178434Y1035304D01*
X178434Y1037336D01*
X178419Y1037454D01*
X178412Y1037573D01*
X178399Y1037611D01*
X178394Y1037652D01*
X178351Y1037762D01*
X178314Y1037875D01*
X178292Y1037910D01*
X178277Y1037947D01*
X178208Y1038043D01*
X178144Y1038144D01*
X178114Y1038172D01*
X178091Y1038205D01*
X177999Y1038281D01*
X177912Y1038362D01*
X177877Y1038382D01*
X177846Y1038407D01*
X177738Y1038458D01*
X177634Y1038516D01*
X177594Y1038526D01*
X177558Y1038543D01*
X177441Y1038565D01*
X177326Y1038595D01*
X177266Y1038599D01*
X177246Y1038603D01*
X177225Y1038601D01*
X177165Y1038605D01*
X176026Y1038605D01*
X169925Y1044706D01*
X169925Y1053334D01*
X176026Y1059435D01*
X184654Y1059435D01*
X190755Y1053334D01*
X190755Y1044706D01*
X184654Y1038605D01*
X183515Y1038605D01*
X183397Y1038590D01*
X183278Y1038583D01*
X183240Y1038570D01*
X183199Y1038565D01*
X183089Y1038522D01*
X182976Y1038485D01*
X182941Y1038463D01*
X182904Y1038448D01*
X182808Y1038379D01*
X182707Y1038315D01*
X182679Y1038285D01*
X182646Y1038262D01*
X182570Y1038170D01*
X182489Y1038083D01*
X182469Y1038048D01*
X182444Y1038017D01*
X182393Y1037909D01*
X182335Y1037805D01*
X182325Y1037765D01*
X182308Y1037729D01*
X182286Y1037612D01*
X182256Y1037497D01*
X182252Y1037437D01*
X182248Y1037417D01*
X182250Y1037396D01*
X182246Y1037336D01*
X182246Y1035304D01*
X182261Y1035186D01*
X182268Y1035067D01*
X182281Y1035029D01*
X182286Y1034988D01*
X182329Y1034878D01*
X182366Y1034765D01*
X182388Y1034730D01*
X182403Y1034693D01*
X182472Y1034597D01*
X182536Y1034496D01*
X182566Y1034468D01*
X182589Y1034435D01*
X182681Y1034359D01*
X182768Y1034278D01*
X182803Y1034258D01*
X182834Y1034233D01*
X182942Y1034182D01*
X183046Y1034124D01*
X183086Y1034114D01*
X183122Y1034097D01*
X183239Y1034075D01*
X183354Y1034045D01*
X183414Y1034041D01*
X183434Y1034037D01*
X183455Y1034039D01*
X183515Y1034035D01*
X184654Y1034035D01*
X190755Y1027934D01*
X190755Y1019306D01*
X184654Y1013205D01*
X176026Y1013205D01*
G37*
%LPD*%
%LPC*%
G36*
X201426Y1013205D02*
X201426Y1013205D01*
X195325Y1019306D01*
X195325Y1027934D01*
X201426Y1034035D01*
X202565Y1034035D01*
X202683Y1034050D01*
X202802Y1034057D01*
X202840Y1034070D01*
X202881Y1034075D01*
X202991Y1034118D01*
X203104Y1034155D01*
X203139Y1034177D01*
X203176Y1034192D01*
X203272Y1034261D01*
X203373Y1034325D01*
X203401Y1034355D01*
X203434Y1034378D01*
X203510Y1034470D01*
X203591Y1034557D01*
X203611Y1034592D01*
X203636Y1034623D01*
X203687Y1034731D01*
X203745Y1034835D01*
X203755Y1034875D01*
X203772Y1034911D01*
X203794Y1035028D01*
X203824Y1035143D01*
X203828Y1035203D01*
X203832Y1035223D01*
X203830Y1035244D01*
X203834Y1035304D01*
X203834Y1037336D01*
X203819Y1037454D01*
X203812Y1037573D01*
X203799Y1037611D01*
X203794Y1037652D01*
X203751Y1037762D01*
X203714Y1037875D01*
X203692Y1037910D01*
X203677Y1037947D01*
X203608Y1038043D01*
X203544Y1038144D01*
X203514Y1038172D01*
X203491Y1038205D01*
X203399Y1038281D01*
X203312Y1038362D01*
X203277Y1038382D01*
X203246Y1038407D01*
X203138Y1038458D01*
X203034Y1038516D01*
X202994Y1038526D01*
X202958Y1038543D01*
X202841Y1038565D01*
X202726Y1038595D01*
X202666Y1038599D01*
X202646Y1038603D01*
X202625Y1038601D01*
X202565Y1038605D01*
X201426Y1038605D01*
X195325Y1044706D01*
X195325Y1053334D01*
X201426Y1059435D01*
X210054Y1059435D01*
X216155Y1053334D01*
X216155Y1044706D01*
X210054Y1038605D01*
X208915Y1038605D01*
X208797Y1038590D01*
X208678Y1038583D01*
X208640Y1038570D01*
X208599Y1038565D01*
X208489Y1038522D01*
X208376Y1038485D01*
X208341Y1038463D01*
X208304Y1038448D01*
X208208Y1038379D01*
X208107Y1038315D01*
X208079Y1038285D01*
X208046Y1038262D01*
X207970Y1038170D01*
X207889Y1038083D01*
X207869Y1038048D01*
X207844Y1038017D01*
X207793Y1037909D01*
X207735Y1037805D01*
X207725Y1037765D01*
X207708Y1037729D01*
X207686Y1037612D01*
X207656Y1037497D01*
X207652Y1037437D01*
X207648Y1037417D01*
X207650Y1037396D01*
X207646Y1037336D01*
X207646Y1035304D01*
X207661Y1035186D01*
X207668Y1035067D01*
X207681Y1035029D01*
X207686Y1034988D01*
X207729Y1034878D01*
X207766Y1034765D01*
X207788Y1034730D01*
X207803Y1034693D01*
X207872Y1034597D01*
X207936Y1034496D01*
X207966Y1034468D01*
X207989Y1034435D01*
X208081Y1034359D01*
X208168Y1034278D01*
X208203Y1034258D01*
X208234Y1034233D01*
X208342Y1034182D01*
X208446Y1034124D01*
X208486Y1034114D01*
X208522Y1034097D01*
X208639Y1034075D01*
X208754Y1034045D01*
X208814Y1034041D01*
X208834Y1034037D01*
X208855Y1034039D01*
X208915Y1034035D01*
X210054Y1034035D01*
X216155Y1027934D01*
X216155Y1019306D01*
X210054Y1013205D01*
X201426Y1013205D01*
G37*
%LPD*%
%LPC*%
G36*
X160242Y475449D02*
X160242Y475449D01*
X151589Y484102D01*
X151589Y496338D01*
X160242Y504991D01*
X172478Y504991D01*
X181131Y496338D01*
X181131Y484102D01*
X172478Y475449D01*
X160242Y475449D01*
G37*
%LPD*%
%LPC*%
G36*
X127242Y660869D02*
X127242Y660869D01*
X118589Y669522D01*
X118589Y681758D01*
X127242Y690411D01*
X139478Y690411D01*
X148131Y681758D01*
X148131Y669522D01*
X139478Y660869D01*
X127242Y660869D01*
G37*
%LPD*%
%LPC*%
G36*
X127242Y290029D02*
X127242Y290029D01*
X118589Y298682D01*
X118589Y310918D01*
X127242Y319571D01*
X139478Y319571D01*
X148131Y310918D01*
X148131Y298682D01*
X139478Y290029D01*
X127242Y290029D01*
G37*
%LPD*%
%LPC*%
G36*
X63859Y593701D02*
X63859Y593701D01*
X63859Y604410D01*
X63844Y604528D01*
X63837Y604647D01*
X63824Y604685D01*
X63819Y604725D01*
X63776Y604836D01*
X63739Y604949D01*
X63717Y604983D01*
X63702Y605021D01*
X63633Y605117D01*
X63569Y605218D01*
X63539Y605246D01*
X63516Y605278D01*
X63424Y605354D01*
X63337Y605436D01*
X63302Y605455D01*
X63271Y605481D01*
X63163Y605532D01*
X63059Y605589D01*
X63019Y605599D01*
X62983Y605617D01*
X62876Y605637D01*
X62906Y605641D01*
X63016Y605685D01*
X63129Y605721D01*
X63164Y605743D01*
X63201Y605758D01*
X63297Y605828D01*
X63398Y605891D01*
X63426Y605921D01*
X63459Y605945D01*
X63535Y606036D01*
X63616Y606123D01*
X63636Y606158D01*
X63661Y606190D01*
X63712Y606297D01*
X63770Y606402D01*
X63780Y606441D01*
X63797Y606477D01*
X63819Y606594D01*
X63849Y606710D01*
X63853Y606770D01*
X63857Y606790D01*
X63855Y606810D01*
X63859Y606870D01*
X63859Y617579D01*
X71092Y617579D01*
X71739Y617406D01*
X72318Y617071D01*
X72791Y616598D01*
X73126Y616019D01*
X73196Y615756D01*
X73254Y615614D01*
X73266Y615582D01*
X73291Y615514D01*
X73297Y615506D01*
X73310Y615473D01*
X73314Y615468D01*
X73316Y615461D01*
X73407Y615339D01*
X73452Y615277D01*
X73469Y615251D01*
X73473Y615248D01*
X73496Y615216D01*
X73502Y615211D01*
X73506Y615206D01*
X73623Y615111D01*
X73741Y615013D01*
X73748Y615010D01*
X73753Y615006D01*
X73892Y614942D01*
X74029Y614877D01*
X74036Y614876D01*
X74042Y614873D01*
X74193Y614846D01*
X74342Y614818D01*
X74348Y614818D01*
X74355Y614817D01*
X74507Y614828D01*
X74659Y614837D01*
X74665Y614839D01*
X74672Y614840D01*
X74818Y614889D01*
X74961Y614935D01*
X74967Y614939D01*
X74974Y614941D01*
X75102Y615024D01*
X75230Y615106D01*
X75235Y615110D01*
X75240Y615114D01*
X75283Y615161D01*
X75320Y615193D01*
X76436Y616309D01*
X96284Y616309D01*
X97029Y615564D01*
X97029Y595716D01*
X96284Y594971D01*
X76436Y594971D01*
X75367Y596040D01*
X75357Y596054D01*
X75351Y596059D01*
X75348Y596064D01*
X75231Y596161D01*
X75114Y596260D01*
X75108Y596263D01*
X75103Y596267D01*
X74966Y596331D01*
X74828Y596398D01*
X74821Y596400D01*
X74815Y596403D01*
X74667Y596431D01*
X74516Y596461D01*
X74509Y596461D01*
X74503Y596462D01*
X74351Y596453D01*
X74198Y596445D01*
X74192Y596443D01*
X74185Y596443D01*
X74040Y596396D01*
X73895Y596350D01*
X73889Y596347D01*
X73883Y596345D01*
X73754Y596263D01*
X73624Y596183D01*
X73620Y596178D01*
X73614Y596174D01*
X73585Y596144D01*
X73583Y596143D01*
X73575Y596133D01*
X73509Y596063D01*
X73404Y595954D01*
X73401Y595948D01*
X73396Y595943D01*
X73378Y595910D01*
X73373Y595904D01*
X73350Y595859D01*
X73323Y595810D01*
X73247Y595677D01*
X73245Y595668D01*
X73242Y595664D01*
X73240Y595654D01*
X73229Y595623D01*
X73228Y595621D01*
X73227Y595617D01*
X73196Y595524D01*
X73126Y595261D01*
X72791Y594682D01*
X72318Y594209D01*
X71739Y593874D01*
X71092Y593701D01*
X63859Y593701D01*
G37*
%LPD*%
%LPC*%
G36*
X77162Y423869D02*
X77162Y423869D01*
X74248Y425077D01*
X72017Y427308D01*
X70809Y430222D01*
X70809Y433378D01*
X72017Y436292D01*
X74248Y438523D01*
X77162Y439731D01*
X80318Y439731D01*
X83232Y438523D01*
X85463Y436292D01*
X86210Y434489D01*
X86225Y434464D01*
X86234Y434436D01*
X86303Y434326D01*
X86368Y434213D01*
X86388Y434192D01*
X86404Y434167D01*
X86499Y434078D01*
X86589Y433985D01*
X86614Y433969D01*
X86636Y433949D01*
X86749Y433886D01*
X86860Y433818D01*
X86888Y433810D01*
X86914Y433795D01*
X87040Y433763D01*
X87164Y433725D01*
X87194Y433723D01*
X87222Y433716D01*
X87383Y433706D01*
X95497Y433706D01*
X95526Y433709D01*
X95556Y433707D01*
X95684Y433729D01*
X95813Y433746D01*
X95840Y433756D01*
X95869Y433761D01*
X95988Y433815D01*
X96108Y433863D01*
X96132Y433880D01*
X96159Y433892D01*
X96261Y433973D01*
X96366Y434049D01*
X96385Y434072D01*
X96408Y434091D01*
X96486Y434194D01*
X96569Y434294D01*
X96581Y434321D01*
X96599Y434345D01*
X96670Y434489D01*
X97417Y436292D01*
X99648Y438523D01*
X102562Y439731D01*
X105718Y439731D01*
X108632Y438523D01*
X110863Y436292D01*
X112071Y433378D01*
X112071Y430222D01*
X110863Y427308D01*
X108632Y425077D01*
X105718Y423869D01*
X102562Y423869D01*
X99648Y425077D01*
X97417Y427308D01*
X96670Y429111D01*
X96655Y429136D01*
X96646Y429164D01*
X96577Y429274D01*
X96512Y429387D01*
X96492Y429408D01*
X96476Y429433D01*
X96381Y429522D01*
X96291Y429615D01*
X96266Y429631D01*
X96244Y429651D01*
X96131Y429714D01*
X96020Y429782D01*
X95992Y429790D01*
X95966Y429805D01*
X95840Y429837D01*
X95716Y429875D01*
X95686Y429877D01*
X95658Y429884D01*
X95497Y429894D01*
X87383Y429894D01*
X87354Y429891D01*
X87324Y429893D01*
X87196Y429871D01*
X87067Y429854D01*
X87040Y429844D01*
X87011Y429839D01*
X86892Y429785D01*
X86772Y429737D01*
X86748Y429720D01*
X86721Y429708D01*
X86619Y429627D01*
X86514Y429551D01*
X86495Y429528D01*
X86472Y429509D01*
X86394Y429406D01*
X86311Y429306D01*
X86299Y429279D01*
X86281Y429255D01*
X86210Y429111D01*
X85463Y427308D01*
X83232Y425077D01*
X80318Y423869D01*
X77162Y423869D01*
G37*
%LPD*%
%LPC*%
G36*
X132079Y1026159D02*
X132079Y1026159D01*
X132079Y1046481D01*
X152401Y1046481D01*
X152401Y1026159D01*
X132079Y1026159D01*
G37*
%LPD*%
%LPC*%
G36*
X106679Y1026159D02*
X106679Y1026159D01*
X106679Y1046481D01*
X127001Y1046481D01*
X127001Y1026159D01*
X106679Y1026159D01*
G37*
%LPD*%
%LPC*%
G36*
X223938Y629411D02*
X223938Y629411D01*
X220017Y631035D01*
X217015Y634037D01*
X215391Y637958D01*
X215391Y642202D01*
X217015Y646123D01*
X220017Y649125D01*
X223938Y650749D01*
X228182Y650749D01*
X232103Y649125D01*
X235105Y646123D01*
X236729Y642202D01*
X236729Y637958D01*
X235105Y634037D01*
X232103Y631035D01*
X228182Y629411D01*
X223938Y629411D01*
G37*
%LPD*%
%LPC*%
G36*
X249338Y629411D02*
X249338Y629411D01*
X245417Y631035D01*
X242415Y634037D01*
X240791Y637958D01*
X240791Y642202D01*
X242415Y646123D01*
X245417Y649125D01*
X249338Y650749D01*
X253582Y650749D01*
X257503Y649125D01*
X260505Y646123D01*
X262129Y642202D01*
X262129Y637958D01*
X260505Y634037D01*
X257503Y631035D01*
X253582Y629411D01*
X249338Y629411D01*
G37*
%LPD*%
%LPC*%
G36*
X69346Y97535D02*
X69346Y97535D01*
X63245Y103636D01*
X63245Y112264D01*
X69346Y118365D01*
X77974Y118365D01*
X84075Y112264D01*
X84075Y103636D01*
X77974Y97535D01*
X69346Y97535D01*
G37*
%LPD*%
%LPC*%
G36*
X226826Y1038605D02*
X226826Y1038605D01*
X220725Y1044706D01*
X220725Y1053334D01*
X226826Y1059435D01*
X235454Y1059435D01*
X241555Y1053334D01*
X241555Y1044706D01*
X235454Y1038605D01*
X226826Y1038605D01*
G37*
%LPD*%
%LPC*%
G36*
X226826Y1013205D02*
X226826Y1013205D01*
X220725Y1019306D01*
X220725Y1027934D01*
X226826Y1034035D01*
X235454Y1034035D01*
X241555Y1027934D01*
X241555Y1019306D01*
X235454Y1013205D01*
X226826Y1013205D01*
G37*
%LPD*%
%LPC*%
G36*
X252226Y1013205D02*
X252226Y1013205D01*
X246125Y1019306D01*
X246125Y1027934D01*
X252226Y1034035D01*
X260854Y1034035D01*
X266955Y1027934D01*
X266955Y1019306D01*
X260854Y1013205D01*
X252226Y1013205D01*
G37*
%LPD*%
%LPC*%
G36*
X252226Y1038605D02*
X252226Y1038605D01*
X246125Y1044706D01*
X246125Y1053334D01*
X252226Y1059435D01*
X260854Y1059435D01*
X266955Y1053334D01*
X266955Y1044706D01*
X260854Y1038605D01*
X252226Y1038605D01*
G37*
%LPD*%
%LPC*%
G36*
X106679Y1051559D02*
X106679Y1051559D01*
X106679Y1060705D01*
X108980Y1060705D01*
X115943Y1053742D01*
X116037Y1053669D01*
X116126Y1053590D01*
X116162Y1053572D01*
X116194Y1053547D01*
X116303Y1053500D01*
X116409Y1053446D01*
X116448Y1053437D01*
X116486Y1053421D01*
X116603Y1053402D01*
X116719Y1053376D01*
X116760Y1053377D01*
X116800Y1053371D01*
X116918Y1053382D01*
X117037Y1053386D01*
X117076Y1053397D01*
X117116Y1053401D01*
X117229Y1053441D01*
X117343Y1053474D01*
X117378Y1053495D01*
X117416Y1053508D01*
X117514Y1053575D01*
X117617Y1053636D01*
X117662Y1053676D01*
X117679Y1053687D01*
X117692Y1053702D01*
X117738Y1053742D01*
X124700Y1060705D01*
X127001Y1060705D01*
X127001Y1051559D01*
X106679Y1051559D01*
G37*
%LPD*%
%LPC*%
G36*
X132079Y1051559D02*
X132079Y1051559D01*
X132079Y1060705D01*
X134380Y1060705D01*
X141343Y1053742D01*
X141437Y1053669D01*
X141526Y1053590D01*
X141562Y1053572D01*
X141594Y1053547D01*
X141703Y1053500D01*
X141809Y1053446D01*
X141848Y1053437D01*
X141886Y1053421D01*
X142003Y1053402D01*
X142119Y1053376D01*
X142160Y1053377D01*
X142200Y1053371D01*
X142318Y1053382D01*
X142437Y1053386D01*
X142476Y1053397D01*
X142516Y1053401D01*
X142629Y1053441D01*
X142743Y1053474D01*
X142778Y1053495D01*
X142816Y1053508D01*
X142914Y1053575D01*
X143017Y1053636D01*
X143062Y1053676D01*
X143079Y1053687D01*
X143092Y1053702D01*
X143138Y1053742D01*
X150100Y1060705D01*
X152401Y1060705D01*
X152401Y1051559D01*
X132079Y1051559D01*
G37*
%LPD*%
%LPC*%
G36*
X157479Y1026159D02*
X157479Y1026159D01*
X157479Y1046481D01*
X166625Y1046481D01*
X166625Y1044180D01*
X159662Y1037218D01*
X159589Y1037123D01*
X159510Y1037034D01*
X159492Y1036998D01*
X159467Y1036966D01*
X159420Y1036857D01*
X159366Y1036751D01*
X159357Y1036712D01*
X159341Y1036674D01*
X159322Y1036557D01*
X159296Y1036441D01*
X159297Y1036400D01*
X159291Y1036360D01*
X159302Y1036242D01*
X159306Y1036123D01*
X159317Y1036084D01*
X159321Y1036044D01*
X159361Y1035931D01*
X159394Y1035817D01*
X159415Y1035783D01*
X159428Y1035744D01*
X159495Y1035646D01*
X159556Y1035543D01*
X159596Y1035498D01*
X159607Y1035481D01*
X159622Y1035468D01*
X159662Y1035423D01*
X166625Y1028460D01*
X166625Y1026159D01*
X157479Y1026159D01*
G37*
%LPD*%
%LPC*%
G36*
X132079Y1011935D02*
X132079Y1011935D01*
X132079Y1021081D01*
X152401Y1021081D01*
X152401Y1011935D01*
X150100Y1011935D01*
X143137Y1018898D01*
X143043Y1018971D01*
X142954Y1019050D01*
X142918Y1019068D01*
X142886Y1019093D01*
X142777Y1019140D01*
X142671Y1019194D01*
X142632Y1019203D01*
X142594Y1019219D01*
X142477Y1019238D01*
X142361Y1019264D01*
X142320Y1019263D01*
X142280Y1019269D01*
X142162Y1019258D01*
X142043Y1019254D01*
X142004Y1019243D01*
X141964Y1019239D01*
X141851Y1019199D01*
X141737Y1019166D01*
X141702Y1019145D01*
X141664Y1019132D01*
X141566Y1019065D01*
X141463Y1019004D01*
X141418Y1018964D01*
X141401Y1018953D01*
X141388Y1018938D01*
X141342Y1018898D01*
X134380Y1011935D01*
X132079Y1011935D01*
G37*
%LPD*%
%LPC*%
G36*
X106679Y1011935D02*
X106679Y1011935D01*
X106679Y1021081D01*
X127001Y1021081D01*
X127001Y1011935D01*
X124700Y1011935D01*
X117738Y1018898D01*
X117643Y1018971D01*
X117554Y1019050D01*
X117518Y1019068D01*
X117486Y1019093D01*
X117377Y1019140D01*
X117271Y1019194D01*
X117232Y1019203D01*
X117194Y1019219D01*
X117077Y1019238D01*
X116961Y1019264D01*
X116920Y1019263D01*
X116880Y1019269D01*
X116762Y1019258D01*
X116643Y1019254D01*
X116604Y1019243D01*
X116564Y1019239D01*
X116451Y1019199D01*
X116337Y1019166D01*
X116303Y1019145D01*
X116264Y1019132D01*
X116166Y1019065D01*
X116063Y1019004D01*
X116018Y1018964D01*
X116001Y1018953D01*
X115988Y1018938D01*
X115943Y1018898D01*
X108980Y1011935D01*
X106679Y1011935D01*
G37*
%LPD*%
%LPC*%
G36*
X92455Y1026159D02*
X92455Y1026159D01*
X92455Y1028460D01*
X99418Y1035422D01*
X99491Y1035517D01*
X99570Y1035606D01*
X99588Y1035642D01*
X99613Y1035674D01*
X99660Y1035783D01*
X99714Y1035889D01*
X99723Y1035928D01*
X99739Y1035966D01*
X99758Y1036083D01*
X99784Y1036199D01*
X99783Y1036240D01*
X99789Y1036280D01*
X99778Y1036398D01*
X99774Y1036517D01*
X99763Y1036556D01*
X99759Y1036596D01*
X99719Y1036709D01*
X99686Y1036823D01*
X99665Y1036857D01*
X99652Y1036896D01*
X99585Y1036994D01*
X99524Y1037097D01*
X99484Y1037142D01*
X99473Y1037159D01*
X99458Y1037172D01*
X99418Y1037217D01*
X92455Y1044180D01*
X92455Y1046481D01*
X101601Y1046481D01*
X101601Y1026159D01*
X92455Y1026159D01*
G37*
%LPD*%
%LPC*%
G36*
X49421Y608139D02*
X49421Y608139D01*
X49421Y615372D01*
X49594Y616019D01*
X49929Y616598D01*
X50402Y617071D01*
X50981Y617406D01*
X51628Y617579D01*
X58861Y617579D01*
X58861Y608139D01*
X49421Y608139D01*
G37*
%LPD*%
%LPC*%
G36*
X51628Y593701D02*
X51628Y593701D01*
X50981Y593874D01*
X50402Y594209D01*
X49929Y594682D01*
X49594Y595261D01*
X49421Y595908D01*
X49421Y603141D01*
X58861Y603141D01*
X58861Y593701D01*
X51628Y593701D01*
G37*
%LPD*%
%LPC*%
G36*
X157479Y1051559D02*
X157479Y1051559D01*
X157479Y1060705D01*
X159780Y1060705D01*
X166625Y1053860D01*
X166625Y1051559D01*
X157479Y1051559D01*
G37*
%LPD*%
%LPC*%
G36*
X76199Y135889D02*
X76199Y135889D01*
X76199Y145035D01*
X78500Y145035D01*
X85345Y138190D01*
X85345Y135889D01*
X76199Y135889D01*
G37*
%LPD*%
%LPC*%
G36*
X228599Y135889D02*
X228599Y135889D01*
X228599Y145035D01*
X230900Y145035D01*
X237745Y138190D01*
X237745Y135889D01*
X228599Y135889D01*
G37*
%LPD*%
%LPC*%
G36*
X92455Y1051559D02*
X92455Y1051559D01*
X92455Y1053860D01*
X99300Y1060705D01*
X101601Y1060705D01*
X101601Y1051559D01*
X92455Y1051559D01*
G37*
%LPD*%
%LPC*%
G36*
X228599Y121665D02*
X228599Y121665D01*
X228599Y130811D01*
X237745Y130811D01*
X237745Y128510D01*
X230900Y121665D01*
X228599Y121665D01*
G37*
%LPD*%
%LPC*%
G36*
X76199Y121665D02*
X76199Y121665D01*
X76199Y130811D01*
X85345Y130811D01*
X85345Y128510D01*
X78500Y121665D01*
X76199Y121665D01*
G37*
%LPD*%
%LPC*%
G36*
X61975Y135889D02*
X61975Y135889D01*
X61975Y138190D01*
X68820Y145035D01*
X71121Y145035D01*
X71121Y135889D01*
X61975Y135889D01*
G37*
%LPD*%
%LPC*%
G36*
X157479Y1011935D02*
X157479Y1011935D01*
X157479Y1021081D01*
X166625Y1021081D01*
X166625Y1018780D01*
X159780Y1011935D01*
X157479Y1011935D01*
G37*
%LPD*%
%LPC*%
G36*
X99300Y1011935D02*
X99300Y1011935D01*
X92455Y1018780D01*
X92455Y1021081D01*
X101601Y1021081D01*
X101601Y1011935D01*
X99300Y1011935D01*
G37*
%LPD*%
%LPC*%
G36*
X68820Y121665D02*
X68820Y121665D01*
X61975Y128510D01*
X61975Y130811D01*
X71121Y130811D01*
X71121Y121665D01*
X68820Y121665D01*
G37*
%LPD*%
%LPC*%
G36*
X104139Y1023619D02*
X104139Y1023619D01*
X104139Y1023621D01*
X104141Y1023621D01*
X104141Y1023619D01*
X104139Y1023619D01*
G37*
%LPD*%
%LPC*%
G36*
X104139Y1049019D02*
X104139Y1049019D01*
X104139Y1049021D01*
X104141Y1049021D01*
X104141Y1049019D01*
X104139Y1049019D01*
G37*
%LPD*%
%LPC*%
G36*
X73659Y133349D02*
X73659Y133349D01*
X73659Y133351D01*
X73661Y133351D01*
X73661Y133349D01*
X73659Y133349D01*
G37*
%LPD*%
%LPC*%
G36*
X129539Y1049019D02*
X129539Y1049019D01*
X129539Y1049021D01*
X129541Y1049021D01*
X129541Y1049019D01*
X129539Y1049019D01*
G37*
%LPD*%
%LPC*%
G36*
X154939Y1049019D02*
X154939Y1049019D01*
X154939Y1049021D01*
X154941Y1049021D01*
X154941Y1049019D01*
X154939Y1049019D01*
G37*
%LPD*%
%LPC*%
G36*
X154939Y1023619D02*
X154939Y1023619D01*
X154939Y1023621D01*
X154941Y1023621D01*
X154941Y1023619D01*
X154939Y1023619D01*
G37*
%LPD*%
%LPC*%
G36*
X129539Y1023619D02*
X129539Y1023619D01*
X129539Y1023621D01*
X129541Y1023621D01*
X129541Y1023619D01*
X129539Y1023619D01*
G37*
%LPD*%
D10*
X73660Y133350D03*
X73660Y107950D03*
X73660Y31750D03*
X226060Y133350D03*
X226060Y107950D03*
X226060Y31750D03*
D11*
X53340Y431800D03*
X78740Y431800D03*
X104140Y431800D03*
D10*
X256540Y1023620D03*
X256540Y1049020D03*
X231140Y1023620D03*
X231140Y1049020D03*
X205740Y1023620D03*
X205740Y1049020D03*
X180340Y1023620D03*
X180340Y1049020D03*
X154940Y1023620D03*
X154940Y1049020D03*
X129540Y1023620D03*
X129540Y1049020D03*
X104140Y1023620D03*
X104140Y1049020D03*
X78740Y1023620D03*
X78740Y1049020D03*
D12*
X124460Y848360D03*
X149860Y848360D03*
X175260Y848360D03*
D13*
X111360Y605640D03*
X86360Y605640D03*
X61360Y605640D03*
D14*
X133360Y675640D03*
X39360Y675640D03*
D13*
X238360Y420220D03*
X213360Y420220D03*
X188360Y420220D03*
D14*
X260360Y490220D03*
X166360Y490220D03*
D13*
X111360Y234800D03*
X86360Y234800D03*
X61360Y234800D03*
D14*
X133360Y304800D03*
X39360Y304800D03*
D15*
X226060Y640080D03*
X251460Y640080D03*
D16*
X73660Y55880D02*
X73660Y31750D01*
X73660Y55880D02*
X49530Y80010D01*
X49530Y292100D01*
X55880Y298450D01*
X55880Y416560D01*
X44450Y427990D01*
X44450Y657860D01*
X149860Y763270D01*
X149860Y848360D01*
D17*
X217000Y294000D03*
X135000Y501000D03*
X252000Y877000D03*
X152000Y963000D03*
D16*
X205740Y1023620D02*
X205740Y1049020D01*
X104140Y431800D02*
X78740Y431800D01*
X198120Y261620D02*
X198120Y250190D01*
X198120Y261620D02*
X203200Y266700D01*
X203200Y281940D01*
X53340Y431800D01*
D18*
X198120Y250190D03*
D16*
X175260Y669290D02*
X175260Y848360D01*
X175260Y669290D02*
X111760Y605790D01*
X111360Y605640D01*
X180340Y1023620D02*
X180340Y1049020D01*
X78740Y1049020D02*
X78740Y1023620D01*
X251460Y476250D02*
X251460Y250190D01*
X251460Y476250D02*
X195580Y532130D01*
X195580Y680720D01*
D18*
X251460Y250190D03*
X195580Y680720D03*
D16*
X198120Y267970D02*
X144780Y267970D01*
X111760Y234950D01*
X111360Y234800D01*
X110490Y234950D02*
X86360Y234950D01*
X86360Y234800D01*
X110490Y234950D02*
X111360Y234800D01*
D18*
X198120Y267970D03*
D16*
X205740Y227330D02*
X205740Y400050D01*
X189230Y416560D01*
X189230Y419100D01*
X188360Y420220D01*
D18*
X205740Y227330D03*
D16*
X133350Y848360D02*
X124460Y848360D01*
X133350Y848360D02*
X144780Y859790D01*
X180340Y859790D01*
X190500Y849630D01*
X190500Y440690D01*
X201930Y429260D01*
X201930Y407670D01*
X212090Y397510D01*
X212090Y45720D01*
X226060Y31750D01*
M02*
