G04 EAGLE Gerber RS-274X export*
G75*
%MOMM*%
%FSLAX34Y34*%
%LPD*%
%IN*%
%IPPOS*%
%AMOC8*
5,1,8,0,0,1.08239X$1,22.5*%
G01*
%ADD10C,0.254000*%


D10*
X0Y0D02*
X300000Y0D01*
X300000Y1073000D01*
X0Y1073000D01*
X0Y0D01*
X62660Y76632D02*
X62728Y77494D01*
X62863Y78348D01*
X63065Y79188D01*
X63332Y80010D01*
X63663Y80809D01*
X64055Y81579D01*
X64507Y82316D01*
X65015Y83015D01*
X65576Y83673D01*
X66187Y84284D01*
X66845Y84845D01*
X67544Y85353D01*
X68281Y85805D01*
X69051Y86197D01*
X69850Y86528D01*
X70672Y86795D01*
X71512Y86997D01*
X72366Y87132D01*
X73228Y87200D01*
X74092Y87200D01*
X74954Y87132D01*
X75808Y86997D01*
X76648Y86795D01*
X77470Y86528D01*
X78269Y86197D01*
X79039Y85805D01*
X79776Y85353D01*
X80475Y84845D01*
X81133Y84284D01*
X81744Y83673D01*
X82305Y83015D01*
X82813Y82316D01*
X83265Y81579D01*
X83657Y80809D01*
X83988Y80010D01*
X84255Y79188D01*
X84457Y78348D01*
X84592Y77494D01*
X84660Y76632D01*
X84660Y75768D01*
X84592Y74906D01*
X84457Y74052D01*
X84255Y73212D01*
X83988Y72390D01*
X83657Y71591D01*
X83265Y70821D01*
X82813Y70084D01*
X82305Y69385D01*
X81744Y68727D01*
X81133Y68116D01*
X80475Y67555D01*
X79776Y67047D01*
X79039Y66595D01*
X78269Y66203D01*
X77470Y65872D01*
X76648Y65605D01*
X75808Y65403D01*
X74954Y65268D01*
X74092Y65200D01*
X73228Y65200D01*
X72366Y65268D01*
X71512Y65403D01*
X70672Y65605D01*
X69850Y65872D01*
X69051Y66203D01*
X68281Y66595D01*
X67544Y67047D01*
X66845Y67555D01*
X66187Y68116D01*
X65576Y68727D01*
X65015Y69385D01*
X64507Y70084D01*
X64055Y70821D01*
X63663Y71591D01*
X63332Y72390D01*
X63065Y73212D01*
X62863Y74052D01*
X62728Y74906D01*
X62660Y75768D01*
X62660Y76632D01*
X215060Y76632D02*
X215128Y77494D01*
X215263Y78348D01*
X215465Y79188D01*
X215732Y80010D01*
X216063Y80809D01*
X216455Y81579D01*
X216907Y82316D01*
X217415Y83015D01*
X217976Y83673D01*
X218587Y84284D01*
X219245Y84845D01*
X219944Y85353D01*
X220681Y85805D01*
X221451Y86197D01*
X222250Y86528D01*
X223072Y86795D01*
X223912Y86997D01*
X224766Y87132D01*
X225628Y87200D01*
X226492Y87200D01*
X227354Y87132D01*
X228208Y86997D01*
X229048Y86795D01*
X229870Y86528D01*
X230669Y86197D01*
X231439Y85805D01*
X232176Y85353D01*
X232875Y84845D01*
X233533Y84284D01*
X234144Y83673D01*
X234705Y83015D01*
X235213Y82316D01*
X235665Y81579D01*
X236057Y80809D01*
X236388Y80010D01*
X236655Y79188D01*
X236857Y78348D01*
X236992Y77494D01*
X237060Y76632D01*
X237060Y75768D01*
X236992Y74906D01*
X236857Y74052D01*
X236655Y73212D01*
X236388Y72390D01*
X236057Y71591D01*
X235665Y70821D01*
X235213Y70084D01*
X234705Y69385D01*
X234144Y68727D01*
X233533Y68116D01*
X232875Y67555D01*
X232176Y67047D01*
X231439Y66595D01*
X230669Y66203D01*
X229870Y65872D01*
X229048Y65605D01*
X228208Y65403D01*
X227354Y65268D01*
X226492Y65200D01*
X225628Y65200D01*
X224766Y65268D01*
X223912Y65403D01*
X223072Y65605D01*
X222250Y65872D01*
X221451Y66203D01*
X220681Y66595D01*
X219944Y67047D01*
X219245Y67555D01*
X218587Y68116D01*
X217976Y68727D01*
X217415Y69385D01*
X216907Y70084D01*
X216455Y70821D01*
X216063Y71591D01*
X215732Y72390D01*
X215465Y73212D01*
X215263Y74052D01*
X215128Y74906D01*
X215060Y75768D01*
X215060Y76632D01*
M02*
