G04 EAGLE Gerber RS-274X export*
G75*
%MOMM*%
%FSLAX34Y34*%
%LPD*%
%INSolderpaste Bottom*%
%IPPOS*%
%AMOC8*
5,1,8,0,0,1.08239X$1,22.5*%
G01*
%ADD10R,0.600000X1.250000*%
%ADD11R,0.650000X1.528000*%
%ADD12R,1.600000X2.800000*%
%ADD13R,1.600000X3.200000*%
%ADD14R,1.100000X1.000000*%
%ADD15R,0.750000X1.200000*%
%ADD16R,1.250000X0.600000*%


D10*
X20930Y551520D03*
X40030Y551520D03*
X30480Y530520D03*
D11*
X237490Y308170D03*
X224790Y308170D03*
X212090Y308170D03*
X199390Y308170D03*
X199390Y362390D03*
X212090Y362390D03*
X224790Y362390D03*
X237490Y362390D03*
D12*
X248920Y836840D03*
X248920Y793840D03*
D13*
X248920Y959720D03*
X248920Y909720D03*
X55880Y853840D03*
X55880Y903840D03*
D14*
X204080Y726440D03*
X187080Y726440D03*
D15*
X81280Y953280D03*
X81280Y987280D03*
X33020Y987280D03*
X33020Y953280D03*
D14*
X181220Y980440D03*
X164220Y980440D03*
X135500Y980440D03*
X118500Y980440D03*
X181220Y944880D03*
X164220Y944880D03*
X135500Y944880D03*
X118500Y944880D03*
X181220Y909320D03*
X164220Y909320D03*
X135500Y909320D03*
X118500Y909320D03*
X252340Y726440D03*
X235340Y726440D03*
D16*
X164760Y597510D03*
X164760Y616610D03*
X185760Y607060D03*
D14*
X204080Y688340D03*
X187080Y688340D03*
X89780Y558800D03*
X72780Y558800D03*
X72780Y523240D03*
X89780Y523240D03*
X252340Y228600D03*
X235340Y228600D03*
X252340Y259080D03*
X235340Y259080D03*
X252340Y198120D03*
X235340Y198120D03*
X135500Y558800D03*
X118500Y558800D03*
X135500Y523240D03*
X118500Y523240D03*
X196460Y259080D03*
X179460Y259080D03*
X196460Y228600D03*
X179460Y228600D03*
X196460Y198120D03*
X179460Y198120D03*
X196460Y167640D03*
X179460Y167640D03*
X158360Y111760D03*
X141360Y111760D03*
X158360Y76200D03*
X141360Y76200D03*
X158360Y40640D03*
X141360Y40640D03*
M02*
