G04 EAGLE Gerber RS-274X export*
G75*
%MOMM*%
%FSLAX34Y34*%
%LPD*%
%INSoldermask Top*%
%IPPOS*%
%AMOC8*
5,1,8,0,0,1.08239X$1,22.5*%
G01*
%ADD10P,2.199416X8X202.500000*%
%ADD11C,2.403200*%
%ADD12C,1.535200*%
%ADD13C,2.032000*%
%ADD14R,2.082800X2.082800*%
%ADD15P,3.142395X8X112.500000*%
%ADD16C,2.082800*%
%ADD17C,0.705600*%
%ADD18C,0.655600*%


D10*
X73660Y133350D03*
X73660Y107950D03*
X73660Y31750D03*
D11*
X73660Y76200D03*
D10*
X226060Y133350D03*
X226060Y107950D03*
X226060Y31750D03*
D11*
X226060Y76200D03*
D12*
X53340Y431800D03*
X78740Y431800D03*
X104140Y431800D03*
D10*
X256540Y1023620D03*
X256540Y1049020D03*
X231140Y1023620D03*
X231140Y1049020D03*
X205740Y1023620D03*
X205740Y1049020D03*
X180340Y1023620D03*
X180340Y1049020D03*
X154940Y1023620D03*
X154940Y1049020D03*
X129540Y1023620D03*
X129540Y1049020D03*
X104140Y1023620D03*
X104140Y1049020D03*
X78740Y1023620D03*
X78740Y1049020D03*
D13*
X124460Y848360D03*
X149860Y848360D03*
X175260Y848360D03*
D14*
X111360Y605640D03*
X86360Y605640D03*
X61360Y605640D03*
D15*
X133360Y675640D03*
X39360Y675640D03*
D14*
X238360Y420220D03*
X213360Y420220D03*
X188360Y420220D03*
D15*
X260360Y490220D03*
X166360Y490220D03*
D14*
X111360Y234800D03*
X86360Y234800D03*
X61360Y234800D03*
D15*
X133360Y304800D03*
X39360Y304800D03*
D16*
X226060Y640080D03*
X251460Y640080D03*
D17*
X217000Y294000D03*
X135000Y501000D03*
X252000Y877000D03*
X152000Y963000D03*
D18*
X198120Y250190D03*
X251460Y250190D03*
X195580Y680720D03*
X198120Y267970D03*
X205740Y227330D03*
M02*
