G04 EAGLE Gerber RS-274X export*
G75*
%MOMM*%
%FSLAX34Y34*%
%LPD*%
%INSoldermask Bottom*%
%IPPOS*%
%AMOC8*
5,1,8,0,0,1.08239X$1,22.5*%
G01*
%ADD10P,2.199416X8X202.500000*%
%ADD11C,2.403200*%
%ADD12C,1.535200*%
%ADD13R,0.803200X1.453200*%
%ADD14C,2.032000*%
%ADD15R,0.853200X1.731200*%
%ADD16R,1.803200X3.003200*%
%ADD17R,1.803200X3.403200*%
%ADD18R,2.082800X2.082800*%
%ADD19P,3.142395X8X112.500000*%
%ADD20R,1.303200X1.203200*%
%ADD21R,0.953200X1.403200*%
%ADD22C,2.082800*%
%ADD23R,1.453200X0.803200*%
%ADD24C,0.705600*%
%ADD25C,0.655600*%


D10*
X73660Y133350D03*
X73660Y107950D03*
X73660Y31750D03*
D11*
X73660Y76200D03*
D10*
X226060Y133350D03*
X226060Y107950D03*
X226060Y31750D03*
D11*
X226060Y76200D03*
D12*
X53340Y431800D03*
X78740Y431800D03*
X104140Y431800D03*
D10*
X256540Y1023620D03*
X256540Y1049020D03*
X231140Y1023620D03*
X231140Y1049020D03*
X205740Y1023620D03*
X205740Y1049020D03*
X180340Y1023620D03*
X180340Y1049020D03*
X154940Y1023620D03*
X154940Y1049020D03*
X129540Y1023620D03*
X129540Y1049020D03*
X104140Y1023620D03*
X104140Y1049020D03*
X78740Y1023620D03*
X78740Y1049020D03*
D13*
X20930Y551520D03*
X40030Y551520D03*
X30480Y530520D03*
D14*
X124460Y848360D03*
X149860Y848360D03*
X175260Y848360D03*
D15*
X237490Y308170D03*
X224790Y308170D03*
X212090Y308170D03*
X199390Y308170D03*
X199390Y362390D03*
X212090Y362390D03*
X224790Y362390D03*
X237490Y362390D03*
D16*
X248920Y836840D03*
X248920Y793840D03*
D17*
X248920Y959720D03*
X248920Y909720D03*
X55880Y853840D03*
X55880Y903840D03*
D18*
X111360Y605640D03*
X86360Y605640D03*
X61360Y605640D03*
D19*
X133360Y675640D03*
X39360Y675640D03*
D20*
X204080Y726440D03*
X187080Y726440D03*
D21*
X81280Y953280D03*
X81280Y987280D03*
X33020Y987280D03*
X33020Y953280D03*
D20*
X181220Y980440D03*
X164220Y980440D03*
X135500Y980440D03*
X118500Y980440D03*
X181220Y944880D03*
X164220Y944880D03*
X135500Y944880D03*
X118500Y944880D03*
X181220Y909320D03*
X164220Y909320D03*
X135500Y909320D03*
X118500Y909320D03*
D18*
X238360Y420220D03*
X213360Y420220D03*
X188360Y420220D03*
D19*
X260360Y490220D03*
X166360Y490220D03*
D18*
X111360Y234800D03*
X86360Y234800D03*
X61360Y234800D03*
D19*
X133360Y304800D03*
X39360Y304800D03*
D22*
X226060Y640080D03*
X251460Y640080D03*
D20*
X252340Y726440D03*
X235340Y726440D03*
D23*
X164760Y597510D03*
X164760Y616610D03*
X185760Y607060D03*
D20*
X204080Y688340D03*
X187080Y688340D03*
X89780Y558800D03*
X72780Y558800D03*
X72780Y523240D03*
X89780Y523240D03*
X252340Y228600D03*
X235340Y228600D03*
X252340Y259080D03*
X235340Y259080D03*
X252340Y198120D03*
X235340Y198120D03*
X135500Y558800D03*
X118500Y558800D03*
X135500Y523240D03*
X118500Y523240D03*
X196460Y259080D03*
X179460Y259080D03*
X196460Y228600D03*
X179460Y228600D03*
X196460Y198120D03*
X179460Y198120D03*
X196460Y167640D03*
X179460Y167640D03*
X158360Y111760D03*
X141360Y111760D03*
X158360Y76200D03*
X141360Y76200D03*
X158360Y40640D03*
X141360Y40640D03*
D24*
X217000Y294000D03*
X135000Y501000D03*
X252000Y877000D03*
X152000Y963000D03*
D25*
X198120Y250190D03*
X251460Y250190D03*
X195580Y680720D03*
X198120Y267970D03*
X205740Y227330D03*
M02*
