<?xml version="1.0" encoding="UTF-8" standalone="no"?>
<!-- Created with Inkscape (http://www.inkscape.org/) -->

<svg
   width="30mm"
   height="128.5mm"
   viewBox="0 0 30 128.5"
   version="1.1"
   id="svg5"
   inkscape:version="1.2.2 (b0a8486, 2022-12-01)"
   sodipodi:docname="fet_overdrive-futuristic-silkscreen-copper.svg"
   xml:space="preserve"
   xmlns:inkscape="http://www.inkscape.org/namespaces/inkscape"
   xmlns:sodipodi="http://sodipodi.sourceforge.net/DTD/sodipodi-0.dtd"
   xmlns="http://www.w3.org/2000/svg"
   xmlns:svg="http://www.w3.org/2000/svg"><sodipodi:namedview
     id="namedview7"
     pagecolor="#ffffff"
     bordercolor="#000000"
     borderopacity="0.25"
     inkscape:showpageshadow="2"
     inkscape:pageopacity="0.0"
     inkscape:pagecheckerboard="0"
     inkscape:deskcolor="#d1d1d1"
     inkscape:document-units="mm"
     showgrid="false"
     inkscape:zoom="2.1088886"
     inkscape:cx="8.7723932"
     inkscape:cy="327.66074"
     inkscape:window-width="1442"
     inkscape:window-height="878"
     inkscape:window-x="0"
     inkscape:window-y="25"
     inkscape:window-maximized="0"
     inkscape:current-layer="layer1" /><defs
     id="defs2" /><g
     inkscape:label="Layer 1"
     inkscape:groupmode="layer"
     id="layer1"><circle
       style="fill:#000000;stroke:#000000;stroke-width:0;stroke-dasharray:none"
       id="path231"
       cx="7.5000005"
       cy="125.5"
       r="1.6" /><ellipse
       style="display:inline;fill:#000000;stroke:#000000;stroke-width:0;stroke-dasharray:none"
       id="path231-9"
       cx="7.3999996"
       cy="110.3"
       rx="3.049999"
       ry="3.0499992" /><ellipse
       style="display:inline;fill:#000000;stroke:#000000;stroke-width:0;stroke-dasharray:none"
       id="path231-9-2"
       cx="22.6"
       cy="110.3"
       rx="3.049999"
       ry="3.0499992" /><circle
       style="display:inline;fill:#000000;stroke:#000000;stroke-width:0;stroke-dasharray:none"
       id="path231-9-2-7-9"
       cx="21.299999"
       cy="68.899994"
       r="3.5499995" /><ellipse
       style="fill:#000000;stroke:#000000;stroke-width:0;stroke-dasharray:none"
       id="path231-9-2-7-9-45"
       cx="23.9"
       cy="53.899998"
       rx="1.5499998"
       ry="1.5499997" /><circle
       style="display:inline;fill:#000000;stroke:#000000;stroke-width:0;stroke-dasharray:none"
       id="path231-9-2-7-9-45-5"
       cx="15"
       cy="33.099998"
       r="2.2449994" /><ellipse
       style="display:inline;fill:#000000;stroke:#000000;stroke-width:0;stroke-dasharray:none"
       id="path231-9-2-7-9-67"
       cx="4.3700004"
       cy="73.57"
       rx="1.145"
       ry="1.1449997" /><circle
       style="fill:#000000;stroke:#000000;stroke-width:0;stroke-dasharray:none"
       id="path231-9-2-7-9-6"
       cx="8.6000004"
       cy="87.399994"
       r="3.5499995" /><circle
       style="display:inline;fill:#000000;stroke:#000000;stroke-width:0;stroke-dasharray:none"
       id="path231-9-2-7-9-4"
       cx="8.6000004"
       cy="50.299995"
       r="3.5499995" /><circle
       style="display:inline;fill:#000000;stroke:#000000;stroke-width:0;stroke-dasharray:none"
       id="path231-1"
       cx="7.5000005"
       cy="2.9999967"
       r="1.6" /><text
       xml:space="preserve"
       style="font-style:normal;font-variant:normal;font-weight:bold;font-stretch:normal;font-size:2.33377px;font-family:Avenir;-inkscape-font-specification:'Avenir Bold';display:none;fill:#000000;stroke:#000000;stroke-width:0"
       x="4.853931"
       y="59.104507"
       id="text10423"><tspan
         sodipodi:role="line"
         id="tspan10421"
         style="font-style:normal;font-variant:normal;font-weight:bold;font-stretch:normal;font-family:Helvetica;-inkscape-font-specification:'Helvetica Bold';fill:#000000;stroke-width:0"
         x="4.853931"
         y="59.104507">ATTEN</tspan></text><text
       xml:space="preserve"
       style="font-style:normal;font-variant:normal;font-weight:bold;font-stretch:normal;font-size:2.20206px;font-family:Avenir;-inkscape-font-specification:'Avenir Bold';display:none;fill:#000000;stroke:#000000;stroke-width:0"
       x="18.441113"
       y="77.525421"
       id="text10545"><tspan
         sodipodi:role="line"
         id="tspan10543"
         style="font-style:normal;font-variant:normal;font-weight:bold;font-stretch:normal;font-family:Helvetica;-inkscape-font-specification:'Helvetica Bold';stroke-width:0"
         x="18.441113"
         y="77.525421">GAIN</tspan></text><text
       xml:space="preserve"
       style="font-style:normal;font-variant:normal;font-weight:bold;font-stretch:normal;font-size:2.25123px;font-family:com;-inkscape-font-specification:'com Bold';display:none;fill:#000000;stroke:#000000;stroke-width:0"
       x="3.908747"
       y="96.281059"
       id="text10549"><tspan
         sodipodi:role="line"
         id="tspan10547"
         style="font-style:normal;font-variant:normal;font-weight:bold;font-stretch:normal;font-family:Helvetica;-inkscape-font-specification:'Helvetica Bold';stroke-width:0"
         x="3.908747"
         y="96.281059">VOLUME</tspan></text><text
       xml:space="preserve"
       style="font-style:normal;font-variant:normal;font-weight:bold;font-stretch:normal;font-size:2.37338px;font-family:com;-inkscape-font-specification:'com Bold';display:none;fill:#000000;stroke:#000000;stroke-width:0"
       x="6.3814006"
       y="115.06947"
       id="text10553"
       transform="scale(0.97610076,1.0244844)"><tspan
         sodipodi:role="line"
         id="tspan10551"
         style="font-style:normal;font-variant:normal;font-weight:bold;font-stretch:normal;font-family:Helvetica;-inkscape-font-specification:'Helvetica Bold';stroke-width:0"
         x="6.3814006"
         y="115.06947">IN</tspan></text><text
       xml:space="preserve"
       style="font-style:normal;font-variant:normal;font-weight:bold;font-stretch:normal;font-size:2.31319px;font-family:com;-inkscape-font-specification:'com Bold';display:none;fill:#000000;stroke:#000000;stroke-width:0"
       x="21.670164"
       y="110.34826"
       id="text10698"
       transform="scale(0.93565221,1.0687732)"><tspan
         sodipodi:role="line"
         id="tspan10696"
         style="font-style:normal;font-variant:normal;font-weight:bold;font-stretch:normal;font-family:Helvetica;-inkscape-font-specification:'Helvetica Bold';stroke-width:0"
         x="21.670164"
         y="110.34826">OUT</tspan></text><text
       xml:space="preserve"
       style="font-style:normal;font-variant:normal;font-weight:bold;font-stretch:normal;font-size:2.10661px;font-family:Avenir;-inkscape-font-specification:'Avenir Bold';display:none;fill:#000000;stroke:#000000;stroke-width:0"
       x="5.0778556"
       y="40.823574"
       id="text10750"><tspan
         sodipodi:role="line"
         style="font-style:normal;font-variant:normal;font-weight:bold;font-stretch:normal;font-family:Helvetica;-inkscape-font-specification:'Helvetica Bold';stroke-width:0"
         x="5.0778556"
         y="40.823574"
         id="tspan11089">BYPASS</tspan></text><text
       xml:space="preserve"
       style="font-style:normal;font-variant:normal;font-weight:bold;font-stretch:normal;font-size:2.16835px;font-family:Avenir;-inkscape-font-specification:'Avenir Bold';text-align:center;text-anchor:middle;display:none;fill:#000000;stroke:#000000;stroke-width:0"
       x="21.320337"
       y="39.74509"
       id="text11095"><tspan
         sodipodi:role="line"
         id="tspan11093"
         style="font-style:normal;font-variant:normal;font-weight:bold;font-stretch:normal;font-size:2.16835px;font-family:Helvetica;-inkscape-font-specification:'Helvetica Bold';stroke-width:0"
         x="21.320337"
         y="39.74509">ON</tspan></text><path
       id="path19608"
       sodipodi:nodetypes="csccscccccsccccccccccccccccccccccccccccccccccccccccccccsssssssssssssscsc"
       style="display:none;fill:none;stroke:#000000;stroke-width:0.143312px;stroke-linecap:round;stroke-linejoin:round"
       inkscape:connector-curvature="0"
       d="m 12.873787,16.585159 c 0,0 -2.026998,0.516342 -3.2681493,-1.509284 -1.2410344,-2.025626 0.7510673,-4.109247 1.9682013,-5.2916228 m -0.708037,7.4607628 c 0,0 -3.1227685,0.842001 -3.6387691,-1.930839 -0.5160151,-2.772826 0.9818927,-4.107001 0.9818927,-4.107001 m 1.4191041,7.230747 c 0,0 -0.8914466,0.806235 -2.0493763,0.510402 C 6.4375141,18.65676 4.9541883,17.536354 5.273617,14.488999 m 4.1247867,5.045738 c 0,0 -0.6097088,1.896015 -2.6161287,1.538494 C 4.7760452,20.715849 4.5699667,19.435036 4.0938948,18.183852 m 5.5358899,2.977565 c 0,0 -1.8108284,4.379565 -5.3480938,0.312263 m 6.1655341,0.626069 c 0,0 0.237904,3.688955 -4.3036616,2.530312 M 11.31527,22.363888 c 0,0 1.094672,3.78964 -3.5583274,3.457958 m 4.5673644,-3.503035 c 0,0 1.89639,1.741406 -1.300444,4.105736 m 2.087697,-4.460731 c 0,0 2.073655,0.668465 0.473293,3.702018 m 0.09571,-4.393748 c 0,0 2.167993,0.08623 1.714884,3.086534 m -1.558094,-3.671403 c 0,0 2.030948,-0.922028 2.498681,2.016779 m -2.575468,-2.767069 c 0,0 1.577254,-1.303702 2.992892,0.870325 M 13.45825,19.412695 c 0,0 0.502253,-1.604633 3.036036,-0.423058 m -3.485196,0.13887 c 0,0 0.145828,-1.965523 2.777306,-1.305387 m -3.271661,1.265549 c 0,0 -0.666281,-1.695347 1.925496,-2.222782 m -2.351839,2.302402 c 0,0 -1.230621,-0.93336 0.786082,-2.581707 m -1.164366,2.760749 c 0,0 -1.479259,-0.527982 -0.302227,-2.369245 m -0.0149,2.687027 c 0,0 -1.387834,-0.07376 -1.173535,-1.963419 m 1.062333,2.360117 c 0,0 -1.5273783,0.488524 -1.6531603,-1.622466 m 1.6964543,1.917358 c 0,0 -0.956692,0.982565 -1.9323693,-0.376057 m 2.1034933,0.743802 c 0,0 -0.901496,1.189312 -1.9437783,0.22857 m 2.2254723,-0.0148 c 0,0 -0.510458,1.522204 -1.9098463,0.650559 m 2.3237573,-0.67307 c 0,0 0.04363,1.461822 -1.239921,1.376304 m 5.731144,-0.839684 c 0,0 1.362372,0.436468 2.210409,0.476194 0.84805,0.03974 3.80594,0 4.405747,0.09928 0.599837,0.0993 2.291289,0.386364 2.291289,0.386364 m 0.0045,0.03075 c 0,0 -0.103421,-3.852692 -0.744632,-5.481056 -0.640593,-1.62892 -1.839915,-4.488669 -4.468183,-5.898672 -2.626804,-1.4098648 -4.901419,-1.8666658 -6.949186,-1.6483058 -2.047768,0.218445 -5.0261791,1.3106818 -6.2465613,2.6015078 -1.2203674,1.290825 -2.8543837,3.43563 -3.0405709,5.540735 -0.1861581,2.105108 -0.2143714,4.812636 1.5305968,6.61302 1.7714846,1.827769 3.3093941,2.402947 5.0261784,2.283728 1.716785,-0.11915 4.012753,-1.03267 4.943541,-2.422748 0.930353,-1.390204 1.468585,-3.35615 0.848448,-5.044054 -0.620868,-1.688045 -2.379043,-2.522168 -3.620048,-2.402947 -1.241048,0.119155 -3.1439763,0.973087 -3.3921773,2.283727 -0.248201,1.310695 -0.04134,2.879547 1.1996873,3.336349 1.241048,0.456761 2.564792,0.03974 2.999179,-0.933374 0.43436,-0.973088 -0.02068,-2.124907 -0.889412,-2.184446 -0.868733,-0.05959 -1.530597,0.436889 -1.509975,0.973087 0.02068,0.536197 0.351634,1.072394 0.910094,0.85395 0.558473,-0.218459 0.475736,-0.635492 0.227521,-0.814225" /><g
       id="g1472"
       transform="matrix(0.03392151,0,0,0.03392151,16.05104,43.808341)"
       style="display:inline"><path
         d="m 167,142 c 4.142,0 7.5,-3.358 7.5,-7.5 v -8 c 0,-4.142 -3.358,-7.5 -7.5,-7.5 -4.142,0 -7.5,3.358 -7.5,7.5 v 8 c 0,4.142 3.357,7.5 7.5,7.5 z"
         id="path1460" /><path
         d="m 295,142 c 4.142,0 7.5,-3.358 7.5,-7.5 v -8 c 0,-4.142 -3.358,-7.5 -7.5,-7.5 -4.142,0 -7.5,3.358 -7.5,7.5 v 8 c 0,4.142 3.357,7.5 7.5,7.5 z"
         id="path1462" /><path
         d="m 382.5,336.234 v -67.468 c 9.29,-3.138 16,-11.93 16,-22.266 0,-12.958 -10.542,-23.5 -23.5,-23.5 h -34.11 c 10.826,-10.135 17.61,-24.536 17.61,-40.5 v -80 C 358.5,71.897 333.603,47 303,47 H 278.5 V 26.886 c 4.188,-2.546 7,-7.138 7,-12.386 C 285.5,6.505 278.995,0 271,0 c -7.995,0 -14.5,6.505 -14.5,14.5 0,5.248 2.812,9.84 7,12.386 V 47 h -65 V 26.886 c 4.188,-2.546 7,-7.138 7,-12.386 C 205.5,6.505 198.995,0 191,0 c -7.995,0 -14.5,6.505 -14.5,14.5 0,5.248 2.812,9.84 7,12.386 V 47 H 159 c -30.603,0 -55.5,24.897 -55.5,55.5 v 80 c 0,15.964 6.784,30.365 17.61,40.5 H 87 c -12.958,0 -23.5,10.542 -23.5,23.5 0,10.336 6.71,19.128 16,22.266 v 67.468 c -9.29,3.138 -16,11.93 -16,22.266 v 16 c 0,4.142 3.358,7.5 7.5,7.5 4.142,0 7.5,-3.358 7.5,-7.5 v -16 c 0,-4.687 3.813,-8.5 8.5,-8.5 4.687,0 8.5,3.813 8.5,8.5 v 16 c 0,4.142 3.358,7.5 7.5,7.5 4.142,0 7.5,-3.358 7.5,-7.5 v -16 c 0,-10.336 -6.71,-19.128 -16,-22.266 V 270 h 33 v 72.5 c 0,12.958 10.542,23.5 23.5,23.5 h 9.409 c 1.245,5.075 3.72,9.669 7.093,13.449 0,0.017 -0.003,0.034 -0.003,0.051 V 415 H 159 c -21.78,0 -39.5,17.72 -39.5,39.5 0,4.142 3.358,7.5 7.5,7.5 h 88 c 4.142,0 7.5,-3.358 7.5,-7.5 v -32 c 0,-4.142 -3.358,-7.5 -7.5,-7.5 h -0.5 v -35.5 c 0,-0.017 -0.002,-0.034 -0.003,-0.051 3.374,-3.78 5.849,-8.375 7.093,-13.449 h 18.819 c 1.245,5.075 3.72,9.669 7.093,13.449 0,0.017 -0.003,0.034 -0.003,0.051 V 415 H 247 c -4.142,0 -7.5,3.358 -7.5,7.5 v 32 c 0,4.142 3.358,7.5 7.5,7.5 h 88 c 4.142,0 7.5,-3.358 7.5,-7.5 0,-21.78 -17.72,-39.5 -39.5,-39.5 h -8.5 v -35.5 c 0,-0.017 -0.002,-0.034 -0.003,-0.051 3.374,-3.78 5.849,-8.375 7.093,-13.449 H 311 c 12.958,0 23.5,-10.542 23.5,-23.5 V 270 h 33 v 66.234 c -9.29,3.138 -16,11.93 -16,22.266 v 16 c 0,4.142 3.358,7.5 7.5,7.5 4.142,0 7.5,-3.358 7.5,-7.5 v -16 c 0,-4.687 3.813,-8.5 8.5,-8.5 4.687,0 8.5,3.813 8.5,8.5 v 16 c 0,4.142 3.358,7.5 7.5,7.5 4.142,0 7.5,-3.358 7.5,-7.5 v -16 c 0,-10.336 -6.71,-19.128 -16,-22.266 z M 375,255 c -4.687,0 -8.5,-3.813 -8.5,-8.5 0,-4.687 3.813,-8.5 8.5,-8.5 4.687,0 8.5,3.813 8.5,8.5 0,4.687 -3.813,8.5 -8.5,8.5 z M 118.5,102.5 C 118.5,80.168 136.668,62 159,62 h 144 c 22.332,0 40.5,18.168 40.5,40.5 v 48 c 0,8.239 -16.171,16.553 -30.019,21.169 C 291.56,178.976 262.268,183 231,183 199.732,183 170.439,178.976 148.519,171.669 134.671,167.053 118.5,158.739 118.5,150.5 Z m 0,80 v -8.518 c 5.971,4.143 14.148,8.208 25.275,11.918 23.41,7.803 54.387,12.1 87.225,12.1 32.838,0 63.815,-4.297 87.225,-12.101 11.128,-3.709 19.304,-7.775 25.275,-11.918 v 8.518 c 0,22.332 -18.168,40.5 -40.5,40.5 H 159 C 136.668,223 118.5,204.832 118.5,182.5 Z M 87,238 c 4.687,0 8.5,3.813 8.5,8.5 0,4.687 -3.813,8.5 -8.5,8.5 -4.687,0 -8.5,-3.813 -8.5,-8.5 0,-4.687 3.813,-8.5 8.5,-8.5 z m 21.903,17 c 1.027,-2.638 1.597,-5.503 1.597,-8.5 0,-2.997 -0.57,-5.862 -1.597,-8.5 H 127.5 v 17 z M 207.5,447 h -71.826 c 3.175,-9.853 12.432,-17 23.326,-17 h 48.5 z m -25,-32 v -26.175 c 2.706,0.76 5.555,1.175 8.5,1.175 2.945,0 5.794,-0.415 8.5,-1.175 V 415 Z m 8.5,-40 c -6.396,0 -11.942,-3.666 -14.679,-9 h 29.357 c -2.737,5.334 -8.282,9 -14.678,9 z m 135.326,72 H 254.5 V 430 H 303 c 10.894,0 20.151,7.147 23.326,17 z M 262.5,415 v -26.175 c 2.706,0.76 5.555,1.175 8.5,1.175 2.945,0 5.794,-0.415 8.5,-1.175 V 415 Z m 8.5,-40 c -6.396,0 -11.942,-3.666 -14.679,-9 h 29.357 c -2.737,5.334 -8.282,9 -14.678,9 z m 48.5,-32.5 c 0,4.687 -3.813,8.5 -8.5,8.5 H 151 c -4.687,0 -8.5,-3.813 -8.5,-8.5 V 235.496 c 5.215,1.627 10.757,2.504 16.5,2.504 h 144 c 5.743,0 11.286,-0.877 16.5,-2.504 z m 15,-104.5 h 18.597 c -1.027,2.638 -1.597,5.503 -1.597,8.5 0,2.997 0.57,5.862 1.597,8.5 H 334.5 Z"
         id="path1464" /><path
         d="m 231,263 c -17.369,0 -31.5,14.131 -31.5,31.5 0,17.369 14.13,31.5 31.5,31.5 17.37,0 31.5,-14.131 31.5,-31.5 0,-17.369 -14.131,-31.5 -31.5,-31.5 z m 0,48 c -9.098,0 -16.5,-7.402 -16.5,-16.5 0,-9.098 7.401,-16.5 16.5,-16.5 9.099,0 16.5,7.402 16.5,16.5 0,9.098 -7.402,16.5 -16.5,16.5 z"
         id="path1466" /><path
         d="m 175,271 c -4.142,0 -7.5,3.358 -7.5,7.5 v 32 c 0,4.142 3.358,7.5 7.5,7.5 4.142,0 7.5,-3.358 7.5,-7.5 v -32 c 0,-4.142 -3.358,-7.5 -7.5,-7.5 z"
         id="path1468" /><path
         d="m 287,271 c -4.142,0 -7.5,3.358 -7.5,7.5 v 32 c 0,4.142 3.358,7.5 7.5,7.5 4.142,0 7.5,-3.358 7.5,-7.5 v -32 c 0,-4.142 -3.358,-7.5 -7.5,-7.5 z"
         id="path1470" /></g><path
       style="display:inline;fill:none;fill-opacity:1;stroke:#000000;stroke-width:0.36299;stroke-dasharray:none"
       d="M 28,41.999484 V 1.9999973 H 17 l -5,4.5 H 2 V 122.5 H 28 V 61.886258"
       id="path1633"
       sodipodi:nodetypes="cccccccc" /><path
       style="display:none;fill:none;fill-opacity:1;stroke:#000000;stroke-width:0.365001;stroke-dasharray:none"
       d="m 16.914723,33.063714 h 4.500248 v 3.801933"
       id="path1832" /><path
       style="display:none;fill:none;fill-opacity:1;stroke:#000000;stroke-width:0.365001;stroke-dasharray:none"
       d="M 12.957609,33.141303 H 9.0780853 v 4.655428"
       id="path1834" /><path
       style="display:none;fill:none;fill-opacity:1;stroke:#000000;stroke-width:0.365001;stroke-linejoin:bevel;stroke-dasharray:none"
       d="M 12,87.499997 H 22.5 V 107.40446"
       id="path1879"
       sodipodi:nodetypes="ccc" /></g></svg>
